<?xml version="1.0" encoding="utf-8"?>
<!-- Generator: Adobe Illustrator 15.1.0, SVG Export Plug-In . SVG Version: 6.00 Build 0)  -->
<!DOCTYPE svg PUBLIC "-//W3C//DTD SVG 1.1//EN" "http://www.w3.org/Graphics/SVG/1.1/DTD/svg11.dtd">
<svg version="1.1" id="Layer_1" xmlns="http://www.w3.org/2000/svg" xmlns:xlink="http://www.w3.org/1999/xlink" x="0px" y="0px"
	 width="14.172px" height="14.172px" viewBox="0 0 14.172 14.172" enable-background="new 0 0 14.172 14.172" xml:space="preserve">
<g enable-background="new    ">
	<path d="M6.14,5.216L5.378,6.54L2.479,4.856l0.762-1.31L6.14,5.216z M6.14,7.936l-2.899,1.67L2.479,8.29l2.899-1.683L6.14,7.936z
		 M7.717,5.184H6.2V1.836h1.518L7.717,5.184L7.717,5.184z M7.717,11.329H6.2V7.975h1.518L7.717,11.329L7.717,11.329z M11.438,4.856
		L8.54,6.54L7.771,5.216l2.898-1.67L11.438,4.856z M11.438,8.29L10.67,9.605l-2.898-1.67l0.769-1.33L11.438,8.29z"/>
</g>
</svg>
