<?xml version="1.0" encoding="utf-8"?>
<!-- Generator: Adobe Illustrator 15.1.0, SVG Export Plug-In . SVG Version: 6.00 Build 0)  -->
<!DOCTYPE svg PUBLIC "-//W3C//DTD SVG 1.1//EN" "http://www.w3.org/Graphics/SVG/1.1/DTD/svg11.dtd">
<svg version="1.1" id="Layer_1" xmlns="http://www.w3.org/2000/svg" xmlns:xlink="http://www.w3.org/1999/xlink" x="0px" y="0px"
	 width="14.172px" height="14.172px" viewBox="0 0 14.172 14.172" enable-background="new 0 0 14.172 14.172" xml:space="preserve">
<g enable-background="new    ">
	<path d="M11.277,6.568c0,2.59-1.988,4.669-4.534,4.669c-2.561,0-4.579-2.079-4.579-4.669c0-2.561,2.019-4.639,4.594-4.639
		C9.289,1.929,11.277,4.008,11.277,6.568z M2.917,6.613c0,2.245,1.657,4.008,3.826,4.008c2.124,0.029,3.781-1.763,3.781-4.052
		c0-2.245-1.657-4.021-3.796-4.021C4.574,2.547,2.917,4.323,2.917,6.613z M8.581,4.851C8.385,4.745,7.828,4.504,7.12,4.504
		c-1.416,0-2.109,0.904-2.109,2.109c0,1.177,0.738,2.125,2.124,2.125c0.602,0,1.174-0.165,1.521-0.392l0.181,0.572
		c-0.527,0.346-1.22,0.466-1.853,0.466c-1.747,0-2.756-1.205-2.756-2.726c0-1.717,1.356-2.802,2.877-2.802
		c0.783,0,1.447,0.226,1.657,0.406L8.581,4.851z"/>
</g>
</svg>
