<?xml version="1.0" encoding="utf-8"?>
<!-- Generator: Adobe Illustrator 15.1.0, SVG Export Plug-In . SVG Version: 6.00 Build 0)  -->
<!DOCTYPE svg PUBLIC "-//W3C//DTD SVG 1.1//EN" "http://www.w3.org/Graphics/SVG/1.1/DTD/svg11.dtd">
<svg version="1.1" id="Layer_1" xmlns="http://www.w3.org/2000/svg" xmlns:xlink="http://www.w3.org/1999/xlink" x="0px" y="0px"
	 width="14.172px" height="14.172px" viewBox="0 0 14.172 14.172" enable-background="new 0 0 14.172 14.172" xml:space="preserve">
<g>
	<path d="M4.383,8.764V8.4V8.254l0.023-0.205l0.006-0.164c0-0.035,0-0.07,0-0.105c0.012-0.035,0.02-0.061,0.023-0.076l0.076-0.387
		c0.016-0.157,0.039-0.301,0.07-0.434c0.012-0.059,0.025-0.117,0.041-0.176s0.035-0.113,0.059-0.165
		c0.07-0.273,0.154-0.516,0.252-0.727c0.371-1.02,0.961-1.825,1.77-2.416C6.906,3.262,7.119,3.15,7.342,3.064L7.67,2.982
		l0.164-0.029h0.193H8.25l0.176,0.029C8.48,2.986,8.572,3.016,8.701,3.07c0.23,0.078,0.436,0.205,0.615,0.381
		C9.398,3.533,9.51,3.75,9.65,4.102c0.023,0.07,0.035,0.131,0.035,0.182c0,0.184-0.129,0.275-0.387,0.275
		c-0.152,0-0.236-0.057-0.252-0.171L9.018,4.046C8.791,3.688,8.479,3.51,8.08,3.51H7.945c-0.207,0-0.408,0.042-0.604,0.126
		C7.146,3.72,6.971,3.834,6.814,3.979c-0.23,0.204-0.463,0.454-0.697,0.751C5.922,4.989,5.738,5.279,5.566,5.6L5.373,6.04
		L5.168,6.568C5.066,6.877,4.971,7.234,4.881,7.637C4.822,7.953,4.793,8.303,4.793,8.682v0.3L4.834,9.21
		C4.869,9.406,4.92,9.566,4.986,9.691l0.317-0.574l0.176-0.299l0.217-0.352l0.234-0.357l0.235-0.328l0.258-0.305l0.299-0.322
		C7.094,6.783,7.507,6.51,7.96,6.334l0.235-0.053L8.43,6.24c0.293,0,0.593,0.105,0.897,0.316c0.614,0.406,0.921,0.969,0.921,1.688
		v0.123l-0.012,0.129c-0.07,0.824-0.33,1.551-0.778,2.18c-0.074,0.102-0.117,0.158-0.129,0.17c-0.043,0.047-0.074,0.08-0.094,0.1
		c-0.07,0.086-0.156,0.178-0.258,0.275c-0.156,0.156-0.372,0.34-0.649,0.551c-0.484,0.355-0.976,0.533-1.476,0.533
		c-0.433,0-0.802-0.152-1.105-0.457c-0.137-0.145-0.273-0.311-0.41-0.498C5.22,11.189,5.099,11,4.975,10.781
		c-0.082,0-0.205-0.238-0.369-0.716L4.383,9.151V8.764z"/>
</g>
</svg>
