<?xml version="1.0" encoding="utf-8"?>
<!-- Generator: Adobe Illustrator 15.1.0, SVG Export Plug-In . SVG Version: 6.00 Build 0)  -->
<!DOCTYPE svg PUBLIC "-//W3C//DTD SVG 1.1//EN" "http://www.w3.org/Graphics/SVG/1.1/DTD/svg11.dtd">
<svg version="1.1" id="Layer_1" xmlns="http://www.w3.org/2000/svg" xmlns:xlink="http://www.w3.org/1999/xlink" x="0px" y="0px"
	 width="14.172px" height="14.172px" viewBox="0 0 14.172 14.172" enable-background="new 0 0 14.172 14.172" xml:space="preserve">
<g enable-background="new    ">
	<path d="M12.523,12.033c0,0.092-0.034,0.171-0.099,0.236s-0.144,0.098-0.235,0.098H2.711c-0.092,0-0.171-0.032-0.236-0.098
		c-0.065-0.065-0.098-0.145-0.098-0.236V2.555c0-0.092,0.033-0.172,0.098-0.241C2.54,2.245,2.619,2.209,2.711,2.209h9.478
		c0.092,0,0.171,0.035,0.235,0.104c0.064,0.069,0.099,0.149,0.099,0.241V12.033z M11.855,11.7V2.888H3.044V11.7H11.855z
		 M11.625,7.294c0,0.092-0.03,0.168-0.093,0.23l-3.842,3.853c-0.068,0.062-0.149,0.092-0.241,0.092c-0.092,0-0.173-0.03-0.242-0.092
		L3.366,7.524c-0.061-0.062-0.092-0.138-0.092-0.23c0-0.092,0.031-0.173,0.092-0.242L7.208,3.21C7.277,3.15,7.357,3.118,7.45,3.118
		c0.092,0,0.173,0.032,0.241,0.092l3.842,3.842C11.595,7.121,11.625,7.202,11.625,7.294z M10.901,7.294L7.45,3.843L3.999,7.294
		l3.451,3.45L10.901,7.294z"/>
</g>
</svg>
