<?xml version="1.0" encoding="utf-8"?>
<!-- Generator: Adobe Illustrator 15.1.0, SVG Export Plug-In . SVG Version: 6.00 Build 0)  -->
<!DOCTYPE svg PUBLIC "-//W3C//DTD SVG 1.1//EN" "http://www.w3.org/Graphics/SVG/1.1/DTD/svg11.dtd">
<svg version="1.1" id="Layer_1" xmlns="http://www.w3.org/2000/svg" xmlns:xlink="http://www.w3.org/1999/xlink" x="0px" y="0px"
	 width="14.172px" height="14.172px" viewBox="0 0 14.172 14.172" enable-background="new 0 0 14.172 14.172" xml:space="preserve">
<g enable-background="new    ">
	<path d="M11.714,6.661l-1.247-0.719L9.836,7.043c0.86,0.626,1.291,1.478,1.291,2.554c0,0.89-0.309,1.643-0.925,2.26
		c-0.616,0.616-1.364,0.924-2.245,0.924c-0.705,0-1.336-0.205-1.893-0.616c-0.558-0.411-0.94-0.938-1.145-1.585
		c-0.186,0.029-0.372,0.044-0.558,0.044c-0.88,0-1.629-0.308-2.246-0.925C1.5,9.082,1.192,8.333,1.192,7.454
		c0-0.89,0.308-1.642,0.924-2.253C2.732,4.59,3.481,4.284,4.362,4.284c0.45,0,0.875,0.088,1.277,0.265l0.646-1.116L5.022,2.729
		l2.7-1.102l0.411,2.892L6.886,3.785l-0.63,1.101c0.547,0.411,0.924,0.939,1.13,1.586c0.195-0.029,0.387-0.045,0.572-0.045
		c0.44,0,0.86,0.088,1.262,0.264L9.866,5.59L8.603,4.871l2.716-1.086L11.714,6.661z M6.725,6.675C6.558,6.167,6.26,5.757,5.83,5.443
		c-0.431-0.313-0.92-0.47-1.468-0.47c-0.685,0-1.267,0.243-1.747,0.727C2.136,6.184,1.896,6.77,1.896,7.454
		c0,0.685,0.24,1.266,0.719,1.746c0.48,0.48,1.062,0.72,1.747,0.72c0.146,0,0.288-0.011,0.426-0.029
		c-0.01-0.108-0.015-0.205-0.015-0.293c0-0.656,0.181-1.248,0.542-1.776C5.668,7.303,6.138,6.921,6.725,6.675z M6.842,7.454V7.38
		C6.431,7.585,6.101,7.887,5.851,8.283C5.602,8.678,5.477,9.118,5.477,9.597v0.072c0.411-0.206,0.741-0.506,0.991-0.902
		S6.842,7.933,6.842,7.454z M10.422,9.597c0-0.686-0.239-1.268-0.719-1.747S8.642,7.131,7.958,7.131
		c-0.147,0-0.289,0.009-0.425,0.029c0.009,0.117,0.015,0.215,0.015,0.293c0,0.656-0.179,1.248-0.537,1.775
		c-0.357,0.528-0.829,0.915-1.416,1.159c0.167,0.499,0.465,0.906,0.895,1.22c0.431,0.312,0.92,0.469,1.468,0.469
		c0.685,0,1.267-0.24,1.746-0.719C10.183,10.878,10.422,10.291,10.422,9.597z"/>
</g>
</svg>
