<?xml version="1.0" encoding="utf-8"?>
<!-- Generator: Adobe Illustrator 15.1.0, SVG Export Plug-In . SVG Version: 6.00 Build 0)  -->
<!DOCTYPE svg PUBLIC "-//W3C//DTD SVG 1.1//EN" "http://www.w3.org/Graphics/SVG/1.1/DTD/svg11.dtd">
<svg version="1.1" id="Layer_1" xmlns="http://www.w3.org/2000/svg" xmlns:xlink="http://www.w3.org/1999/xlink" x="0px" y="0px"
	 width="14.172px" height="14.172px" viewBox="0 0 14.172 14.172" enable-background="new 0 0 14.172 14.172" xml:space="preserve">
<g enable-background="new    ">
	<path d="M10.532,8.811c0,2.033-1.368,3.051-4.104,3.051s-4.104-1.018-4.104-3.051c0-1.17,0.5-2.05,1.501-2.639
		c-0.46-0.468-0.69-1.021-0.69-1.659c0-0.436,0.097-0.815,0.291-1.138c0.558-0.913,1.558-1.368,3.003-1.368
		c0.896,0,1.639,0.188,2.228,0.569C9.357,3.02,9.708,3.665,9.708,4.513c0,0.654-0.227,1.206-0.678,1.659
		C10.03,6.728,10.532,7.608,10.532,8.811z M9.951,8.811c0-0.573-0.15-1.058-0.448-1.453C9.316,7.108,9.046,6.87,8.691,6.644
		C8.393,6.458,8.243,6.333,8.243,6.269c0-0.033,0.15-0.246,0.448-0.643C8.99,5.231,9.139,4.86,9.139,4.513
		c0-0.669-0.303-1.171-0.908-1.501C7.747,2.738,7.146,2.6,6.427,2.6c-0.719,0-1.32,0.138-1.804,0.412
		c-0.605,0.33-0.908,0.832-0.908,1.501c0,0.347,0.149,0.718,0.448,1.113c0.299,0.396,0.448,0.609,0.448,0.643
		c0,0.064-0.149,0.188-0.448,0.375C3.808,6.87,3.538,7.108,3.352,7.358c-0.299,0.396-0.448,0.88-0.448,1.453
		c0,0.952,0.371,1.627,1.114,2.021c0.557,0.291,1.359,0.437,2.409,0.437c1.049,0,1.852-0.146,2.409-0.437
		C9.579,10.438,9.951,9.763,9.951,8.811z M5.822,4.524c0,0.121-0.053,0.235-0.157,0.339C5.559,4.97,5.446,5.022,5.325,5.022
		c-0.137,0-0.254-0.051-0.351-0.152C4.877,4.77,4.829,4.655,4.829,4.524c0-0.136,0.048-0.255,0.146-0.357
		c0.097-0.101,0.209-0.15,0.338-0.15c0.137,0,0.256,0.05,0.357,0.15C5.771,4.27,5.822,4.388,5.822,4.524z M8.026,4.524
		c0,0.121-0.052,0.235-0.152,0.339C7.773,4.97,7.659,5.022,7.529,5.022c-0.129,0-0.244-0.051-0.345-0.152
		C7.083,4.77,7.033,4.655,7.033,4.524c0-0.128,0.05-0.246,0.151-0.351c0.101-0.104,0.211-0.157,0.333-0.157
		c0.137,0,0.256,0.05,0.357,0.15C7.974,4.27,8.026,4.388,8.026,4.524z"/>
</g>
</svg>
