<?xml version="1.0" encoding="utf-8"?>
<!-- Generator: Adobe Illustrator 15.1.0, SVG Export Plug-In . SVG Version: 6.00 Build 0)  -->
<!DOCTYPE svg PUBLIC "-//W3C//DTD SVG 1.1//EN" "http://www.w3.org/Graphics/SVG/1.1/DTD/svg11.dtd">
<svg version="1.1" id="Layer_1" xmlns="http://www.w3.org/2000/svg" xmlns:xlink="http://www.w3.org/1999/xlink" x="0px" y="0px"
	 width="14.172px" height="14.172px" viewBox="0 0 14.172 14.172" enable-background="new 0 0 14.172 14.172" xml:space="preserve">
<g enable-background="new    ">
	<path d="M10.832,9.907c0,0.482-0.189,0.966-0.567,1.447c-0.327,0.414-0.725,0.759-1.193,1.034c-0.47,0.276-1.074,0.413-1.813,0.413
		c-1.015,0-1.892-0.317-2.632-0.956C3.852,11.182,3.464,10.35,3.464,9.35c0-0.388,0.091-0.731,0.271-1.032
		c0.025-0.044,0.189-0.26,0.49-0.647c0.181-0.232,0.271-0.448,0.271-0.646c0-0.361-0.258-0.848-0.774-1.46h0.039
		C4.08,5.547,4.43,5.691,4.813,5.997c0.382,0.305,0.6,0.613,0.651,0.922c0.069-0.181,0.104-0.34,0.104-0.478
		c0-0.078-0.123-0.359-0.368-0.845C4.955,5.11,4.832,4.76,4.832,4.545c0-0.421,0.176-0.822,0.529-1.2
		c0.215-0.232,0.563-0.513,1.045-0.839C6.217,2.928,6.122,3.293,6.122,3.603c0,0.181,0.116,0.409,0.349,0.685
		c0.189,0.189,0.378,0.382,0.567,0.58c0.232,0.259,0.405,0.512,0.516,0.762c0.069-0.112,0.104-0.245,0.104-0.4
		c0-0.094-0.021-0.238-0.064-0.431C7.55,4.602,7.529,4.459,7.529,4.364c0-0.378,0.142-0.757,0.426-1.135
		c0.267-0.353,0.58-0.606,0.941-0.762C8.612,3.156,8.47,3.625,8.47,3.874c0,0.224,0.129,0.49,0.388,0.799
		c0.258,0.31,0.387,0.667,0.387,1.071c0,0.164-0.076,0.448-0.227,0.851C8.868,7,8.793,7.305,8.793,7.513
		c0,0.033,0.004,0.064,0.012,0.089c0.688-0.843,0.998-1.557,0.93-2.142c0.387,0.483,0.58,0.935,0.58,1.358
		c0,0.137-0.043,0.337-0.129,0.6c-0.086,0.264-0.129,0.464-0.129,0.601c0,0.371,0.129,0.71,0.387,1.015
		C10.703,9.34,10.832,9.63,10.832,9.907z M10.432,9.855c0-0.225-0.13-0.492-0.388-0.803c-0.259-0.311-0.387-0.62-0.387-0.931
		c0-0.025,0.026-0.152,0.077-0.381c0.051-0.228,0.107-0.567,0.168-1.017c-0.361,0.328-0.606,0.71-0.736,1.149
		C9.124,8.002,9.051,8.449,8.948,9.214C8.785,9.111,8.638,8.897,8.508,8.57c-0.119-0.302-0.18-0.559-0.18-0.774
		c0-0.025,0.039-0.185,0.115-0.478c0.268-1.048,0.4-1.582,0.4-1.599c0-0.268-0.115-0.572-0.348-0.917
		C8.229,4.408,8.066,4.076,8.006,3.81C7.937,4.024,7.903,4.205,7.903,4.352c0,0.085,0.021,0.218,0.064,0.399S8.032,5.07,8.032,5.164
		c0,0.25-0.082,0.508-0.245,0.774C7.631,6.17,7.477,6.402,7.322,6.635C7.296,6.419,7.269,6.198,7.238,5.97
		c-0.03-0.227-0.114-0.431-0.252-0.612C6.686,5.074,6.294,4.63,5.812,4.028C5.752,3.943,5.718,3.758,5.71,3.474
		C5.374,3.827,5.207,4.175,5.207,4.52c0,0.249,0.121,0.578,0.361,0.987c0.241,0.407,0.361,0.736,0.361,0.987
		c0,0.506-0.262,0.997-0.787,1.47L5.077,7.899C5.069,7.65,5.064,7.405,5.064,7.164c-0.018-0.276-0.112-0.49-0.284-0.646
		c0.051,0.363,0.077,0.57,0.077,0.62c0,0.199-0.181,0.525-0.542,0.977C3.955,8.568,3.774,8.95,3.774,9.259
		c0,0.88,0.34,1.63,1.021,2.25c0.681,0.621,1.465,0.931,2.353,0.931c0.422,0,0.884-0.077,1.384-0.232
		c0.456-0.146,0.887-0.456,1.293-0.931C10.229,10.802,10.432,10.328,10.432,9.855z M9.553,9.487L9.502,10.26
		c-0.018,0.326-0.224,0.64-0.619,0.941c-0.353,0.267-0.71,0.435-1.07,0.504c-0.388,0.068-0.671,0.104-0.852,0.104
		c-0.517,0-0.977-0.135-1.381-0.4c-0.473-0.301-0.709-0.693-0.709-1.175c0-0.197,0.051-0.401,0.155-0.613
		c0.103-0.21,0.155-0.366,0.155-0.47c0-0.044-0.013-0.102-0.039-0.174C5.116,8.904,5.103,8.845,5.103,8.802
		c0.138,0.026,0.271,0.099,0.4,0.22c0.129,0.12,0.193,0.249,0.193,0.386c0,0.07-0.03,0.177-0.09,0.323
		c-0.06,0.146-0.09,0.258-0.09,0.335c0,0.087,0.021,0.151,0.064,0.194c0.035-0.12,0.134-0.305,0.297-0.556
		C6.041,9.542,6.2,9.339,6.354,9.098C6.543,8.806,6.639,8.58,6.639,8.416c0-0.155-0.058-0.346-0.174-0.574
		C6.348,7.614,6.29,7.434,6.29,7.305c0-0.042,0.021-0.116,0.064-0.218c0.06,0.121,0.232,0.361,0.517,0.722
		c0.24,0.293,0.382,0.538,0.425,0.735C7.399,8.32,7.485,8.05,7.554,7.731c0.034,0.043,0.082,0.171,0.142,0.381
		c0.061,0.211,0.091,0.352,0.091,0.42c0,0.077-0.013,0.201-0.038,0.374C7.722,9.078,7.709,9.207,7.709,9.292
		c0,0.181,0.051,0.396,0.154,0.646c0.111,0.276,0.236,0.456,0.374,0.542c0.087-0.181,0.2-0.311,0.343-0.394
		c0.142-0.081,0.297-0.165,0.464-0.251C9.212,9.749,9.381,9.632,9.553,9.487z"/>
</g>
</svg>
