<?xml version="1.0" encoding="utf-8"?>
<!-- Generator: Adobe Illustrator 15.1.0, SVG Export Plug-In . SVG Version: 6.00 Build 0)  -->
<!DOCTYPE svg PUBLIC "-//W3C//DTD SVG 1.1//EN" "http://www.w3.org/Graphics/SVG/1.1/DTD/svg11.dtd">
<svg version="1.1" id="Layer_1" xmlns="http://www.w3.org/2000/svg" xmlns:xlink="http://www.w3.org/1999/xlink" x="0px" y="0px"
	 width="14.172px" height="14.172px" viewBox="0 0 14.172 14.172" enable-background="new 0 0 14.172 14.172" xml:space="preserve">
<g enable-background="new    ">
	<path d="M5.197,12.311l0.177-1.305c-0.295-0.443-0.536-0.918-0.724-1.426c0.029-0.213,0.085-0.51,0.167-0.891
		C4.67,8.549,4.561,8.415,4.486,8.282c-0.073-0.133-0.11-0.266-0.11-0.396c0-0.232,0.132-0.447,0.397-0.645
		c-0.094-0.13-0.141-0.267-0.141-0.412c0-0.449,0.265-0.763,0.794-0.94C5.409,5.795,5.4,5.707,5.4,5.62
		c0-0.444,0.093-0.778,0.278-1.003C5.863,4.392,6.141,4.28,6.512,4.28c0.341,0,0.597,0.11,0.768,0.33
		c0.17,0.22,0.256,0.549,0.256,0.988c0,0.053-0.002,0.115-0.003,0.185C7.53,5.853,7.525,5.931,7.517,6.018
		c0.149-0.222,0.265-0.379,0.346-0.471V3.368c0-0.903,0.116-1.523,0.351-1.861S8.872,1,9.487,1h0.158l0.529,6.676
		c-0.395,1.227-0.918,2.629-1.571,4.207c-0.022,0.049-0.079,0.195-0.167,0.441c-0.211,0.072-0.456,0.125-0.729,0.16
		c-0.274,0.033-0.578,0.051-0.914,0.051C6.241,12.536,5.709,12.459,5.197,12.311z M5.224,7.452C4.947,7.529,4.809,7.67,4.809,7.879
		c0,0.062,0.011,0.123,0.035,0.182C4.868,8.118,4.9,8.176,4.941,8.233L5.224,7.452z M5.524,6.459L5.488,6.314
		C5.206,6.426,5.065,6.606,5.065,6.857c0,0.106,0.073,0.216,0.22,0.326L5.524,6.459z M5.665,12.043
		c0.341,0.076,0.748,0.115,1.218,0.115c0.211,0,0.42-0.01,0.625-0.029c0.207-0.02,0.408-0.049,0.602-0.086
		c0.605-1.531,1.145-2.996,1.614-4.396L9.239,1.391C8.603,1.478,8.286,1.997,8.286,2.948l0.01,0.384V5.7
		c-0.25,0.261-0.489,0.615-0.717,1.064c0.23,0.531,0.391,1.064,0.479,1.6L7.641,8.516c-0.184-0.821-0.42-1.514-0.709-2.078
		c0.051-0.141,0.09-0.277,0.115-0.413C7.073,5.89,7.086,5.754,7.086,5.62c0-0.314-0.051-0.55-0.15-0.71
		c-0.1-0.159-0.25-0.239-0.45-0.239c-0.224,0-0.391,0.077-0.503,0.232C5.871,5.057,5.815,5.287,5.815,5.59
		c0,0.29,0.059,0.562,0.177,0.819C5.662,7.306,5.365,8.325,5.1,9.465c0.13,0.506,0.374,1.002,0.732,1.484L5.665,12.043z"/>
</g>
</svg>
