<?xml version="1.0" encoding="utf-8"?>
<!-- Generator: Adobe Illustrator 15.1.0, SVG Export Plug-In . SVG Version: 6.00 Build 0)  -->
<!DOCTYPE svg PUBLIC "-//W3C//DTD SVG 1.1//EN" "http://www.w3.org/Graphics/SVG/1.1/DTD/svg11.dtd">
<svg version="1.1" id="Layer_1" xmlns="http://www.w3.org/2000/svg" xmlns:xlink="http://www.w3.org/1999/xlink" x="0px" y="0px"
	 width="14.172px" height="14.172px" viewBox="0 0 14.172 14.172" enable-background="new 0 0 14.172 14.172" xml:space="preserve">
<g enable-background="new    ">
	<path d="M11.48,8.491c-0.161,0.008-0.3,0.012-0.416,0.012c-0.585,0-1.427-0.174-2.529-0.521c-1.103-0.347-1.946-0.52-2.53-0.52
		c-0.913,0-1.781,0.373-2.606,1.117v3.844H2.785V1.811h0.613v1.062C4.26,2.165,5.125,1.811,5.993,1.811
		c0.577,0,1.409,0.181,2.498,0.542c1.087,0.361,1.924,0.542,2.507,0.542c0.125,0,0.285-0.007,0.482-0.021V8.491z"/>
</g>
</svg>
