<?xml version="1.0" encoding="utf-8"?>
<!-- Generator: Adobe Illustrator 15.1.0, SVG Export Plug-In . SVG Version: 6.00 Build 0)  -->
<!DOCTYPE svg PUBLIC "-//W3C//DTD SVG 1.1//EN" "http://www.w3.org/Graphics/SVG/1.1/DTD/svg11.dtd">
<svg version="1.1" id="Layer_1" xmlns="http://www.w3.org/2000/svg" xmlns:xlink="http://www.w3.org/1999/xlink" x="0px" y="0px"
	 width="14.172px" height="14.172px" viewBox="0 0 14.172 14.172" enable-background="new 0 0 14.172 14.172" xml:space="preserve">
<g enable-background="new    ">
	<path d="M5.872,7.558c0,0.715-0.165,1.47-0.495,2.265s-0.774,1.512-1.333,2.146H3.101c1.273-1.344,1.91-2.813,1.91-4.411H3.165
		v-0.65H5.01c-0.078-1.387-0.715-2.734-1.91-4.043h0.896c1.094,1.172,1.719,2.52,1.875,4.043h1.793
		C7.821,5.385,8.446,4.037,9.54,2.865h0.896c-1.195,1.309-1.832,2.656-1.91,4.043h1.847v0.65H8.526c0,1.598,0.637,3.067,1.91,4.411
		H9.493c-0.559-0.635-1.004-1.352-1.333-2.146c-0.33-0.795-0.495-1.55-0.495-2.265H5.872z"/>
</g>
</svg>
