<?xml version="1.0" encoding="utf-8"?>
<!-- Generator: Adobe Illustrator 15.1.0, SVG Export Plug-In . SVG Version: 6.00 Build 0)  -->
<!DOCTYPE svg PUBLIC "-//W3C//DTD SVG 1.1//EN" "http://www.w3.org/Graphics/SVG/1.1/DTD/svg11.dtd">
<svg version="1.1" id="Layer_1" xmlns="http://www.w3.org/2000/svg" xmlns:xlink="http://www.w3.org/1999/xlink" x="0px" y="0px"
	 width="14.172px" height="14.172px" viewBox="0 0 14.172 14.172" enable-background="new 0 0 14.172 14.172" xml:space="preserve">
<g enable-background="new    ">
	<path d="M4.504,11.1l1.67,1.742H1.33V7.997l1.743,1.671l1.67-1.671c0.201-0.2,0.439-0.3,0.716-0.3c0.276,0,0.515,0.1,0.716,0.3
		c0.201,0.202,0.301,0.44,0.301,0.717s-0.1,0.516-0.301,0.716L4.504,11.1z M11.705,2.467v4.845L9.96,5.642l-1.669,1.67
		c-0.201,0.201-0.439,0.3-0.717,0.3c-0.276,0-0.515-0.1-0.715-0.3c-0.201-0.2-0.301-0.439-0.301-0.716
		c0-0.276,0.1-0.515,0.301-0.716l1.67-1.67L6.86,2.467H11.705z"/>
</g>
</svg>
