<?xml version="1.0" encoding="utf-8"?>
<!-- Generator: Adobe Illustrator 15.1.0, SVG Export Plug-In . SVG Version: 6.00 Build 0)  -->
<!DOCTYPE svg PUBLIC "-//W3C//DTD SVG 1.1//EN" "http://www.w3.org/Graphics/SVG/1.1/DTD/svg11.dtd">
<svg version="1.1" id="Layer_1" xmlns="http://www.w3.org/2000/svg" xmlns:xlink="http://www.w3.org/1999/xlink" x="0px" y="0px"
	 width="14.172px" height="14.172px" viewBox="0 0 14.172 14.172" enable-background="new 0 0 14.172 14.172" xml:space="preserve">
<g enable-background="new    ">
	<path d="M9.543,5.266c0,0.456-0.154,0.94-0.464,1.456C8.796,7.187,8.508,7.647,8.216,8.101c-0.3,0.575-0.451,1.146-0.451,1.714
		c0,0.738,0.087,1.585,0.258,2.538l-0.181,0.039c-0.301-0.637-0.597-1.268-0.889-1.895C6.55,9.672,6.168,9.132,5.807,8.875
		C5.472,8.694,4.996,8.389,4.376,7.959C3.707,7.341,3.312,6.625,3.192,5.808c0.026-0.016,0.052-0.026,0.077-0.026
		c0.241,0,0.64,0.21,1.198,0.631C4.519,6.284,4.583,6.22,4.66,6.22c0.24,0,0.562,0.206,0.966,0.619
		c0.446,0.463,0.73,0.717,0.851,0.76C6.494,7.565,6.503,7.521,6.503,7.47c0-0.163-0.047-0.374-0.142-0.631
		C6.181,6.383,5.927,6.044,5.601,5.821C5.034,5.426,4.643,5.107,4.428,4.867C4.085,4.472,3.913,4.012,3.913,3.488
		c0-0.627,0.155-1.146,0.463-1.559C4.721,1.475,5.202,1.247,5.82,1.247c0.593,0,1.073,0.258,1.443,0.773
		c0.353,0.464,0.528,1,0.528,1.611c0,0.437-0.09,0.828-0.271,1.172C7.426,4.982,7.258,5.21,7.018,5.486
		C6.846,5.701,6.76,5.859,6.76,5.962c0,0.25,0.146,0.528,0.438,0.837C7.62,6.482,7.955,6.113,8.204,5.692
		C8.333,5.452,8.457,5.21,8.577,4.97c0.182-0.258,0.396-0.387,0.645-0.387c0.094,0,0.176,0.018,0.245,0.052
		C9.518,4.841,9.543,5.052,9.543,5.266z M7.301,3.798c0-0.464-0.133-0.902-0.399-1.313c-0.3-0.482-0.666-0.722-1.095-0.722
		c-0.43,0-0.773,0.185-1.031,0.554C4.553,2.633,4.441,3.02,4.441,3.476c0,0.489,0.16,0.812,0.477,0.966
		c0.103-0.103,0.198-0.155,0.284-0.155c0.06,0,0.197,0.085,0.412,0.258c0.095-0.137,0.215-0.206,0.361-0.206
		c0.197,0,0.3,0.095,0.309,0.284C6.378,4.554,6.456,4.52,6.516,4.52c0.042,0,0.107,0.034,0.192,0.103
		c0.087,0.068,0.181,0.103,0.284,0.103C7.199,4.451,7.301,4.141,7.301,3.798z"/>
</g>
</svg>
