<?xml version="1.0" encoding="utf-8"?>
<!-- Generator: Adobe Illustrator 15.1.0, SVG Export Plug-In . SVG Version: 6.00 Build 0)  -->
<!DOCTYPE svg PUBLIC "-//W3C//DTD SVG 1.1//EN" "http://www.w3.org/Graphics/SVG/1.1/DTD/svg11.dtd">
<svg version="1.1" id="Layer_1" xmlns="http://www.w3.org/2000/svg" xmlns:xlink="http://www.w3.org/1999/xlink" x="0px" y="0px"
	 width="14.172px" height="14.172px" viewBox="0 0 14.172 14.172" enable-background="new 0 0 14.172 14.172" xml:space="preserve">
<g enable-background="new    ">
	<path d="M2.184,12.298v-0.771c0.86-0.229,1.657-0.389,2.392-0.477V3.069c-0.793-0.076-1.59-0.23-2.392-0.463v-0.77
		C3.569,2.22,5.268,2.413,7.28,2.413c2.018,0,3.719-0.192,5.104-0.576v0.77c-0.801,0.233-1.601,0.387-2.397,0.463v7.982
		c0.735,0.088,1.534,0.246,2.397,0.477v0.771c-1.577-0.413-3.278-0.62-5.104-0.62C5.456,11.678,3.757,11.885,2.184,12.298z
		 M5.502,10.996c0.53-0.058,1.124-0.087,1.778-0.087c0.655,0,1.249,0.029,1.778,0.087V3.132C8.583,3.167,7.99,3.183,7.28,3.183
		c-0.709,0-1.302-0.017-1.778-0.05V10.996z"/>
</g>
</svg>
