<?xml version="1.0" encoding="utf-8"?>
<!-- Generator: Adobe Illustrator 15.1.0, SVG Export Plug-In . SVG Version: 6.00 Build 0)  -->
<!DOCTYPE svg PUBLIC "-//W3C//DTD SVG 1.1//EN" "http://www.w3.org/Graphics/SVG/1.1/DTD/svg11.dtd">
<svg version="1.1" id="Layer_1" xmlns="http://www.w3.org/2000/svg" xmlns:xlink="http://www.w3.org/1999/xlink" x="0px" y="0px"
	 width="14.172px" height="14.172px" viewBox="0 0 14.172 14.172" enable-background="new 0 0 14.172 14.172" xml:space="preserve">
<g enable-background="new    ">
	<path d="M12.58,7.119c0,0.708-0.134,1.382-0.396,2.019c-0.265,0.639-0.65,1.21-1.157,1.716c-0.505,0.503-1.075,0.885-1.712,1.153
		c-0.636,0.268-1.31,0.4-2.016,0.4c-0.708,0-1.385-0.133-2.028-0.4c-0.644-0.268-1.216-0.65-1.717-1.151
		c-0.504-0.507-0.89-1.079-1.155-1.718C2.132,8.5,2,7.827,2,7.12c0-0.704,0.132-1.375,0.397-2.013
		c0.265-0.639,0.65-1.21,1.156-1.716c0.5-0.502,1.071-0.886,1.713-1.153C5.906,1.97,6.58,1.836,7.282,1.836
		c0.708,0,1.381,0.132,2.017,0.397c0.636,0.265,1.211,0.65,1.727,1.156c0.507,0.505,0.893,1.077,1.157,1.716
		C12.446,5.745,12.58,6.415,12.58,7.119z M11.944,5.593h-3.55L7.282,2.212L6.184,5.593H2.635l2.869,2.089l-1.105,3.404l2.883-2.104
		l2.898,2.104L9.075,7.682L11.944,5.593z"/>
</g>
</svg>
