<?xml version="1.0" encoding="utf-8"?>
<!-- Generator: Adobe Illustrator 15.1.0, SVG Export Plug-In . SVG Version: 6.00 Build 0)  -->
<!DOCTYPE svg PUBLIC "-//W3C//DTD SVG 1.1//EN" "http://www.w3.org/Graphics/SVG/1.1/DTD/svg11.dtd">
<svg version="1.1" id="Layer_1" xmlns="http://www.w3.org/2000/svg" xmlns:xlink="http://www.w3.org/1999/xlink" x="0px" y="0px"
	 width="14.172px" height="14.172px" viewBox="0 0 14.172 14.172" enable-background="new 0 0 14.172 14.172" xml:space="preserve">
<g enable-background="new    ">
	<path d="M10.563,10.143c-0.938,0.938-2.068,1.406-3.393,1.406s-2.456-0.469-3.394-1.406C2.839,9.207,2.371,8.075,2.371,6.75
		c0-1.328,0.468-2.46,1.403-3.396S5.842,1.952,7.17,1.952c1.324,0,2.455,0.469,3.393,1.406s1.406,2.068,1.406,3.393
		S11.5,9.206,10.563,10.143z M11.19,6.44c-0.078-0.992-0.469-1.84-1.172-2.543C9.233,3.111,8.284,2.719,7.17,2.719
		S5.106,3.112,4.316,3.897C3.613,4.601,3.225,5.447,3.15,6.44H11.19z M11.172,7.226H3.168C3.277,8.147,3.66,8.938,4.316,9.598
		c0.79,0.789,1.741,1.184,2.854,1.184s2.062-0.396,2.848-1.185C10.678,8.942,11.063,8.151,11.172,7.226z"/>
</g>
</svg>
