<?xml version="1.0" encoding="utf-8"?>
<!-- Generator: Adobe Illustrator 15.1.0, SVG Export Plug-In . SVG Version: 6.00 Build 0)  -->
<!DOCTYPE svg PUBLIC "-//W3C//DTD SVG 1.1//EN" "http://www.w3.org/Graphics/SVG/1.1/DTD/svg11.dtd">
<svg version="1.1" id="Layer_1" xmlns="http://www.w3.org/2000/svg" xmlns:xlink="http://www.w3.org/1999/xlink" x="0px" y="0px"
	 width="14.172px" height="14.172px" viewBox="0 0 14.172 14.172" enable-background="new 0 0 14.172 14.172" xml:space="preserve">
<g enable-background="new    ">
	<path d="M12.777,12.413l-2.028,0.024L10.667,5.89c-0.013-0.949-0.164-1.584-0.457-1.907C9.917,3.66,9.465,3.417,8.859,3.25
		C8.252,3.085,7.581,3.008,6.842,3.019C6.124,3.026,5.487,3.122,4.93,3.3C4.373,3.48,3.962,3.757,3.696,4.129
		C3.431,4.502,3.309,5.277,3.323,6.454L3.4,12.532l-1.872,0.022L1.447,6.135C1.432,4.947,1.63,4.11,2.044,3.625
		C2.461,3.139,3.061,2.75,3.846,2.459c0.787-0.29,1.784-0.442,2.983-0.458c1.116-0.014,2.139,0.084,3.068,0.294
		c0.93,0.209,1.624,0.547,2.084,1.013c0.46,0.465,0.697,1.258,0.711,2.378L12.777,12.413z"/>
</g>
</svg>
