<?xml version="1.0" encoding="utf-8"?>
<!-- Generator: Adobe Illustrator 15.1.0, SVG Export Plug-In . SVG Version: 6.00 Build 0)  -->
<!DOCTYPE svg PUBLIC "-//W3C//DTD SVG 1.1//EN" "http://www.w3.org/Graphics/SVG/1.1/DTD/svg11.dtd">
<svg version="1.1" id="Layer_1" xmlns="http://www.w3.org/2000/svg" xmlns:xlink="http://www.w3.org/1999/xlink" x="0px" y="0px"
	 width="14.172px" height="14.172px" viewBox="0 0 14.172 14.172" enable-background="new 0 0 14.172 14.172" xml:space="preserve">
<g>
	<path d="M11.227,11.586c-0.414-0.266-0.775-0.459-1.084-0.58c-0.426-0.16-0.674-0.238-0.744-0.234l-1.512,0.123
		c-0.078,0.008-0.277-0.086-0.598-0.281V9.998c-0.043,0.004-0.072,0.006-0.088,0.006c-0.031,0-0.07-0.004-0.117-0.012l-0.006,0.621
		c-0.355,0.164-0.627,0.252-0.814,0.264c-0.02,0-0.266-0.027-0.738-0.082c-0.102-0.012-0.201-0.018-0.299-0.018
		c-0.324,0-0.635,0.056-0.932,0.167s-0.68,0.317-1.148,0.618L3.135,10.76c0.402-0.25,0.785-0.438,1.148-0.562
		c0.41-0.137,0.633-0.203,0.668-0.199l1.506,0.223c0.047,0.008,0.184-0.068,0.41-0.229c-0.371-0.051-0.653-0.107-0.847-0.17
		S5.559,9.641,5.215,9.465l0.492-1.33C5.336,7.799,5.078,7.483,4.934,7.188S4.717,6.531,4.717,6.102
		c0-0.594,0.191-1.114,0.574-1.562S6.223,3.746,6.938,3.5c-0.27-0.246-0.404-0.459-0.404-0.639c0-0.164,0.062-0.306,0.185-0.425
		S6.988,2.258,7.16,2.258s0.322,0.06,0.451,0.179s0.193,0.259,0.193,0.419c0,0.188-0.148,0.408-0.445,0.662
		C7.754,3.623,8.066,3.747,8.297,3.89s0.471,0.358,0.721,0.647c0.43,0.496,0.645,1.041,0.645,1.635c0,0.746-0.342,1.391-1.025,1.934
		l0.498,1.354c-0.48,0.215-0.795,0.345-0.943,0.39S7.805,9.936,7.477,9.975c0.227,0.156,0.363,0.23,0.41,0.223l1.436-0.199
		c0.02-0.004,0.131,0.027,0.334,0.094l0.715,0.24c0.148,0.047,0.432,0.188,0.85,0.422L11.227,11.586z M8.654,9.377
		C8.096,9.205,7.641,9.119,7.289,9.119c-0.398,0-0.939,0.08-1.623,0.24c0.57,0.234,1.066,0.352,1.488,0.352
		C7.588,9.711,8.088,9.6,8.654,9.377z M8.619,9.09L8.291,8.182C7.834,8.045,7.482,7.977,7.236,7.977
		c-0.277,0-0.672,0.068-1.184,0.205L5.742,9.066c0.559-0.152,1.047-0.229,1.465-0.229C7.594,8.838,8.064,8.922,8.619,9.09z
		 M7.488,6.898V6.271h0.873l0.006-0.645H7.5L7.494,4.953H6.855v0.686L5.924,5.633L5.912,6.271h0.949l0.006,0.615L7.488,6.898z"/>
</g>
</svg>
