<?xml version="1.0" encoding="utf-8"?>
<!-- Generator: Adobe Illustrator 15.1.0, SVG Export Plug-In . SVG Version: 6.00 Build 0)  -->
<!DOCTYPE svg PUBLIC "-//W3C//DTD SVG 1.1//EN" "http://www.w3.org/Graphics/SVG/1.1/DTD/svg11.dtd">
<svg version="1.1" id="Layer_1" xmlns="http://www.w3.org/2000/svg" xmlns:xlink="http://www.w3.org/1999/xlink" x="0px" y="0px"
	 width="14.172px" height="14.172px" viewBox="0 0 14.172 14.172" enable-background="new 0 0 14.172 14.172" xml:space="preserve">
<g enable-background="new    ">
	<path d="M9.866,6.772c0,0.456-0.188,0.825-0.562,1.107C8.979,8.121,8.551,8.341,8.02,8.54C7.574,8.708,7.129,8.873,6.684,9.035
		C6.012,9.329,5.34,9.622,4.668,9.916c-0.945,0.382-1.605,0.573-1.98,0.573c-0.18,0-0.302-0.047-0.366-0.143
		c-0.065-0.093-0.097-0.264-0.097-0.51c0-0.042,0.092-0.143,0.275-0.299c0.246-0.209,0.531-0.52,0.855-0.928
		c0.504-0.64,0.773-0.979,0.809-1.021C4.606,7.082,4.99,6.551,5.318,6.002c0.368-0.666,0.737-1.331,1.108-1.997
		C6.958,3.163,7.438,2.74,7.868,2.74c0.266,0,0.547,0.267,0.844,0.802c0.211,0.377,0.394,0.809,0.545,1.296
		c0.125,0.314,0.25,0.628,0.375,0.943C9.788,6.18,9.866,6.51,9.866,6.772z M7.698,3.205C7.69,3.345,7.616,3.577,7.475,3.896
		c-0.098,0.23-0.5,0.788-1.207,1.674C5.416,6.607,4.951,7.184,4.873,7.298L4.961,7.44l1.494-1.808
		c0.754-0.864,1.29-1.296,1.606-1.296c0.043,0,0.084,0.008,0.123,0.023C7.989,4.166,7.827,3.78,7.698,3.205z M12.163,3.409
		c-0.012,0.319-0.156,0.519-0.434,0.597c-0.035-0.325-0.17-0.487-0.404-0.487c-0.156,0-0.412,0.121-0.768,0.362
		c-0.383,0.251-0.574,0.466-0.574,0.644c0,0.084,0.01,0.207,0.031,0.37c0.021,0.162,0.033,0.285,0.033,0.369
		c0,0.304-0.084,0.534-0.252,0.691C9.745,5.844,9.561,5.359,9.245,4.5C9.026,3.91,8.805,3.458,8.583,3.149
		c0.066-0.037,0.133-0.055,0.199-0.055c0.109,0,0.248,0.067,0.418,0.201c0.17,0.133,0.295,0.2,0.373,0.2
		c0.215,0,0.514-0.11,0.898-0.33c0.384-0.22,0.664-0.33,0.836-0.33C11.725,2.835,12.01,3.026,12.163,3.409z M10.797,3.18
		C10.18,3.584,9.79,3.786,9.625,3.786c-0.074,0-0.256-0.076-0.545-0.228l0.305,0.597L10.797,3.18z M12.081,3.471
		C12.03,3.377,11.977,3.33,11.922,3.33c-0.104,0-0.157,0.11-0.157,0.33c0,0.058,0.006,0.107,0.018,0.149
		C11.918,3.784,12.018,3.67,12.081,3.471z"/>
</g>
</svg>
