<?xml version="1.0" encoding="utf-8"?>
<!-- Generator: Adobe Illustrator 15.1.0, SVG Export Plug-In . SVG Version: 6.00 Build 0)  -->
<!DOCTYPE svg PUBLIC "-//W3C//DTD SVG 1.1//EN" "http://www.w3.org/Graphics/SVG/1.1/DTD/svg11.dtd">
<svg version="1.1" id="Layer_1" xmlns="http://www.w3.org/2000/svg" xmlns:xlink="http://www.w3.org/1999/xlink" x="0px" y="0px"
	 width="14.172px" height="14.172px" viewBox="0 0 14.172 14.172" enable-background="new 0 0 14.172 14.172" xml:space="preserve">
<g enable-background="new    ">
	<path d="M7.821,2.809l1.254,0.516c0.762,0.316,1.371,0.817,1.83,1.503c0.459,0.686,0.689,1.44,0.689,2.265
		c0,1.129-0.398,2.092-1.195,2.887S8.639,11.17,7.51,11.17c-0.531,0-1.049-0.104-1.553-0.311l-1.254-0.522
		C3.941,10.024,3.331,9.526,2.872,8.84S2.184,7.4,2.184,6.576c0-1.125,0.397-2.086,1.192-2.883s1.755-1.195,2.88-1.195
		C6.756,2.498,7.277,2.602,7.821,2.809z M2.729,6.62c0,0.952,0.348,1.771,1.043,2.456s1.525,1.026,2.49,1.026
		c0.973,0,1.805-0.346,2.496-1.035c0.692-0.69,1.037-1.524,1.037-2.5c0-0.972-0.346-1.803-1.037-2.494
		c-0.691-0.69-1.524-1.036-2.496-1.036c-0.988,0-1.824,0.348-2.508,1.042C3.07,4.774,2.729,5.621,2.729,6.62z"/>
</g>
</svg>
