<?xml version="1.0" encoding="utf-8"?>
<!-- Generator: Adobe Illustrator 15.1.0, SVG Export Plug-In . SVG Version: 6.00 Build 0)  -->
<!DOCTYPE svg PUBLIC "-//W3C//DTD SVG 1.1//EN" "http://www.w3.org/Graphics/SVG/1.1/DTD/svg11.dtd">
<svg version="1.1" id="Layer_1" xmlns="http://www.w3.org/2000/svg" xmlns:xlink="http://www.w3.org/1999/xlink" x="0px" y="0px"
	 width="14.172px" height="14.172px" viewBox="0 0 14.172 14.172" enable-background="new 0 0 14.172 14.172" xml:space="preserve">
<g enable-background="new    ">
	<path d="M8.014,3.129c-0.246-0.098-0.5-0.146-0.762-0.146c-0.396,0-0.72,0.125-0.974,0.375L4.088,5.549l0.229,0.229L3.484,6.615
		l-1.4-1.4l0.832-0.832l0.258,0.252l2.18-2.18C5.654,2.159,5.977,2.01,6.32,2.01C6.899,2.01,7.463,2.383,8.014,3.129z M12.18,3.844
		c0.039,0.137,0.059,0.273,0.059,0.41c0,0.402-0.141,0.744-0.422,1.025c-0.281,0.281-0.623,0.422-1.025,0.422
		c-0.147,0-0.295-0.021-0.438-0.064L8.94,7.049l3.205,3.064l-1.277,1.277l-3.07-3.205L6.456,9.534
		C6.499,9.678,6.52,9.823,6.52,9.967c0,0.406-0.141,0.75-0.419,1.031C5.822,11.28,5.479,11.42,5.073,11.42
		c-0.137,0-0.273-0.02-0.41-0.059l1.113-1.113L4.68,9.153l-1.114,1.113c-0.039-0.137-0.058-0.273-0.058-0.41
		c0-0.401,0.141-0.744,0.422-1.024C4.211,8.55,4.555,8.41,4.961,8.41c0.137,0,0.273,0.018,0.41,0.053l1.377-1.371l-1.993-2.08
		l1.008-1.008l2.074,1.992L9.28,4.553C9.245,4.42,9.227,4.286,9.227,4.148c0-0.41,0.141-0.756,0.422-1.037
		c0.281-0.281,0.623-0.422,1.025-0.422c0.141,0,0.279,0.02,0.416,0.059L9.977,3.861l1.09,1.096L12.18,3.844z M4.721,2.965
		L3.719,3.967L3.525,3.774l1.002-1.002L4.721,2.965z"/>
</g>
</svg>
