<?xml version="1.0" encoding="utf-8"?>
<!-- Generator: Adobe Illustrator 15.1.0, SVG Export Plug-In . SVG Version: 6.00 Build 0)  -->
<!DOCTYPE svg PUBLIC "-//W3C//DTD SVG 1.1//EN" "http://www.w3.org/Graphics/SVG/1.1/DTD/svg11.dtd">
<svg version="1.1" id="Layer_1" xmlns="http://www.w3.org/2000/svg" xmlns:xlink="http://www.w3.org/1999/xlink" x="0px" y="0px"
	 width="14.172px" height="14.172px" viewBox="0 0 14.172 14.172" enable-background="new 0 0 14.172 14.172" xml:space="preserve">
<g enable-background="new    ">
	<path d="M12.336,12.077H8.502c-0.421,0-0.699-0.161-0.834-0.484c-0.046-0.105-0.129-0.364-0.249-0.778
		C7.3,10.401,7.119,9.776,6.879,8.942H6.585c-0.136,0.414-0.323,1.034-0.563,1.86c-0.113,0.437-0.215,0.726-0.305,0.868
		c-0.166,0.271-0.421,0.406-0.767,0.406H2.368v-0.439H4.33l1.105-3.778V6.145L3.496,8.446C3.104,8.288,2.909,8.029,2.909,7.668
		c0-0.143,0.079-0.31,0.237-0.497C3.281,7.022,3.48,6.788,3.744,6.473C3.977,6.18,4.21,5.886,4.443,5.593
		c0.353-0.42,0.609-0.68,0.767-0.778c0.211-0.12,0.432-0.181,0.666-0.181h5.368c-0.188,0.7-0.417,1.049-0.688,1.049H7.984v2.131
		c0.165,0.558,0.553,1.831,1.161,3.823h3.191V12.077z M7.894,3.247c0,0.316-0.117,0.593-0.35,0.829
		C7.311,4.312,7.037,4.431,6.721,4.431S6.128,4.312,5.892,4.076S5.537,3.563,5.537,3.247s0.118-0.594,0.355-0.833
		c0.237-0.241,0.513-0.361,0.829-0.361c0.323,0,0.599,0.116,0.829,0.349C7.779,2.634,7.894,2.917,7.894,3.247z M11.682,7.533
		c0,0.278-0.107,0.523-0.321,0.739c-0.213,0.213-0.464,0.32-0.75,0.32c-0.285,0-0.532-0.103-0.739-0.311
		C9.666,8.075,9.563,7.826,9.563,7.533c0-0.301,0.101-0.553,0.304-0.756c0.202-0.203,0.454-0.304,0.756-0.304
		c0.293,0,0.543,0.104,0.751,0.314C11.58,6.999,11.682,7.248,11.682,7.533z"/>
</g>
</svg>
