<?xml version="1.0" encoding="utf-8"?>
<!-- Generator: Adobe Illustrator 15.1.0, SVG Export Plug-In . SVG Version: 6.00 Build 0)  -->
<!DOCTYPE svg PUBLIC "-//W3C//DTD SVG 1.1//EN" "http://www.w3.org/Graphics/SVG/1.1/DTD/svg11.dtd">
<svg version="1.1" id="Layer_1" xmlns="http://www.w3.org/2000/svg" xmlns:xlink="http://www.w3.org/1999/xlink" x="0px" y="0px"
	 width="14.172px" height="14.172px" viewBox="0 0 14.172 14.172" enable-background="new 0 0 14.172 14.172" xml:space="preserve">
<g enable-background="new    ">
	<path d="M13.597,7.086c0,0.704-0.236,1.303-0.709,1.797c-0.473,0.492-1.046,0.738-1.722,0.738c-0.631,0-1.174-0.215-1.633-0.645
		C9.077,8.545,8.814,8.01,8.747,7.369h-3.32C5.359,8.01,5.095,8.545,4.638,8.977c-0.457,0.43-1.001,0.645-1.631,0.645
		c-0.676,0-1.25-0.246-1.722-0.738C0.811,8.389,0.575,7.791,0.575,7.086c0-0.712,0.236-1.313,0.709-1.803
		C1.756,4.794,2.331,4.55,3.006,4.55c0.63,0,1.174,0.215,1.631,0.646c0.458,0.431,0.721,0.967,0.789,1.609h3.32
		c0.067-0.642,0.33-1.179,0.787-1.609c0.459-0.431,1.002-0.646,1.633-0.646c0.676,0,1.249,0.245,1.722,0.733
		C13.361,5.773,13.597,6.374,13.597,7.086z M4.908,7.086c0-0.548-0.184-1.017-0.551-1.404C3.989,5.295,3.539,5.102,3.006,5.102
		c-0.525,0-0.972,0.194-1.34,0.581C1.299,6.07,1.115,6.539,1.115,7.086c0,0.549,0.184,1.014,0.551,1.396
		c0.369,0.385,0.815,0.576,1.34,0.576c0.533,0,0.982-0.191,1.351-0.576C4.724,8.1,4.908,7.635,4.908,7.086z M13.057,7.086
		c0-0.548-0.183-1.017-0.551-1.404c-0.367-0.387-0.814-0.581-1.34-0.581c-0.526,0-0.972,0.194-1.34,0.581S9.275,6.539,9.275,7.086
		c0,0.549,0.184,1.014,0.552,1.396c0.368,0.385,0.813,0.576,1.34,0.576c0.525,0,0.973-0.191,1.34-0.576
		C12.875,8.1,13.057,7.635,13.057,7.086z"/>
</g>
</svg>
