<?xml version="1.0" encoding="utf-8"?>
<!-- Generator: Adobe Illustrator 15.1.0, SVG Export Plug-In . SVG Version: 6.00 Build 0)  -->
<!DOCTYPE svg PUBLIC "-//W3C//DTD SVG 1.1//EN" "http://www.w3.org/Graphics/SVG/1.1/DTD/svg11.dtd">
<svg version="1.1" id="Layer_1" xmlns="http://www.w3.org/2000/svg" xmlns:xlink="http://www.w3.org/1999/xlink" x="0px" y="0px"
	 width="14.172px" height="14.172px" viewBox="0 0 14.172 14.172" enable-background="new 0 0 14.172 14.172" xml:space="preserve">
<g enable-background="new    ">
	<path d="M13.253,11.642H0.904L7.079,0.95L13.253,11.642z M12.211,11.041L7.079,2.155l-5.133,8.885H12.211z M7.744,4.703
		L7.317,8.581C7.3,8.764,7.221,8.857,7.079,8.857S6.857,8.764,6.84,8.581L6.414,4.703C6.396,4.511,6.459,4.351,6.602,4.225
		c0.142-0.108,0.301-0.163,0.477-0.163s0.334,0.054,0.477,0.163C7.698,4.351,7.76,4.511,7.744,4.703z M7.744,9.923
		c0,0.184-0.065,0.343-0.194,0.478C7.419,10.535,7.263,10.6,7.079,10.6c-0.184,0-0.341-0.065-0.471-0.199
		c-0.129-0.135-0.194-0.294-0.194-0.478c0-0.176,0.065-0.329,0.194-0.458c0.129-0.13,0.287-0.194,0.471-0.194
		c0.184,0,0.341,0.064,0.471,0.194C7.678,9.594,7.744,9.748,7.744,9.923z"/>
</g>
</svg>
