<?xml version="1.0" encoding="utf-8"?>
<!-- Generator: Adobe Illustrator 15.1.0, SVG Export Plug-In . SVG Version: 6.00 Build 0)  -->
<!DOCTYPE svg PUBLIC "-//W3C//DTD SVG 1.1//EN" "http://www.w3.org/Graphics/SVG/1.1/DTD/svg11.dtd">
<svg version="1.1" id="Layer_1" xmlns="http://www.w3.org/2000/svg" xmlns:xlink="http://www.w3.org/1999/xlink" x="0px" y="0px"
	 width="14.172px" height="14.172px" viewBox="0 0 14.172 14.172" enable-background="new 0 0 14.172 14.172" xml:space="preserve">
<path d="M4.733,11.204L2.849,9.319l1.116-1.115l1.884,1.884L4.733,11.204z M10.553,10.82L3.233,3.5l1.115-1.116l7.32,7.32
	L10.553,10.82z M7.445,10.82L3.233,6.607l1.115-1.115l4.212,4.212L7.445,10.82z M4.733,10.532l0.443-0.444L3.965,8.876L3.521,9.319
	L4.733,10.532z M10.553,10.148l0.444-0.444L4.349,3.056L3.905,3.5L10.553,10.148z M7.445,10.148l0.443-0.444l-3.54-3.54L3.905,6.607
	L7.445,10.148z M10.553,7.712L6.341,3.5l1.104-1.116l4.224,4.223L10.553,7.712z M10.553,7.04l0.444-0.433L7.445,3.056L7.013,3.5
	L10.553,7.04z M10.938,5L9.053,3.116L10.169,2l1.884,1.884L10.938,5z M10.938,4.328l0.443-0.444l-1.212-1.212L9.725,3.116
	L10.938,4.328z"/>
</svg>
