<?xml version="1.0" encoding="utf-8"?>
<!-- Generator: Adobe Illustrator 15.1.0, SVG Export Plug-In . SVG Version: 6.00 Build 0)  -->
<!DOCTYPE svg PUBLIC "-//W3C//DTD SVG 1.1//EN" "http://www.w3.org/Graphics/SVG/1.1/DTD/svg11.dtd">
<svg version="1.1" id="Layer_1" xmlns="http://www.w3.org/2000/svg" xmlns:xlink="http://www.w3.org/1999/xlink" x="0px" y="0px"
	 width="14.172px" height="14.172px" viewBox="0 0 14.172 14.172" enable-background="new 0 0 14.172 14.172" xml:space="preserve">
<g enable-background="new    ">
	<path d="M10.441,2.947L10.424,4.19h-0.182L9.915,3.434C9.568,2.73,9.049,2.379,8.359,2.379c-0.608,0-1.071,0.27-1.388,0.811
		C6.656,3.731,6.446,4.604,6.342,5.812l3.449-0.017L9.404,6.404L6.276,6.429C6.271,6.523,6.268,6.585,6.268,6.619
		c0,0.153,0.008,0.288,0.025,0.403h3.282L9.172,7.639L6.334,7.657c0.147,2.072,0.866,3.109,2.155,3.109
		c0.384,0,0.731-0.13,1.042-0.391c0.311-0.262,0.549-0.625,0.721-1.091l0.264,0.346c-0.188,0.435-0.329,0.72-0.43,0.86
		c-0.099,0.141-0.266,0.296-0.502,0.466c-0.422,0.302-0.903,0.453-1.447,0.453c-0.571,0-1.127-0.209-1.67-0.626
		c-0.325-0.247-0.629-0.583-0.911-1.01C5.273,9.35,5.085,8.944,4.992,8.561L4.819,7.87C4.808,7.826,4.792,7.76,4.77,7.672
		L3.692,7.665L4.153,7.03l0.56,0.008C4.701,6.862,4.696,6.742,4.696,6.676c0-0.055,0.005-0.138,0.017-0.247L3.659,6.421l0.469-0.593
		l0.634-0.009C4.9,4.639,5.288,3.681,5.926,2.943c0.64-0.738,1.4-1.107,2.285-1.107c0.494,0,0.896,0.078,1.209,0.234
		C9.733,2.228,10.073,2.52,10.441,2.947z"/>
</g>
</svg>
