<?xml version="1.0" encoding="utf-8"?>
<!-- Generator: Adobe Illustrator 15.1.0, SVG Export Plug-In . SVG Version: 6.00 Build 0)  -->
<!DOCTYPE svg PUBLIC "-//W3C//DTD SVG 1.1//EN" "http://www.w3.org/Graphics/SVG/1.1/DTD/svg11.dtd">
<svg version="1.1" id="Layer_1" xmlns="http://www.w3.org/2000/svg" xmlns:xlink="http://www.w3.org/1999/xlink" x="0px" y="0px"
	 width="14.172px" height="14.172px" viewBox="0 0 14.172 14.172" enable-background="new 0 0 14.172 14.172" xml:space="preserve">
<g enable-background="new    ">
	<path d="M7.932,12.147H6.754v-0.77c-1.403-0.051-2.358-0.268-2.865-0.65C3.383,10.345,3.13,9.923,3.13,9.461V9.413h1.54v0.049
		c0,0.298,0.13,0.542,0.391,0.73c0.26,0.188,0.824,0.317,1.693,0.389V7.909L6.286,7.79C5.194,7.505,4.465,7.205,4.098,6.887
		C3.731,6.57,3.547,6.19,3.547,5.748c0-0.35,0.113-0.67,0.342-0.962s0.567-0.531,1.016-0.72c0.449-0.189,1.066-0.313,1.85-0.374V2.9
		h1.178v0.791c1.127,0.051,1.886,0.226,2.273,0.524c0.389,0.298,0.582,0.615,0.582,0.951v0.049H9.258V5.167
		c0-0.182-0.111-0.332-0.338-0.451C8.698,4.597,8.368,4.514,7.932,4.467v2.72l0.642,0.147c0.515,0.131,0.979,0.29,1.396,0.477
		c0.418,0.188,0.707,0.399,0.871,0.641c0.164,0.24,0.246,0.49,0.246,0.752c0,0.326-0.117,0.646-0.354,0.958
		s-0.564,0.573-0.994,0.786c-0.427,0.212-1.029,0.355-1.807,0.43V12.147z M6.754,6.901V4.46C6.135,4.53,5.69,4.684,5.418,4.918
		C5.148,5.154,5.012,5.42,5.012,5.719c0,0.243,0.104,0.448,0.311,0.616s0.584,0.333,1.133,0.497L6.754,6.901z M7.932,8.188v2.371
		c0.457-0.037,0.792-0.113,1.006-0.227c0.214-0.114,0.38-0.262,0.498-0.441c0.117-0.18,0.175-0.363,0.175-0.556
		c0-0.242-0.101-0.446-0.299-0.612C9.113,8.559,8.774,8.41,8.295,8.28L7.932,8.188z"/>
</g>
</svg>
