<?xml version="1.0" encoding="utf-8"?>
<!-- Generator: Adobe Illustrator 15.1.0, SVG Export Plug-In . SVG Version: 6.00 Build 0)  -->
<!DOCTYPE svg PUBLIC "-//W3C//DTD SVG 1.1//EN" "http://www.w3.org/Graphics/SVG/1.1/DTD/svg11.dtd">
<svg version="1.1" id="Layer_1" xmlns="http://www.w3.org/2000/svg" xmlns:xlink="http://www.w3.org/1999/xlink" x="0px" y="0px"
	 width="14.172px" height="14.172px" viewBox="0 0 14.172 14.172" enable-background="new 0 0 14.172 14.172" xml:space="preserve">
<g enable-background="new    ">
	<path d="M10.545,3.926c0,0.75-0.486,1.42-1.459,2.01c-0.527,0.32-0.791,0.742-0.791,1.265v1.225h-2.25V7.301
		c0-0.434,0.119-0.849,0.359-1.245c0.24-0.396,0.555-0.683,0.939-0.858C7.978,4.91,8.295,4.485,8.295,3.927
		c0-0.316-0.109-0.583-0.326-0.8S7.486,2.801,7.17,2.801c-0.316,0-0.584,0.108-0.801,0.325s-0.324,0.483-0.324,0.8v0.668h-2.25
		V3.926c0-0.715,0.402-1.287,1.207-1.717C5.667,1.854,6.389,1.676,7.17,1.676c0.785,0,1.51,0.178,2.174,0.533
		C10.145,2.635,10.545,3.208,10.545,3.926z M8.295,10.676c0,0.316-0.109,0.583-0.326,0.801c-0.217,0.217-0.483,0.324-0.799,0.324
		c-0.316,0-0.584-0.107-0.801-0.324c-0.217-0.218-0.324-0.483-0.324-0.801c0-0.316,0.107-0.583,0.324-0.8S6.854,9.551,7.17,9.551
		c0.315,0,0.582,0.108,0.799,0.325C8.185,10.093,8.295,10.36,8.295,10.676z"/>
</g>
</svg>
