<?xml version="1.0" encoding="utf-8"?>
<!-- Generator: Adobe Illustrator 15.1.0, SVG Export Plug-In . SVG Version: 6.00 Build 0)  -->
<!DOCTYPE svg PUBLIC "-//W3C//DTD SVG 1.1//EN" "http://www.w3.org/Graphics/SVG/1.1/DTD/svg11.dtd">
<svg version="1.1" id="Layer_1" xmlns="http://www.w3.org/2000/svg" xmlns:xlink="http://www.w3.org/1999/xlink" x="0px" y="0px"
	 width="14.172px" height="14.172px" viewBox="0 0 14.172 14.172" enable-background="new 0 0 14.172 14.172" xml:space="preserve">
<g>
	<path d="M10.608,7.161c0.031,0.684,0.209,1.214,0.535,1.591s0.701,0.657,1.123,0.841c-0.02,0.129-0.094,0.334-0.221,0.615
		s-0.297,0.588-0.51,0.92s-0.457,0.648-0.734,0.949c-0.402,0.441-0.855,0.662-1.359,0.662c-0.199,0-0.434-0.053-0.703-0.158
		c-0.48-0.223-0.873-0.334-1.178-0.334c-0.184,0-0.346,0.02-0.486,0.059s-0.305,0.097-0.49,0.173s-0.34,0.132-0.465,0.167
		s-0.285,0.059-0.481,0.07c-0.215,0-0.44-0.059-0.677-0.176s-0.477-0.304-0.721-0.56S3.76,11.402,3.53,11.014
		s-0.463-0.878-0.697-1.468c-0.168-0.441-0.29-0.842-0.366-1.201S2.352,7.63,2.352,7.278c0-0.441,0.059-0.853,0.176-1.233
		S2.81,5.319,3.023,5.011s0.466-0.584,0.759-0.826c0.191-0.168,0.434-0.3,0.727-0.396s0.586-0.144,0.879-0.144
		c0.266,0,0.479,0.039,0.639,0.117c0.465,0.199,0.787,0.331,0.967,0.396s0.354,0.097,0.521,0.097c0.18,0,0.354-0.033,0.521-0.1
		s0.418-0.182,0.75-0.346C9.009,3.7,9.284,3.646,9.612,3.646c0.215,0,0.426,0.021,0.633,0.064s0.377,0.102,0.51,0.176
		c0.352,0.145,0.627,0.317,0.826,0.519s0.332,0.354,0.398,0.46C11.116,5.384,10.659,6.149,10.608,7.161z M10.802,10.325l0.252-0.393
		l-0.07-0.076c-0.344-0.273-0.641-0.637-0.891-1.09c-0.273-0.445-0.41-0.988-0.41-1.629c0-0.852,0.262-1.584,0.785-2.197
		l0.023-0.023l-0.1-0.053c-0.207-0.102-0.498-0.152-0.873-0.152c-0.078,0-0.137,0.001-0.176,0.003S9.263,4.72,9.22,4.724
		C9.192,4.731,9.142,4.739,9.067,4.747S8.938,4.763,8.903,4.771C8.853,4.79,8.806,4.806,8.763,4.817s-0.068,0.02-0.076,0.023
		L8.487,4.917L8.194,5.034c-0.285,0.113-0.576,0.17-0.873,0.17c-0.281,0-0.549-0.064-0.803-0.193l-0.24-0.094l-0.205-0.1
		c-0.191-0.07-0.409-0.105-0.651-0.105c-0.719,0-1.266,0.244-1.641,0.732c-0.387,0.523-0.58,1.119-0.58,1.787
		c0,0.59,0.098,1.182,0.293,1.775c0.18,0.582,0.493,1.182,0.94,1.799s0.776,0.926,0.987,0.926c0.102,0,0.215-0.023,0.34-0.07
		l0.287-0.123l0.229-0.07c0.441-0.16,0.828-0.24,1.16-0.24c0.055,0,0.123,0.004,0.205,0.012s0.139,0.012,0.17,0.012
		c0.117,0.02,0.244,0.043,0.381,0.07c0.172,0.039,0.361,0.104,0.568,0.193l0.164,0.047c0.242,0.113,0.424,0.17,0.545,0.17
		c0.125,0,0.324-0.137,0.598-0.41c0.172-0.195,0.316-0.37,0.434-0.524S10.72,10.485,10.802,10.325z M7.274,3.909l2.244-2.771
		c0,0.797-0.166,1.401-0.498,1.813s-0.666,0.674-1,0.785S7.438,3.905,7.274,3.909z M7.274,3.909c0-0.348,0.051-0.699,0.152-1.055
		s0.32-0.695,0.656-1.02s0.814-0.557,1.436-0.697L7.274,3.909z"/>
</g>
</svg>
