<?xml version="1.0" encoding="utf-8"?>
<!-- Generator: Adobe Illustrator 15.1.0, SVG Export Plug-In . SVG Version: 6.00 Build 0)  -->
<!DOCTYPE svg PUBLIC "-//W3C//DTD SVG 1.1//EN" "http://www.w3.org/Graphics/SVG/1.1/DTD/svg11.dtd">
<svg version="1.1" id="Layer_1" xmlns="http://www.w3.org/2000/svg" xmlns:xlink="http://www.w3.org/1999/xlink" x="0px" y="0px"
	 width="14.172px" height="14.172px" viewBox="0 0 14.172 14.172" enable-background="new 0 0 14.172 14.172" xml:space="preserve">
<g enable-background="new    ">
	<path d="M7.562,6.077L6.393,7.246C6.216,7.13,6.027,7.073,5.823,7.073c-0.298,0-0.553,0.104-0.762,0.315l-1.779,1.79
		C3.072,9.375,2.967,9.625,2.967,9.93c0,0.298,0.103,0.551,0.31,0.757c0.206,0.208,0.459,0.311,0.757,0.311
		c0.169,0,0.337-0.04,0.503-0.122c0.166-0.081,0.276-0.196,0.331-0.346h2.42l-1.342,1.312c-0.542,0.529-1.179,0.793-1.911,0.793
		c-0.746,0-1.383-0.264-1.912-0.793C1.594,11.313,1.33,10.676,1.33,9.93c0-0.759,0.264-1.396,0.793-1.912l1.779-1.789
		c0.529-0.528,1.169-0.793,1.921-0.793C6.481,5.436,7.06,5.65,7.562,6.077z M11.497,5.172c0,0.759-0.264,1.396-0.793,1.911
		l-1.779,1.79C8.395,9.402,7.755,9.666,7.002,9.666c-0.657,0-1.237-0.213-1.738-0.64l1.169-1.17C6.61,7.971,6.799,8.029,7.002,8.029
		c0.299,0,0.553-0.105,0.763-0.314l1.78-1.79C9.754,5.729,9.86,5.477,9.86,5.172c0-0.299-0.104-0.551-0.311-0.758
		c-0.207-0.207-0.459-0.31-0.757-0.31c-0.17,0-0.337,0.041-0.503,0.123C8.123,4.308,8.012,4.423,7.958,4.572h-2.42L6.881,3.26
		C7.422,2.732,8.06,2.467,8.792,2.467c0.746,0,1.383,0.265,1.911,0.793C11.233,3.789,11.497,4.427,11.497,5.172z"/>
</g>
</svg>
