<?xml version="1.0" encoding="utf-8"?>
<!-- Generator: Adobe Illustrator 15.1.0, SVG Export Plug-In . SVG Version: 6.00 Build 0)  -->
<!DOCTYPE svg PUBLIC "-//W3C//DTD SVG 1.1//EN" "http://www.w3.org/Graphics/SVG/1.1/DTD/svg11.dtd">
<svg version="1.1" id="Layer_1" xmlns="http://www.w3.org/2000/svg" xmlns:xlink="http://www.w3.org/1999/xlink" x="0px" y="0px"
	 width="14.172px" height="14.172px" viewBox="0 0 14.172 14.172" enable-background="new 0 0 14.172 14.172" xml:space="preserve">
<g enable-background="new    ">
	<path d="M11.758,6.205c0.035,0.035,0.082,0.082,0.143,0.14c0.325,0.309,0.488,0.562,0.488,0.759c0,0.122-0.036,0.241-0.109,0.357
		c-0.072,0.117-0.246,0.306-0.521,0.567l-2.407,2.304c-0.138,0.134-0.272,0.228-0.401,0.28c-0.132,0.052-0.299,0.078-0.505,0.078
		H2.368L1,8.569V5.383l1.368-1.964h5.968c0.166,0,0.319,0.033,0.463,0.101c0.145,0.067,0.295,0.176,0.449,0.327L11.758,6.205z
		 M3.537,8.552V5.549l-1.04-1.719L1.354,5.531v2.854l1.169,1.842L3.537,8.552z M2.895,6.972c0,0.448-0.045,0.794-0.135,1.034
		C2.67,8.248,2.544,8.369,2.381,8.369c-0.154,0-0.274-0.128-0.359-0.386C1.936,7.729,1.893,7.368,1.893,6.902
		c0-0.442,0.042-0.778,0.125-1.008c0.083-0.229,0.205-0.345,0.363-0.345c0.159,0,0.284,0.127,0.376,0.38
		C2.849,6.183,2.895,6.529,2.895,6.972z M9.01,8.761H3.826l-0.892,1.501h5.71c0.073-0.222,0.14-0.455,0.198-0.703
		C8.904,9.313,8.959,9.046,9.01,8.761z M8.972,5.349C8.904,5.058,8.829,4.786,8.75,4.532C8.67,4.279,8.586,4.045,8.497,3.831H2.959
		L3.877,5.35L8.972,5.349L8.972,5.349z M9.075,8.264c0.034-0.15,0.061-0.316,0.077-0.492C9.168,7.593,9.176,7.399,9.176,7.19
		c0-0.227-0.01-0.452-0.028-0.676C9.127,6.29,9.1,6.064,9.062,5.837L3.877,5.829v2.436H9.075z M10.931,8.229
		c0.149-0.146,0.25-0.285,0.302-0.418c0.053-0.135,0.077-0.375,0.077-0.726c0-0.256-0.032-0.467-0.097-0.633
		c-0.063-0.166-0.176-0.324-0.334-0.476L9.023,4.24C9.2,4.758,9.331,5.255,9.417,5.732c0.088,0.478,0.133,0.94,0.133,1.388
		c0,0.349-0.038,0.759-0.115,1.229S9.243,9.366,9.086,9.983L10.931,8.229z"/>
</g>
</svg>
