<?xml version="1.0" encoding="utf-8"?>
<!-- Generator: Adobe Illustrator 15.1.0, SVG Export Plug-In . SVG Version: 6.00 Build 0)  -->
<!DOCTYPE svg PUBLIC "-//W3C//DTD SVG 1.1//EN" "http://www.w3.org/Graphics/SVG/1.1/DTD/svg11.dtd">
<svg version="1.1" id="Layer_1" xmlns="http://www.w3.org/2000/svg" xmlns:xlink="http://www.w3.org/1999/xlink" x="0px" y="0px"
	 width="14.172px" height="14.172px" viewBox="0 0 14.172 14.172" enable-background="new 0 0 14.172 14.172" xml:space="preserve">
<g enable-background="new    ">
	<path d="M5.616,2.921H3.571c-0.121,0-0.243,0.052-0.364,0.155c-0.121,0.104-0.182,0.22-0.182,0.348v2.087H2.147V3.092
		c0-0.242,0.125-0.478,0.375-0.707c0.25-0.228,0.499-0.343,0.749-0.343h2.345V2.921z M5.616,11.892H3.271
		c-0.25,0-0.5-0.114-0.749-0.343c-0.25-0.228-0.375-0.463-0.375-0.706v-2.42h0.877v2.088c0,0.121,0.061,0.235,0.182,0.343
		c0.121,0.106,0.243,0.159,0.364,0.159h2.044V11.892z M11.997,5.511h-0.878V3.424c0-0.128-0.061-0.245-0.182-0.348
		c-0.122-0.103-0.243-0.155-0.365-0.155H8.528V2.042h2.344c0.25,0,0.5,0.115,0.751,0.343c0.248,0.229,0.374,0.465,0.374,0.707V5.511
		z M11.997,10.843c0,0.243-0.126,0.479-0.374,0.706c-0.251,0.229-0.501,0.343-0.751,0.343H8.528v-0.879h2.044
		c0.122,0,0.243-0.053,0.365-0.159c0.121-0.107,0.182-0.222,0.182-0.343V8.423h0.878V10.843z"/>
</g>
</svg>
