<?xml version="1.0" encoding="utf-8"?>
<!-- Generator: Adobe Illustrator 15.1.0, SVG Export Plug-In . SVG Version: 6.00 Build 0)  -->
<!DOCTYPE svg PUBLIC "-//W3C//DTD SVG 1.1//EN" "http://www.w3.org/Graphics/SVG/1.1/DTD/svg11.dtd">
<svg version="1.1" id="Layer_1" xmlns="http://www.w3.org/2000/svg" xmlns:xlink="http://www.w3.org/1999/xlink" x="0px" y="0px"
	 width="14.172px" height="14.172px" viewBox="0 0 14.172 14.172" enable-background="new 0 0 14.172 14.172" xml:space="preserve">
<g enable-background="new    ">
	<path d="M11.021,8.524l-0.368,0.631L8.868,8.052v1.988L7.096,9.018l0.064,2.151H6.433l0.072-2.151l-1.779,1.022V8.052L2.941,9.155
		L2.58,8.524L4.47,7.5L2.75,6.502l1.733-0.991L2.58,4.488l0.361-0.63l1.785,1.103V2.985l1.779,1.017L6.433,1.843h0.729L7.096,4.002
		l1.771-1.017v1.976l1.785-1.103l0.368,0.63L9.11,5.512l1.732,0.991L9.122,7.501L11.021,8.524z M6.315,6.503L4.753,5.656
		L3.289,6.503l1.45,0.847L6.315,6.503z M6.557,6.089L6.505,4.317l-1.51-0.879v1.68L6.557,6.089z M6.557,6.923L4.995,7.888v1.693
		l1.51-0.873L6.557,6.923z M8.599,5.119v-1.68L7.096,4.317L7.043,6.089L8.599,5.119z M8.599,9.582V7.888L7.043,6.923l0.053,1.785
		L8.599,9.582z M10.305,6.503L8.842,5.656L7.28,6.503L8.855,7.35L10.305,6.503z"/>
</g>
</svg>
