<?xml version="1.0" encoding="utf-8"?>
<!-- Generator: Adobe Illustrator 15.1.0, SVG Export Plug-In . SVG Version: 6.00 Build 0)  -->
<!DOCTYPE svg PUBLIC "-//W3C//DTD SVG 1.1//EN" "http://www.w3.org/Graphics/SVG/1.1/DTD/svg11.dtd">
<svg version="1.1" id="Layer_1" xmlns="http://www.w3.org/2000/svg" xmlns:xlink="http://www.w3.org/1999/xlink" x="0px" y="0px"
	 width="14.172px" height="14.172px" viewBox="0 0 14.172 14.172" enable-background="new 0 0 14.172 14.172" xml:space="preserve">
<path d="M2.644,8.527c-0.128-0.52-0.192-0.939-0.192-1.259c0-0.593,0.2-1.081,0.601-1.465C3.3,5.556,3.424,5.212,3.424,4.772
	c0-0.152-0.032-0.34-0.097-0.564c-0.063-0.224-0.096-0.4-0.096-0.528c0-0.36,0.116-0.736,0.348-1.128
	C3.924,2.24,4.14,2.072,4.228,2.048C4.348,2.016,4.472,2,4.6,2c0.231,0,0.444,0.052,0.636,0.156c0.488,0.28,0.744,0.756,0.769,1.428
	c-0.12,0.64-0.181,1.056-0.181,1.248c0,0.504,0.16,0.9,0.48,1.188c0.472-0.272,0.864-0.432,1.176-0.48
	c0.232-0.088,0.472-0.132,0.72-0.132c0.536,0,1.088,0.184,1.656,0.552c0.912,0.6,1.368,1.504,1.368,2.712
	c0,0.312-0.036,0.62-0.108,0.924c-0.151,0.624-0.52,1.169-1.104,1.632c-0.584,0.464-1.2,0.696-1.849,0.696
	c-0.344,0-0.712-0.084-1.104-0.252c-0.12-0.048-0.456-0.216-1.008-0.504l-0.084,0.264c-1.48,0-2.364-0.012-2.652-0.036
	c-0.08-0.239-0.132-0.424-0.156-0.552C3.071,10.348,2.991,9.984,2.92,9.752C2.903,9.607,2.812,9.199,2.644,8.527z M3.796,10.928H5.5
	l0.071-0.42C5.203,9.859,5.02,9.26,5.02,8.708c0-0.584,0.2-1.208,0.6-1.872c0.104-0.2,0.196-0.348,0.276-0.444
	c-0.04-0.048-0.108-0.16-0.204-0.336c-0.08-0.144-0.156-0.248-0.228-0.312H3.76C3.743,5.776,3.623,5.928,3.399,6.2
	C3.256,6.376,3.155,6.54,3.1,6.691c-0.072,0.12-0.108,0.292-0.108,0.517v0.564C3.279,8.828,3.548,9.88,3.796,10.928z M3.844,4.088
	c0,0.112,0.016,0.184,0.048,0.216c0.816,0,1.304-0.008,1.464-0.024C5.38,4.088,5.428,3.964,5.5,3.908
	c0.079-0.36,0.033-0.688-0.139-0.984S4.951,2.48,4.647,2.48c-0.24,0-0.452,0.112-0.636,0.336C3.947,2.944,3.882,3.08,3.813,3.224
	s-0.102,0.28-0.102,0.408c0,0.096,0.023,0.192,0.071,0.288C3.823,3.952,3.844,4.008,3.844,4.088z M5.296,5.228L5.248,4.904H3.964
	v0.324H5.296z M6.159,7.735c0.12,0.177,0.301,0.213,0.54,0.108c0.16-0.12,0.208-0.296,0.145-0.528c-0.137-0.16-0.24-0.24-0.312-0.24
	c-0.12-0.023-0.248,0.037-0.384,0.181C6.124,7.312,6.128,7.472,6.159,7.735z M7.359,7.075c0.024,0.057,0.08,0.084,0.168,0.084
	c0.072,0,0.148,0,0.229,0C7.899,7.056,7.991,6.96,8.031,6.872c0.04-0.216-0.04-0.376-0.239-0.48C7.743,6.384,7.703,6.38,7.672,6.38
	c-0.248,0-0.396,0.112-0.444,0.336C7.228,6.771,7.271,6.892,7.359,7.075z M7.72,8.779c0.104-0.016,0.208-0.031,0.312-0.047
	C8.128,8.58,8.184,8.456,8.199,8.359c0-0.127-0.096-0.247-0.288-0.359C7.68,7.976,7.531,8.028,7.468,8.155
	c-0.097,0.112-0.097,0.276,0,0.493C7.508,8.736,7.592,8.779,7.72,8.779z"/>
</svg>
