<?xml version="1.0" encoding="utf-8"?>
<!-- Generator: Adobe Illustrator 15.1.0, SVG Export Plug-In . SVG Version: 6.00 Build 0)  -->
<!DOCTYPE svg PUBLIC "-//W3C//DTD SVG 1.1//EN" "http://www.w3.org/Graphics/SVG/1.1/DTD/svg11.dtd">
<svg version="1.1" id="Layer_1" xmlns="http://www.w3.org/2000/svg" xmlns:xlink="http://www.w3.org/1999/xlink" x="0px" y="0px"
	 width="14.172px" height="14.172px" viewBox="0 0 14.172 14.172" enable-background="new 0 0 14.172 14.172" xml:space="preserve">
<g enable-background="new    ">
	<path d="M13.172,8.353c0,0.291-0.452,0.661-1.354,1.112c-0.254,0.344-0.711,0.516-1.377,0.516c-0.413,0-0.99,0.069-1.731,0.207
		C8.633,10.196,8.573,10.2,8.527,10.2c-0.161,0-0.394-0.052-0.699-0.154c-0.307-0.104-0.54-0.156-0.7-0.156
		c-0.092,0-0.227,0.012-0.407,0.035C6.541,9.948,6.405,9.958,6.313,9.958c-0.405,0-0.746-0.106-1.021-0.321
		c-0.191-0.16-0.309-0.248-0.355-0.264c-0.1-0.053-0.252-0.08-0.459-0.08c-0.184,0-0.453,0.043-0.808,0.126
		C3.314,9.504,3.045,9.546,2.862,9.546c-0.773,0-1.159-0.229-1.159-0.688c0-0.314,0.596-0.559,1.789-0.734
		C3.5,7.856,3.58,7.63,3.733,7.447C3.626,7.5,3.473,7.581,3.274,7.687L3.228,7.665c0.161-0.183,0.325-0.393,0.494-0.631
		C3.683,6.958,3.649,6.904,3.618,6.873C3.534,6.881,3.305,6.988,2.93,7.194L2.884,7.184C3.037,7,3.202,6.786,3.377,6.541L3.32,6.472
		H3.217L2.609,6.61l-0.08-0.023c0.184-0.13,0.394-0.295,0.631-0.493V6.059l-0.034-0.08l-0.78-0.081
		c0.016-0.023,0.146-0.073,0.39-0.149c0.237-0.069,0.356-0.134,0.356-0.194c0-0.062-0.261-0.176-0.781-0.344
		c0.023-0.023,0.172-0.042,0.448-0.058C3.026,5.138,3.16,5.092,3.16,5.015C3.106,4.932,3.041,4.867,2.965,4.821
		C2.88,4.768,2.796,4.722,2.712,4.683C2.598,4.607,2.537,4.542,2.529,4.489l0.757,0.138l0.092-0.069V4.489L2.884,3.926
		c0.122,0.008,0.363,0.1,0.723,0.275c0.053-0.038,0.08-0.069,0.08-0.092c0-0.053-0.103-0.263-0.31-0.631V3.387
		C3.416,3.41,3.622,3.574,3.997,3.88l0.126-0.092c-0.023-0.16-0.077-0.393-0.161-0.7l0.046-0.057
		c0.076,0.122,0.157,0.24,0.241,0.355c0.13,0.184,0.226,0.275,0.287,0.275c0.023,0,0.038-0.023,0.046-0.069
		c0-0.175,0.027-0.424,0.081-0.745c0.007,0.007,0.064,0.145,0.172,0.413c0.084,0.207,0.153,0.313,0.207,0.321
		c0.053-0.031,0.119-0.141,0.195-0.333C5.281,3.12,5.331,2.986,5.384,2.848C5.407,2.956,5.427,3.12,5.442,3.341
		c0.015,0.214,0.042,0.321,0.08,0.321c0.061,0,0.157-0.084,0.287-0.252c0.076-0.122,0.156-0.24,0.241-0.355l0.035-0.023v0.057
		c0,0.078-0.021,0.199-0.063,0.367C5.979,3.624,5.958,3.731,5.958,3.777C5.958,3.839,6,3.873,6.084,3.88
		c0.122-0.122,0.324-0.287,0.607-0.493c-0.008,0.055-0.111,0.295-0.31,0.723c0.023,0.062,0.054,0.092,0.092,0.092
		c0.061,0,0.179-0.059,0.355-0.178c0.176-0.118,0.298-0.181,0.366-0.189c-0.068,0.138-0.171,0.344-0.309,0.62
		c0.214,0,0.397,0.107,0.55,0.321C7.75,4.224,8.153,3.949,8.641,3.949c0.352,0,0.662,0.117,0.929,0.35
		c0.269,0.233,0.402,0.522,0.402,0.866c0,0.145-0.02,0.283-0.057,0.413c0.138-0.046,0.297-0.069,0.48-0.069
		c0.314,0,0.577,0.109,0.791,0.326c0.214,0.219,0.321,0.479,0.321,0.786c0,0.206-0.046,0.412-0.138,0.619
		c0.069-0.015,0.138-0.023,0.207-0.023c0.328,0,0.664,0.107,1.01,0.321C12.976,7.776,13.172,8.047,13.172,8.353z M12.587,8.273
		c0-0.199-0.146-0.352-0.438-0.459c-0.213-0.069-0.442-0.104-0.688-0.104c-0.321,0-0.581,0.111-0.778,0.334
		c0.083,0.131,0.125,0.236,0.125,0.321c0,0.382-0.268,0.573-0.802,0.573c-0.321,0-0.595-0.061-0.815-0.184
		C9.101,8.694,9.055,8.618,9.055,8.526s0.046-0.154,0.137-0.184c0.42,0.137,0.695,0.206,0.826,0.206
		c0.245,0,0.366-0.065,0.366-0.195c0-0.061-0.106-0.172-0.32-0.333c0.199-0.305,0.298-0.6,0.298-0.882
		c0-0.13-0.069-0.233-0.207-0.311c-0.114-0.069-0.239-0.103-0.377-0.103c-0.314,0-0.586,0.107-0.814,0.321
		C8.909,7.062,8.855,7.069,8.802,7.069c-0.123,0-0.184-0.05-0.184-0.15c0-0.046,0.019-0.092,0.058-0.138
		c0.268-0.313,0.653-0.47,1.158-0.47c0.245,0,0.463,0.072,0.653,0.218c0.207,0.152,0.31,0.348,0.31,0.585
		c0,0.083-0.004,0.171-0.011,0.263c0.168-0.221,0.252-0.424,0.252-0.607c0-0.2-0.067-0.377-0.2-0.534
		c-0.134-0.156-0.297-0.234-0.488-0.234c-0.435,0-0.741,0.108-0.918,0.321C9.219,6.315,9.084,6.254,9.031,6.14
		C9.214,5.94,9.326,5.806,9.365,5.738c0.092-0.145,0.138-0.317,0.138-0.516c0-0.207-0.092-0.38-0.275-0.522
		C9.043,4.559,8.844,4.489,8.63,4.489c-0.443,0-0.856,0.447-1.239,1.341C7.277,5.31,7.083,5.05,6.807,5.05
		c-0.215,0-0.448,0.125-0.7,0.378c-0.268,0.268-0.402,0.59-0.402,0.964L5.442,6.748C5.32,6.403,5.205,6.231,5.098,6.231
		c-0.184,0-0.36,0.184-0.528,0.55c-0.229,0.505-0.356,0.77-0.379,0.792C4.123,7.643,4.054,7.715,3.985,7.792
		c-0.046,0.061-0.073,0.156-0.08,0.286l0.952-0.069C4.872,8.032,4.88,8.063,4.88,8.1c0,0.115-0.054,0.223-0.161,0.321
		c-0.459,0-1.04,0.065-1.743,0.196c-0.153,0.022-0.31,0.045-0.47,0.067C2.261,8.731,2.139,8.789,2.139,8.858
		c0,0.184,0.24,0.275,0.723,0.275c0.184,0,0.455-0.043,0.814-0.127s0.63-0.125,0.814-0.125c0.352,0,0.681,0.107,0.986,0.325
		c0.306,0.219,0.585,0.327,0.837,0.327c0.803,0,1.205-0.221,1.205-0.665c0.045-0.069,0.106-0.103,0.184-0.103
		c0.084,0,0.156,0.033,0.218,0.103c0,0.275-0.104,0.497-0.31,0.665c0.474,0.168,0.787,0.253,0.939,0.253
		c0.214,0,0.743-0.069,1.583-0.206c0.131-0.023,0.237-0.034,0.321-0.034c0.467,0,0.779-0.131,0.94-0.39
		c0.229-0.123,0.459-0.253,0.688-0.391C12.418,8.559,12.587,8.395,12.587,8.273z M6.394,4.591C6.057,4.171,5.637,3.96,5.132,3.96
		c-0.436,0-0.816,0.162-1.141,0.487c-0.325,0.325-0.488,0.71-0.488,1.153c0,0.504,0.207,0.924,0.62,1.261
		C4.452,6.167,4.78,5.818,5.109,5.818c0.099,0,0.191,0.02,0.275,0.057c0.046-0.221,0.167-0.458,0.361-0.71
		C5.94,4.913,6.157,4.722,6.394,4.591z M6.967,6.541C6.928,6.656,6.852,6.712,6.738,6.712c-0.016,0-0.034-0.004-0.058-0.011
		C6.658,6.472,6.631,6.357,6.6,6.357c-0.146,0-0.252,0.111-0.321,0.332C6.241,6.858,6.207,7.03,6.176,7.207
		C6.138,7.329,6.057,7.394,5.935,7.401C5.866,7.256,5.82,7.184,5.797,7.184c-0.1,0-0.18,0.08-0.241,0.24
		C5.526,7.546,5.496,7.668,5.465,7.792C5.366,8.105,5.193,8.379,4.949,8.618c0.237-1.231,0.524-1.847,0.86-1.847
		c0.03,0,0.061,0.003,0.092,0.011C5.947,6.59,6.023,6.412,6.13,6.243c0.145-0.207,0.294-0.31,0.447-0.31
		C6.844,5.933,6.975,6.136,6.967,6.541z"/>
</g>
</svg>
