<?xml version="1.0" encoding="utf-8"?>
<!-- Generator: Adobe Illustrator 15.1.0, SVG Export Plug-In . SVG Version: 6.00 Build 0)  -->
<!DOCTYPE svg PUBLIC "-//W3C//DTD SVG 1.1//EN" "http://www.w3.org/Graphics/SVG/1.1/DTD/svg11.dtd">
<svg version="1.1" id="Layer_1" xmlns="http://www.w3.org/2000/svg" xmlns:xlink="http://www.w3.org/1999/xlink" x="0px" y="0px"
	 width="14.172px" height="14.172px" viewBox="0 0 14.172 14.172" enable-background="new 0 0 14.172 14.172" xml:space="preserve">
<path d="M2.075,2.944c0-0.224,0.084-0.336,0.252-0.336c0.096,0,0.184,0.044,0.264,0.133l8.233,8.783
	c0.08,0.088,0.119,0.172,0.119,0.252c0,0.169-0.112,0.253-0.336,0.253H2.376c-0.2,0-0.301-0.101-0.301-0.3V2.944z M2.664,3.711
	v7.729l7.247-0.013L2.664,3.711z M12.552,10.084c0,0.225-0.084,0.336-0.252,0.336c-0.088,0-0.176-0.044-0.264-0.133L3.81,1.499
	C3.726,1.412,3.684,1.329,3.684,1.25C3.684,1.083,3.796,1,4.02,1h8.232c0.199,0,0.3,0.1,0.3,0.3V10.084z M11.964,9.315V1.588H4.716
	L11.964,9.315z"/>
</svg>
