<?xml version="1.0" encoding="utf-8"?>
<!-- Generator: Adobe Illustrator 15.1.0, SVG Export Plug-In . SVG Version: 6.00 Build 0)  -->
<!DOCTYPE svg PUBLIC "-//W3C//DTD SVG 1.1//EN" "http://www.w3.org/Graphics/SVG/1.1/DTD/svg11.dtd">
<svg version="1.1" id="Layer_1" xmlns="http://www.w3.org/2000/svg" xmlns:xlink="http://www.w3.org/1999/xlink" x="0px" y="0px"
	 width="14.172px" height="14.172px" viewBox="0 0 14.172 14.172" enable-background="new 0 0 14.172 14.172" xml:space="preserve">
<g>
	<path d="M4.221,7.332c-0.344,0-0.63-0.189-0.859-0.568C3.15,6.429,3.044,6.081,3.044,5.719c0-0.344,0.08-0.634,0.238-0.873
		c0.185-0.282,0.44-0.423,0.767-0.423c0.353,0,0.644,0.189,0.873,0.568c0.203,0.326,0.304,0.674,0.304,1.044
		c0,0.335-0.079,0.625-0.238,0.873C4.794,7.191,4.539,7.332,4.221,7.332z M9.035,7.888c0.748,0.405,1.123,0.957,1.123,1.653
		c0,0.626-0.303,1.133-0.912,1.521c-0.529,0.335-1.123,0.502-1.786,0.502c-0.66,0-1.256-0.167-1.785-0.502
		C5.059,10.674,4.75,10.167,4.75,9.541S5.072,8.395,5.715,7.98L5.703,7.967c0-0.361,0.197-0.643,0.594-0.846
		c0.326-0.168,0.688-0.252,1.086-0.252c0.37,0,0.713,0.08,1.032,0.238C8.801,7.302,9.008,7.562,9.035,7.888z M7.46,6.09
		c-0.379,0-0.688-0.172-0.926-0.516C6.324,5.266,6.218,4.913,6.218,4.516s0.105-0.749,0.316-1.058C6.773,3.106,7.082,2.93,7.46,2.93
		c0.372,0,0.674,0.176,0.913,0.529C8.586,3.767,8.691,4.12,8.691,4.516c0,0.388-0.105,0.736-0.318,1.044
		C8.135,5.914,7.832,6.09,7.46,6.09z M10.66,7.293c-0.316,0-0.568-0.146-0.752-0.437C9.74,6.602,9.656,6.306,9.656,5.971
		c0-0.546,0.172-0.992,0.516-1.335c0.238-0.238,0.494-0.357,0.768-0.357c0.326,0,0.582,0.146,0.766,0.436
		c0.16,0.247,0.238,0.542,0.238,0.886c0,0.546-0.168,0.991-0.502,1.335C11.203,7.174,10.943,7.293,10.66,7.293z"/>
</g>
</svg>
