<?xml version="1.0" encoding="utf-8"?>
<!-- Generator: Adobe Illustrator 15.1.0, SVG Export Plug-In . SVG Version: 6.00 Build 0)  -->
<!DOCTYPE svg PUBLIC "-//W3C//DTD SVG 1.1//EN" "http://www.w3.org/Graphics/SVG/1.1/DTD/svg11.dtd">
<svg version="1.1" id="Layer_1" xmlns="http://www.w3.org/2000/svg" xmlns:xlink="http://www.w3.org/1999/xlink" x="0px" y="0px"
	 width="14.172px" height="14.172px" viewBox="0 0 14.172 14.172" enable-background="new 0 0 14.172 14.172" xml:space="preserve">
<g enable-background="new    ">
	<path d="M3.247,5.535c0-0.719,0.169-1.29,0.507-1.713c0.338-0.423,0.755-0.635,1.251-0.635S5.92,3.398,6.258,3.821
		c0.338,0.423,0.507,0.994,0.507,1.713c0,0.718-0.169,1.288-0.507,1.709C5.92,7.665,5.503,7.875,5.006,7.875
		S4.092,7.665,3.754,7.244C3.416,6.822,3.247,6.253,3.247,5.535z M4.106,5.535c0,0.473,0.082,0.864,0.245,1.173
		c0.163,0.31,0.382,0.465,0.656,0.465c0.265,0,0.481-0.155,0.649-0.465s0.252-0.701,0.252-1.173c0-0.473-0.084-0.865-0.252-1.177
		C5.487,4.044,5.269,3.889,4.999,3.889S4.513,4.044,4.35,4.357C4.187,4.669,4.106,5.062,4.106,5.535z M4.318,11.002l5.554-7.815
		h0.894l-5.467,7.815H4.318z M8.445,8.662c0-0.718,0.168-1.289,0.504-1.712c0.337-0.423,0.755-0.635,1.255-0.635
		c0.497,0,0.913,0.21,1.248,0.631c0.336,0.421,0.504,0.993,0.504,1.716c0,0.719-0.168,1.289-0.504,1.71
		c-0.335,0.421-0.751,0.631-1.248,0.631c-0.5,0-0.918-0.21-1.255-0.631C8.613,9.951,8.445,9.38,8.445,8.662z M9.295,8.662
		c0,0.478,0.086,0.87,0.254,1.178S9.934,10.3,10.204,10.3c0.264,0,0.479-0.153,0.646-0.461s0.247-0.7,0.247-1.178
		c0-0.472-0.081-0.864-0.247-1.177c-0.165-0.312-0.382-0.468-0.646-0.468c-0.27,0-0.486,0.156-0.654,0.468
		C9.381,7.797,9.295,8.19,9.295,8.662z"/>
</g>
</svg>
