<?xml version="1.0" encoding="utf-8"?>
<!-- Generator: Adobe Illustrator 15.1.0, SVG Export Plug-In . SVG Version: 6.00 Build 0)  -->
<!DOCTYPE svg PUBLIC "-//W3C//DTD SVG 1.1//EN" "http://www.w3.org/Graphics/SVG/1.1/DTD/svg11.dtd">
<svg version="1.1" id="Layer_1" xmlns="http://www.w3.org/2000/svg" xmlns:xlink="http://www.w3.org/1999/xlink" x="0px" y="0px"
	 width="14.172px" height="14.172px" viewBox="0 0 14.172 14.172" enable-background="new 0 0 14.172 14.172" xml:space="preserve">
<path d="M6.86,10.616l-2.328-0.013c-0.305,0-0.564-0.16-0.78-0.479C3.656,9.933,3.504,9.644,3.296,9.26L2.444,7.809L2.252,7.473
	c-0.08-0.137-0.12-0.261-0.12-0.373c0-0.048,0.008-0.1,0.024-0.156c0.24-0.479,0.439-0.835,0.6-1.067L2.78,5.804
	c-0.232-0.128-0.576-0.328-1.032-0.6L1.724,5.156h2.904l1.393,2.508C5.668,7.48,5.324,7.284,4.988,7.076H4.94L4.316,8.155
	L6.86,8.181V10.616z M5.456,7.088L4.7,5.732l-0.18-0.36H2.48c0.136,0.08,0.327,0.204,0.575,0.372C2.968,5.912,2.8,6.212,2.552,6.644
	c-0.136,0.249-0.204,0.408-0.204,0.48c0,0.063,0.013,0.116,0.036,0.155l1.152,1.98c0.112-0.384,0.308-0.808,0.588-1.271l0.744-1.2
	h0.048C4.94,6.812,5.12,6.912,5.456,7.088z M10.892,2.672L9.524,5.204h-2.94l1.068-0.636C7.524,4.32,7.316,3.952,7.028,3.464H7.004
	L6.8,3.788l-1.044,1.86l-0.348-0.18L3.62,4.436c0.248-0.48,0.651-1.18,1.212-2.1C4.984,2.176,5.196,2.064,5.468,2l3.408,0.012
	C9.06,2.06,9.212,2.196,9.332,2.42C9.516,2.764,9.62,2.948,9.644,2.972c0.04,0.064,0.097,0.164,0.169,0.3L9.92,3.248
	C10.144,3.12,10.468,2.928,10.892,2.672z M6.644,10.4V8.396H4.208L3.86,8.972C3.748,9.22,3.736,9.468,3.824,9.716
	c0.144,0.4,0.372,0.624,0.684,0.673L6.644,10.4z M6.872,3.248C6.784,3.104,6.664,2.888,6.512,2.6C6.384,2.424,6.18,2.296,5.9,2.216
	C5.364,2.168,5.008,2.324,4.832,2.684C4.656,2.972,4.412,3.412,4.1,4.004C4.092,4.012,4.028,4.128,3.908,4.352l0.023,0.012
	l1.681,0.984h0.06L6.872,3.248z M10.316,3.26L9.764,3.572C9.74,3.54,9.624,3.344,9.416,2.984C9.36,2.928,9.28,2.796,9.176,2.588
	c-0.088-0.184-0.188-0.304-0.3-0.36L6.44,2.216C6.496,2.28,6.584,2.372,6.704,2.492l1.032,1.752L7.94,4.64
	C7.812,4.72,7.616,4.836,7.352,4.988h2.04L9.416,4.94l0.756-1.368L10.316,3.26z M11.744,6.74c0.048,0.128,0.072,0.264,0.072,0.409
	c0,0.279-0.076,0.52-0.229,0.72c-0.136,0.231-0.316,0.535-0.54,0.912l-0.924,1.583c-0.12,0.217-0.348,0.324-0.684,0.324
	c-0.08,0-0.204-0.008-0.372-0.023s-0.297-0.023-0.385-0.023s-0.164,0.008-0.228,0.023L8.42,11.876l-0.324-0.54L6.968,9.428
	L7.064,9.26l0.768-1.283c0.112-0.192,0.316-0.533,0.612-1.021l0.012,1.199c0.208,0.017,0.42,0.025,0.636,0.025
	S9.524,8.172,9.74,8.155L9.728,8.12L8.66,6.284C8.604,6.212,8.544,6.1,8.48,5.948l2.124-1.224L11.744,6.74z M11.072,8.3
	c-0.032,0.008-0.141,0.041-0.324,0.096L8.252,8.372c0-0.072-0.004-0.288-0.012-0.647C8.048,8.02,7.704,8.588,7.208,9.428
	c0.12,0.185,0.292,0.464,0.516,0.84c0.225,0.377,0.393,0.656,0.504,0.841l0.024-0.661h1.38c0.128,0,0.248-0.096,0.36-0.287
	l0.731-1.224L11.072,8.3z M11.492,6.704l-0.984-1.692l-1.74,1.02C8.776,6.048,9.18,6.752,9.98,8.144h0.756
	C11,8.096,11.21,7.977,11.366,7.784S11.6,7.368,11.6,7.111C11.6,6.968,11.564,6.832,11.492,6.704z"/>
</svg>
