<?xml version="1.0" encoding="utf-8"?>
<!-- Generator: Adobe Illustrator 15.1.0, SVG Export Plug-In . SVG Version: 6.00 Build 0)  -->
<!DOCTYPE svg PUBLIC "-//W3C//DTD SVG 1.1//EN" "http://www.w3.org/Graphics/SVG/1.1/DTD/svg11.dtd">
<svg version="1.1" id="Layer_1" xmlns="http://www.w3.org/2000/svg" xmlns:xlink="http://www.w3.org/1999/xlink" x="0px" y="0px"
	 width="14.172px" height="14.172px" viewBox="0 0 14.172 14.172" enable-background="new 0 0 14.172 14.172" xml:space="preserve">
<g enable-background="new    ">
	<path d="M11.641,7.141c0,1.466-0.521,2.719-1.561,3.76c-1.041,1.04-2.295,1.561-3.76,1.561c-1.466,0-2.719-0.521-3.76-1.561
		C1.521,9.86,1,8.607,1,7.141s0.521-2.72,1.561-3.759C3.602,2.341,4.854,1.82,6.32,1.82c1.465,0,2.719,0.521,3.76,1.562
		C11.12,4.421,11.641,5.675,11.641,7.141z M3.253,9.02l-0.34-1.583L1.868,6.185L1.187,6.657C1.172,6.811,1.165,6.972,1.165,7.141
		c0,0.857,0.197,1.659,0.593,2.407l0.704,0.45L3.253,9.02z M2.66,4.15L2.561,3.612C1.792,4.433,1.34,5.4,1.209,6.514l0.626-0.439
		L2.66,4.15z M2.572,10.681l-0.143-0.583L1.868,9.747C2.066,10.077,2.301,10.388,2.572,10.681z M6.024,2.974L5.705,2.018
		C4.518,2.165,3.502,2.663,2.66,3.514l0.099,0.593L4.43,4.228L6.024,2.974z M6.397,8.547l-0.33-1.704L4.54,6.085L3.023,7.426
		l0.329,1.562l1.627,0.703L6.397,8.547z M7.828,5.799V3.942l-1.738-0.88L4.506,4.305l0.077,1.682L6.1,6.756L7.828,5.799z
		 M8.804,10.329L8.398,9.174L6.463,8.636L5.057,9.768l0.593,1.594l1.813,0.132L8.804,10.329z M7.86,12.055l-0.396-0.451
		l-1.835-0.143l-0.571,0.67c0.41,0.11,0.831,0.165,1.264,0.165C6.848,12.296,7.361,12.216,7.86,12.055z M11.003,5.053l-0.022-0.022
		h0.012L9.42,3.448L7.936,3.953v1.858l1.561,1.308l1.452-0.452L11.003,5.053z M11.443,7.723l-0.474-0.945L9.52,7.229L8.497,9.142
		l0.396,1.153l1.54-0.043C11.003,9.498,11.34,8.655,11.443,7.723z M10.916,4.799c-0.352-0.689-0.835-1.271-1.451-1.747L9.487,3.37
		L10.916,4.799z"/>
</g>
</svg>
