<?xml version="1.0" encoding="utf-8"?>
<!-- Generator: Adobe Illustrator 15.1.0, SVG Export Plug-In . SVG Version: 6.00 Build 0)  -->
<!DOCTYPE svg PUBLIC "-//W3C//DTD SVG 1.1//EN" "http://www.w3.org/Graphics/SVG/1.1/DTD/svg11.dtd">
<svg version="1.1" id="Layer_1" xmlns="http://www.w3.org/2000/svg" xmlns:xlink="http://www.w3.org/1999/xlink" x="0px" y="0px"
	 width="14.173px" height="14.173px" viewBox="-0.17 -0.836 14.173 14.173" enable-background="new -0.17 -0.836 14.173 14.173"
	 xml:space="preserve">
<g>
	<path d="M5.513,8.921c0,0.373-0.167,0.726-0.501,1.061c-0.319,0.303-0.68,0.508-1.083,0.614c-0.319,0.084-0.611,0.126-0.877,0.126
		c-0.547,0-0.928-0.179-1.14-0.536c-0.083-0.144-0.125-0.304-0.125-0.479c0-0.311,0.121-0.611,0.365-0.899
		c0.243-0.289,0.566-0.506,0.968-0.65c0.296-0.099,0.589-0.148,0.878-0.148c0.364,0,0.683,0.072,0.957,0.218V1.672h0.558V8.921z"/>
	<path d="M12.088,8.921c0,0.373-0.171,0.722-0.512,1.048c-0.312,0.312-0.673,0.521-1.084,0.627c-0.312,0.084-0.6,0.126-0.865,0.126
		c-0.548,0-0.928-0.179-1.141-0.536C8.396,10.042,8.35,9.879,8.35,9.695c0-0.303,0.122-0.601,0.364-0.896
		c0.244-0.292,0.566-0.507,0.97-0.643c0.296-0.106,0.589-0.159,0.877-0.159c0.372,0,0.695,0.075,0.97,0.229V2.731H5.193v-1.06h6.895
		V8.921z"/>
</g>
</svg>
