<?xml version="1.0" encoding="utf-8"?>
<!-- Generator: Adobe Illustrator 15.1.0, SVG Export Plug-In . SVG Version: 6.00 Build 0)  -->
<!DOCTYPE svg PUBLIC "-//W3C//DTD SVG 1.1//EN" "http://www.w3.org/Graphics/SVG/1.1/DTD/svg11.dtd">
<svg version="1.1" id="Layer_1" xmlns="http://www.w3.org/2000/svg" xmlns:xlink="http://www.w3.org/1999/xlink" x="0px" y="0px"
	 width="14.172px" height="14.172px" viewBox="0 0 14.172 14.172" enable-background="new 0 0 14.172 14.172" xml:space="preserve">
<g enable-background="new    ">
	<path d="M1.653,6.777c-0.048,0.178-0.077,0.36-0.085,0.545c0,0.243-0.008,0.389-0.024,0.438c-0.04,0.146-0.146,0.219-0.315,0.219
		c-0.235,0-0.352-0.11-0.352-0.327C0.876,7.295,1.135,7.003,1.653,6.777z M1.726,10.333c-0.048,0.178-0.077,0.359-0.085,0.546
		c-0.008,0.243-0.016,0.389-0.024,0.437c-0.04,0.146-0.146,0.219-0.315,0.219c-0.235,0-0.352-0.109-0.352-0.328
		C0.949,10.85,1.208,10.559,1.726,10.333z M2.224,1.451C2.175,1.628,2.15,1.807,2.15,1.985c-0.008,0.25-0.02,0.396-0.036,0.437
		c-0.041,0.153-0.146,0.23-0.316,0.23c-0.234,0-0.352-0.108-0.352-0.327C1.446,1.96,1.705,1.669,2.224,1.451z M2.417,5.006
		C2.369,5.184,2.34,5.361,2.333,5.54c0,0.25-0.008,0.396-0.024,0.436C2.268,6.13,2.163,6.208,1.993,6.208
		c-0.234,0-0.352-0.11-0.352-0.329C1.641,5.516,1.899,5.225,2.417,5.006z M2.551,8.561C2.502,8.739,2.474,8.917,2.466,9.094
		C2.458,9.346,2.45,9.492,2.441,9.532c-0.049,0.154-0.157,0.23-0.327,0.23c-0.227,0-0.34-0.109-0.34-0.328
		C1.774,9.07,2.033,8.78,2.551,8.561z M3.243,3.222c-0.049,0.177-0.077,0.36-0.085,0.545C3.149,4.01,3.141,4.156,3.133,4.205
		C3.092,4.351,2.988,4.423,2.818,4.423c-0.235,0-0.352-0.109-0.352-0.327C2.466,3.74,2.725,3.448,3.243,3.222z M3.425,6.777
		c-0.049,0.178-0.073,0.36-0.073,0.545C3.344,7.566,3.335,7.711,3.328,7.76C3.279,7.906,3.17,7.979,3,7.979
		c-0.235,0-0.352-0.11-0.352-0.327C2.648,7.295,2.907,7.003,3.425,6.777z M3.497,10.333c-0.049,0.178-0.072,0.359-0.072,0.546
		c-0.008,0.243-0.021,0.389-0.037,0.437c-0.041,0.146-0.146,0.219-0.315,0.219c-0.234,0-0.352-0.109-0.352-0.328
		C2.721,10.85,2.979,10.559,3.497,10.333z M4.007,1.451C3.958,1.628,3.93,1.807,3.922,1.985c-0.008,0.25-0.016,0.396-0.024,0.437
		c-0.04,0.153-0.146,0.23-0.315,0.23c-0.234,0-0.352-0.108-0.352-0.327C3.23,1.96,3.489,1.669,4.007,1.451z M4.189,5.006
		C4.141,5.184,4.116,5.361,4.116,5.54C4.108,5.791,4.1,5.937,4.092,5.976C4.043,6.13,3.934,6.208,3.764,6.208
		c-0.234,0-0.352-0.11-0.352-0.329C3.413,5.516,3.671,5.225,4.189,5.006z M4.323,8.561C4.274,8.739,4.25,8.917,4.25,9.094
		C4.241,9.346,4.229,9.492,4.213,9.532c-0.041,0.154-0.146,0.23-0.316,0.23c-0.234,0-0.352-0.109-0.352-0.328
		C3.545,9.07,3.804,8.78,4.323,8.561z M5.014,3.222c-0.049,0.177-0.073,0.36-0.073,0.545C4.933,4.01,4.92,4.156,4.905,4.205
		C4.864,4.351,4.759,4.423,4.589,4.423c-0.234,0-0.351-0.109-0.351-0.327C4.238,3.74,4.497,3.448,5.014,3.222z M5.208,6.777
		C5.16,6.955,5.131,7.138,5.123,7.323C5.115,7.566,5.106,7.711,5.099,7.76C5.058,7.906,4.953,7.979,4.783,7.979
		c-0.234,0-0.352-0.11-0.352-0.327C4.432,7.295,4.69,7.003,5.208,6.777z M5.281,10.333c-0.048,0.178-0.077,0.359-0.085,0.546
		c-0.008,0.243-0.017,0.389-0.024,0.437c-0.041,0.146-0.146,0.219-0.316,0.219c-0.234,0-0.352-0.109-0.352-0.328
		C4.504,10.85,4.763,10.559,5.281,10.333z M5.778,1.451C5.729,1.628,5.705,1.807,5.705,1.985c-0.007,0.25-0.02,0.396-0.036,0.437
		c-0.041,0.153-0.145,0.23-0.315,0.23c-0.235,0-0.352-0.108-0.352-0.327C5.002,1.96,5.261,1.669,5.778,1.451z M5.972,5.006
		C5.924,5.184,5.896,5.361,5.887,5.54c-0.008,0.25-0.016,0.396-0.024,0.436C5.823,6.13,5.717,6.208,5.547,6.208
		c-0.234,0-0.352-0.11-0.352-0.329C5.196,5.516,5.455,5.225,5.972,5.006z M6.106,8.561C6.057,8.739,6.029,8.917,6.021,9.094
		C6.013,9.346,6.005,9.492,5.997,9.532c-0.048,0.154-0.158,0.23-0.328,0.23c-0.226,0-0.339-0.109-0.339-0.328
		C5.33,9.07,5.588,8.78,6.106,8.561z M6.797,3.222c-0.049,0.177-0.077,0.36-0.085,0.545C6.705,4.01,6.696,4.156,6.688,4.205
		c-0.04,0.146-0.145,0.219-0.315,0.219c-0.235,0-0.352-0.109-0.352-0.327C6.021,3.74,6.28,3.448,6.797,3.222z M6.979,6.777
		c-0.049,0.178-0.073,0.36-0.073,0.545C6.898,7.566,6.891,7.711,6.882,7.76C6.833,7.906,6.725,7.979,6.555,7.979
		c-0.235,0-0.352-0.11-0.352-0.327C6.203,7.295,6.462,7.003,6.979,6.777z M7.052,10.333c-0.048,0.178-0.073,0.359-0.073,0.546
		c-0.008,0.243-0.021,0.389-0.037,0.437c-0.04,0.146-0.146,0.219-0.315,0.219c-0.234,0-0.352-0.109-0.352-0.328
		C6.276,10.85,6.535,10.559,7.052,10.333z M7.562,1.451C7.514,1.628,7.485,1.807,7.477,1.985C7.469,2.235,7.46,2.381,7.453,2.422
		c-0.041,0.153-0.146,0.23-0.316,0.23c-0.234,0-0.352-0.108-0.352-0.327C6.785,1.96,7.044,1.669,7.562,1.451z M7.744,5.006
		C7.695,5.184,7.67,5.361,7.67,5.54c-0.007,0.25-0.02,0.396-0.035,0.436C7.594,6.13,7.489,6.208,7.319,6.208
		c-0.235,0-0.352-0.11-0.352-0.329C6.967,5.516,7.226,5.225,7.744,5.006z M7.877,8.561C7.829,8.739,7.804,8.917,7.804,9.094
		c-0.008,0.252-0.02,0.397-0.036,0.438c-0.04,0.154-0.146,0.23-0.315,0.23c-0.235,0-0.352-0.109-0.352-0.328
		C7.101,9.07,7.36,8.78,7.877,8.561z M8.569,3.222c-0.048,0.177-0.072,0.36-0.072,0.545C8.488,4.01,8.476,4.156,8.46,4.205
		C8.419,4.351,8.314,4.423,8.144,4.423c-0.234,0-0.352-0.109-0.352-0.327C7.792,3.74,8.051,3.448,8.569,3.222z M8.763,6.777
		c-0.049,0.178-0.077,0.36-0.085,0.545C8.67,7.566,8.662,7.711,8.654,7.76c-0.04,0.146-0.146,0.219-0.315,0.219
		c-0.234,0-0.352-0.11-0.352-0.327C7.987,7.295,8.246,7.003,8.763,6.777z M8.835,10.333c-0.048,0.178-0.076,0.359-0.085,0.546
		c-0.008,0.243-0.016,0.389-0.024,0.437c-0.048,0.146-0.157,0.219-0.327,0.219c-0.227,0-0.34-0.109-0.34-0.328
		C8.059,10.85,8.318,10.559,8.835,10.333z M9.333,1.451C9.285,1.628,9.26,1.807,9.26,1.985C9.252,2.235,9.24,2.381,9.224,2.422
		c-0.041,0.153-0.146,0.23-0.315,0.23c-0.234,0-0.352-0.108-0.352-0.327C8.557,1.96,8.816,1.669,9.333,1.451z M9.528,5.006
		C9.479,5.184,9.451,5.361,9.443,5.54c-0.009,0.25-0.017,0.396-0.024,0.436C9.377,6.13,9.273,6.208,9.103,6.208
		c-0.234,0-0.353-0.11-0.353-0.329C8.75,5.516,9.009,5.225,9.528,5.006z M9.662,8.561C9.613,8.739,9.583,8.917,9.577,9.094
		C9.568,9.346,9.56,9.492,9.552,9.532c-0.049,0.154-0.158,0.23-0.328,0.23c-0.227,0-0.34-0.109-0.34-0.328
		C8.884,9.07,9.143,8.78,9.662,8.561z M10.353,3.222c-0.049,0.177-0.077,0.36-0.085,0.545c-0.009,0.243-0.018,0.389-0.025,0.437
		c-0.049,0.146-0.157,0.219-0.327,0.219c-0.227,0-0.339-0.109-0.339-0.327C9.577,3.74,9.835,3.448,10.353,3.222z M10.534,6.777
		c-0.048,0.178-0.071,0.36-0.071,0.545c-0.009,0.243-0.021,0.389-0.037,0.438c-0.041,0.146-0.146,0.219-0.315,0.219
		c-0.235,0-0.353-0.11-0.353-0.327C9.757,7.295,10.016,7.003,10.534,6.777z M10.608,10.333c-0.048,0.178-0.074,0.359-0.074,0.546
		c-0.007,0.243-0.02,0.389-0.035,0.437c-0.041,0.146-0.146,0.219-0.315,0.219c-0.234,0-0.352-0.109-0.352-0.328
		C9.832,10.85,10.089,10.559,10.608,10.333z M11.117,1.451c-0.049,0.178-0.076,0.356-0.084,0.534
		c-0.008,0.25-0.017,0.396-0.025,0.437c-0.049,0.153-0.157,0.23-0.327,0.23c-0.227,0-0.34-0.108-0.34-0.327
		C10.34,1.96,10.599,1.669,11.117,1.451z M11.298,5.006c-0.049,0.178-0.071,0.355-0.071,0.534c-0.009,0.25-0.021,0.396-0.037,0.436
		c-0.04,0.154-0.146,0.231-0.315,0.231c-0.235,0-0.352-0.11-0.352-0.329C10.523,5.516,10.782,5.225,11.298,5.006z M11.432,8.561
		c-0.048,0.178-0.072,0.355-0.072,0.533c-0.008,0.252-0.021,0.397-0.036,0.438c-0.041,0.154-0.146,0.23-0.316,0.23
		c-0.234,0-0.351-0.109-0.351-0.328C10.657,9.07,10.915,8.78,11.432,8.561z M12.124,3.222c-0.048,0.177-0.072,0.36-0.072,0.545
		c-0.008,0.243-0.02,0.389-0.037,0.437c-0.04,0.146-0.146,0.219-0.314,0.219c-0.235,0-0.353-0.109-0.353-0.327
		C11.347,3.74,11.606,3.448,12.124,3.222z M12.318,6.777c-0.048,0.178-0.076,0.36-0.084,0.545c-0.009,0.243-0.017,0.389-0.025,0.438
		c-0.04,0.146-0.146,0.219-0.314,0.219c-0.235,0-0.353-0.11-0.353-0.327C11.542,7.295,11.8,7.003,12.318,6.777z M12.391,10.333
		c-0.049,0.178-0.077,0.359-0.086,0.546c-0.008,0.243-0.015,0.389-0.022,0.437c-0.049,0.146-0.159,0.219-0.329,0.219
		c-0.226,0-0.338-0.109-0.338-0.328C11.616,10.85,11.874,10.559,12.391,10.333z M12.888,1.451c-0.049,0.178-0.071,0.356-0.071,0.534
		c-0.009,0.25-0.021,0.396-0.037,0.437c-0.041,0.153-0.146,0.23-0.315,0.23c-0.235,0-0.354-0.108-0.354-0.327
		C12.111,1.96,12.371,1.669,12.888,1.451z"/>
</g>
</svg>
