<?xml version="1.0" encoding="utf-8"?>
<!-- Generator: Adobe Illustrator 15.1.0, SVG Export Plug-In . SVG Version: 6.00 Build 0)  -->
<!DOCTYPE svg PUBLIC "-//W3C//DTD SVG 1.1//EN" "http://www.w3.org/Graphics/SVG/1.1/DTD/svg11.dtd">
<svg version="1.1" id="Layer_1" xmlns="http://www.w3.org/2000/svg" xmlns:xlink="http://www.w3.org/1999/xlink" x="0px" y="0px"
	 width="14.172px" height="14.172px" viewBox="0 0 14.172 14.172" enable-background="new 0 0 14.172 14.172" xml:space="preserve">
<g enable-background="new    ">
	<path d="M11.772,7.105c0,1.286-0.453,2.382-1.359,3.288s-2.002,1.359-3.288,1.359s-2.382-0.453-3.289-1.359
		c-0.907-0.906-1.36-2.002-1.36-3.288s0.453-2.382,1.36-3.289c0.907-0.907,2.003-1.36,3.289-1.36s2.382,0.453,3.288,1.36
		S11.772,5.819,11.772,7.105z M7.124,7.03l0.006,0.15c0.029,0.599,0.25,1.098,0.663,1.495c0.412,0.398,0.914,0.598,1.505,0.598
		c0.611,0,1.125-0.215,1.542-0.645c0.416-0.43,0.625-0.959,0.625-1.592c0-1.164-0.429-2.167-1.285-3.009
		C9.323,3.184,8.304,2.764,7.124,2.764c-1.21,0-2.218,0.403-3.024,1.209c-0.806,0.806-1.245,1.85-1.316,3.131
		c0.092-0.712,0.323-1.252,0.691-1.621c0.368-0.367,0.862-0.551,1.482-0.551c0.59,0,1.091,0.2,1.501,0.6
		C6.869,5.931,7.089,6.431,7.124,7.03z M5.571,7.105c0-0.172-0.06-0.318-0.179-0.439C5.273,6.544,5.128,6.483,4.957,6.483
		s-0.318,0.061-0.44,0.183C4.396,6.787,4.334,6.933,4.334,7.105s0.061,0.318,0.182,0.44c0.121,0.122,0.268,0.182,0.44,0.182
		c0.167,0,0.312-0.062,0.433-0.186C5.511,7.418,5.571,7.273,5.571,7.105z M9.913,7.105c0,0.172-0.061,0.318-0.184,0.44
		C9.608,7.667,9.464,7.727,9.297,7.727c-0.172,0-0.318-0.061-0.439-0.182c-0.121-0.122-0.183-0.268-0.183-0.44
		s0.062-0.318,0.183-0.439c0.121-0.122,0.269-0.183,0.439-0.183s0.316,0.061,0.438,0.183C9.854,6.787,9.913,6.933,9.913,7.105z"/>
</g>
</svg>
