<?xml version="1.0" encoding="utf-8"?>
<!-- Generator: Adobe Illustrator 15.1.0, SVG Export Plug-In . SVG Version: 6.00 Build 0)  -->
<!DOCTYPE svg PUBLIC "-//W3C//DTD SVG 1.1//EN" "http://www.w3.org/Graphics/SVG/1.1/DTD/svg11.dtd">
<svg version="1.1" id="Layer_1" xmlns="http://www.w3.org/2000/svg" xmlns:xlink="http://www.w3.org/1999/xlink" x="0px" y="0px"
	 width="14.172px" height="14.172px" viewBox="0 0 14.172 14.172" enable-background="new 0 0 14.172 14.172" xml:space="preserve">
<g enable-background="new    ">
	<path d="M7.382,8.131C6.572,8.925,5.73,9.798,4.427,9.798c-1.335,0-2.272-0.969-2.272-2.318c0-1.271,1.017-2.352,2.399-2.352
		c1.192,0,2.065,0.92,2.828,1.683c0.811-0.81,1.652-1.683,2.956-1.683c1.334,0,2.271,0.968,2.271,2.352
		c0,1.238-1.017,2.318-2.415,2.318C9.019,9.798,8.145,8.878,7.382,8.131z M6.747,7.48c-0.62-0.572-1.271-1.415-2.193-1.415
		c-0.794,0-1.398,0.652-1.398,1.415c0,0.793,0.572,1.382,1.367,1.382C5.412,8.862,6.143,8.099,6.747,7.48z M11.609,7.48
		c0-0.811-0.571-1.415-1.351-1.415c-0.905,0-1.637,0.794-2.24,1.415c0.62,0.556,1.271,1.382,2.209,1.382
		C11.005,8.862,11.609,8.226,11.609,7.48z"/>
</g>
</svg>
