<?xml version="1.0" encoding="utf-8"?>
<!-- Generator: Adobe Illustrator 15.1.0, SVG Export Plug-In . SVG Version: 6.00 Build 0)  -->
<!DOCTYPE svg PUBLIC "-//W3C//DTD SVG 1.1//EN" "http://www.w3.org/Graphics/SVG/1.1/DTD/svg11.dtd">
<svg version="1.1" id="Layer_1" xmlns="http://www.w3.org/2000/svg" xmlns:xlink="http://www.w3.org/1999/xlink" x="0px" y="0px"
	 width="14.172px" height="14.172px" viewBox="0 0 14.172 14.172" enable-background="new 0 0 14.172 14.172" xml:space="preserve">
<g enable-background="new    ">
	<path d="M5.842,7.707L5.25,8.028c-0.402,0.216-0.603,0.429-0.603,0.64l0.006,0.239v0.146c0,0.629-0.189,1.139-0.568,1.529
		c-0.379,0.39-0.871,0.586-1.477,0.586c-0.445,0-0.818-0.146-1.119-0.439c-0.301-0.293-0.452-0.654-0.452-1.084
		c0-0.82,0.609-1.414,1.828-1.781l0.82-0.246c0.352-0.105,0.589-0.213,0.712-0.323C4.52,7.186,4.582,7.023,4.582,6.809
		c0-0.328-0.262-0.566-0.785-0.715l-0.85-0.247C1.674,5.483,1.037,4.868,1.037,4c0-0.422,0.154-0.78,0.463-1.073
		s0.688-0.439,1.137-0.439c0.555,0,1.029,0.203,1.424,0.61c0.395,0.407,0.592,0.896,0.592,1.468v0.457
		C4.637,5.187,4.807,5.372,5.162,5.579l0.68,0.405l5.01-3.135h0.105c0.78,0,1.475,0.25,2.08,0.75L7.354,6.845l5.684,3.252
		c-0.613,0.509-1.268,0.763-1.963,0.763c-0.047,0-0.121-0.004-0.223-0.013L5.842,7.707z M5.537,6.189L5.156,5.965
		C4.621,5.648,4.354,5.346,4.354,5.061l0.012-0.2V4.667c0-0.557-0.164-1.012-0.492-1.364C3.541,2.949,3.117,2.773,2.602,2.773
		c-0.332,0-0.628,0.125-0.888,0.376c-0.26,0.251-0.39,0.539-0.39,0.864c0,0.705,0.609,1.236,1.828,1.593l0.645,0.188
		c0.379,0.11,0.639,0.218,0.779,0.323C4.717,6.224,4.816,6.384,4.875,6.6L5.537,6.189z M4.887,6.921
		C4.848,7.207,4.766,7.403,4.641,7.513C4.516,7.624,4.242,7.742,3.82,7.871L3.111,8.093C2.431,8.3,1.964,8.516,1.708,8.739
		s-0.384,0.529-0.384,0.92c0,0.332,0.129,0.619,0.387,0.861c0.258,0.241,0.564,0.362,0.92,0.362c0.465,0,0.871-0.174,1.219-0.521
		c0.344-0.35,0.516-0.758,0.516-1.227V9.006L4.348,8.835C4.344,8.789,4.342,8.742,4.342,8.694c0-0.223,0.061-0.396,0.182-0.521
		S4.94,7.854,5.408,7.586l7.062-3.993c-0.391-0.305-0.908-0.457-1.553-0.457L4.887,6.921z M3.1,5.128L2.731,4.986
		c-0.652-0.242-0.979-0.565-0.979-0.97c0-0.215,0.088-0.403,0.264-0.563c0.176-0.161,0.381-0.241,0.615-0.241
		c0.32,0,0.616,0.136,0.888,0.408s0.407,0.571,0.407,0.896c0,0.239-0.038,0.419-0.114,0.54c-0.076,0.122-0.19,0.183-0.343,0.183
		C3.402,5.239,3.279,5.203,3.1,5.128z M2.619,8.733L3.088,8.55c0.094-0.039,0.205-0.059,0.334-0.059
		c0.168,0,0.294,0.054,0.378,0.161c0.084,0.106,0.126,0.271,0.126,0.488c0,0.344-0.128,0.647-0.384,0.911
		c-0.256,0.265-0.552,0.396-0.888,0.396c-0.238,0-0.447-0.078-0.627-0.236s-0.27-0.343-0.27-0.555
		C1.758,9.274,2.045,8.966,2.619,8.733z M3.106,8.837l-0.258,0.11c-0.543,0.23-0.814,0.459-0.814,0.687
		c0,0.142,0.06,0.263,0.179,0.363s0.261,0.151,0.425,0.151c0.266,0,0.501-0.1,0.706-0.299C3.549,9.651,3.65,9.423,3.65,9.166
		c0-0.138-0.02-0.238-0.059-0.306c-0.039-0.066-0.1-0.1-0.182-0.1C3.336,8.761,3.234,8.787,3.106,8.837z M2.877,4.747l0.217,0.089
		c0.133,0.055,0.244,0.082,0.334,0.082c0.078,0,0.137-0.035,0.176-0.105C3.643,4.742,3.663,4.637,3.663,4.5
		c0-0.251-0.109-0.48-0.328-0.688C3.116,3.604,2.877,3.5,2.619,3.5c-0.156,0-0.292,0.054-0.407,0.162
		C2.097,3.77,2.039,3.895,2.039,4.035C2.039,4.267,2.318,4.503,2.877,4.747z M5.596,6.815c0-0.188,0.094-0.281,0.281-0.281
		c0.187,0,0.28,0.094,0.28,0.281C6.158,7,6.064,7.09,5.877,7.09C5.69,7.09,5.596,7,5.596,6.815z M7.025,7.021L6.111,7.548
		l4.812,3.013h0.1c0.574,0,1.062-0.15,1.465-0.451L7.025,7.021z"/>
</g>
</svg>
