<?xml version="1.0" encoding="utf-8"?>
<!-- Generator: Adobe Illustrator 15.1.0, SVG Export Plug-In . SVG Version: 6.00 Build 0)  -->
<!DOCTYPE svg PUBLIC "-//W3C//DTD SVG 1.1//EN" "http://www.w3.org/Graphics/SVG/1.1/DTD/svg11.dtd">
<svg version="1.1" id="Layer_1" xmlns="http://www.w3.org/2000/svg" xmlns:xlink="http://www.w3.org/1999/xlink" x="0px" y="0px"
	 width="14.172px" height="14.172px" viewBox="0 0 14.172 14.172" enable-background="new 0 0 14.172 14.172" xml:space="preserve">
<g enable-background="new    ">
	<path d="M4.184,10.842v-0.5c0-0.426,0.063-0.763,0.188-1.011C4.498,9.083,4.759,8.78,5.155,8.419l1.018-0.915
		C6.497,7.21,6.658,7.02,6.658,6.933c0-0.097-0.198-0.316-0.593-0.659L5.047,5.378c-0.344-0.299-0.574-0.575-0.69-0.83
		C4.241,4.294,4.184,3.942,4.184,3.496v-0.54c0-0.373,0.285-0.653,0.856-0.839c0.57-0.188,1.426-0.28,2.567-0.28
		c2.282,0,3.423,0.373,3.423,1.119v0.54c0,0.447-0.059,0.799-0.174,1.053c-0.116,0.255-0.346,0.531-0.689,0.83L9.149,6.273
		C8.758,6.615,8.563,6.835,8.563,6.933c0,0.087,0.158,0.278,0.479,0.572l1.019,0.915c0.396,0.36,0.655,0.664,0.78,0.912
		s0.189,0.585,0.189,1.011v0.5c0,0.404-0.29,0.709-0.869,0.915c-0.582,0.206-1.433,0.31-2.554,0.31c-1.12,0-1.971-0.104-2.552-0.31
		C4.474,11.551,4.184,11.247,4.184,10.842z M4.562,3.127v0.632c0,0.303,0.051,0.537,0.154,0.701C4.818,4.625,5.083,4.901,5.51,5.292
		l0.871,0.79C6.818,6.49,7.036,6.778,7.036,6.944c0,0.171-0.201,0.441-0.602,0.81L5.433,8.669C5.042,9.024,4.799,9.291,4.704,9.466
		c-0.095,0.177-0.142,0.44-0.142,0.797v0.474c0,0.285,0.121,0.482,0.362,0.593c0.591,0.276,1.486,0.415,2.683,0.415
		c1.204,0,2.099-0.139,2.683-0.415c0.241-0.109,0.363-0.308,0.363-0.593v-0.474c0-0.354-0.05-0.62-0.145-0.797
		c-0.094-0.176-0.336-0.442-0.725-0.797l-1-0.915C8.385,7.386,8.185,7.107,8.185,6.919c0-0.149,0.221-0.428,0.661-0.836l0.861-0.79
		c0.426-0.391,0.688-0.668,0.791-0.833s0.154-0.398,0.154-0.701V3.127c-0.705,0.382-1.72,0.573-3.046,0.573
		c-0.663,0-1.248-0.048-1.754-0.146C5.347,3.458,4.916,3.315,4.562,3.127z M7.607,3.377c0.709,0,1.364-0.068,1.966-0.204
		c0.602-0.136,0.896-0.284,0.887-0.441c-0.011-0.163-0.287-0.299-0.83-0.409c-0.541-0.11-1.217-0.165-2.023-0.165
		c-0.812,0-1.49,0.056-2.035,0.167c-0.545,0.114-0.817,0.253-0.817,0.42c0,0.153,0.302,0.297,0.906,0.431
		C6.264,3.311,6.913,3.377,7.607,3.377z M4.947,10.862c0.083-0.264,0.391-0.514,0.926-0.75l0.68-0.297
		C6.98,9.626,7.236,9.5,7.32,9.434c0.085-0.065,0.183-0.214,0.29-0.44c0.113,0.228,0.21,0.375,0.292,0.44
		C7.985,9.5,8.239,9.626,8.667,9.815l0.676,0.297c0.533,0.238,0.844,0.488,0.926,0.75c-0.653,0.281-1.539,0.423-2.661,0.423
		C6.486,11.284,5.599,11.143,4.947,10.862z M5.378,4.43c0.761,0.413,1.503,0.619,2.228,0.619S9.077,4.842,9.842,4.43
		c-0.129,0.176-0.41,0.465-0.846,0.869l-0.64,0.599C8.069,6.167,7.895,6.352,7.834,6.455c-0.062,0.103-0.113,0.3-0.154,0.589
		c-0.01,0.088-0.033,0.22-0.07,0.396C7.574,7.263,7.551,7.131,7.542,7.044C7.5,6.754,7.448,6.558,7.385,6.455
		C7.324,6.352,7.149,6.167,6.861,5.898L6.22,5.299C5.783,4.896,5.502,4.606,5.378,4.43z"/>
</g>
</svg>
