<?xml version="1.0" encoding="utf-8"?>
<!-- Generator: Adobe Illustrator 15.1.0, SVG Export Plug-In . SVG Version: 6.00 Build 0)  -->
<!DOCTYPE svg PUBLIC "-//W3C//DTD SVG 1.1//EN" "http://www.w3.org/Graphics/SVG/1.1/DTD/svg11.dtd">
<svg version="1.1" id="Layer_1" xmlns="http://www.w3.org/2000/svg" xmlns:xlink="http://www.w3.org/1999/xlink" x="0px" y="0px"
	 width="14.172px" height="14.172px" viewBox="0 0 14.172 14.172" enable-background="new 0 0 14.172 14.172" xml:space="preserve">
<g enable-background="new    ">
	<path d="M5.993,10.598h-4.38v-3.65c0-0.516,0.152-0.965,0.456-1.346c0.304-0.382,0.715-0.64,1.234-0.774l3.508-0.902v-0.76
		l2.194-0.563v0.774C9.195,3.331,9.39,3.308,9.594,3.308c0.572,0,1.074,0.22,1.505,0.659c0.431,0.439,0.646,0.95,0.646,1.532v3.64
		L5.993,10.598z M5.752,10.357V6.968c0-0.546-0.191-1.006-0.575-1.381C4.794,5.212,4.323,5.024,3.764,5.024
		c-0.546,0-1,0.185-1.364,0.555C2.037,5.95,1.855,6.413,1.855,6.968v3.389H5.752z M4.597,7.396L4.055,7.614H3.088L2.92,7.396V6.766
		l0.167,0.182h0.967l0.542-0.182V7.396z M11.503,8.956V5.508c0-0.53-0.193-0.992-0.579-1.386c-0.388-0.395-0.84-0.592-1.36-0.592
		c-0.157,0-0.343,0.027-0.558,0.079V4.61L7.607,4.995v2.944L6.812,8.126V4.186l-2.54,0.647C4.818,5,5.241,5.271,5.542,5.643
		c0.3,0.374,0.451,0.815,0.451,1.325v3.389L11.503,8.956z"/>
</g>
</svg>
