<?xml version="1.0" encoding="utf-8"?>
<!-- Generator: Adobe Illustrator 15.1.0, SVG Export Plug-In . SVG Version: 6.00 Build 0)  -->
<!DOCTYPE svg PUBLIC "-//W3C//DTD SVG 1.1//EN" "http://www.w3.org/Graphics/SVG/1.1/DTD/svg11.dtd">
<svg version="1.1" id="Layer_1" xmlns="http://www.w3.org/2000/svg" xmlns:xlink="http://www.w3.org/1999/xlink" x="0px" y="0px"
	 width="14.172px" height="14.172px" viewBox="0 0 14.172 14.172" enable-background="new 0 0 14.172 14.172" xml:space="preserve">
<g enable-background="new    ">
	<path d="M9.692,2.687v0.287C8.004,3.628,7.068,4.897,6.883,6.781c1.883-0.186,3.153-1.122,3.807-2.809h0.287v6.223H10.69
		c-0.672-1.681-1.94-2.617-3.807-2.809c0.186,1.878,1.122,3.144,2.809,3.799v0.295H3.469v-0.295c1.687-0.644,2.623-1.91,2.809-3.799
		c-1.883,0.197-3.149,1.133-3.799,2.809H2.184V3.972h0.295c0.655,1.687,1.921,2.623,3.799,2.809
		C6.092,4.892,5.156,3.623,3.469,2.974V2.687H9.692z"/>
</g>
</svg>
