<?xml version="1.0" encoding="utf-8"?>
<!-- Generator: Adobe Illustrator 15.1.0, SVG Export Plug-In . SVG Version: 6.00 Build 0)  -->
<!DOCTYPE svg PUBLIC "-//W3C//DTD SVG 1.1//EN" "http://www.w3.org/Graphics/SVG/1.1/DTD/svg11.dtd">
<svg version="1.1" id="Layer_1" xmlns="http://www.w3.org/2000/svg" xmlns:xlink="http://www.w3.org/1999/xlink" x="0px" y="0px"
	 width="14.172px" height="14.172px" viewBox="0 0 14.172 14.172" enable-background="new 0 0 14.172 14.172" xml:space="preserve">
<g enable-background="new    ">
	<path d="M7.49,12.261c-1.517,0-2.811-0.536-3.883-1.607S2,8.288,2,6.771S2.536,3.96,3.607,2.888
		C4.679,1.817,5.974,1.281,7.49,1.281c1.516,0,2.811,0.536,3.883,1.607c1.071,1.072,1.607,2.366,1.607,3.883
		s-0.536,2.812-1.607,3.883C10.301,11.725,9.006,12.261,7.49,12.261z M7.49,11.562c1.324,0,2.454-0.468,3.388-1.401
		c0.935-0.935,1.402-2.063,1.402-3.386c0-1.322-0.468-2.452-1.402-3.389C9.944,2.449,8.814,1.98,7.49,1.98S5.037,2.449,4.102,3.385
		C3.167,4.323,2.7,5.452,2.7,6.774c0,1.323,0.467,2.452,1.402,3.386C5.037,11.094,6.167,11.562,7.49,11.562z M4.353,8.643V7.944
		h6.274v0.699H4.353z M5.745,5.895c-0.24,0-0.445-0.085-0.615-0.254c-0.17-0.17-0.254-0.375-0.254-0.615S4.96,4.581,5.13,4.411
		C5.3,4.241,5.505,4.157,5.745,4.157c0.245,0,0.452,0.084,0.622,0.254c0.169,0.169,0.254,0.375,0.254,0.615S6.535,5.471,6.363,5.641
		C6.191,5.81,5.985,5.895,5.745,5.895z M9.235,5.895c-0.24,0-0.445-0.085-0.617-0.254C8.446,5.471,8.36,5.266,8.36,5.026
		s0.086-0.445,0.258-0.615c0.172-0.17,0.377-0.254,0.617-0.254S9.68,4.241,9.85,4.411c0.17,0.169,0.254,0.375,0.254,0.615
		S10.02,5.471,9.85,5.641C9.68,5.81,9.475,5.895,9.235,5.895z"/>
</g>
</svg>
