<?xml version="1.0" encoding="utf-8"?>
<!-- Generator: Adobe Illustrator 15.1.0, SVG Export Plug-In . SVG Version: 6.00 Build 0)  -->
<!DOCTYPE svg PUBLIC "-//W3C//DTD SVG 1.1//EN" "http://www.w3.org/Graphics/SVG/1.1/DTD/svg11.dtd">
<svg version="1.1" id="Layer_1" xmlns="http://www.w3.org/2000/svg" xmlns:xlink="http://www.w3.org/1999/xlink" x="0px" y="0px"
	 width="14.172px" height="14.172px" viewBox="0 0 14.172 14.172" enable-background="new 0 0 14.172 14.172" xml:space="preserve">
<g enable-background="new    ">
	<path d="M3.114,2.023C3.33,1.958,4.627,1.926,7.008,1.926c2.379,0,3.686,0.032,3.918,0.097c0.239,0.063,0.48,0.22,0.725,0.468
		s0.398,0.492,0.463,0.731c0.064,0.248,0.088,1.601,0.072,4.057c-0.017,1.815-0.035,2.899-0.055,3.252
		c-0.02,0.352-0.078,0.62-0.174,0.804c-0.057,0.104-0.141,0.216-0.252,0.336c-0.112,0.12-0.216,0.212-0.312,0.276l-0.371,0.252
		l-3.888,0.023l-3.888,0.013L2.85,12.042c-0.264-0.136-0.484-0.316-0.66-0.54l-0.264-0.336L1.89,7.243
		C1.881,5.394,1.884,4.26,1.896,3.84c0.012-0.42,0.058-0.722,0.138-0.906c0.096-0.208,0.242-0.396,0.438-0.563
		C2.667,2.203,2.881,2.086,3.114,2.023z M5.729,5.766C5.441,5.63,5.136,5.588,4.812,5.64c-0.324,0.053-0.61,0.187-0.858,0.402
		c-0.192,0.176-0.316,0.44-0.372,0.792c-0.056,0.353-0.024,0.652,0.096,0.9c0.096,0.168,0.24,0.33,0.432,0.485
		c0.192,0.156,0.392,0.263,0.6,0.318c0.336,0.104,0.688,0.054,1.056-0.15C6.133,8.184,6.37,7.911,6.474,7.567
		C6.585,7.199,6.57,6.844,6.426,6.504S6.049,5.918,5.729,5.766z M9.629,5.743c-0.16-0.08-0.384-0.12-0.672-0.12
		c-0.312,0-0.592,0.09-0.84,0.27C7.87,6.073,7.694,6.291,7.589,6.546C7.485,6.802,7.459,7.081,7.512,7.38
		c0.052,0.3,0.194,0.558,0.426,0.774c0.271,0.264,0.574,0.407,0.906,0.432C9.175,8.611,9.505,8.519,9.833,8.31
		c0.312-0.199,0.515-0.468,0.606-0.804s0.063-0.668-0.084-0.996C10.208,6.182,9.965,5.926,9.629,5.743z"/>
</g>
</svg>
