<?xml version="1.0" encoding="utf-8"?>
<!-- Generator: Adobe Illustrator 15.1.0, SVG Export Plug-In . SVG Version: 6.00 Build 0)  -->
<!DOCTYPE svg PUBLIC "-//W3C//DTD SVG 1.1//EN" "http://www.w3.org/Graphics/SVG/1.1/DTD/svg11.dtd">
<svg version="1.1" id="Layer_1" xmlns="http://www.w3.org/2000/svg" xmlns:xlink="http://www.w3.org/1999/xlink" x="0px" y="0px"
	 width="14.172px" height="14.172px" viewBox="0 0 14.172 14.172" enable-background="new 0 0 14.172 14.172" xml:space="preserve">
<g enable-background="new    ">
	<path d="M6.743,11.867c-0.146,0.286-0.331,0.502-0.554,0.647s-0.483,0.219-0.78,0.219c-0.51,0-0.941-0.276-1.295-0.827L3.989,11.71
		c-0.172-0.266-0.411-0.432-0.718-0.5l-0.227-0.047c-0.359-0.077-0.653-0.255-0.882-0.53s-0.343-0.59-0.343-0.944
		c0-0.333,0.177-0.691,0.531-1.076C1.902,8.518,1.566,8.348,1.339,8.101C1.113,7.854,1,7.528,1,7.122
		c0-0.296,0.114-0.588,0.343-0.874l0.188-0.227C1.775,5.72,1.897,5.488,1.897,5.327c0-0.057-0.005-0.138-0.016-0.242L1.866,4.796
		C1.861,4.729,1.858,4.664,1.858,4.602c0-0.359,0.148-0.687,0.445-0.983C2.594,3.322,2.917,3.173,3.27,3.173
		c0.239,0,0.517,0.081,0.834,0.242C4.063,3.249,4.043,3.126,4.043,3.049c0-0.359,0.146-0.679,0.436-0.96s0.624-0.421,0.998-0.421
		c0.176,0,0.369,0.039,0.577,0.117l0.265,0.094C6.562,1.977,6.726,2.026,6.81,2.026c0.12,0,0.278-0.042,0.475-0.125L7.503,1.8
		c0.203-0.089,0.402-0.133,0.6-0.133c0.379,0,0.718,0.141,1.017,0.421s0.448,0.601,0.448,0.96c0,0.104-0.013,0.25-0.039,0.437
		C9.643,3.408,9.766,3.35,9.895,3.314c0.131-0.037,0.269-0.055,0.414-0.055c0.411,0,0.755,0.156,1.03,0.468s0.4,0.684,0.374,1.116
		l-0.016,0.328c-0.01,0.15-0.015,0.242-0.015,0.273c0,0.171,0.101,0.375,0.304,0.608l0.141,0.156
		c0.275,0.312,0.414,0.632,0.414,0.96c0,0.385-0.108,0.705-0.324,0.959s-0.542,0.442-0.979,0.562
		c0.297,0.359,0.445,0.711,0.445,1.054c0,0.744-0.385,1.218-1.153,1.42l-0.234,0.062c-0.385,0.1-0.648,0.281-0.795,0.547
		L9.37,12.006c-0.276,0.489-0.702,0.734-1.278,0.734c-0.261,0-0.501-0.073-0.725-0.219C7.143,12.376,6.936,12.158,6.743,11.867z
		 M6.946,9.626C6.92,9.85,6.907,10.049,6.907,10.221c0,0.71,0.099,1.243,0.296,1.601c0.197,0.358,0.491,0.536,0.88,0.536
		s0.716-0.205,0.981-0.618l0.156-0.233c0.217-0.34,0.537-0.559,0.957-0.657l0.249-0.056c0.582-0.136,0.873-0.489,0.873-1.062
		c0-0.313-0.211-0.673-0.632-1.08C9.997,8.568,9.441,8.405,8.999,8.16l0.117-0.358c0.756,0.327,1.388,0.491,1.894,0.491
		c0.386,0,0.674-0.091,0.864-0.273c0.19-0.181,0.285-0.454,0.285-0.818c0-0.233-0.103-0.469-0.307-0.708l-0.189-0.217
		c-0.252-0.296-0.378-0.606-0.378-0.927c0-0.058,0.003-0.117,0.008-0.18l0.016-0.265c0.005-0.056,0.008-0.119,0.008-0.186
		c0-0.302-0.097-0.557-0.289-0.764c-0.197-0.208-0.437-0.312-0.718-0.312c-0.15,0-0.309,0.03-0.472,0.09
		C9.673,3.79,9.502,3.88,9.327,4C9.036,4.553,8.719,5.014,8.377,5.382L8.067,5.148c0.73-0.85,1.096-1.549,1.096-2.097
		c0-0.272-0.104-0.506-0.312-0.704C8.642,2.149,8.392,2.05,8.101,2.05c-0.12,0-0.271,0.037-0.452,0.109L7.391,2.26
		c-0.24,0.099-0.435,0.148-0.585,0.148c-0.125,0-0.328-0.055-0.609-0.164l-0.242-0.09c-0.192-0.07-0.359-0.105-0.5-0.105
		c-0.302,0-0.549,0.104-0.741,0.312S4.426,2.835,4.426,3.158c0,0.146,0.018,0.338,0.055,0.578C4.857,4.102,5.209,4.56,5.538,5.109
		L5.225,5.327C4.508,4.146,3.869,3.556,3.309,3.556c-0.317,0-0.577,0.117-0.78,0.351c-0.208,0.24-0.304,0.531-0.288,0.874
		l0.016,0.281C2.262,5.129,2.264,5.2,2.264,5.272c0,0.296-0.139,0.611-0.417,0.944L1.668,6.435c-0.19,0.229-0.286,0.468-0.286,0.718
		c0,0.281,0.114,0.521,0.341,0.722C1.951,8.075,2.29,8.233,2.74,8.347c0.44-0.25,0.992-0.455,1.655-0.616l0.117,0.366
		C3.596,8.363,2.982,8.605,2.67,8.823c-0.312,0.219-0.468,0.516-0.468,0.89c0,0.577,0.292,0.932,0.875,1.062l0.258,0.062
		c0.433,0.099,0.761,0.325,0.985,0.679l0.148,0.234c0.245,0.39,0.568,0.585,0.969,0.585c0.219,0,0.426-0.076,0.621-0.23
		c0.196-0.153,0.379-0.384,0.551-0.69c-0.078-0.364-0.117-0.765-0.117-1.201c0-0.183,0.018-0.378,0.055-0.586H6.946z M6.782,8.464
		L6.61,8.877L6.259,8.799l0.016-0.437L5.75,8.963L5.453,8.737l0.391-0.694L5.42,8.191L5.24,7.856l0.337-0.281l-0.43-0.016L5.107,7.2
		L5.53,7.083L4.786,6.771l0.126-0.359l0.775,0.18L5.428,6.217l0.259-0.265L6.04,6.193L5.93,5.78l0.353-0.164l0.219,0.367l0.07-0.789
		h0.382l0.07,0.789L7.29,5.616l0.35,0.164L7.522,6.201l0.35-0.242l0.25,0.265L7.848,6.568L8.633,6.38L8.735,6.74L8.02,7.06
		l0.419,0.125L8.393,7.567l-0.42,0.016l0.334,0.266L8.128,8.183L7.717,8.027l0.435,0.671L7.833,8.932l-0.52-0.585L7.305,8.799
		L6.946,8.87L6.782,8.464z M6.782,8.355c0.323,0,0.596-0.112,0.82-0.336C7.825,7.795,7.937,7.522,7.937,7.2
		c0-0.322-0.112-0.595-0.335-0.819c-0.224-0.224-0.497-0.335-0.82-0.335S6.187,6.157,5.963,6.38C5.739,6.604,5.627,6.877,5.627,7.2
		c0,0.323,0.11,0.596,0.332,0.819S6.455,8.355,6.782,8.355z M6.767,7.684c-0.312,0-0.468-0.162-0.468-0.484
		c0-0.317,0.156-0.476,0.468-0.476S7.235,6.883,7.235,7.2C7.235,7.522,7.079,7.684,6.767,7.684z"/>
</g>
</svg>
