<?xml version="1.0" encoding="utf-8"?>
<!-- Generator: Adobe Illustrator 15.1.0, SVG Export Plug-In . SVG Version: 6.00 Build 0)  -->
<!DOCTYPE svg PUBLIC "-//W3C//DTD SVG 1.1//EN" "http://www.w3.org/Graphics/SVG/1.1/DTD/svg11.dtd">
<svg version="1.1" id="Layer_1" xmlns="http://www.w3.org/2000/svg" xmlns:xlink="http://www.w3.org/1999/xlink" x="0px" y="0px"
	 width="14.172px" height="14.172px" viewBox="0 0 14.172 14.172" enable-background="new 0 0 14.172 14.172" xml:space="preserve">
<g enable-background="new    ">
	<path d="M12.591,2.467v8.28H1.33v-8.28H12.591z M1.992,3.792h0.993V3.129H1.992V3.792z M1.992,8.76h2.649V4.455H1.992V8.76z
		 M1.992,10.085h0.993V9.423H1.992V10.085z M3.648,3.792h0.994V3.129H3.648V3.792z M3.648,10.085h0.994V9.423H3.648V10.085z
		 M5.635,3.792h0.994V3.129H5.635V3.792z M5.635,8.76h2.649V4.455H5.635V8.76z M5.635,10.085h0.994V9.423H5.635V10.085z
		 M7.292,3.792h0.993V3.129H7.292V3.792z M7.292,10.085h0.993V9.423H7.292V10.085z M9.279,3.792h0.993V3.129H9.279V3.792z
		 M9.279,8.76h2.65V4.455h-2.65V8.76z M9.279,10.085h0.993V9.423H9.279V10.085z M10.935,3.792h0.994V3.129h-0.994V3.792z
		 M10.935,10.085h0.994V9.423h-0.994V10.085z"/>
</g>
</svg>
