<?xml version="1.0" encoding="utf-8"?>
<!-- Generator: Adobe Illustrator 15.1.0, SVG Export Plug-In . SVG Version: 6.00 Build 0)  -->
<!DOCTYPE svg PUBLIC "-//W3C//DTD SVG 1.1//EN" "http://www.w3.org/Graphics/SVG/1.1/DTD/svg11.dtd">
<svg version="1.1" id="Layer_1" xmlns="http://www.w3.org/2000/svg" xmlns:xlink="http://www.w3.org/1999/xlink" x="0px" y="0px"
	 width="14.172px" height="14.172px" viewBox="0 0 14.172 14.172" enable-background="new 0 0 14.172 14.172" xml:space="preserve">
<g enable-background="new    ">
	<path d="M9.445,4.625v0.351H7.778c0,0.03-0.062,0.294-0.187,0.792c-0.42,1.695-0.84,2.972-1.26,3.835
		c-0.567,1.197-1.305,2.068-2.215,2.611c-0.326,0.203-0.695,0.303-1.107,0.303c-0.652,0-1.079-0.186-1.282-0.559
		c-0.125-0.217-0.187-0.439-0.187-0.664c0-0.326,0.118-0.602,0.355-0.822s0.484-0.309,0.741-0.262
		c0.482,0.084,0.722,0.33,0.722,0.734c0,0.115-0.019,0.24-0.058,0.373c-0.109,0.271-0.303,0.441-0.583,0.514
		c-0.101,0.021-0.152,0.068-0.152,0.139s0.045,0.131,0.134,0.18c0.089,0.051,0.2,0.068,0.332,0.055
		c0.233-0.025,0.525-0.289,0.875-0.793c0.403-0.592,0.769-1.447,1.095-2.566c0.233-0.893,0.462-1.787,0.688-2.68
		c0.147-0.544,0.222-0.941,0.222-1.189H4.77V4.625h1.282c-0.008-0.124,0.062-0.399,0.21-0.827c0.217-0.591,0.509-1.099,0.874-1.527
		c0.505-0.59,1.119-0.98,1.842-1.166C9.242,1.035,9.499,1,9.749,1c0.504,0,0.92,0.13,1.247,0.391c0.326,0.261,0.488,0.6,0.488,1.02
		c0,0.334-0.089,0.591-0.269,0.769c-0.154,0.148-0.336,0.223-0.547,0.223c-0.217,0-0.384-0.067-0.5-0.198
		C10.05,3.071,9.993,2.916,9.993,2.737c0-0.248,0.093-0.458,0.279-0.629c0.054-0.063,0.187-0.105,0.396-0.129
		c0.211-0.023,0.321-0.07,0.338-0.139c0.062-0.249-0.147-0.373-0.63-0.373c-0.302,0-0.57,0.051-0.803,0.152
		c-0.965,0.435-1.524,1.437-1.68,3.006H9.445z"/>
</g>
</svg>
