<?xml version="1.0" encoding="utf-8"?>
<!-- Generator: Adobe Illustrator 15.1.0, SVG Export Plug-In . SVG Version: 6.00 Build 0)  -->
<!DOCTYPE svg PUBLIC "-//W3C//DTD SVG 1.1//EN" "http://www.w3.org/Graphics/SVG/1.1/DTD/svg11.dtd">
<svg version="1.1" id="Layer_1" xmlns="http://www.w3.org/2000/svg" xmlns:xlink="http://www.w3.org/1999/xlink" x="0px" y="0px"
	 width="14.172px" height="14.172px" viewBox="0 0 14.172 14.172" enable-background="new 0 0 14.172 14.172" xml:space="preserve">
<g enable-background="new    ">
	<path d="M2.201,8V6.925h9.254V8H2.201z M5.878,4.325c0-0.591,0.395-1.004,0.951-1.004c0.574,0,0.95,0.414,0.95,1.004
		c0,0.557-0.376,0.987-0.968,0.987C6.254,5.312,5.878,4.882,5.878,4.325z M5.878,10.622c0-0.593,0.395-1.005,0.951-1.005
		c0.574,0,0.95,0.412,0.95,1.005c0,0.555-0.376,0.985-0.968,0.985C6.254,11.607,5.878,11.176,5.878,10.622z"/>
</g>
</svg>
