<?xml version="1.0" encoding="utf-8"?>
<!-- Generator: Adobe Illustrator 15.1.0, SVG Export Plug-In . SVG Version: 6.00 Build 0)  -->
<!DOCTYPE svg PUBLIC "-//W3C//DTD SVG 1.1//EN" "http://www.w3.org/Graphics/SVG/1.1/DTD/svg11.dtd">
<svg version="1.1" id="Layer_1" xmlns="http://www.w3.org/2000/svg" xmlns:xlink="http://www.w3.org/1999/xlink" x="0px" y="0px"
	 width="14.172px" height="14.172px" viewBox="0 0 14.172 14.172" enable-background="new 0 0 14.172 14.172" xml:space="preserve">
<g enable-background="new    ">
	<path d="M2.875,7.515c0,0.03-0.019,0.045-0.056,0.045c-0.083,0-0.206-0.067-0.371-0.202C2.283,7.223,2.201,7.119,2.201,7.043
		c0-0.037,0.015-0.056,0.044-0.056c0.075,0,0.199,0.069,0.371,0.207C2.789,7.334,2.875,7.44,2.875,7.515z M10.769,5.124
		c0,0.666-0.229,1.205-0.687,1.617C9.641,7.129,9.083,7.324,8.41,7.324c-0.726,0-1.302-0.233-1.729-0.696
		c-0.405-0.45-0.606-1.041-0.606-1.774c0-0.254,0.03-0.51,0.089-0.764C5.566,4.344,4.952,4.816,4.323,5.504
		c-0.531,0.592-0.984,1.232-1.358,1.92c-0.03-0.09-0.139-0.206-0.326-0.348S2.317,6.868,2.235,6.875
		c0.688-1.243,1.426-2.253,2.211-3.032c1.07-1.07,2.148-1.605,3.234-1.605c0.868,0,1.594,0.261,2.178,0.785
		C10.465,3.562,10.769,4.263,10.769,5.124z M11.711,11.456h-0.64l-0.696-2.818H8.792v2.818H8.185V8.637H6.603l-0.696,2.818h-0.64
		l0.798-3.199L6.367,8.02h4.256l0.292,0.236L11.711,11.456z"/>
</g>
</svg>
