<?xml version="1.0" encoding="utf-8"?>
<!-- Generator: Adobe Illustrator 15.1.0, SVG Export Plug-In . SVG Version: 6.00 Build 0)  -->
<!DOCTYPE svg PUBLIC "-//W3C//DTD SVG 1.1//EN" "http://www.w3.org/Graphics/SVG/1.1/DTD/svg11.dtd">
<svg version="1.1" id="Layer_1" xmlns="http://www.w3.org/2000/svg" xmlns:xlink="http://www.w3.org/1999/xlink" x="0px" y="0px"
	 width="14.172px" height="14.172px" viewBox="0 0 14.172 14.172" enable-background="new 0 0 14.172 14.172" xml:space="preserve">
<path d="M10.726,1.696c0.225,0,0.336,0.085,0.336,0.255c0,0.097-0.042,0.186-0.125,0.267l-8.796,8.219
	c-0.079,0.084-0.163,0.127-0.249,0.127c-0.167,0-0.25-0.112-0.25-0.336V1.996c0-0.2,0.101-0.3,0.301-0.3H10.726z M9.958,2.296H2.23
	v7.236L9.958,2.296z M3.586,12.172c-0.224,0-0.336-0.082-0.336-0.246c0-0.094,0.048-0.18,0.143-0.258l8.779-8.238
	c0.087-0.084,0.17-0.126,0.249-0.126c0.166,0,0.249,0.112,0.249,0.336v8.232c0,0.2-0.1,0.3-0.3,0.3H3.586z M4.342,11.584h7.74V4.336
	L4.342,11.584z"/>
</svg>
