<?xml version="1.0" encoding="utf-8"?>
<!-- Generator: Adobe Illustrator 15.1.0, SVG Export Plug-In . SVG Version: 6.00 Build 0)  -->
<!DOCTYPE svg PUBLIC "-//W3C//DTD SVG 1.1//EN" "http://www.w3.org/Graphics/SVG/1.1/DTD/svg11.dtd">
<svg version="1.1" id="Layer_1" xmlns="http://www.w3.org/2000/svg" xmlns:xlink="http://www.w3.org/1999/xlink" x="0px" y="0px"
	 width="14.172px" height="14.172px" viewBox="0 0 14.172 14.172" enable-background="new 0 0 14.172 14.172" xml:space="preserve">
<g enable-background="new    ">
	<path d="M11.661,8.648c0,0.585-0.232,1.371-0.696,2.359c-0.395,0.84-0.818,1.561-1.273,2.165c0.747-2.278,1.121-3.645,1.121-4.1
		c0-0.14-0.019-0.243-0.056-0.314c-0.084-0.148-0.43-0.309-1.037-0.479c0.097,0.2,0.146,0.385,0.146,0.557
		c0,1.077-0.489,2.395-1.468,3.954c0.152-0.622,0.304-1.246,0.452-1.872c0.172-0.789,0.257-1.416,0.257-1.879
		c0-0.349-0.044-0.588-0.132-0.718C8.895,8.206,8.686,8.059,8.348,7.881c0.051,0.297,0.076,0.622,0.076,0.975
		c0,0.427-0.051,0.845-0.153,1.254c-0.102,0.408-0.255,0.8-0.459,1.176c-0.288,0.516-0.585,0.772-0.886,0.772
		c-0.306,0-0.604-0.257-0.891-0.772C5.828,10.91,5.673,10.518,5.57,10.11C5.468,9.703,5.417,9.284,5.417,8.857
		c0-0.353,0.024-0.677,0.071-0.974C5.148,8.059,4.939,8.206,4.861,8.322C4.771,8.451,4.728,8.69,4.728,9.039
		c0,0.463,0.086,1.09,0.258,1.879c0.153,0.626,0.304,1.25,0.453,1.872C4.459,11.235,3.97,9.917,3.97,8.835
		c0-0.172,0.051-0.356,0.153-0.557C3.51,8.451,3.165,8.611,3.085,8.759C3.043,8.83,3.023,8.933,3.023,9.073
		c0,0.469,0.375,1.835,1.127,4.1c-0.455-0.599-0.881-1.32-1.281-2.165c-0.464-0.988-0.696-1.774-0.696-2.359
		c0-0.181,0.032-0.313,0.098-0.396C2.4,8.084,3.542,7.723,5.696,7.166l0.035-0.069C4.793,7.178,4.083,7.22,3.601,7.22
		c-0.312,0-0.501-0.021-0.57-0.062C2.858,7.061,2.772,6.629,2.772,5.864c0-1.55,0.332-2.807,0.996-3.772
		c-0.223,1.545-0.335,2.616-0.335,3.21c0,0.709,0.102,1.144,0.306,1.301c0.079,0.062,0.239,0.091,0.48,0.091
		c0.195,0,0.39-0.015,0.584-0.042C4.521,6.372,4.379,6.007,4.379,5.557c0-1.577,0.378-2.87,1.135-3.877
		C5.263,3.064,5.139,4.147,5.139,4.932c0,0.881,0.078,1.373,0.237,1.475c0.069,0.046,0.187,0.07,0.355,0.07
		c0.208,0,0.477-0.027,0.807-0.083C6.144,6.166,5.947,5.762,5.947,5.182c0-0.321,0.079-0.608,0.236-0.864
		c0.186-0.3,0.429-0.451,0.731-0.451s0.545,0.148,0.731,0.446c0.162,0.258,0.243,0.55,0.243,0.869c0,0.58-0.197,0.984-0.592,1.211
		C7.631,6.449,7.9,6.477,8.104,6.477c0.172,0,0.293-0.024,0.362-0.07c0.157-0.103,0.236-0.594,0.236-1.475
		c0-0.775-0.128-1.858-0.383-3.25c0.757,1.008,1.135,2.3,1.135,3.877c0,0.45-0.142,0.815-0.425,1.092
		c0.195,0.027,0.39,0.042,0.585,0.042c0.246,0,0.405-0.029,0.479-0.091c0.205-0.157,0.307-0.592,0.307-1.301
		c0-0.589-0.109-1.658-0.327-3.208c0.663,0.969,0.995,2.227,0.995,3.772c0,0.766-0.088,1.198-0.265,1.294
		c-0.064,0.042-0.253,0.063-0.563,0.063c-0.482,0-1.194-0.042-2.137-0.125l0.034,0.07c2.151,0.557,3.293,0.918,3.425,1.086
		C11.628,8.334,11.661,8.467,11.661,8.648z"/>
</g>
</svg>
