<?xml version="1.0" encoding="utf-8"?>
<!-- Generator: Adobe Illustrator 15.1.0, SVG Export Plug-In . SVG Version: 6.00 Build 0)  -->
<!DOCTYPE svg PUBLIC "-//W3C//DTD SVG 1.1//EN" "http://www.w3.org/Graphics/SVG/1.1/DTD/svg11.dtd">
<svg version="1.1" id="Layer_1" xmlns="http://www.w3.org/2000/svg" xmlns:xlink="http://www.w3.org/1999/xlink" x="0px" y="0px"
	 width="14.172px" height="14.172px" viewBox="0 0 14.172 14.172" enable-background="new 0 0 14.172 14.172" xml:space="preserve">
<g enable-background="new    ">
	<path d="M6.296,7.395v0.909H2.184V7.33h2.883C4.544,6.794,4.282,6.193,4.282,5.526c0-0.827,0.306-1.539,0.919-2.135
		c0.613-0.595,1.342-0.894,2.187-0.894c0.846,0,1.574,0.299,2.188,0.895c0.612,0.596,0.92,1.308,0.92,2.135
		c0,0.667-0.262,1.268-0.785,1.802h2.877v0.974H8.474V7.395c0.7-0.451,1.053-1.057,1.053-1.817c0-0.573-0.212-1.068-0.635-1.483
		C8.469,3.678,7.967,3.471,7.387,3.471c-0.584,0-1.085,0.207-1.506,0.622C5.461,4.509,5.25,5.003,5.25,5.578
		C5.25,6.337,5.599,6.943,6.296,7.395z M2.184,11.207v-0.974h10.402v0.975L2.184,11.207L2.184,11.207z"/>
</g>
</svg>
