<?xml version="1.0" encoding="utf-8"?>
<!-- Generator: Adobe Illustrator 15.1.0, SVG Export Plug-In . SVG Version: 6.00 Build 0)  -->
<!DOCTYPE svg PUBLIC "-//W3C//DTD SVG 1.1//EN" "http://www.w3.org/Graphics/SVG/1.1/DTD/svg11.dtd">
<svg version="1.1" id="Layer_1" xmlns="http://www.w3.org/2000/svg" xmlns:xlink="http://www.w3.org/1999/xlink" x="0px" y="0px"
	 width="14.172px" height="14.172px" viewBox="0 0 14.172 14.172" enable-background="new 0 0 14.172 14.172" xml:space="preserve">
<g enable-background="new    ">
	<path d="M7.46,11.475c-1.136,0-2.184-0.39-3.142-1.17S2.881,8.347,2.881,6.771c0-0.167,0.038-0.433,0.114-0.796
		c0.227-1.09,0.719-1.928,1.477-2.511c0.924-0.72,1.932-1.08,3.022-1.08c1.175,0,2.235,0.385,3.182,1.154
		c0.947,0.768,1.421,1.906,1.421,3.414c0,1.478-0.479,2.601-1.438,3.37C9.7,11.09,8.635,11.475,7.46,11.475z M5.426,4.759V4.748
		C5.04,4.589,4.722,4.384,4.472,4.134C3.874,4.71,3.517,5.559,3.404,6.68l1.591-0.023C4.995,5.967,5.139,5.335,5.426,4.759z
		 M5.426,9.112c-0.288-0.841-0.431-1.52-0.431-2.035H3.404c0,0.402,0.099,0.849,0.295,1.341c0.175,0.455,0.394,0.859,0.659,1.216
		C4.51,9.543,4.866,9.37,5.426,9.112z M6.268,10.805c-0.228-0.303-0.478-0.731-0.75-1.284V9.51C5.328,9.6,5.043,9.748,4.665,9.953
		C5.172,10.362,5.707,10.646,6.268,10.805z M6.37,2.85V2.839C5.916,3.066,5.635,3.21,5.529,3.271
		c-0.295,0.166-0.545,0.345-0.75,0.534C4.87,3.903,5.116,4.086,5.517,4.351C5.677,3.957,5.96,3.457,6.37,2.85z M7.21,6.657V5.18
		C7.165,5.188,7.12,5.192,7.075,5.192c-0.439,0-0.853-0.106-1.239-0.318c-0.273,0.461-0.41,1.064-0.41,1.807L7.21,6.657z
		 M7.21,8.588V7.077H5.426c0,0.243,0.042,0.554,0.125,0.932c0.083,0.379,0.177,0.675,0.284,0.887
		C6.457,8.691,6.916,8.588,7.21,8.588z M7.21,4.759V2.737H6.904C6.472,3.38,6.154,3.949,5.949,4.441
		C6.268,4.653,6.688,4.759,7.21,4.759z M7.21,11.009V8.987C6.892,9.047,6.472,9.161,5.949,9.328c0.152,0.356,0.47,0.921,0.955,1.692
		L7.21,11.009z M9.017,4.441C8.721,3.737,8.37,3.172,7.96,2.748V2.737H7.745v2.011c0.053,0.007,0.103,0.011,0.147,0.011
		c0.159,0,0.355-0.032,0.591-0.096C8.718,4.599,8.896,4.525,9.017,4.441z M9.653,6.657c0-0.242-0.054-0.555-0.165-0.937
		C9.379,5.337,9.256,5.055,9.12,4.874C8.809,5.086,8.37,5.192,7.801,5.192H7.745v1.465H9.653z M9.653,7.089V7.077H7.745v1.49
		C8.238,8.62,8.734,8.729,9.234,8.896C9.513,8.146,9.653,7.543,9.653,7.089z M9.12,9.328C8.726,9.184,8.267,9.074,7.745,8.999v2.011
		h0.318C8.336,10.759,8.688,10.2,9.12,9.328z M10.29,3.805V3.793C9.88,3.468,9.317,3.154,8.598,2.85
		c0.286,0.304,0.57,0.803,0.851,1.501c0.197-0.106,0.345-0.187,0.443-0.239C10.051,4.013,10.183,3.911,10.29,3.805z M10.29,9.953
		V9.942c-0.099-0.159-0.344-0.33-0.737-0.512c-0.13,0.235-0.259,0.468-0.388,0.699c-0.128,0.23-0.283,0.456-0.466,0.676
		C9.275,10.706,9.805,10.422,10.29,9.953z M11.552,6.657c0-0.984-0.349-1.825-1.046-2.523V4.123
		c-0.113,0.167-0.432,0.379-0.954,0.636C9.9,5.464,10.075,6.104,10.075,6.68L11.552,6.657z M11.552,7.077h-1.478
		c0,0.546-0.141,1.186-0.422,1.921c0.432,0.227,0.748,0.438,0.945,0.636c0.294-0.279,0.532-0.674,0.715-1.181
		C11.472,7.983,11.552,7.525,11.552,7.077z"/>
</g>
</svg>
