<?xml version="1.0" encoding="utf-8"?>
<!-- Generator: Adobe Illustrator 15.1.0, SVG Export Plug-In . SVG Version: 6.00 Build 0)  -->
<!DOCTYPE svg PUBLIC "-//W3C//DTD SVG 1.1//EN" "http://www.w3.org/Graphics/SVG/1.1/DTD/svg11.dtd">
<svg version="1.1" id="Layer_1" xmlns="http://www.w3.org/2000/svg" xmlns:xlink="http://www.w3.org/1999/xlink" x="0px" y="0px"
	 width="14.172px" height="14.172px" viewBox="0 0 14.172 14.172" enable-background="new 0 0 14.172 14.172" xml:space="preserve">
<g enable-background="new    ">
	<path d="M6.703,4.98C6.657,5.14,6.569,5.373,6.439,5.677C6.318,5.822,6.158,6.059,5.96,6.386c-0.023,0.046-0.119,0.338-0.286,0.88
		C5.59,7.525,5.476,7.915,5.331,8.432C5.324,8.5,5.308,8.733,5.285,9.128c-0.19,0.268-0.457,0.68-0.8,1.235
		c-0.083,0.168-0.175,0.407-0.274,0.721c-0.114,0.35-0.199,0.59-0.251,0.72H2.062c0.114-0.259,0.267-0.66,0.457-1.2
		c0.031-0.229,0.091-0.567,0.183-1.018c0.13-0.458,0.45-1.01,0.96-1.658c0.031-0.205,0.106-0.476,0.229-0.811
		C4.028,6.721,4.115,6.45,4.154,6.306c0.007-0.076,0.034-0.194,0.08-0.354c0.03-0.076,0.106-0.209,0.228-0.4
		C4.66,5.223,4.786,5.01,4.839,4.912c0.137-0.245,0.229-0.474,0.274-0.687l0.309-0.263C5.757,4.084,6.184,4.424,6.703,4.98z
		 M12.92,11.804h-8.87c0.092-0.32,0.259-0.785,0.503-1.395c0.061-0.13,0.202-0.336,0.423-0.617c0.19-0.268,0.316-0.473,0.377-0.618
		c0.008-0.19,0.027-0.43,0.057-0.72C5.487,8.204,5.602,7.819,5.754,7.3c0.03-0.099,0.072-0.247,0.126-0.445
		c0.083-0.297,0.209-0.556,0.376-0.778c0.191-0.251,0.324-0.479,0.4-0.685c0.015-0.045,0.087-0.339,0.217-0.88
		c0.053-0.237,0.183-0.599,0.388-1.086C7.468,2.968,7.594,2.606,7.64,2.34l0.286-0.343c0.243,0.13,0.586,0.491,1.028,1.086
		c0.381,0.511,0.66,0.941,0.834,1.292c0.099,0.266,0.267,0.658,0.502,1.177c0.153,0.259,0.379,0.655,0.676,1.188
		c0.382,0.701,0.645,1.28,0.789,1.737c0.053,0.336,0.167,0.831,0.343,1.486c0.062,0.191,0.201,0.496,0.423,0.915
		C12.727,11.258,12.86,11.568,12.92,11.804z"/>
</g>
</svg>
