<?xml version="1.0" encoding="utf-8"?>
<!-- Generator: Adobe Illustrator 15.1.0, SVG Export Plug-In . SVG Version: 6.00 Build 0)  -->
<!DOCTYPE svg PUBLIC "-//W3C//DTD SVG 1.1//EN" "http://www.w3.org/Graphics/SVG/1.1/DTD/svg11.dtd">
<svg version="1.1" id="Layer_1" xmlns="http://www.w3.org/2000/svg" xmlns:xlink="http://www.w3.org/1999/xlink" x="0px" y="0px"
	 width="14.172px" height="14.172px" viewBox="0 0 14.172 14.172" enable-background="new 0 0 14.172 14.172" xml:space="preserve">
<g enable-background="new    ">
	<path d="M6.208,11.438v-0.485c0-0.928-0.093-1.958-0.279-3.096C5.742,6.722,5.515,5.794,5.248,5.076
		C4.663,3.515,4.033,2.734,3.357,2.734c-0.3,0-0.545,0.132-0.735,0.394C2.433,3.392,2.338,3.734,2.338,4.155
		c0,0.555,0.18,1.129,0.54,1.723H2.142C1.79,5.239,1.613,4.64,1.613,4.082c0-0.575,0.167-1.053,0.5-1.438
		C2.446,2.26,2.864,2.069,3.368,2.069c0.81,0,1.499,0.545,2.068,1.635c0.568,1.09,0.926,2.554,1.073,4.389h0.123
		C6.755,6.294,7.108,4.84,7.687,3.732c0.581-1.109,1.275-1.663,2.089-1.663c0.504,0,0.922,0.189,1.254,0.568
		c0.331,0.378,0.496,0.854,0.496,1.43c0,0.562-0.175,1.166-0.524,1.812h-0.739c0.359-0.64,0.539-1.229,0.539-1.765
		c0-0.432-0.093-0.78-0.279-1.045c-0.186-0.265-0.433-0.397-0.74-0.397c-0.654,0-1.264,0.727-1.829,2.181
		c-0.288,0.742-0.53,1.702-0.727,2.882c-0.195,1.179-0.294,2.262-0.294,3.249v0.455H6.208z"/>
</g>
</svg>
