<?xml version="1.0" encoding="utf-8"?>
<!-- Generator: Adobe Illustrator 15.1.0, SVG Export Plug-In . SVG Version: 6.00 Build 0)  -->
<!DOCTYPE svg PUBLIC "-//W3C//DTD SVG 1.1//EN" "http://www.w3.org/Graphics/SVG/1.1/DTD/svg11.dtd">
<svg version="1.1" id="Layer_1" xmlns="http://www.w3.org/2000/svg" xmlns:xlink="http://www.w3.org/1999/xlink" x="0px" y="0px"
	 width="14.172px" height="14.172px" viewBox="0 0 14.172 14.172" enable-background="new 0 0 14.172 14.172" xml:space="preserve">
<path d="M6.159,9.635l-3.234,1.62c-0.043,0.022-0.09,0.032-0.144,0.032c-0.107,0-0.16-0.06-0.16-0.176
	c0-0.041,0.012-0.084,0.032-0.127l1.658-3.286C4.587,7.435,4.9,7.303,5.251,7.303c0.362,0,0.68,0.131,0.956,0.395
	c0.011,0.012,0.038,0.05,0.08,0.111l0.048,0.064c0.191,0.253,0.287,0.523,0.287,0.81c0,0.328-0.139,0.635-0.415,0.92L6.159,9.635z
	 M4.32,5.572L2.701,2.35C2.679,2.308,2.669,2.265,2.669,2.222c0-0.116,0.058-0.174,0.174-0.174c0.042,0,0.085,0.01,0.128,0.032
	l3.27,1.651C6.526,4.006,6.67,4.323,6.67,4.683c0,0.402-0.192,0.762-0.576,1.08c-0.267,0.18-0.537,0.27-0.815,0.27
	c-0.341,0-0.649-0.138-0.926-0.413L4.32,5.572z M5.939,9.302c0.18-0.19,0.27-0.401,0.27-0.635c0-0.255-0.095-0.479-0.286-0.674
	C5.733,7.797,5.506,7.698,5.241,7.698c-0.232,0-0.444,0.091-0.636,0.271l-1.333,2.649L5.939,9.302z M4.646,5.37
	C4.837,5.547,5.05,5.635,5.283,5.635c0.267,0,0.495-0.099,0.687-0.296s0.287-0.425,0.287-0.682c0-0.235-0.087-0.449-0.262-0.641
	l-2.708-1.35L4.646,5.37z M8.384,3.636l3.223-1.604C11.648,2.011,11.691,2,11.733,2c0.117,0,0.175,0.053,0.175,0.159
	c0,0.043-0.01,0.085-0.032,0.127l-1.649,3.286C9.95,5.847,9.633,5.985,9.272,5.985c-0.349,0-0.661-0.138-0.937-0.413
	C8.306,5.54,8.258,5.482,8.193,5.397c-0.19-0.254-0.286-0.518-0.286-0.793c0-0.328,0.144-0.635,0.429-0.921L8.384,3.636z
	 M10.32,7.81l1.604,3.224c0.021,0.042,0.032,0.084,0.032,0.127c0,0.117-0.053,0.174-0.159,0.174c-0.053,0-0.101-0.011-0.144-0.031
	l-3.27-1.65C8.099,9.377,7.955,9.059,7.955,8.699c0-0.402,0.192-0.762,0.576-1.08C8.798,7.44,9.068,7.35,9.347,7.35
	c0.34,0,0.648,0.137,0.926,0.413L10.32,7.81z M8.594,3.991C8.411,4.171,8.32,4.376,8.32,4.608c0,0.263,0.096,0.492,0.287,0.687
	c0.191,0.195,0.421,0.292,0.688,0.292c0.233,0,0.447-0.094,0.638-0.281l1.327-2.642L8.594,3.991z M9.964,8.02
	c-0.189-0.182-0.4-0.271-0.632-0.271c-0.253,0-0.477,0.098-0.672,0.295C8.466,8.242,8.368,8.469,8.368,8.726
	c0,0.235,0.087,0.449,0.262,0.641l2.665,1.328L9.964,8.02z"/>
</svg>
