<?xml version="1.0" encoding="utf-8"?>
<!-- Generator: Adobe Illustrator 15.1.0, SVG Export Plug-In . SVG Version: 6.00 Build 0)  -->
<!DOCTYPE svg PUBLIC "-//W3C//DTD SVG 1.1//EN" "http://www.w3.org/Graphics/SVG/1.1/DTD/svg11.dtd">
<svg version="1.1" id="Layer_1" xmlns="http://www.w3.org/2000/svg" xmlns:xlink="http://www.w3.org/1999/xlink" x="0px" y="0px"
	 width="14.172px" height="14.172px" viewBox="0 0 14.172 14.172" enable-background="new 0 0 14.172 14.172" xml:space="preserve">
<g enable-background="new    ">
	<path d="M9.068,5.007c0.185-0.249,0.427-0.45,0.726-0.604c0.301-0.154,0.604-0.231,0.912-0.231c0.518,0,0.953,0.198,1.313,0.594
		c0.358,0.396,0.538,0.877,0.538,1.444c0,0.534-0.182,0.972-0.543,1.313c-0.362,0.34-0.829,0.511-1.405,0.511
		c-0.11,0-0.212-0.007-0.304-0.021C10.211,8,10.12,7.979,10.028,7.952L9.461,7.778C9.443,7.811,9.43,7.84,9.42,7.869
		c-0.008,0.028-0.015,0.05-0.015,0.069l0.554,0.2c0.416,0.147,0.752,0.39,1.01,0.729c0.258,0.338,0.387,0.708,0.387,1.107
		c0,0.512-0.207,0.965-0.62,1.357c-0.412,0.395-0.883,0.591-1.418,0.591c-0.497,0-0.933-0.198-1.306-0.594
		c-0.375-0.397-0.562-0.853-0.562-1.368V9.354H7.286L7.264,9.948c-0.014,0.558-0.2,1.027-0.557,1.406
		c-0.356,0.381-0.789,0.569-1.294,0.569c-0.535,0-1.008-0.196-1.42-0.591C3.58,10.94,3.374,10.487,3.374,9.977
		c0-0.4,0.135-0.781,0.404-1.138c0.27-0.356,0.597-0.596,0.984-0.716L5.33,7.931C5.325,7.907,5.315,7.875,5.298,7.834
		C5.283,7.792,5.274,7.77,5.274,7.766L4.708,7.952C4.625,7.977,4.532,8,4.428,8.013S4.215,8.034,4.1,8.034
		c-0.562,0-1.023-0.172-1.385-0.515C2.353,7.176,2.172,6.739,2.172,6.21c0-0.571,0.179-1.054,0.539-1.447
		C3.07,4.369,3.507,4.171,4.024,4.171c0.309,0,0.615,0.076,0.919,0.228c0.304,0.152,0.545,0.35,0.725,0.594L6.027,5.47
		c0.01-0.004,0.022-0.012,0.038-0.024c0.017-0.011,0.05-0.036,0.101-0.073L5.827,4.897C5.703,4.722,5.607,4.528,5.54,4.316
		c-0.067-0.211-0.1-0.426-0.1-0.643c0-0.534,0.18-0.974,0.542-1.32c0.362-0.344,0.824-0.517,1.386-0.517
		c0.562,0,1.022,0.173,1.383,0.518C9.109,2.701,9.29,3.141,9.29,3.674c0,0.226-0.033,0.446-0.097,0.66
		C9.127,4.548,9.04,4.736,8.922,4.897l-0.352,0.49C8.603,5.406,8.629,5.423,8.654,5.44c0.022,0.016,0.041,0.033,0.056,0.051
		L9.068,5.007z M9.109,7.185c0-0.488-0.168-0.901-0.504-1.237C8.269,5.611,7.856,5.442,7.368,5.442s-0.9,0.168-1.237,0.505
		C5.795,6.284,5.627,6.696,5.627,7.185c0,0.488,0.168,0.9,0.504,1.236c0.336,0.338,0.749,0.506,1.237,0.506
		c0.489,0,0.901-0.168,1.237-0.506C8.941,8.084,9.109,7.672,9.109,7.185z"/>
</g>
</svg>
