<?xml version="1.0" encoding="utf-8"?>
<!-- Generator: Adobe Illustrator 15.1.0, SVG Export Plug-In . SVG Version: 6.00 Build 0)  -->
<!DOCTYPE svg PUBLIC "-//W3C//DTD SVG 1.1//EN" "http://www.w3.org/Graphics/SVG/1.1/DTD/svg11.dtd">
<svg version="1.1" id="Layer_1" xmlns="http://www.w3.org/2000/svg" xmlns:xlink="http://www.w3.org/1999/xlink" x="0px" y="0px"
	 width="14.172px" height="14.172px" viewBox="0 0 14.172 14.172" enable-background="new 0 0 14.172 14.172" xml:space="preserve">
<g enable-background="new    ">
	<path d="M11.887,9.193c0,0.222-0.229,0.365-0.688,0.434c-0.145,0.018-0.312,0.085-0.496,0.204c0.263,0.153,0.475,0.235,0.636,0.248
		s0.242,0.041,0.242,0.084c0,0.144-0.127,0.216-0.382,0.216c-0.238,0-0.475-0.078-0.709-0.236c-0.233-0.157-0.384-0.234-0.45-0.234
		c-0.078,0-0.29,0-0.638,0c-0.188,0.008-0.404,0.102-0.65,0.28c-0.28,0.204-0.486,0.318-0.617,0.344
		c-0.133,0.025-0.262,0.051-0.39,0.076c-0.152,0.033-0.276,0.085-0.369,0.153c-0.018,0.051-0.085,0.152-0.204,0.306
		c-0.085,0.118-0.127,0.242-0.127,0.369c0,0.255,0.102,0.463,0.306,0.624c0.102,0.077,0.292,0.175,0.573,0.294
		c0.213,0.085,0.318,0.161,0.318,0.229c0,0.085-0.089,0.128-0.268,0.128c-0.212,0-0.493-0.072-0.841-0.218
		c-0.29-0.119-0.493-0.241-0.611-0.369c-0.145-0.127-0.268-0.331-0.37-0.612c-0.162-0.45-0.28-0.699-0.357-0.744
		c-0.077-0.047-0.179-0.071-0.306-0.071c-0.331,0-0.728-0.128-1.191-0.382c-0.463-0.255-0.72-0.382-0.771-0.382
		c-0.102,0-0.174,0.055-0.217,0.165c-0.034,0.102-0.068,0.2-0.101,0.294c-0.06,0.144-0.158,0.284-0.293,0.42
		c-0.162,0.161-0.31,0.241-0.446,0.241c-0.068,0-0.102-0.021-0.102-0.062c0-0.068,0.072-0.167,0.217-0.294
		c0.144-0.128,0.217-0.225,0.217-0.293c0-0.059-0.013-0.089-0.039-0.089c-0.034,0-0.113,0.046-0.235,0.14
		c-0.124,0.095-0.215,0.14-0.274,0.14c-0.059,0-0.125-0.022-0.197-0.069c-0.073-0.046-0.108-0.096-0.108-0.146
		c0-0.068,0.074-0.134,0.223-0.197c0.148-0.064,0.223-0.121,0.223-0.172c0-0.043-0.087-0.072-0.261-0.09
		C1.958,9.903,1.871,9.874,1.871,9.831c0-0.17,0.356-0.255,1.07-0.255c0.093,0,0.183-0.032,0.268-0.095
		c0.084-0.064,0.126-0.143,0.126-0.236c0-0.018-0.042-0.124-0.126-0.318c-0.153-0.4-0.23-0.909-0.23-1.53
		c0-0.059,0.01-0.153,0.032-0.279c0.021-0.127,0.032-0.226,0.032-0.294c-0.025,0-0.107,0.043-0.242,0.127
		C2.665,7.035,2.555,7.078,2.47,7.078c-0.11,0-0.247-0.038-0.408-0.114C1.884,6.878,1.794,6.789,1.794,6.695
		c0-0.059,0.025-0.089,0.077-0.089c0.042,0,0.112,0.007,0.21,0.019c0.097,0.013,0.168,0.019,0.21,0.019
		c0.051,0,0.134-0.052,0.249-0.158S2.712,6.3,2.712,6.25C2.576,6.181,2.44,6.114,2.304,6.045c-0.212-0.11-0.318-0.194-0.318-0.255
		c0-0.059,0.135-0.089,0.407-0.089c0.221,0,0.332-0.072,0.332-0.217c0-0.144-0.085-0.301-0.255-0.471
		C2.3,4.843,2.214,4.729,2.214,4.669c0-0.068,0.089-0.102,0.268-0.102c0.339,0,0.548,0.08,0.625,0.241
		c0.008,0.018,0.042,0.073,0.102,0.167c0.033,0.042,0.072,0.212,0.114,0.509c0.034,0.255,0.082,0.382,0.14,0.382
		c0.026,0,0.094-0.047,0.204-0.139C3.803,5.6,3.88,5.531,3.897,5.523C4.016,5.439,4.203,5.357,4.458,5.28
		c0.272-0.067,0.68-0.178,1.224-0.33c0.255-0.086,0.382-0.226,0.382-0.421c0-0.136-0.06-0.204-0.178-0.204
		c-0.221,0-0.383-0.036-0.484-0.107C5.299,4.145,5.18,4.011,5.044,3.816C4.891,3.594,4.814,3.433,4.814,3.332
		c0-0.161,0.106-0.385,0.319-0.67c0.212-0.285,0.395-0.447,0.548-0.49c0.051-0.008,0.1-0.017,0.147-0.025
		c0.046-0.008,0.07-0.039,0.07-0.09c0-0.067-0.019-0.173-0.057-0.318C5.803,1.593,5.783,1.483,5.783,1.407
		c0-0.255,0.089-0.383,0.268-0.383c0.077,0,0.157,0.102,0.242,0.306c0.051,0.145,0.106,0.283,0.166,0.415
		c0.059,0.132,0.195,0.256,0.407,0.376c0.281,0.153,0.459,0.267,0.536,0.344c0.179,0.17,0.268,0.387,0.268,0.649
		c0,0.247-0.03,0.43-0.089,0.549C7.538,3.73,7.457,3.802,7.338,3.879C7.21,3.963,7.113,4.058,7.045,4.16
		C7.02,4.185,6.977,4.274,6.917,4.427C6.9,4.444,6.879,4.461,6.854,4.478c-0.025,0.018-0.038,0.047-0.038,0.09
		c0,0.11,0.072,0.208,0.217,0.292C7.16,4.919,7.287,4.95,7.415,4.95c0.441,0,0.866,0.114,1.274,0.344
		c0.119,0.084,0.268,0.178,0.446,0.28l0.038-0.09c0-0.102-0.025-0.187-0.077-0.255C9.045,5.162,9.02,5.107,9.02,5.064
		c0-0.161,0.063-0.344,0.191-0.548c0.136-0.222,0.275-0.332,0.421-0.332c0.11,0,0.166,0.051,0.166,0.153
		c0,0.077-0.05,0.216-0.147,0.42S9.504,5.124,9.504,5.243L9.53,5.255c0.025,0,0.168-0.125,0.427-0.376
		c0.26-0.25,0.453-0.375,0.58-0.375c0.128,0,0.19,0.072,0.19,0.217c0,0.077-0.102,0.197-0.306,0.362
		c-0.204,0.167-0.306,0.254-0.306,0.262c0,0.059,0.077,0.089,0.23,0.089c0.051,0,0.126-0.011,0.229-0.031
		c0.102-0.021,0.18-0.032,0.23-0.032s0.075,0.034,0.075,0.102c0,0.034-0.016,0.063-0.051,0.089c-0.024,0-0.078,0.076-0.158,0.229
		C10.59,5.943,10.464,6.02,10.295,6.02c-0.061,0-0.15-0.019-0.269-0.058C9.909,5.925,9.819,5.906,9.759,5.906
		c-0.068,0-0.125,0.042-0.172,0.127c-0.047,0.085-0.07,0.166-0.07,0.242c0-0.008,0.034,0.047,0.103,0.165
		C9.645,6.491,9.67,6.606,9.696,6.785c0.06,0.434,0.09,0.897,0.09,1.389c0,0.178-0.048,0.398-0.141,0.662
		C9.551,9.1,9.5,9.295,9.492,9.422h0.063c0.332,0,0.53-0.068,0.6-0.204c0.025-0.059,0.068-0.152,0.127-0.28
		c0.076-0.136,0.19-0.263,0.344-0.383c0.18-0.127,0.336-0.19,0.473-0.19c0.066,0,0.174,0.025,0.318,0.077
		c0.16,0.059,0.242,0.113,0.242,0.165c0,0.043-0.069,0.064-0.204,0.064c-0.399,0.025-0.599,0.152-0.599,0.382
		c0,0.085,0.105,0.128,0.317,0.128c0.043,0,0.109-0.006,0.198-0.014s0.154-0.012,0.197-0.012
		C11.722,9.156,11.829,9.167,11.887,9.193z M9.262,7.614c0-0.612-0.2-1.135-0.599-1.568C8.51,5.884,8.375,5.769,8.255,5.702
		C7.95,5.531,7.44,5.447,6.726,5.447H6.127c-0.51,0-1.028,0.098-1.555,0.292C4.496,5.765,4.386,5.812,4.242,5.88
		c-0.255,0.144-0.451,0.424-0.587,0.84C3.553,7.044,3.502,7.392,3.502,7.766c0,0.756,0.2,1.351,0.599,1.784
		c0.416,0.451,0.998,0.675,1.746,0.675h0.625c0.407,0,0.794-0.047,1.16-0.14C8.293,9.933,8.74,9.644,8.969,9.218
		C9.165,8.879,9.262,8.343,9.262,7.614z M6.076,3.292c0-0.424-0.076-0.636-0.229-0.636c-0.246,0-0.37,0.157-0.37,0.471
		c0,0.17,0.047,0.327,0.14,0.471c0.102,0.17,0.234,0.255,0.396,0.255C6.055,3.777,6.076,3.59,6.076,3.292z M7.147,3.088
		c0-0.051-0.051-0.117-0.153-0.197S6.819,2.77,6.777,2.77c-0.076,0-0.115,0.073-0.115,0.216c0,0.375,0.039,0.561,0.115,0.561
		c0.026,0,0.047-0.029,0.064-0.088C6.85,3.416,6.902,3.35,7,3.262C7.098,3.171,7.147,3.114,7.147,3.088z"/>
</g>
</svg>
