<?xml version="1.0" encoding="utf-8"?>
<!-- Generator: Adobe Illustrator 15.1.0, SVG Export Plug-In . SVG Version: 6.00 Build 0)  -->
<!DOCTYPE svg PUBLIC "-//W3C//DTD SVG 1.1//EN" "http://www.w3.org/Graphics/SVG/1.1/DTD/svg11.dtd">
<svg version="1.1" id="Layer_1" xmlns="http://www.w3.org/2000/svg" xmlns:xlink="http://www.w3.org/1999/xlink" x="0px" y="0px"
	 width="14.172px" height="14.172px" viewBox="0 0 14.172 14.172" enable-background="new 0 0 14.172 14.172" xml:space="preserve">
<g enable-background="new    ">
	<path d="M9.397,10.368h1.856v0.872H8.059v-0.694C9.069,9.85,9.94,8.499,9.94,6.781c0-1.553-0.922-3.307-2.728-3.307
		c-1.793,0-2.791,1.653-2.791,3.333c0,1.589,0.884,3.105,1.894,3.738v0.694H3.108v-0.872h1.844v-0.037
		c-0.846-0.707-1.667-1.983-1.68-3.612c0-2.437,1.705-4.142,3.965-4.142c2.361,0,3.839,1.78,3.839,4.029
		c0,1.754-0.833,3.004-1.68,3.725V10.368z"/>
</g>
</svg>
