<?xml version="1.0" encoding="utf-8"?>
<!-- Generator: Adobe Illustrator 15.1.0, SVG Export Plug-In . SVG Version: 6.00 Build 0)  -->
<!DOCTYPE svg PUBLIC "-//W3C//DTD SVG 1.1//EN" "http://www.w3.org/Graphics/SVG/1.1/DTD/svg11.dtd">
<svg version="1.1" id="Layer_1" xmlns="http://www.w3.org/2000/svg" xmlns:xlink="http://www.w3.org/1999/xlink" x="0px" y="0px"
	 width="500px" height="200px" viewBox="0 0 500 200" enable-background="new 0 0 500 200" xml:space="preserve">
<g>
	<linearGradient id="SVGID_1_" gradientUnits="userSpaceOnUse" x1="30.6108" y1="34.9937" x2="34.4358" y2="107.9775">
		<stop  offset="0" style="stop-color:#FFD11D"/>
		<stop  offset="0.1104" style="stop-color:#FDBC16"/>
		<stop  offset="1" style="stop-color:#0D0E1D"/>
	</linearGradient>
	<path fill="url(#SVGID_1_)" d="M60.743,51.944c-3.642,12.667-6.918,22.387-9.829,29.158c-3.931,9.102-8.372,15.834-13.322,20.201
		c-5.679,5.022-12.523,7.534-20.53,7.534c-4.952,0-8.884-1.019-11.794-3.056c-3.423-2.403-5.132-4.986-5.132-7.754
		c0-1.019,1.019-2.2,3.058-3.549c2.037-1.347,3.385-2.021,4.041-2.021c0.218,0,1.237,1.639,3.058,4.915
		c1.818,3.275,4.622,4.913,8.408,4.913c3.932,0,7.589-1.218,10.975-3.658c3.386-2.438,6.315-5.952,8.791-10.536
		c1.237-2.257,3.203-7.154,5.896-14.688c2.693-7.536,5.078-14.486,7.153-20.858c2.075-6.369,3.113-9.845,3.113-10.428
		c0-0.727-0.803-1.093-2.403-1.093c-1.82,0-3.931,0.129-6.334,0.383c-2.402,0.256-4.624,0.565-6.66,0.929
		c-4.587,0.802-8.12,2.003-10.593,3.603c-2.476,1.602-5.425,4.625-8.845,9.064c-2.84,3.712-4.77,5.569-5.788,5.569
		c-0.437,0-1.037-0.273-1.801-0.819c-0.765-0.546-1.147-1.038-1.147-1.474c0-0.218,0.508-1.273,1.529-3.167
		c1.382-2.474,2.765-4.986,4.15-7.535l4.477-9.5c0.364-0.29,1.381-0.437,3.058-0.437c0.438,0,0.8,0,1.093,0
		c1.6,0,3.33-0.144,5.186-0.437c1.857-0.29,3.367-0.546,4.533-0.764c4.95-0.945,9.391-1.655,13.323-2.13
		c3.931-0.472,7.497-0.709,10.702-0.709c2.329,0,3.803,0.147,4.423,0.438c0.617,0.292,0.928,1.021,0.928,2.184
		c0,1.092-0.292,2.877-0.874,5.351C62.999,44.046,62.053,47.505,60.743,51.944z"/>
	<linearGradient id="SVGID_2_" gradientUnits="userSpaceOnUse" x1="88.6016" y1="33.8315" x2="92.562" y2="109.4007">
		<stop  offset="0" style="stop-color:#FFD11D"/>
		<stop  offset="0.1104" style="stop-color:#FDBC16"/>
		<stop  offset="1" style="stop-color:#0D0E1D"/>
	</linearGradient>
	<path fill="url(#SVGID_2_)" d="M118.183,87.981v9.282c-3.276,3.642-6.645,6.515-10.101,8.626c-3.459,2.113-6.536,3.168-9.228,3.168
		c-2.112,0-3.931-0.944-5.459-2.839c-1.529-1.893-2.294-4.222-2.294-6.989c0-2.91,0.983-7.025,2.948-12.341
		c1.966-5.312,2.949-9.025,2.949-11.138c0-1.529-0.62-2.294-1.856-2.294c-2.04,0-4.805,1.385-8.3,4.15
		c-3.494,2.769-7.426,6.734-11.793,11.904c-0.219,1.894-0.366,3.385-0.437,4.477c-0.074,1.091-0.109,2.657-0.109,4.695l0.327,9.937
		h-8.517c-0.074-0.437-0.312-2.965-0.71-7.589c-0.401-4.623-0.601-7.043-0.601-7.262c0-5.678,1.055-13.032,3.167-22.06
		c2.403-10.336,5.423-18.892,9.064-25.662c4.368-8.226,9.026-12.34,13.978-12.34c2.403,0,4.368,0.982,5.896,2.949
		c1.529,1.965,2.293,4.477,2.293,7.535c0,7.281-3.896,16.017-11.685,26.208c3.348-2.11,5.769-3.475,7.262-4.095
		c1.491-0.617,2.965-0.928,4.423-0.928c1.966,0,3.495,0.803,4.587,2.403c1.092,1.603,1.638,3.895,1.638,6.88
		c0,2.911-0.947,7.025-2.839,12.339c-1.894,5.315-2.839,9.281-2.839,11.903c0,1.602,0.582,2.401,1.748,2.401
		C105.188,101.303,110.684,96.865,118.183,87.981z M92.63,44.956c0-2.693-0.729-4.041-2.184-4.041
		c-2.403,0-5.226,4.387-8.463,13.159c-3.24,8.774-5.369,16.944-6.389,24.517c5.969-7.864,10.301-14.433,12.996-19.711
		C91.281,53.601,92.63,48.96,92.63,44.956z"/>
	<linearGradient id="SVGID_3_" gradientUnits="userSpaceOnUse" x1="145.0371" y1="64.6597" x2="147.3688" y2="109.1513">
		<stop  offset="0" style="stop-color:#FFD11D"/>
		<stop  offset="0.1104" style="stop-color:#FDBC16"/>
		<stop  offset="1" style="stop-color:#0D0E1D"/>
	</linearGradient>
	<path fill="url(#SVGID_3_)" d="M173.003,87.981v9.234c-8.447,7.75-15.071,11.622-19.875,11.622c-2.258,0-3.767-0.845-4.531-2.537
		c-0.765-1.694-1.147-3.693-1.147-5.997v-1.838c-3.494,3.858-6.388,6.552-8.682,8.08c-2.293,1.53-4.532,2.292-6.716,2.292
		c-3.276,0-6.134-1.543-8.572-4.641c-2.44-3.093-3.659-6.752-3.659-10.975c0-7.862,2.475-14.669,7.427-20.42
		c4.586-5.312,9.572-7.971,14.96-7.971c2.185,0,4.167,0.545,5.952,1.637c1.783,1.092,3.476,2.839,5.078,5.241l1.856-6.878h9.063
		l-5.678,23.042c-0.511,1.803-0.948,3.735-1.311,5.789c-0.365,2.058-0.546,3.481-0.546,4.276c0,1.371,0.437,2.055,1.31,2.055
		c1.164,0,3.075-1.062,5.734-3.192C166.323,94.672,169.435,91.733,173.003,87.981z M149.241,89.301l2.469-10.93
		c-2.475-2.91-4.113-4.695-4.913-5.352c-1.166-0.945-2.404-1.419-3.714-1.419c-3.496,0-6.646,1.983-9.448,5.951
		c-2.803,3.97-4.205,8.428-4.205,13.377c0,3.131,0.511,5.662,1.532,7.59c1.021,1.929,2.371,2.894,4.05,2.894
		c2.188,0,4.817-1.599,7.88-4.802C145.009,94.211,147.125,91.777,149.241,89.301z"/>
	<linearGradient id="SVGID_4_" gradientUnits="userSpaceOnUse" x1="199.4653" y1="64.0977" x2="201.8371" y2="109.3539">
		<stop  offset="0" style="stop-color:#FFD11D"/>
		<stop  offset="0.1104" style="stop-color:#FDBC16"/>
		<stop  offset="1" style="stop-color:#0D0E1D"/>
	</linearGradient>
	<path fill="url(#SVGID_4_)" d="M181.322,65.049h9.154c-1.021,2.693-1.875,5.095-2.566,7.207c-0.693,2.112-1.365,4.406-2.02,6.88
		c5.531-5.241,9.882-8.899,13.049-10.975c3.167-2.076,5.952-3.112,8.353-3.112c1.894,0,3.496,0.947,4.805,2.838
		c1.311,1.895,1.967,4.26,1.967,7.099c0,2.185-1.239,6.99-3.713,14.414c-1.165,3.496-1.747,6.408-1.747,8.736
		c0,2.114,0.582,3.167,1.747,3.167c0.945,0,2.984-1.092,6.115-3.275c3.932-2.767,7.607-6.115,11.029-10.047v9.282l-2.292,1.966
		c-4.224,3.643-7.664,6.188-10.32,7.645c-2.659,1.456-5.224,2.184-7.698,2.184c-2.331,0-4.168-0.928-5.515-2.785
		c-1.349-1.857-2.021-4.349-2.021-7.479c0-2.255,0.546-5.023,1.638-8.3c2.403-7.278,3.604-11.756,3.604-13.432
		c0-2.185-0.547-3.276-1.638-3.276c-1.82,0-7.863,4.877-18.128,14.632l-1.201,1.094c-0.073,1.164-0.147,2.31-0.219,3.438
		c-0.073,1.13-0.109,1.875-0.109,2.238c0,0.946,0,1.711,0,2.293v8.627l0.328,2.512h-8.736c-0.293-2.254-0.438-4.329-0.438-6.223
		v-9.394C174.75,86.381,176.94,77.061,181.322,65.049z"/>
	<linearGradient id="SVGID_5_" gradientUnits="userSpaceOnUse" x1="251.9326" y1="33.7744" x2="255.8853" y2="109.1953">
		<stop  offset="0" style="stop-color:#FFD11D"/>
		<stop  offset="0.1104" style="stop-color:#FDBC16"/>
		<stop  offset="1" style="stop-color:#0D0E1D"/>
	</linearGradient>
	<path fill="url(#SVGID_5_)" d="M239.071,108.62h-8.737c-0.292-2.111-0.529-4.896-0.708-8.353c-0.184-3.457-0.273-5.843-0.273-7.152
		c0-7.428,1.31-15.853,3.931-25.282c2.621-9.427,5.933-17.636,9.938-24.625c3.64-6.405,7.752-9.61,12.339-9.61
		c2.253,0,4.077,0.893,5.461,2.676c1.38,1.785,2.073,4.133,2.073,7.043c0,4.149-1.459,9.063-4.366,14.743
		c-2.115,4.004-5.315,9.028-9.61,15.069c-3.131,4.368-6.264,8.7-9.392,12.994l29.685-20.092l4.69,4.879l-24.204,16.767l6.003,8.286
		c1.675,2.179,2.691,3.451,3.058,3.812c0.726,0.728,1.491,1.091,2.291,1.091c1.383,0,3.566-0.945,6.548-2.839
		c2.983-1.894,6.55-4.623,10.696-8.19l2.074-1.856v9.282c-5.562,4.297-10.061,7.334-13.502,9.119
		c-3.439,1.784-6.369,2.675-8.78,2.675c-2.196,0-4.175-0.981-5.931-2.949c-0.658-0.726-2.048-2.583-4.168-5.568l-9.772-13.104v6.005
		c0,2.04,0.11,4.77,0.328,8.191C238.961,105.054,239.071,107.382,239.071,108.62z M239.727,75.968
		c11.065-14.632,16.599-25.116,16.599-31.449c0-0.874-0.188-1.601-0.556-2.184c-0.369-0.582-0.886-0.875-1.547-0.875
		c-2.065,0-4.392,3.167-6.973,9.501C244.374,58.024,241.865,66.358,239.727,75.968z"/>
	<linearGradient id="SVGID_6_" gradientUnits="userSpaceOnUse" x1="361.7715" y1="64.1699" x2="365.2143" y2="129.862">
		<stop  offset="0" style="stop-color:#FFD11D"/>
		<stop  offset="0.1104" style="stop-color:#FDBC16"/>
		<stop  offset="1" style="stop-color:#0D0E1D"/>
	</linearGradient>
	<path fill="url(#SVGID_6_)" d="M343.796,68.216l1.2-3.167h9.283c-2.55,6.988-4.422,12.722-5.623,17.199
		c-1.202,4.477-1.803,8.245-1.803,11.303c0,3.785,0.761,5.678,2.277,5.678c2.677,0,5.896-1.934,9.654-5.8
		c2.821-2.844,5.351-6.054,7.593-9.629l5.002-18.654l8.891,0.012l-8.517,34.071c2.109-1.144,5.421-3.321,9.936-6.535
		c3.058-2.142,5.278-3.714,6.661-4.713v9.282c-1.021,0.583-2.475,1.529-4.367,2.84c-2.986,2.037-6.517,4.111-10.595,6.223
		l-3.603,1.968c-1.527,7.06-3.532,12.411-6.006,16.052c-2.84,4.077-6.263,6.115-10.265,6.115c-2.768,0-5.242-0.728-7.426-2.183
		c-2.184-1.458-3.276-3.132-3.276-5.024c0-4.586,5.46-10.666,16.38-18.236l2.294-1.529l1.746-6.333
		c-2.985,3.493-6.262,6.188-9.828,8.081c-3.205,1.676-6.298,2.511-9.281,2.511c-2.403,0-4.114-2.002-5.133-6.005
		c-0.654-2.622-0.983-5.607-0.983-8.955C338.008,87.472,339.937,79.283,343.796,68.216z M359.412,113.971l0.438-1.855
		c-6.481,4.586-9.72,7.898-9.72,9.936c0,1.747,1.163,2.623,3.494,2.623c1.382,0,2.493-0.766,3.331-2.294
		C357.791,120.85,358.609,118.047,359.412,113.971z"/>
	<linearGradient id="SVGID_7_" gradientUnits="userSpaceOnUse" x1="416.4746" y1="65.0229" x2="418.7456" y2="108.357">
		<stop  offset="0" style="stop-color:#FFD11D"/>
		<stop  offset="0.1104" style="stop-color:#FDBC16"/>
		<stop  offset="1" style="stop-color:#0D0E1D"/>
	</linearGradient>
	<path fill="url(#SVGID_7_)" d="M444.809,87.981v9.282c-2.551,1.966-5.569,2.948-9.063,2.948c-2.039,0-3.878-0.397-5.516-1.201
		c-1.638-0.801-3.369-2.146-5.187-4.041c-5.242,9.392-11.976,14.088-20.202,14.088c-4.368,0-7.792-1.381-10.266-4.149
		c-2.475-2.768-3.713-6.662-3.713-11.686c0-8.08,2.385-14.796,7.151-20.147c4.769-5.35,11.049-8.025,18.839-8.025l-0.437,6.224
		c-5.459,0.802-9.464,3.003-12.012,6.606c-2.551,3.604-3.823,8.319-3.823,14.142c0,6.625,2.147,9.939,6.443,9.939
		c2.692,0,5.297-1.476,7.808-4.423c2.512-2.95,4.132-6.427,4.859-10.431c-0.437-1.528-0.71-2.655-0.819-3.385
		c-0.108-0.727-0.162-1.528-0.162-2.403c0-1.966,0.179-4.112,0.545-6.443c0.365-2.329,1.055-4.33,2.075-6.005h7.316
		c0.365,1.383,0.583,2.639,0.655,3.767c0.07,1.13,0.108,2.021,0.108,2.675c0,4.005-0.654,8.119-1.966,12.341
		c3.496,3.567,6.405,5.35,8.737,5.35C439.021,93.003,441.897,91.329,444.809,87.981z"/>
	<linearGradient id="SVGID_8_" gradientUnits="userSpaceOnUse" x1="471.6318" y1="64.1006" x2="474.0012" y2="109.311">
		<stop  offset="0" style="stop-color:#FFD11D"/>
		<stop  offset="0.1104" style="stop-color:#FDBC16"/>
		<stop  offset="1" style="stop-color:#0D0E1D"/>
	</linearGradient>
	<path fill="url(#SVGID_8_)" d="M499.628,87.981v9.282c-4.004,3.786-7.808,6.698-11.411,8.736c-3.604,2.039-6.826,3.058-9.665,3.058
		c-1.965,0-3.367-1.055-4.204-3.168c-0.837-2.111-1.256-5.715-1.256-10.811c-3.276,4.223-6.753,7.608-10.429,10.157
		s-6.974,3.821-9.884,3.821c-4.148,0-6.223-4.914-6.223-14.742c0-3.858,0.507-7.953,1.527-12.286c1.02-4.33,2.841-9.992,5.46-16.98
		h8.956c-4.734,14.124-7.099,23.879-7.099,29.266c0,2.258,0.164,3.821,0.49,4.695c0.328,0.874,0.929,1.311,1.803,1.311
		c1.382,0,3.565-1.272,6.552-3.822c3.494-2.983,6.917-6.95,10.266-11.903c1.456-6.552,3.238-13.065,5.351-19.546h8.955l-4.15,14.959
		c-0.873,2.987-1.602,6.025-2.183,9.12c-0.585,3.094-0.876,5.404-0.876,6.935c0,2.839,0.618,4.258,1.857,4.258
		c1.455,0,3.53-1.037,6.225-3.112C492.382,95.134,495.696,92.06,499.628,87.981z"/>
</g>
<g>
	<path fill="#0D0E1D" d="M2.878,127.469v-2.769c0-1.286,0.245-2.263,0.733-2.933c0.615-0.923,1.657-1.385,3.123-1.385
		c0.163,0,0.308,0.005,0.435,0.013c0.126,0.011,0.257,0.024,0.394,0.042c0.136,0.019,0.294,0.054,0.475,0.107
		c0.181,0.055,0.398,0.118,0.652,0.189v1.793c-0.054-0.072-0.309-0.153-0.76-0.244c-0.199-0.035-0.376-0.063-0.53-0.081
		c-0.154-0.019-0.285-0.027-0.394-0.027c-0.76,0-1.312,0.218-1.656,0.651c-0.344,0.435-0.516,1.06-0.516,1.874v2.769h3.856v1.767
		H4.833v12.788H2.878v-12.788H0.407v-1.767H2.878z"/>
	<path fill="#0D0E1D" d="M17.378,142.376c-1.865,0-3.503-0.678-4.915-2.036c-1.503-1.43-2.253-3.284-2.253-5.565
		c0-2.154,0.66-3.955,1.982-5.403c1.357-1.468,3.032-2.199,5.023-2.199c1.973,0,3.638,0.731,4.996,2.199
		c1.339,1.448,2.009,3.24,2.009,5.376c0,2.244-0.724,4.101-2.172,5.566C20.708,141.689,19.152,142.376,17.378,142.376z
		 M17.188,140.584c1.303,0,2.462-0.542,3.476-1.629c0.978-1.104,1.466-2.507,1.466-4.208c0-1.756-0.525-3.187-1.575-4.29
		c-0.96-1.015-2.073-1.521-3.34-1.521c-1.303,0-2.417,0.525-3.34,1.575c-1.014,1.158-1.52,2.579-1.52,4.264
		c0,1.7,0.498,3.122,1.493,4.263C14.771,140.07,15.884,140.584,17.188,140.584z"/>
	<path fill="#0D0E1D" d="M34.212,127.498v1.955c-0.198-0.072-0.362-0.131-0.488-0.177c-0.127-0.044-0.236-0.076-0.326-0.094
		c-0.091-0.02-0.186-0.032-0.285-0.042c-0.1-0.008-0.23-0.015-0.394-0.015c-1.322,0-2.408,0.644-3.258,1.928
		c-0.724,1.179-1.086,2.49-1.086,3.938v7.032H26.42v-14.526h1.792l0.136,2.498c0.452-0.76,0.878-1.304,1.276-1.63
		c0.814-0.669,1.792-1.004,2.932-1.004c0.308,0,0.592,0.009,0.855,0.027C33.674,127.408,33.941,127.444,34.212,127.498z"/>
	<path fill="#0D0E1D" d="M56.531,128.773v2.554c-1.014-0.96-2.054-1.648-3.122-2.065c-0.309-0.125-0.625-0.211-0.951-0.257
		c-0.325-0.046-0.651-0.068-0.978-0.068c-1.502,0-2.733,0.562-3.693,1.685c-0.959,1.158-1.439,2.534-1.439,4.127
		c0,1.629,0.498,3.022,1.494,4.181c0.995,1.104,2.244,1.656,3.747,1.656c0.941,0,1.801-0.203,2.58-0.609
		c0.778-0.407,1.565-1.02,2.362-1.833v2.578c-0.959,0.598-1.828,1.023-2.606,1.276c-0.779,0.254-1.566,0.38-2.363,0.38
		c-2.027,0-3.766-0.724-5.213-2.172c-1.412-1.502-2.118-3.312-2.118-5.43c0-2.083,0.696-3.875,2.09-5.377
		c1.413-1.483,3.167-2.226,5.268-2.226c1.068,0,2.063,0.18,2.987,0.542C55.119,127.915,55.771,128.266,56.531,128.773z"/>
	<path fill="#0D0E1D" d="M58.758,120.735h1.955v9.369c0.452-0.724,1.004-1.331,1.656-1.819c0.996-0.741,2.108-1.112,3.34-1.112
		c0.76,0,1.443,0.107,2.05,0.325c0.606,0.217,1.163,0.533,1.67,0.95c1.067,0.941,1.602,2.263,1.602,3.965v9.611h-1.982v-9.34
		c0-1.05-0.335-1.938-1.004-2.662c-0.67-0.723-1.485-1.086-2.444-1.086c-1.395,0-2.552,0.553-3.475,1.657
		c-0.942,1.141-1.412,2.443-1.412,3.909v7.521h-1.955V120.735z"/>
	<path fill="#0D0E1D" d="M79.719,142.376c-1.865,0-3.502-0.678-4.915-2.036c-1.503-1.43-2.253-3.284-2.253-5.565
		c0-2.154,0.66-3.955,1.981-5.403c1.357-1.468,3.032-2.199,5.023-2.199c1.973,0,3.638,0.731,4.997,2.199
		c1.338,1.448,2.009,3.24,2.009,5.376c0,2.244-0.724,4.101-2.172,5.566C83.05,141.689,81.493,142.376,79.719,142.376z
		 M79.53,140.584c1.303,0,2.461-0.542,3.475-1.629c0.978-1.104,1.466-2.507,1.466-4.208c0-1.756-0.525-3.187-1.574-4.29
		c-0.96-1.015-2.074-1.521-3.34-1.521c-1.303,0-2.417,0.525-3.34,1.575c-1.014,1.158-1.52,2.579-1.52,4.264
		c0,1.7,0.497,3.122,1.493,4.263C77.113,140.07,78.226,140.584,79.53,140.584z"/>
	<path fill="#0D0E1D" d="M95.55,142.376c-1.865,0-3.503-0.678-4.915-2.036c-1.503-1.43-2.253-3.284-2.253-5.565
		c0-2.154,0.66-3.955,1.982-5.403c1.357-1.468,3.032-2.199,5.023-2.199c1.973,0,3.638,0.731,4.996,2.199
		c1.339,1.448,2.009,3.24,2.009,5.376c0,2.244-0.724,4.101-2.172,5.566C98.88,141.689,97.324,142.376,95.55,142.376z M95.36,140.584
		c1.303,0,2.461-0.542,3.475-1.629c0.978-1.104,1.466-2.507,1.466-4.208c0-1.756-0.525-3.187-1.575-4.29
		c-0.96-1.015-2.073-1.521-3.34-1.521c-1.304,0-2.417,0.525-3.34,1.575c-1.014,1.158-1.52,2.579-1.52,4.264
		c0,1.7,0.498,3.122,1.493,4.263C92.943,140.07,94.056,140.584,95.36,140.584z"/>
	<path fill="#0D0E1D" d="M104.319,140.776v-2.363c1.123,0.906,2.263,1.539,3.422,1.901c0.344,0.091,0.679,0.158,1.005,0.203
		c0.326,0.045,0.661,0.067,1.005,0.067c1.104,0,2.018-0.253,2.742-0.76c0.742-0.542,1.113-1.149,1.113-1.819
		c0-0.361-0.135-0.732-0.407-1.113c-0.38-0.471-1.395-0.896-3.042-1.275c-1.955-0.488-3.258-0.897-3.91-1.223
		c-1.268-0.724-1.901-1.738-1.901-3.041c0-1.213,0.524-2.209,1.575-2.987c1.068-0.796,2.398-1.193,3.992-1.193
		c0.724,0,1.375,0.063,1.955,0.189c0.579,0.127,1.122,0.294,1.629,0.503c0.507,0.207,0.978,0.466,1.413,0.772V131
		c-0.761-0.633-1.558-1.136-2.39-1.507c-0.833-0.37-1.71-0.557-2.634-0.557s-1.72,0.208-2.389,0.625
		c-0.688,0.417-1.032,0.96-1.032,1.63c0,0.887,0.814,1.593,2.443,2.117c0.76,0.218,1.512,0.435,2.254,0.652
		c0.742,0.217,1.494,0.434,2.253,0.651c1.647,0.706,2.471,1.774,2.471,3.204c0,1.214-0.57,2.28-1.711,3.203
		c-1.158,0.905-2.598,1.357-4.317,1.357c-0.76,0-1.502-0.08-2.226-0.244C106.474,141.879,105.37,141.427,104.319,140.776z"/>
	<path fill="#0D0E1D" d="M118.874,121.362c0.38,0,0.696,0.125,0.951,0.38c0.253,0.253,0.38,0.614,0.38,1.085
		s-0.118,0.834-0.353,1.087c-0.235,0.253-0.562,0.38-0.978,0.38s-0.737-0.145-0.963-0.435c-0.227-0.289-0.34-0.625-0.34-1.005
		c0-0.597,0.136-0.995,0.407-1.194C118.25,121.46,118.548,121.362,118.874,121.362z M117.923,127.498h1.955v14.526h-1.955V127.498z"
		/>
	<path fill="#0D0E1D" d="M135.003,132.303v9.721h-1.956v-9.585c0-1.014-0.371-1.846-1.113-2.497
		c-0.742-0.67-1.629-1.006-2.661-1.006c-1.375,0-2.562,0.57-3.557,1.711c-0.996,1.158-1.494,2.462-1.494,3.911v7.466h-1.846v-14.526
		h1.71l0.082,2.715c0.489-0.741,1.059-1.357,1.71-1.847c1.068-0.796,2.272-1.193,3.612-1.193c1.556,0,2.86,0.47,3.91,1.411
		C134.469,129.506,135.003,130.747,135.003,132.303z"/>
	<path fill="#0D0E1D" d="M148.307,129.125l0.543-1.628h1.439v13.143c0,2.262-0.552,3.981-1.656,5.158
		c-1.104,1.177-2.815,1.766-5.132,1.766c-0.941,0-1.833-0.168-2.674-0.503c-0.842-0.336-1.725-0.854-2.648-1.561v-2.391
		c0.58,0.544,1.149,1.001,1.711,1.371c0.561,0.371,1.113,0.656,1.656,0.855c0.633,0.235,1.285,0.354,1.955,0.354
		c1.43,0,2.543-0.325,3.34-0.978c0.978-0.797,1.466-2.073,1.466-3.829v-1.792c-0.688,1.141-1.539,1.946-2.552,2.417
		c-0.688,0.326-1.448,0.488-2.281,0.488c-1.792,0-3.294-0.715-4.507-2.145c-1.195-1.466-1.792-3.159-1.792-5.077
		c0-1.919,0.561-3.611,1.683-5.079c1.304-1.683,2.969-2.523,4.996-2.523c1.014,0,1.973,0.243,2.878,0.731
		c0.271,0.164,0.539,0.345,0.801,0.544C147.795,128.647,148.053,128.873,148.307,129.125z M148.307,134.992V131
		c-0.308-0.343-0.62-0.633-0.937-0.868c-0.316-0.235-0.629-0.443-0.936-0.625c-0.362-0.199-0.733-0.344-1.114-0.435
		c-0.38-0.09-0.769-0.136-1.167-0.136c-1.357,0-2.48,0.481-3.367,1.439c-0.996,1.087-1.493,2.516-1.493,4.29
		c0,1.611,0.416,2.943,1.249,3.992c0.814,1.031,1.874,1.547,3.176,1.547c1.286,0,2.372-0.497,3.259-1.492
		C147.863,137.752,148.307,136.512,148.307,134.992z"/>
	<path fill="#0D0E1D" d="M174.781,122.23v2.741c-0.471-0.396-0.946-0.749-1.425-1.058c-0.48-0.309-0.955-0.562-1.426-0.76
		c-1.086-0.507-2.19-0.761-3.312-0.761c-1.413,0-2.58,0.352-3.503,1.059c-0.942,0.725-1.412,1.584-1.412,2.58
		c0,1.448,1.068,2.534,3.204,3.258c0.995,0.344,1.986,0.674,2.973,0.991c0.986,0.316,1.986,0.637,3,0.964
		c2.154,1.031,3.231,2.57,3.231,4.615c0,1.992-0.77,3.595-2.308,4.807c-1.467,1.14-3.286,1.71-5.458,1.71
		c-1.448,0-2.842-0.28-4.181-0.841c-0.779-0.308-1.702-0.815-2.77-1.521v-2.769c1.394,1.249,2.806,2.127,4.236,2.633
		c0.471,0.182,0.932,0.309,1.385,0.382c0.452,0.071,0.905,0.107,1.357,0.107c1.448,0,2.669-0.362,3.666-1.085
		c1.104-0.798,1.656-1.838,1.656-3.123c0-1.557-1.05-2.744-3.15-3.558c-1.014-0.307-2.009-0.624-2.986-0.95
		c-0.978-0.325-1.955-0.642-2.933-0.95c-2.118-0.978-3.176-2.48-3.176-4.508c0-1.701,0.669-3.086,2.009-4.154
		c1.375-1.104,3.095-1.656,5.159-1.656c1.267,0,2.534,0.236,3.801,0.706C173.071,121.307,173.858,121.687,174.781,122.23z"/>
	<path fill="#0D0E1D" d="M180.374,123.208h1.792v4.262h3.829v1.767h-3.829v9.231c0,0.76,0.141,1.304,0.421,1.629
		c0.28,0.326,0.764,0.488,1.453,0.488c0.398,0,0.737-0.044,1.018-0.135s0.593-0.209,0.937-0.354v1.766
		c-0.29,0.091-0.638,0.176-1.045,0.258c-0.408,0.081-0.819,0.122-1.236,0.122c-1.085,0-1.928-0.245-2.525-0.733
		c-0.67-0.507-1.005-1.321-1.005-2.443v-9.829h-2.443v-1.767h2.443L180.374,123.208z"/>
	<path fill="#0D0E1D" d="M188.764,121.362c0.381,0,0.697,0.125,0.951,0.38c0.253,0.253,0.38,0.614,0.38,1.085
		s-0.118,0.834-0.353,1.087c-0.235,0.253-0.561,0.38-0.978,0.38c-0.417,0-0.737-0.145-0.963-0.435
		c-0.227-0.289-0.339-0.625-0.339-1.005c0-0.597,0.136-0.995,0.407-1.194C188.14,121.46,188.438,121.362,188.764,121.362z
		 M187.814,127.498h1.955v14.526h-1.955V127.498z"/>
	<path fill="#0D0E1D" d="M193.978,123.208h1.792v4.262h3.829v1.767h-3.829v9.231c0,0.76,0.14,1.304,0.421,1.629
		c0.28,0.326,0.764,0.488,1.453,0.488c0.398,0,0.737-0.044,1.018-0.135s0.593-0.209,0.937-0.354v1.766
		c-0.29,0.091-0.638,0.176-1.045,0.258c-0.408,0.081-0.819,0.122-1.236,0.122c-1.085,0-1.928-0.245-2.525-0.733
		c-0.67-0.507-1.005-1.321-1.005-2.443v-9.829h-2.443v-1.767h2.443L193.978,123.208z"/>
	<path fill="#0D0E1D" d="M213.419,128.773v2.554c-1.014-0.96-2.055-1.648-3.123-2.065c-0.308-0.125-0.625-0.211-0.951-0.257
		c-0.325-0.046-0.651-0.068-0.977-0.068c-1.503,0-2.734,0.562-3.693,1.685c-0.96,1.158-1.439,2.534-1.439,4.127
		c0,1.629,0.498,3.022,1.494,4.181c0.995,1.104,2.244,1.656,3.748,1.656c0.94,0,1.801-0.203,2.579-0.609
		c0.778-0.407,1.566-1.02,2.362-1.833v2.578c-0.96,0.598-1.829,1.023-2.606,1.276c-0.779,0.254-1.566,0.38-2.363,0.38
		c-2.028,0-3.765-0.724-5.213-2.172c-1.412-1.502-2.118-3.312-2.118-5.43c0-2.083,0.697-3.875,2.091-5.377
		c1.412-1.483,3.167-2.226,5.268-2.226c1.067,0,2.063,0.18,2.986,0.542C212.007,127.915,212.659,128.266,213.419,128.773z"/>
	<path fill="#0D0E1D" d="M215.646,120.735h1.955v9.369c0.452-0.724,1.004-1.331,1.656-1.819c0.996-0.741,2.108-1.112,3.34-1.112
		c0.76,0,1.443,0.107,2.05,0.325c0.606,0.217,1.163,0.533,1.67,0.95c1.068,0.941,1.602,2.263,1.602,3.965v9.611h-1.983v-9.34
		c0-1.05-0.334-1.938-1.004-2.662c-0.67-0.723-1.484-1.086-2.444-1.086c-1.394,0-2.552,0.553-3.475,1.657
		c-0.942,1.141-1.412,2.443-1.412,3.909v7.521h-1.955V120.735z"/>
	<path fill="#0D0E1D" d="M232.996,120.275c0,0.869-0.186,1.665-0.557,2.39c-0.372,0.725-0.937,1.275-1.697,1.655l-0.923-0.76
		c0.362-0.146,0.724-0.461,1.086-0.951c0.362-0.487,0.543-0.949,0.543-1.383h-1.765v-2.689h3.313V120.275z"/>
	<path fill="#0D0E1D" d="M248.012,132.303v9.721h-1.956v-9.585c0-1.014-0.371-1.846-1.113-2.497
		c-0.742-0.67-1.629-1.006-2.661-1.006c-1.376,0-2.562,0.57-3.557,1.711c-0.996,1.158-1.494,2.462-1.494,3.911v7.466h-1.847v-14.526
		h1.71l0.082,2.715c0.489-0.741,1.06-1.357,1.71-1.847c1.069-0.796,2.272-1.193,3.612-1.193c1.556,0,2.859,0.47,3.91,1.411
		C247.477,129.506,248.012,130.747,248.012,132.303z"/>
	<path fill="#0D0E1D" d="M253.74,120.275c0,0.869-0.186,1.665-0.556,2.39c-0.371,0.725-0.938,1.275-1.697,1.655l-0.924-0.76
		c0.361-0.146,0.724-0.461,1.086-0.951c0.362-0.487,0.543-0.949,0.543-1.383h-1.765v-2.689h3.312V120.275z"/>
	<path fill="#0D0E1D" d="M272.448,122.366v2.823c-0.996-0.887-1.955-1.547-2.879-1.981c-1.086-0.543-2.2-0.814-3.341-0.814
		c-2.299,0-4.208,0.95-5.728,2.851c-1.449,1.737-2.173,3.82-2.173,6.245c0,2.462,0.778,4.598,2.335,6.408
		c1.466,1.647,3.122,2.471,4.97,2.471c1.466,0,2.697-0.471,3.692-1.412c1.086-1.031,1.628-2.39,1.628-4.072v-1.629h-7.005v-1.874
		h9.178v10.644h-1.873l-0.3-2.58c-0.632,0.797-1.312,1.422-2.035,1.874c-1.123,0.706-2.354,1.059-3.693,1.059
		c-2.443,0-4.57-1.04-6.38-3.122c-1.865-2.099-2.798-4.671-2.798-7.711c0-3.132,0.968-5.775,2.906-7.93
		c1.937-2.153,4.353-3.23,7.25-3.23c1.266,0,2.506,0.236,3.72,0.706C270.557,121.325,271.397,121.75,272.448,122.366z"/>
	<path fill="#0D0E1D" d="M276.331,120.735h1.954v21.289h-1.954V120.735z"/>
	<path fill="#0D0E1D" d="M281.68,121.362c0.38,0,0.696,0.125,0.95,0.38c0.255,0.253,0.38,0.614,0.38,1.085s-0.117,0.834-0.353,1.087
		s-0.561,0.38-0.978,0.38c-0.416,0-0.737-0.145-0.964-0.435c-0.226-0.289-0.339-0.625-0.339-1.005c0-0.597,0.135-0.995,0.406-1.194
		S281.354,121.362,281.68,121.362z M280.729,127.498h1.956v14.526h-1.956V127.498z"/>
	<path fill="#0D0E1D" d="M286.893,123.208h1.792v4.262h3.828v1.767h-3.828v9.231c0,0.76,0.14,1.304,0.421,1.629
		c0.281,0.326,0.765,0.488,1.453,0.488c0.396,0,0.737-0.044,1.018-0.135s0.593-0.209,0.937-0.354v1.766
		c-0.289,0.091-0.638,0.176-1.045,0.258c-0.406,0.081-0.819,0.122-1.235,0.122c-1.087,0-1.929-0.245-2.526-0.733
		c-0.67-0.507-1.004-1.321-1.004-2.443v-9.829h-2.443v-1.767h2.443L286.893,123.208z"/>
	<path fill="#0D0E1D" d="M306.334,128.773v2.554c-1.014-0.96-2.055-1.648-3.123-2.065c-0.307-0.125-0.624-0.211-0.95-0.257
		c-0.325-0.046-0.652-0.068-0.978-0.068c-1.503,0-2.733,0.562-3.693,1.685c-0.958,1.158-1.438,2.534-1.438,4.127
		c0,1.629,0.497,3.022,1.493,4.181c0.994,1.104,2.244,1.656,3.746,1.656c0.942,0,1.802-0.203,2.58-0.609
		c0.778-0.407,1.565-1.02,2.362-1.833v2.578c-0.96,0.598-1.828,1.023-2.606,1.276c-0.778,0.254-1.566,0.38-2.362,0.38
		c-2.027,0-3.766-0.724-5.213-2.172c-1.412-1.502-2.118-3.312-2.118-5.43c0-2.083,0.696-3.875,2.091-5.377
		c1.411-1.483,3.167-2.226,5.267-2.226c1.068,0,2.065,0.18,2.987,0.542C304.922,127.915,305.574,128.266,306.334,128.773z"/>
	<path fill="#0D0E1D" d="M308.561,120.735h1.955v9.369c0.452-0.724,1.005-1.331,1.657-1.819c0.994-0.741,2.108-1.112,3.338-1.112
		c0.763,0,1.444,0.107,2.052,0.325c0.606,0.217,1.162,0.533,1.669,0.95c1.068,0.941,1.603,2.263,1.603,3.965v9.611h-1.982v-9.34
		c0-1.05-0.335-1.938-1.004-2.662c-0.67-0.723-1.485-1.086-2.444-1.086c-1.395,0-2.553,0.553-3.477,1.657
		c-0.941,1.141-1.411,2.443-1.411,3.909v7.521h-1.955V120.735z"/>
</g>
</svg>
