<?xml version="1.0" encoding="utf-8"?>
<!-- Generator: Adobe Illustrator 15.1.0, SVG Export Plug-In . SVG Version: 6.00 Build 0)  -->
<!DOCTYPE svg PUBLIC "-//W3C//DTD SVG 1.1//EN" "http://www.w3.org/Graphics/SVG/1.1/DTD/svg11.dtd">
<svg version="1.1" id="Layer_1" xmlns="http://www.w3.org/2000/svg" xmlns:xlink="http://www.w3.org/1999/xlink" x="0px" y="0px"
	 width="14.172px" height="14.172px" viewBox="0 0 14.172 14.172" enable-background="new 0 0 14.172 14.172" xml:space="preserve">
<g enable-background="new    ">
	<path d="M8.549,11.383v1.06c-0.626,0.257-1.22,0.385-1.783,0.385c-0.582,0-1.145-0.128-1.688-0.385v-0.815l-0.638-0.741
		C4.063,10.185,3.8,9.281,3.652,8.174l0.081-0.889L2.318,4.832C2.106,4.462,2,4.167,2,3.945c0-0.197,0.065-0.362,0.196-0.499
		c0.13-0.135,0.291-0.203,0.478-0.203c0.276,0,0.554,0.227,0.83,0.681l1.281,2.109l-0.793-3.02c-0.1-0.375-0.149-0.633-0.149-0.776
		c0-0.276,0.061-0.483,0.181-0.618c0.121-0.136,0.303-0.204,0.544-0.204c0.415,0,0.713,0.315,0.895,0.947l0.889,3.101V1.926
		c0-0.385,0.069-0.674,0.207-0.866s0.345-0.289,0.622-0.289c0.548,0,0.822,0.435,0.822,1.303L7.921,5.611l0.925-2.753
		c0.271-0.81,0.604-1.214,0.999-1.214c0.227,0,0.396,0.057,0.511,0.171c0.113,0.113,0.17,0.286,0.17,0.517
		c0,0.237-0.039,0.515-0.117,0.835L9.491,6.729c0.049,0.168,0.09,0.428,0.125,0.778c0.158-0.089,0.378-0.183,0.659-0.281
		c0.202-0.339,0.427-0.592,0.673-0.761c0.247-0.169,0.518-0.254,0.814-0.254c0.286,0,0.635,0.172,1.044,0.52l0.147,0.117
		l-1.599,1.519L9.994,10.19C9.456,10.693,8.975,11.092,8.549,11.383z M8.188,11.206c0.668-0.52,1.207-0.98,1.617-1.387l1.246-1.666
		l1.37-1.283c-0.237-0.197-0.462-0.296-0.674-0.296c-0.236,0-0.456,0.078-0.659,0.233c-0.202,0.156-0.387,0.393-0.555,0.708
		C9.665,7.786,8.933,8.281,8.34,8.997L8.059,8.774c0.297-0.443,0.702-0.806,1.216-1.082c-0.044-0.35-0.108-0.67-0.191-0.963
		l0.932-3.481c0.1-0.354,0.148-0.613,0.148-0.776c0-0.147-0.027-0.257-0.081-0.328c-0.055-0.072-0.137-0.107-0.244-0.107
		c-0.208,0-0.396,0.254-0.57,0.762L8.195,5.981H7.559l0.088-3.639l0.008-0.238c0-0.647-0.156-0.971-0.466-0.971
		c-0.153,0-0.269,0.055-0.348,0.167C6.761,1.411,6.722,1.582,6.722,1.809l0.007,0.466v3.707L6.146,6.085L5.224,2.688
		C5.062,2.081,4.85,1.777,4.589,1.777c-0.127,0-0.224,0.039-0.288,0.115C4.237,1.969,4.206,2.086,4.206,2.244
		c0,0.104,0.044,0.312,0.132,0.628l0.986,3.601L4.785,6.729L3.182,4.123C2.981,3.788,2.806,3.621,2.658,3.621
		c-0.099,0-0.172,0.027-0.222,0.081C2.387,3.756,2.363,3.84,2.363,3.954c0,0.142,0.091,0.371,0.273,0.686l1.479,2.535l-0.091,1
		c0.153,1.018,0.407,1.872,0.761,2.564l0.678,0.814v0.646c0.433,0.168,0.891,0.252,1.374,0.252c0.398,0,0.849-0.084,1.351-0.252
		V11.206z"/>
</g>
</svg>
