<?xml version="1.0" encoding="utf-8"?>
<!-- Generator: Adobe Illustrator 15.1.0, SVG Export Plug-In . SVG Version: 6.00 Build 0)  -->
<!DOCTYPE svg PUBLIC "-//W3C//DTD SVG 1.1//EN" "http://www.w3.org/Graphics/SVG/1.1/DTD/svg11.dtd">
<svg version="1.1" id="Layer_1" xmlns="http://www.w3.org/2000/svg" xmlns:xlink="http://www.w3.org/1999/xlink" x="0px" y="0px"
	 width="14.172px" height="14.172px" viewBox="0 0 14.172 14.172" enable-background="new 0 0 14.172 14.172" xml:space="preserve">
<g enable-background="new    ">
	<path d="M2,11.096V3.155c0-0.184,0.065-0.339,0.194-0.466c0.13-0.127,0.286-0.191,0.469-0.191h8.602
		c0.184,0,0.338,0.063,0.465,0.191c0.128,0.127,0.192,0.283,0.192,0.466v8.601c0,0.184-0.064,0.34-0.192,0.47
		c-0.127,0.13-0.281,0.194-0.465,0.194H3.321L2,11.096z M9.281,12.091h1.984c0.112,0,0.194-0.028,0.248-0.084
		s0.081-0.138,0.081-0.245V3.155c0-0.219-0.109-0.329-0.329-0.329h-0.992v3.963c0,0.184-0.064,0.339-0.194,0.468
		C9.95,7.387,9.792,7.452,9.61,7.452H4.313c-0.184,0-0.339-0.064-0.466-0.194C3.72,7.128,3.656,6.973,3.656,6.789V2.826H2.664
		c-0.223,0-0.335,0.109-0.335,0.329v7.808l1.126,1.129h1.193V9.115c0-0.224,0.109-0.336,0.329-0.336h3.969
		c0.224,0,0.335,0.112,0.335,0.336V12.091z M9.945,2.826h-5.96v3.969c0,0.107,0.028,0.188,0.084,0.245
		c0.056,0.056,0.137,0.084,0.245,0.084h5.301c0.221,0,0.33-0.112,0.33-0.335V2.826z M6.632,9.108H4.977v2.983h1.656V9.108z"/>
</g>
</svg>
