<?xml version="1.0" encoding="utf-8"?>
<!-- Generator: Adobe Illustrator 15.1.0, SVG Export Plug-In . SVG Version: 6.00 Build 0)  -->
<!DOCTYPE svg PUBLIC "-//W3C//DTD SVG 1.1//EN" "http://www.w3.org/Graphics/SVG/1.1/DTD/svg11.dtd">
<svg version="1.1" id="Layer_1" xmlns="http://www.w3.org/2000/svg" xmlns:xlink="http://www.w3.org/1999/xlink" x="0px" y="0px"
	 width="14.172px" height="14.172px" viewBox="0 0 14.172 14.172" enable-background="new 0 0 14.172 14.172" xml:space="preserve">
<g enable-background="new    ">
	<path d="M9.779,4.457l-2.06-0.01l2.586-2.562l2.562,2.586l-2.06-0.01L10.79,8.065c-0.006,1.141-0.412,2.109-1.221,2.908
		s-1.781,1.195-2.917,1.19c-1.137-0.007-2.104-0.412-2.906-1.222c-0.799-0.807-1.198-1.78-1.192-2.916L2.57,4.421L3.6,4.426
		L3.583,8.03c-0.005,0.854,0.294,1.584,0.894,2.189c0.601,0.606,1.328,0.911,2.181,0.915c0.853,0.004,1.584-0.294,2.188-0.896
		c0.605-0.6,0.912-1.326,0.916-2.18L9.779,4.457z"/>
</g>
</svg>
