<?xml version="1.0" encoding="utf-8"?>
<!-- Generator: Adobe Illustrator 15.1.0, SVG Export Plug-In . SVG Version: 6.00 Build 0)  -->
<!DOCTYPE svg PUBLIC "-//W3C//DTD SVG 1.1//EN" "http://www.w3.org/Graphics/SVG/1.1/DTD/svg11.dtd">
<svg version="1.1" id="Layer_1" xmlns="http://www.w3.org/2000/svg" xmlns:xlink="http://www.w3.org/1999/xlink" x="0px" y="0px"
	 width="14.172px" height="14.172px" viewBox="0 0 14.172 14.172" enable-background="new 0 0 14.172 14.172" xml:space="preserve">
<g enable-background="new    ">
	<path d="M4.155,7.589l-1.034,2.903h0.646v0.342H1.233v-0.342h0.664l2.173-5.56C4.146,4.774,4.184,4.667,4.184,4.61
		c0-0.044-0.013-0.082-0.038-0.113C4.058,4.396,3.962,4.344,3.861,4.344c-0.272,0-0.582,0.335-0.93,1.006
		C2.78,5.642,2.634,5.976,2.495,6.356h-0.19c0.139-0.43,0.294-0.803,0.465-1.119c0.398-0.747,0.816-1.12,1.252-1.12
		c0.095,0,0.193,0.02,0.294,0.057c0.076,0.032,0.139,0.121,0.189,0.266C4.544,4.541,4.563,4.62,4.563,4.677
		c0.095-0.171,0.291-0.342,0.588-0.513C5.493,3.968,5.825,3.87,6.148,3.87c0.139,0,0.269,0.02,0.389,0.058
		c0.62,0.196,0.929,0.724,0.929,1.584c0,0.417-0.075,0.823-0.227,1.214C7.068,7.175,6.765,7.586,6.328,7.96
		C5.892,8.333,5.5,8.519,5.152,8.519C4.722,8.519,4.39,8.209,4.155,7.589z M6.139,4.335c-0.228,0-0.484,0.18-0.769,0.541
		C5.142,5.154,4.943,5.477,4.772,5.843C4.62,6.167,4.544,6.568,4.544,7.049c0,0.455,0.114,0.682,0.342,0.682
		c0.202,0,0.446-0.151,0.73-0.455c0.272-0.284,0.474-0.591,0.607-0.92c0.209-0.513,0.313-0.977,0.313-1.395
		C6.537,4.544,6.404,4.335,6.139,4.335z M9.678,7.589l-1.025,2.903h0.646v0.342H6.784v-0.342h0.664l2.164-5.56
		C9.681,4.781,9.715,4.68,9.715,4.629c0-0.058-0.015-0.101-0.048-0.133C9.579,4.396,9.484,4.344,9.383,4.344
		c-0.189,0-0.401,0.174-0.637,0.522C8.578,5.12,8.41,5.442,8.245,5.834C8.093,6.182,8.027,6.356,8.045,6.356H7.846
		c0.139-0.43,0.295-0.803,0.465-1.119c0.399-0.747,0.812-1.12,1.243-1.12c0.101,0,0.195,0.018,0.284,0.053
		c0.089,0.035,0.155,0.125,0.2,0.27c0.019,0.083,0.038,0.162,0.058,0.238c0.101-0.171,0.296-0.342,0.586-0.513
		c0.342-0.196,0.675-0.294,0.997-0.294c0.14,0,0.27,0.02,0.39,0.058c0.613,0.196,0.92,0.718,0.92,1.565
		c0,0.424-0.076,0.835-0.228,1.233c-0.177,0.45-0.48,0.861-0.911,1.235c-0.431,0.372-0.819,0.559-1.168,0.559
		c-0.226,0-0.415-0.069-0.563-0.208C9.97,8.171,9.823,7.931,9.678,7.589z M11.69,4.335c-0.229,0-0.488,0.18-0.778,0.541
		c-0.222,0.273-0.425,0.595-0.607,0.968c-0.153,0.31-0.228,0.712-0.228,1.206c0,0.36,0.062,0.576,0.189,0.646
		c0.044,0.024,0.091,0.036,0.143,0.036c0.195,0,0.437-0.151,0.721-0.455c0.271-0.284,0.478-0.591,0.617-0.92
		c0.221-0.519,0.332-0.993,0.332-1.423C12.079,4.535,11.949,4.335,11.69,4.335z"/>
</g>
</svg>
