<?xml version="1.0" encoding="utf-8"?>
<!-- Generator: Adobe Illustrator 15.1.0, SVG Export Plug-In . SVG Version: 6.00 Build 0)  -->
<!DOCTYPE svg PUBLIC "-//W3C//DTD SVG 1.1//EN" "http://www.w3.org/Graphics/SVG/1.1/DTD/svg11.dtd">
<svg version="1.1" id="Layer_1" xmlns="http://www.w3.org/2000/svg" xmlns:xlink="http://www.w3.org/1999/xlink" x="0px" y="0px"
	 width="14.172px" height="14.172px" viewBox="0 0 14.172 14.172" enable-background="new 0 0 14.172 14.172" xml:space="preserve">
<g enable-background="new    ">
	<path d="M3.678,12.169h-0.58L2.014,3.568l0.129-1.16l0.463,1.16l0.094,0.715c0.734-0.523,1.523-0.785,2.367-0.785
		c0.578,0,1.059,0.137,1.441,0.41s0.574,0.617,0.574,1.031c0,0.148-0.021,0.334-0.064,0.557L6.871,6.251
		c1.028,0.801,2.303,1.201,3.827,1.201c0.953,0,1.789-0.242,2.508-0.728c-0.812,1.113-1.754,1.958-2.824,2.535
		c-1.07,0.576-2.234,0.864-3.493,0.864c-0.559,0-1.012-0.078-1.359-0.234C5.178,9.733,5.02,9.538,5.055,9.302l0.293-2.113
		c-0.762,0-1.485,0.309-2.169,0.926L3.678,12.169z M3.098,7.476c0.73-0.578,1.48-0.867,2.25-0.867c0.457,0,0.824,0.11,1.102,0.331
		l0.217-1.065C6.717,5.621,6.742,5.416,6.742,5.26c0-0.34-0.164-0.619-0.492-0.837C5.922,4.205,5.502,4.095,4.99,4.095
		c-0.609,0-1.35,0.258-2.221,0.773L3.098,7.476z M6.76,6.87L6.514,8.02C6.475,8.2,6.236,8.398,5.799,8.613
		C5.744,8.64,5.662,8.683,5.553,8.742C5.494,8.808,5.465,8.875,5.465,8.941c0,0.195,0.11,0.342,0.331,0.439s0.55,0.146,0.987,0.146
		c1.727,0,3.204-0.502,4.43-1.506c-0.293,0.02-0.502,0.029-0.627,0.029C9.043,8.05,7.768,7.657,6.76,6.87z M5.477,8.449
		c0.078-0.043,0.139-0.074,0.182-0.094c0.434-0.22,0.65-0.432,0.65-0.636c0-0.243-0.225-0.41-0.674-0.5L5.477,8.449z"/>
</g>
</svg>
