<?xml version="1.0" encoding="utf-8"?>
<!-- Generator: Adobe Illustrator 15.1.0, SVG Export Plug-In . SVG Version: 6.00 Build 0)  -->
<!DOCTYPE svg PUBLIC "-//W3C//DTD SVG 1.1//EN" "http://www.w3.org/Graphics/SVG/1.1/DTD/svg11.dtd">
<svg version="1.1" id="Layer_1" xmlns="http://www.w3.org/2000/svg" xmlns:xlink="http://www.w3.org/1999/xlink" x="0px" y="0px"
	 width="14.172px" height="14.172px" viewBox="0 0 14.172 14.172" enable-background="new 0 0 14.172 14.172" xml:space="preserve">
<g enable-background="new    ">
	<path d="M8.354,7.295l1.838-2.946c0.641-1.028,1.188-1.543,1.645-1.543c0.328,0,0.597,0.177,0.805,0.533
		c0.209,0.354,0.312,0.813,0.312,1.374c0,0.483-0.067,0.725-0.203,0.725c-0.124,0-0.186-0.098-0.186-0.294
		c0-0.046,0.004-0.093,0.014-0.14l0.035-0.167c0.046-0.206,0.068-0.364,0.068-0.475c0-0.336-0.082-0.622-0.246-0.859
		c-0.165-0.237-0.363-0.357-0.596-0.357c-0.398,0-0.907,0.506-1.525,1.515L8.354,7.846c-0.072,0.607-0.26,1.108-0.563,1.503
		C7.487,9.745,7.14,9.941,6.747,9.941c-0.459,0-0.826-0.22-1.103-0.659c-0.276-0.44-0.447-1.08-0.514-1.917
		c0.054-0.108,0.082-0.21,0.082-0.31c0-0.14-0.035-0.245-0.104-0.315c-0.07-0.07-0.174-0.105-0.312-0.105
		c-0.293,0-0.439,0.146-0.439,0.436c0,0.098,0.03,0.195,0.09,0.294C4.354,8.249,4.173,8.899,3.906,9.316
		C3.639,9.732,3.271,9.941,2.804,9.941c-0.458,0-0.846-0.255-1.163-0.768C1.324,8.663,1.165,8.037,1.165,7.295l2.11-3.31
		c0.507-0.796,0.973-1.194,1.399-1.194c0.317,0,0.579,0.179,0.785,0.536c0.207,0.357,0.31,0.812,0.31,1.365
		c0,0.482-0.068,0.724-0.204,0.724c-0.124,0-0.186-0.096-0.186-0.285c0-0.047,0.004-0.093,0.014-0.14L5.43,4.817
		c0.045-0.205,0.068-0.362,0.068-0.473c0-0.331-0.079-0.61-0.235-0.839c-0.157-0.23-0.347-0.344-0.57-0.344
		c-0.398,0-0.838,0.378-1.317,1.138L1.486,7.295h2.259c0.269,0,0.403-0.077,0.403-0.233V6.929c0-0.423,0.224-0.635,0.67-0.635
		c0.166,0,0.308,0.062,0.426,0.183c0.118,0.127,0.177,0.278,0.177,0.452V7.02c0,0.184,0.137,0.275,0.412,0.275H8.354z M3.479,7.637
		H2.107c-0.281,0-0.457,0.016-0.528,0.049c-0.071,0.032-0.106,0.115-0.106,0.25c0,0.375,0.146,0.739,0.439,1.089
		C2.205,9.376,2.51,9.55,2.827,9.55c0.311,0,0.594-0.15,0.849-0.452c0.255-0.302,0.383-0.639,0.383-1.016
		c0-0.186-0.036-0.307-0.106-0.362S3.723,7.637,3.479,7.637z M7.54,7.637H6.181c-0.287,0-0.471,0.027-0.552,0.083
		S5.507,7.903,5.507,8.103c0,0.362,0.129,0.693,0.387,0.995C6.152,9.4,6.436,9.55,6.747,9.55c0.308,0,0.609-0.176,0.904-0.528
		c0.293-0.353,0.441-0.715,0.441-1.086C8.092,7.737,7.908,7.637,7.54,7.637z"/>
</g>
</svg>
