<?xml version="1.0" encoding="utf-8"?>
<!-- Generator: Adobe Illustrator 15.1.0, SVG Export Plug-In . SVG Version: 6.00 Build 0)  -->
<!DOCTYPE svg PUBLIC "-//W3C//DTD SVG 1.1//EN" "http://www.w3.org/Graphics/SVG/1.1/DTD/svg11.dtd">
<svg version="1.1" id="Layer_1" xmlns="http://www.w3.org/2000/svg" xmlns:xlink="http://www.w3.org/1999/xlink" x="0px" y="0px"
	 width="14.172px" height="14.172px" viewBox="0 0 14.172 14.172" enable-background="new 0 0 14.172 14.172" xml:space="preserve">
<g enable-background="new    ">
	<path d="M3.014,6.998c0-1.199,0.423-2.222,1.269-3.067S6.15,2.662,7.35,2.662c1.2,0,2.221,0.423,3.067,1.269s1.27,1.868,1.27,3.067
		s-0.424,2.222-1.27,3.067s-1.867,1.269-3.067,1.269c-1.199,0-2.222-0.423-3.067-1.269S3.014,8.197,3.014,6.998z M5.615,6.998
		c0,0.48,0.169,0.89,0.507,1.228S6.869,8.732,7.35,8.732c0.481,0,0.889-0.169,1.227-0.507s0.508-0.747,0.508-1.228
		s-0.17-0.89-0.508-1.228S7.831,5.263,7.35,5.263c-0.48,0-0.89,0.169-1.228,0.507S5.615,6.517,5.615,6.998z"/>
</g>
</svg>
