<?xml version="1.0" encoding="utf-8"?>
<!-- Generator: Adobe Illustrator 15.1.0, SVG Export Plug-In . SVG Version: 6.00 Build 0)  -->
<!DOCTYPE svg PUBLIC "-//W3C//DTD SVG 1.1//EN" "http://www.w3.org/Graphics/SVG/1.1/DTD/svg11.dtd">
<svg version="1.1" id="Layer_1" xmlns="http://www.w3.org/2000/svg" xmlns:xlink="http://www.w3.org/1999/xlink" x="0px" y="0px"
	 width="14.172px" height="14.172px" viewBox="0 0 14.172 14.172" enable-background="new 0 0 14.172 14.172" xml:space="preserve">
<g enable-background="new    ">
	<path d="M3.467,8.733c-0.471-0.03-0.804-0.092-1-0.185c-0.31-0.151-0.464-0.429-0.464-0.83c0-0.397,0.126-0.691,0.379-0.883
		C2.39,6.827,2.683,6.671,3.258,6.371C3.049,6.602,2.944,6.955,2.944,7.43C2.944,8.005,3.119,8.44,3.467,8.733z M2.617,8.417
		C2.46,8.042,2.382,7.774,2.382,7.614c0-0.162,0.017-0.362,0.052-0.603L2.251,7.136C2.22,7.311,2.205,7.475,2.205,7.626
		c0,0.2,0.085,0.444,0.255,0.731L2.617,8.417z M2.977,8.458c-0.17-0.477-0.255-0.85-0.255-1.119c0-0.188,0.024-0.347,0.072-0.478
		L2.65,6.9C2.593,7.102,2.565,7.315,2.565,7.542c0,0.188,0.076,0.492,0.229,0.916H2.977z M11.512,7.392
		c0,0.484-0.047,0.909-0.139,1.275c-0.14,0.575-0.367,0.863-0.687,0.863c-0.083,0-0.265-0.094-0.543-0.281
		c-0.341-0.23-0.989-0.423-1.948-0.575c-0.794-0.131-1.49-0.196-2.087-0.196c-0.161,0-0.242,0.133-0.242,0.398
		c0,0.092,0.035,0.222,0.104,0.391C6.04,9.434,6.075,9.565,6.075,9.662c0,0.096,0.057,0.202,0.167,0.319
		c0.113,0.117,0.169,0.211,0.169,0.281c0,0.018-0.006,0.044-0.017,0.078c-0.011,0.035-0.017,0.061-0.017,0.079
		c0,0.062,0.051,0.147,0.154,0.262c0.104,0.113,0.154,0.212,0.154,0.294c0,0.039-0.018,0.09-0.049,0.15
		c-0.033,0.061-0.049,0.109-0.049,0.145c0,0.053,0.026,0.111,0.082,0.18c0.055,0.068,0.082,0.115,0.082,0.141
		c0,0.079-0.104,0.118-0.314,0.118c-0.462,0-0.787-0.136-0.975-0.405c-0.114-0.167-0.226-0.514-0.335-1.041
		c-0.2-0.986-0.546-1.479-1.04-1.479c-0.021,0-0.05,0.004-0.085,0.01C3.968,8.8,3.942,8.803,3.925,8.803
		c-0.558,0-0.837-0.51-0.837-1.53c0-0.584,0.286-1.005,0.857-1.262C4.241,5.902,4.684,5.73,5.273,5.495
		C5.892,5.232,6.57,4.832,7.308,4.291C8,3.79,8.488,3.359,8.766,3.001C8.883,2.399,9.122,2.1,9.479,2.1
		c0.428,0,0.84,0.471,1.236,1.413c0.271,0.637,0.473,1.306,0.607,2.008C11.449,6.152,11.512,6.776,11.512,7.392z M9.838,8.856
		C9.45,8.272,9.142,7.532,8.917,6.639C8.708,5.815,8.603,5.02,8.603,4.252l0.091-0.746C8.397,3.885,7.995,4.24,7.484,4.572
		c-0.458,0.275-0.918,0.552-1.38,0.831c-0.541,0.335-0.812,0.725-0.812,1.17c0,0.388,0.07,0.724,0.209,1.007
		c0.173,0.349,0.432,0.552,0.771,0.607C6.297,8.192,6.54,8.205,6.999,8.22C8.081,8.266,9.027,8.477,9.838,8.856z M9.844,6.953
		c0-0.462-0.078-0.896-0.235-1.301C9.43,5.197,9.188,4.879,8.883,4.696C9.053,6.249,9.31,7.413,9.654,8.19
		C9.782,7.805,9.844,7.394,9.844,6.953z"/>
</g>
</svg>
