<?xml version="1.0" encoding="utf-8"?>
<!-- Generator: Adobe Illustrator 15.1.0, SVG Export Plug-In . SVG Version: 6.00 Build 0)  -->
<!DOCTYPE svg PUBLIC "-//W3C//DTD SVG 1.1//EN" "http://www.w3.org/Graphics/SVG/1.1/DTD/svg11.dtd">
<svg version="1.1" id="Layer_1" xmlns="http://www.w3.org/2000/svg" xmlns:xlink="http://www.w3.org/1999/xlink" x="0px" y="0px"
	 width="14.172px" height="14.172px" viewBox="0 0 14.172 14.172" enable-background="new 0 0 14.172 14.172" xml:space="preserve">
<g enable-background="new    ">
	<path d="M6.673,10.66c0.75,0,1.401-0.256,1.955-0.769C9.18,9.377,9.488,8.75,9.549,8.006h1.447
		c-0.062,1.148-0.51,2.116-1.347,2.906s-1.829,1.186-2.977,1.186c-1.066,0-2.008-0.346-2.824-1.033L2.33,12.583V8.483H6.43
		l-1.549,1.55C5.407,10.451,6.005,10.66,6.673,10.66z M9.488,3.977l1.519-1.519v4.1H6.906l1.55-1.549
		c-0.52-0.417-1.114-0.627-1.783-0.627c-0.749,0-1.402,0.257-1.958,0.769C4.157,5.665,3.849,6.292,3.788,7.036H2.339
		C2.4,5.887,2.849,4.918,3.687,4.129c0.836-0.79,1.833-1.186,2.986-1.186C7.733,2.944,8.67,3.289,9.488,3.977z"/>
</g>
</svg>
