<?xml version="1.0" encoding="utf-8"?>
<!-- Generator: Adobe Illustrator 15.1.0, SVG Export Plug-In . SVG Version: 6.00 Build 0)  -->
<!DOCTYPE svg PUBLIC "-//W3C//DTD SVG 1.1//EN" "http://www.w3.org/Graphics/SVG/1.1/DTD/svg11.dtd">
<svg version="1.1" id="Layer_1" xmlns="http://www.w3.org/2000/svg" xmlns:xlink="http://www.w3.org/1999/xlink" x="0px" y="0px"
	 width="14.172px" height="14.172px" viewBox="0 0 14.172 14.172" enable-background="new 0 0 14.172 14.172" xml:space="preserve">
<g enable-background="new    ">
	<path d="M3.655,6.41H2.402V5.203h1.253c0.356-1.469,1.27-2.385,2.742-2.747V1.208h1.199v1.256c1.469,0.367,2.385,1.28,2.747,2.739
		h1.247V6.41h-1.247C9.981,7.877,9.065,8.792,7.596,9.154v4.047H6.397V9.154C4.925,8.792,4.011,7.877,3.655,6.41z M6.251,5.497
		C6.354,5.312,6.5,5.168,6.688,5.065L6.397,4.4V3.688C5.626,3.936,5.122,4.441,4.885,5.203h0.711L6.251,5.497z M5.596,6.41H4.885
		c0.231,0.761,0.736,1.268,1.512,1.522V7.211l0.292-0.664C6.5,6.45,6.354,6.306,6.251,6.116L5.596,6.41z M7.304,5.065
		c0.184,0.103,0.327,0.247,0.43,0.432l0.665-0.294h0.713C8.917,4.614,8.493,4.139,7.839,3.776L7.596,3.695V4.4L7.304,5.065z
		 M7.596,7.932C8.358,7.684,8.863,7.176,9.112,6.41H8.399L7.734,6.116c-0.103,0.19-0.246,0.334-0.43,0.432l0.292,0.664V7.932z"/>
</g>
</svg>
