<?xml version="1.0" encoding="utf-8"?>
<!-- Generator: Adobe Illustrator 15.1.0, SVG Export Plug-In . SVG Version: 6.00 Build 0)  -->
<!DOCTYPE svg PUBLIC "-//W3C//DTD SVG 1.1//EN" "http://www.w3.org/Graphics/SVG/1.1/DTD/svg11.dtd">
<svg version="1.1" id="Layer_1" xmlns="http://www.w3.org/2000/svg" xmlns:xlink="http://www.w3.org/1999/xlink" x="0px" y="0px"
	 width="14.172px" height="14.172px" viewBox="0 0 14.172 14.172" enable-background="new 0 0 14.172 14.172" xml:space="preserve">
<g>
	<path d="M12.768,6.473c-0.131,0.697-0.312,1.176-0.541,1.441c0.035,1.322-0.414,2.314-1.35,2.976
		c-0.818,0.573-1.934,0.859-3.344,0.859c-1.033,0-1.988-0.203-2.87-0.608C3.534,10.63,2.97,9.92,2.97,9.012
		c0-0.723,0.44-1.389,1.322-1.996C4.284,6.953,4.05,6.689,3.592,6.222C3.424,6.231,3.265,6.235,3.116,6.235
		c-1.199,0-1.847-0.247-1.944-0.74c0.106-0.45,0.824-0.718,2.155-0.807c0.211-0.837,0.723-1.384,1.534-1.64
		c0.371-0.123,0.758-0.167,1.164-0.132c0.52,0.035,0.951,0.291,1.295,0.767c0.309,0.441,0.463,0.93,0.463,1.468
		c0,0.705-0.27,1.238-0.807,1.6l4.258,0.33l-0.039-0.065c0.105,0.018,0.211,0.025,0.316,0.025
		C11.971,7.041,12.389,6.852,12.768,6.473z M5.587,5.468c0.168,0,0.311-0.06,0.43-0.179c0.119-0.119,0.18-0.262,0.18-0.43
		s-0.061-0.312-0.18-0.436s-0.262-0.186-0.43-0.186c-0.176,0-0.32,0.062-0.436,0.186S4.98,4.692,4.98,4.86s0.057,0.311,0.172,0.43
		C5.267,5.409,5.412,5.468,5.587,5.468z"/>
</g>
</svg>
