<?xml version="1.0" encoding="utf-8"?>
<!-- Generator: Adobe Illustrator 15.1.0, SVG Export Plug-In . SVG Version: 6.00 Build 0)  -->
<!DOCTYPE svg PUBLIC "-//W3C//DTD SVG 1.1//EN" "http://www.w3.org/Graphics/SVG/1.1/DTD/svg11.dtd">
<svg version="1.1" id="Layer_1" xmlns="http://www.w3.org/2000/svg" xmlns:xlink="http://www.w3.org/1999/xlink" x="0px" y="0px"
	 width="14.172px" height="14.172px" viewBox="0 0 14.172 14.172" enable-background="new 0 0 14.172 14.172" xml:space="preserve">
<g enable-background="new    ">
	<path d="M2.097,6.788L1.334,5.076H2.19L3,6.311l4.426-0.14L5.328,1.082h1.141l3.238,4.989l0.748-0.008
		c0.443,0,0.844,0.057,1.203,0.17l0.494,0.161c0.365,0.124,0.547,0.252,0.547,0.386c0,0.145-0.182,0.277-0.547,0.401l-0.494,0.162
		c-0.359,0.112-0.768,0.169-1.226,0.169L9.707,7.498l-3.238,4.996H5.328l2.097-5.089L3,7.267L2.19,8.5H1.334L2.097,6.788z"/>
</g>
</svg>
