<?xml version="1.0" encoding="utf-8"?>
<!-- Generator: Adobe Illustrator 15.1.0, SVG Export Plug-In . SVG Version: 6.00 Build 0)  -->
<!DOCTYPE svg PUBLIC "-//W3C//DTD SVG 1.1//EN" "http://www.w3.org/Graphics/SVG/1.1/DTD/svg11.dtd">
<svg version="1.1" id="Layer_1" xmlns="http://www.w3.org/2000/svg" xmlns:xlink="http://www.w3.org/1999/xlink" x="0px" y="0px"
	 width="14.172px" height="14.172px" viewBox="0 0 14.172 14.172" enable-background="new 0 0 14.172 14.172" xml:space="preserve">
<g enable-background="new    ">
	<path d="M11.057,9.053H8.286l-1.394,2.426L5.5,9.053H2.728l1.379-2.398L2.728,4.249H5.5l1.392-2.412l1.394,2.412h2.771L9.691,6.654
		L11.057,9.053z M5.219,8.583L4.376,7.138l-0.83,1.444H5.219z M5.219,4.732H3.558l0.831,1.432L5.219,4.732z M9.155,6.654
		L8.017,4.746H5.781L4.644,6.654l1.137,1.915h2.236L9.155,6.654z M7.736,4.249L6.892,2.777L6.049,4.249H7.736z M7.75,9.053H6.075
		l0.817,1.458L7.75,9.053z M10.227,4.732h-1.66l0.844,1.432L10.227,4.732z M10.227,8.583L9.411,7.125l-0.83,1.457H10.227z"/>
</g>
</svg>
