<?xml version="1.0" encoding="utf-8"?>
<!-- Generator: Adobe Illustrator 15.1.0, SVG Export Plug-In . SVG Version: 6.00 Build 0)  -->
<!DOCTYPE svg PUBLIC "-//W3C//DTD SVG 1.1//EN" "http://www.w3.org/Graphics/SVG/1.1/DTD/svg11.dtd">
<svg version="1.1" id="Layer_1" xmlns="http://www.w3.org/2000/svg" xmlns:xlink="http://www.w3.org/1999/xlink" x="0px" y="0px"
	 width="14.172px" height="14.172px" viewBox="0 0 14.172 14.172" enable-background="new 0 0 14.172 14.172" xml:space="preserve">
<g enable-background="new    ">
	<path d="M6.563,1.812C6.782,2.743,7.031,3.486,7.31,4.038c0.278,0.553,0.704,1.151,1.274,1.796l0.247,0.273
		c0.745,0.832,1.116,1.663,1.116,2.494c0,0.918-0.332,1.706-0.996,2.364c-0.664,0.657-1.461,0.986-2.388,0.986
		c-0.922,0-1.716-0.329-2.381-0.986C3.518,10.308,3.186,9.52,3.186,8.602c0-0.831,0.372-1.662,1.117-2.494l0.247-0.273
		C5.12,5.189,5.544,4.591,5.823,4.038C6.102,3.486,6.349,2.743,6.563,1.812z"/>
</g>
</svg>
