<?xml version="1.0" encoding="utf-8"?>
<!-- Generator: Adobe Illustrator 15.1.0, SVG Export Plug-In . SVG Version: 6.00 Build 0)  -->
<!DOCTYPE svg PUBLIC "-//W3C//DTD SVG 1.1//EN" "http://www.w3.org/Graphics/SVG/1.1/DTD/svg11.dtd">
<svg version="1.1" id="Layer_1" xmlns="http://www.w3.org/2000/svg" xmlns:xlink="http://www.w3.org/1999/xlink" x="0px" y="0px"
	 width="14.172px" height="14.172px" viewBox="0 0 14.172 14.172" enable-background="new 0 0 14.172 14.172" xml:space="preserve">
<g>
	<path d="M11.169,11.755l-7.585-0.006v-1.175h0.569L4.141,9.748h0.318l0.948-0.941L5.389,5.404L4.783,4.811L4.33,4.817v-1.78
		l1.199,0.006l0.006,0.624l0.96,0.012V3.037h1.896v0.648h0.887v-0.63l1.235-0.012v1.756l-0.459,0.006l-0.617,0.63v3.426l0.893,0.894
		h0.287v0.838h0.551V11.755z M10.747,11.431V10.91h-6.76l0.006,0.515L10.747,11.431z M10.185,10.593l0.006-0.508l-5.609-0.007
		l0.006,0.502L10.185,10.593z M10.185,4.456l-0.006-0.447H4.661v0.44L10.185,4.456z M9.86,9.748L9.414,9.283L5.382,9.289
		L4.936,9.742L9.86,9.748z M9.193,5.19l0.403-0.392H5.26L5.652,5.19H9.193z"/>
</g>
</svg>
