<?xml version="1.0" encoding="utf-8"?>
<!-- Generator: Adobe Illustrator 15.1.0, SVG Export Plug-In . SVG Version: 6.00 Build 0)  -->
<!DOCTYPE svg PUBLIC "-//W3C//DTD SVG 1.1//EN" "http://www.w3.org/Graphics/SVG/1.1/DTD/svg11.dtd">
<svg version="1.1" id="Layer_1" xmlns="http://www.w3.org/2000/svg" xmlns:xlink="http://www.w3.org/1999/xlink" x="0px" y="0px"
	 width="14.172px" height="14.172px" viewBox="0 0 14.172 14.172" enable-background="new 0 0 14.172 14.172" xml:space="preserve">
<g enable-background="new    ">
	<path d="M6.911,5.666v0.437c0.979,0.07,1.604,0.191,1.875,0.364C9.056,6.639,9.189,7,9.189,7.544v3.594
		c0,0.439-0.194,0.757-0.587,0.953c-0.393,0.197-1.025,0.295-1.895,0.295c-0.816,0-1.499-0.11-2.049-0.333
		c-0.234-0.097-0.376-0.189-0.426-0.281c-0.049-0.09-0.075-0.297-0.075-0.621v-3.6c0-0.43,0.027-0.701,0.079-0.812
		c0.053-0.11,0.205-0.216,0.458-0.318c0.383-0.157,0.968-0.264,1.752-0.319V5.666C5.928,5.643,5.512,5.522,5.2,5.304
		c-0.311-0.217-0.467-0.49-0.467-0.818c0-0.356,0.201-0.75,0.602-1.179L5.566,3.05c0.415-0.443,0.622-0.825,0.622-1.144
		c0-0.061-0.012-0.146-0.034-0.257c1.567,0.666,2.349,1.51,2.349,2.532c0,0.384-0.129,0.699-0.394,0.946
		C7.844,5.375,7.444,5.554,6.911,5.666z M8.735,7.248c-0.24,0.115-0.533,0.202-0.877,0.26C7.515,7.564,7.12,7.593,6.674,7.593
		c-0.44,0-0.832-0.029-1.174-0.086c-0.345-0.059-0.64-0.145-0.888-0.26v3.891c0,0.302,0.172,0.526,0.517,0.681
		c0.342,0.15,0.858,0.229,1.545,0.229s1.203-0.077,1.545-0.229c0.346-0.153,0.517-0.379,0.517-0.681L8.735,7.248L8.735,7.248z
		 M6.447,6.823V6.469C5.304,6.535,4.733,6.67,4.733,6.879c0,0.092,0.195,0.177,0.583,0.256c0.39,0.079,0.815,0.118,1.278,0.118
		c0.668,0,1.166-0.032,1.5-0.097c0.334-0.064,0.502-0.159,0.502-0.284c0-0.199-0.565-0.333-1.695-0.402v0.354L6.447,6.823
		L6.447,6.823z M6.583,2.226c-0.068,0.25-0.299,0.613-0.688,1.089L5.689,3.57C5.355,3.986,5.187,4.301,5.187,4.513
		c0,0.236,0.136,0.438,0.409,0.607s0.598,0.253,0.977,0.253c0.409,0,0.758-0.107,1.044-0.322c0.29-0.215,0.433-0.475,0.433-0.78
		C8.049,3.583,7.562,2.9,6.583,2.226z"/>
</g>
</svg>
