<?xml version="1.0" encoding="utf-8"?>
<!-- Generator: Adobe Illustrator 15.1.0, SVG Export Plug-In . SVG Version: 6.00 Build 0)  -->
<!DOCTYPE svg PUBLIC "-//W3C//DTD SVG 1.1//EN" "http://www.w3.org/Graphics/SVG/1.1/DTD/svg11.dtd">
<svg version="1.1" id="Layer_1" xmlns="http://www.w3.org/2000/svg" xmlns:xlink="http://www.w3.org/1999/xlink" x="0px" y="0px"
	 width="14.172px" height="14.172px" viewBox="0 0 14.172 14.172" enable-background="new 0 0 14.172 14.172" xml:space="preserve">
<g enable-background="new    ">
	<path d="M6.966,7.417c-0.047,1.79,0.995,2.738,2.411,2.738c1.042,0,1.648-0.232,2.053-0.419l0.249,0.964
		c-0.591,0.312-1.478,0.513-2.473,0.513c-1.291,0-2.427-0.589-2.862-1.663H6.297c-0.467,1.041-1.493,1.663-2.784,1.663
		c-1.571,0-2.349-1.058-2.349-2.145c0-1.743,1.618-2.771,4.527-2.723V6.033c0-0.373-0.218-1.665-1.742-1.665
		c-0.716,0-1.478,0.249-1.929,0.56L1.693,4.042c0.669-0.436,1.602-0.685,2.349-0.685c1.353,0,2.115,0.622,2.426,1.586H6.5
		C6.998,3.965,7.93,3.358,9.128,3.358c2.302,0,2.94,2.209,2.94,3.453c0,0.232-0.016,0.467-0.048,0.606H6.966z M5.722,7.263
		C4.275,7.23,2.518,7.479,2.518,8.958c0,0.795,0.591,1.245,1.307,1.245c0.98,0.015,1.602-0.592,1.82-1.292
		C5.691,8.74,5.722,8.553,5.722,8.367V7.263z M10.762,6.438c0.03-0.763-0.39-2.116-1.773-2.116c-1.369,0-1.976,1.261-2.022,2.116
		H10.762z"/>
</g>
</svg>
