<?xml version="1.0" encoding="utf-8"?>
<!-- Generator: Adobe Illustrator 15.1.0, SVG Export Plug-In . SVG Version: 6.00 Build 0)  -->
<!DOCTYPE svg PUBLIC "-//W3C//DTD SVG 1.1//EN" "http://www.w3.org/Graphics/SVG/1.1/DTD/svg11.dtd">
<svg version="1.1" id="Layer_1" xmlns="http://www.w3.org/2000/svg" xmlns:xlink="http://www.w3.org/1999/xlink" x="0px" y="0px"
	 width="14.172px" height="14.172px" viewBox="0 0 14.172 14.172" enable-background="new 0 0 14.172 14.172" xml:space="preserve">
<g enable-background="new    ">
	<path d="M8.956,7.633h0.967c0.531,0,0.986,0.189,1.365,0.572s0.568,0.837,0.568,1.365c0,0.527-0.189,0.982-0.568,1.363
		c-0.379,0.383-0.834,0.573-1.365,0.573c-0.527,0-0.982-0.188-1.363-0.567s-0.572-0.834-0.572-1.367V8.608H6.051v0.967
		c0,0.522-0.188,0.977-0.567,1.359s-0.834,0.574-1.366,0.574c-0.523,0-0.976-0.188-1.359-0.566
		c-0.383-0.377-0.575-0.834-0.575-1.371c0-0.533,0.19-0.988,0.572-1.368s0.835-0.569,1.363-0.569h0.967V5.711H4.118
		c-0.527,0-0.981-0.19-1.363-0.57C2.374,4.763,2.184,4.306,2.184,3.774s0.19-0.988,0.572-1.368c0.381-0.381,0.835-0.57,1.362-0.57
		c0.527,0,0.981,0.189,1.362,0.568c0.381,0.379,0.571,0.834,0.571,1.366v0.967h1.936V3.771c0-0.532,0.189-0.987,0.571-1.366
		c0.381-0.38,0.836-0.569,1.362-0.569c0.527,0,0.98,0.189,1.361,0.57c0.383,0.38,0.573,0.835,0.573,1.368
		c0,0.528-0.188,0.984-0.567,1.365c-0.38,0.382-0.834,0.573-1.367,0.573H8.956V7.633z M5.085,4.737V3.774
		c0-0.26-0.096-0.486-0.288-0.677C4.606,2.905,4.379,2.811,4.118,2.811c-0.257,0-0.483,0.094-0.677,0.28
		c-0.193,0.187-0.29,0.414-0.29,0.684c0,0.265,0.095,0.491,0.284,0.681c0.189,0.188,0.417,0.283,0.683,0.283L5.085,4.737
		L5.085,4.737z M5.085,8.608H4.118c-0.266,0-0.494,0.096-0.683,0.285C3.246,9.084,3.151,9.311,3.151,9.571s0.095,0.485,0.284,0.678
		c0.189,0.189,0.417,0.286,0.683,0.286c0.266,0,0.493-0.097,0.683-0.286c0.189-0.191,0.284-0.418,0.284-0.678V8.608z M7.987,7.633
		V5.711H6.051v1.921L7.987,7.633L7.987,7.633z M8.956,4.737h0.967c0.266,0,0.492-0.096,0.682-0.286
		c0.189-0.191,0.286-0.417,0.286-0.678s-0.097-0.486-0.286-0.677C10.415,2.905,10.188,2.81,9.922,2.81
		c-0.267,0-0.496,0.095-0.685,0.284c-0.19,0.189-0.282,0.416-0.282,0.681V4.737z M8.956,8.608v0.963
		c0,0.266,0.096,0.492,0.286,0.682c0.192,0.188,0.419,0.283,0.681,0.283s0.488-0.096,0.68-0.283
		c0.191-0.189,0.288-0.416,0.288-0.682c0-0.265-0.097-0.49-0.286-0.68c-0.189-0.188-0.416-0.283-0.682-0.283H8.956z"/>
</g>
</svg>
