<?xml version="1.0" encoding="utf-8"?>
<!-- Generator: Adobe Illustrator 15.1.0, SVG Export Plug-In . SVG Version: 6.00 Build 0)  -->
<!DOCTYPE svg PUBLIC "-//W3C//DTD SVG 1.1//EN" "http://www.w3.org/Graphics/SVG/1.1/DTD/svg11.dtd">
<svg version="1.1" id="Layer_1" xmlns="http://www.w3.org/2000/svg" xmlns:xlink="http://www.w3.org/1999/xlink" x="0px" y="0px"
	 width="14.172px" height="14.172px" viewBox="0 0 14.172 14.172" enable-background="new 0 0 14.172 14.172" xml:space="preserve">
<g enable-background="new    ">
	<path d="M9.133,10.433c0,0.547-0.291,0.979-0.868,1.296C7.79,11.983,7.258,12.11,6.671,12.11s-1.122-0.132-1.605-0.392
		C4.496,11.4,4.21,10.973,4.21,10.433c0-0.483,0.23-0.876,0.689-1.178C5.28,9.002,5.748,8.843,6.303,8.78V1.516h0.726v1.617
		l1.451-1.368l0.499,0.523L7.385,3.798l1.593,1.499L8.479,5.832L7.028,4.453V8.78c0.546,0.063,1.014,0.223,1.403,0.476
		C8.899,9.565,9.133,9.958,9.133,10.433z M8.407,10.433c0-0.301-0.225-0.542-0.678-0.726c-0.348-0.15-0.701-0.226-1.058-0.226
		c-0.373,0-0.729,0.072-1.07,0.215c-0.444,0.182-0.666,0.427-0.666,0.736c0,0.302,0.222,0.547,0.666,0.737
		c0.349,0.143,0.706,0.214,1.07,0.214s0.718-0.071,1.058-0.214C8.182,10.988,8.407,10.743,8.407,10.433z"/>
</g>
</svg>
