<?xml version="1.0" encoding="utf-8"?>
<!-- Generator: Adobe Illustrator 15.1.0, SVG Export Plug-In . SVG Version: 6.00 Build 0)  -->
<!DOCTYPE svg PUBLIC "-//W3C//DTD SVG 1.1//EN" "http://www.w3.org/Graphics/SVG/1.1/DTD/svg11.dtd">
<svg version="1.1" id="Layer_1" xmlns="http://www.w3.org/2000/svg" xmlns:xlink="http://www.w3.org/1999/xlink" x="0px" y="0px"
	 width="14.172px" height="14.172px" viewBox="0 0 14.172 14.172" enable-background="new 0 0 14.172 14.172" xml:space="preserve">
<g enable-background="new    ">
	<path d="M8.6,8.473C9.075,8.716,9.375,8.936,9.499,9.13c0.125,0.195,0.188,0.408,0.188,0.638c0,0.338-0.122,0.635-0.364,0.896
		c-0.243,0.259-0.589,0.472-1.039,0.638S7.226,11.55,6.461,11.55c-1.417,0-2.353-0.19-2.812-0.571
		c-0.459-0.382-0.688-0.795-0.688-1.244V9.69h1.303v0.045c0,0.235,0.081,0.435,0.241,0.596c0.162,0.162,0.42,0.283,0.779,0.365
		c0.358,0.082,0.75,0.123,1.174,0.123c0.687,0,1.192-0.104,1.519-0.312c0.325-0.208,0.485-0.435,0.485-0.678
		c0-0.111-0.033-0.213-0.101-0.306C8.295,9.429,8.195,9.343,8.062,9.263C7.795,9.108,7.252,8.887,6.432,8.6L5.039,8.108
		c-0.675-0.235-1.121-0.479-1.34-0.731C3.474,7.128,3.362,6.874,3.362,6.612c0-0.235,0.096-0.474,0.287-0.718
		C3.84,5.65,4.076,5.457,4.356,5.311C4.022,5.128,3.773,4.927,3.608,4.708C3.443,4.489,3.362,4.253,3.362,4.001
		c0-0.509,0.291-0.928,0.871-1.256c0.58-0.328,1.389-0.492,2.428-0.492c1.021,0,1.745,0.141,2.174,0.422
		c0.428,0.281,0.641,0.612,0.641,0.994v0.053H8.181V3.669c0-0.23-0.16-0.402-0.483-0.515c-0.32-0.113-0.729-0.169-1.22-0.169
		c-0.546,0-0.995,0.079-1.344,0.236C4.785,3.378,4.61,3.597,4.61,3.881c0,0.222,0.131,0.418,0.392,0.591
		c0.255,0.177,0.67,0.366,1.249,0.565l1.192,0.405c0.827,0.28,1.406,0.544,1.74,0.794c0.335,0.25,0.502,0.555,0.502,0.914
		C9.685,7.616,9.324,8.056,8.6,8.473z M7.834,8.121c0.395-0.234,0.592-0.482,0.592-0.744c0-0.195-0.09-0.376-0.275-0.545
		S7.545,6.466,6.897,6.24L5.194,5.643C4.908,5.819,4.74,5.976,4.688,6.11C4.636,6.246,4.61,6.372,4.61,6.485
		c0,0.173,0.073,0.325,0.218,0.456c0.146,0.13,0.523,0.304,1.129,0.521L7.834,8.121z"/>
</g>
</svg>
