<?xml version="1.0" encoding="utf-8"?>
<!-- Generator: Adobe Illustrator 15.1.0, SVG Export Plug-In . SVG Version: 6.00 Build 0)  -->
<!DOCTYPE svg PUBLIC "-//W3C//DTD SVG 1.1//EN" "http://www.w3.org/Graphics/SVG/1.1/DTD/svg11.dtd">
<svg version="1.1" id="Layer_1" xmlns="http://www.w3.org/2000/svg" xmlns:xlink="http://www.w3.org/1999/xlink" x="0px" y="0px"
	 width="14.172px" height="14.172px" viewBox="0 0 14.172 14.172" enable-background="new 0 0 14.172 14.172" xml:space="preserve">
<path d="M2.413,7.519L1.9,8.045L1.388,7.519L1.9,7.006L2.413,7.519z M3.438,6.493L2.926,7.006L2.413,6.493l0.513-0.512L3.438,6.493z
	 M2.926,8.045L2.413,8.557L2.926,9.07l0.513-0.514L2.926,8.045z M4.478,5.468L3.951,5.981L3.438,5.468l0.513-0.513L4.478,5.468z
	 M3.951,7.006L3.438,7.519l0.513,0.526l0.526-0.526L3.951,7.006z M3.438,9.582L3.951,9.07l0.526,0.512l-0.526,0.514L3.438,9.582z
	 M5.503,4.442L4.99,4.956L4.478,4.442L4.99,3.93L5.503,4.442z M4.99,5.981L4.478,6.493L4.99,7.006l0.513-0.513L4.99,5.981z
	 M4.478,8.557L4.99,8.045l0.513,0.512L4.99,9.07L4.478,8.557z M4.478,10.607l0.513-0.512l0.513,0.512L4.99,11.121L4.478,10.607z
	 M6.528,3.417L6.016,3.93L5.503,3.417l0.513-0.513L6.528,3.417z M6.016,4.956L5.503,5.468l0.513,0.513l0.513-0.513L6.016,4.956z
	 M5.503,9.582L6.016,9.07l0.513,0.512l-0.513,0.514L5.503,9.582z M5.503,11.635l0.513-0.514l0.513,0.514l-0.513,0.512L5.503,11.635z
	 M7.554,2.392L7.041,2.904L6.528,2.392l0.513-0.513L7.554,2.392z M7.041,3.93L6.528,4.442l0.513,0.513l0.513-0.513L7.041,3.93z
	 M6.528,10.607l0.513-0.512l0.513,0.512l-0.513,0.514L6.528,10.607z M6.528,12.66l0.513-0.514l0.513,0.514l-0.513,0.512L6.528,12.66
	z M8.066,2.904L7.554,3.417L8.066,3.93l0.513-0.513L8.066,2.904z M7.554,5.468l0.513-0.513l0.513,0.513L8.066,5.981L7.554,5.468z
	 M7.554,9.582L8.066,9.07l0.513,0.512l-0.513,0.514L7.554,9.582z M7.554,11.635l0.513-0.514l0.513,0.514l-0.513,0.512L7.554,11.635z
	 M8.579,4.442L9.092,3.93l0.513,0.513L9.092,4.956L8.579,4.442z M8.579,6.493l0.513-0.512l0.513,0.512L9.092,7.006L8.579,6.493z
	 M8.579,8.557l0.513-0.512l0.513,0.512L9.092,9.07L8.579,8.557z M8.579,10.607l0.513-0.512l0.513,0.512l-0.513,0.514L8.579,10.607z
	 M9.604,5.468l0.526-0.513l0.513,0.513l-0.513,0.513L9.604,5.468z M9.604,7.519l0.526-0.513l0.513,0.513l-0.513,0.526L9.604,7.519z
	 M9.604,9.582l0.526-0.512l0.513,0.512l-0.513,0.514L9.604,9.582z M10.644,6.493l0.513-0.512l0.513,0.512l-0.513,0.513L10.644,6.493
	z M10.644,8.557l0.513-0.512l0.513,0.512L11.156,9.07L10.644,8.557z M11.669,7.519l0.513-0.513l0.513,0.513l-0.513,0.526
	L11.669,7.519z"/>
</svg>
