<?xml version="1.0" encoding="utf-8"?>
<!-- Generator: Adobe Illustrator 15.1.0, SVG Export Plug-In . SVG Version: 6.00 Build 0)  -->
<!DOCTYPE svg PUBLIC "-//W3C//DTD SVG 1.1//EN" "http://www.w3.org/Graphics/SVG/1.1/DTD/svg11.dtd">
<svg version="1.1" id="Layer_1" xmlns="http://www.w3.org/2000/svg" xmlns:xlink="http://www.w3.org/1999/xlink" x="0px" y="0px"
	 width="14.172px" height="14.172px" viewBox="0 0 14.172 14.172" enable-background="new 0 0 14.172 14.172" xml:space="preserve">
<g enable-background="new    ">
	<path d="M10.514,9.475c0,0.525-0.145,1.039-0.432,1.541s-0.677,0.879-1.166,1.133c-0.49,0.254-1.115,0.381-1.873,0.381
		c-0.751,0-1.374-0.127-1.862-0.381c-0.49-0.254-0.878-0.631-1.166-1.133C3.727,10.514,3.585,10,3.585,9.475
		c0-0.562,0.162-1.101,0.486-1.611c0.324-0.51,0.816-0.917,1.477-1.215c-0.52-0.257-0.91-0.572-1.17-0.945
		c-0.26-0.374-0.39-0.801-0.39-1.285c0-0.477,0.13-0.924,0.39-1.34s0.636-0.731,1.129-0.945C6,1.919,6.512,1.812,7.045,1.812
		c0.537,0,1.051,0.109,1.543,0.326c0.492,0.218,0.869,0.533,1.131,0.945c0.26,0.413,0.392,0.858,0.392,1.335
		c0,0.483-0.132,0.911-0.392,1.285c-0.26,0.372-0.649,0.687-1.17,0.944c0.656,0.299,1.145,0.705,1.473,1.214
		C10.348,8.375,10.514,8.912,10.514,9.475z M7.045,7.17c-0.381,0-0.742,0.096-1.083,0.289C5.619,7.651,5.348,7.928,5.149,8.286
		S4.851,9.012,4.851,9.391c0,0.366,0.095,0.726,0.285,1.069c0.189,0.346,0.459,0.608,0.807,0.789
		c0.35,0.181,0.716,0.271,1.103,0.271c0.391,0,0.761-0.09,1.109-0.271c0.35-0.181,0.618-0.443,0.809-0.789
		c0.189-0.345,0.285-0.703,0.285-1.069c0-0.379-0.102-0.748-0.3-1.104C8.75,7.928,8.48,7.651,8.137,7.459
		C7.795,7.267,7.43,7.17,7.045,7.17z M7.045,6.161c0.52,0,0.947-0.166,1.287-0.5c0.34-0.333,0.512-0.726,0.512-1.179
		c0-0.496-0.182-0.896-0.541-1.202c-0.361-0.306-0.78-0.458-1.258-0.458c-0.465,0-0.879,0.152-1.244,0.458
		C5.437,3.585,5.255,3.985,5.255,4.481c0,0.453,0.168,0.846,0.505,1.179C6.096,5.995,6.524,6.161,7.045,6.161z"/>
</g>
</svg>
