<?xml version="1.0" encoding="utf-8"?>
<!-- Generator: Adobe Illustrator 15.1.0, SVG Export Plug-In . SVG Version: 6.00 Build 0)  -->
<!DOCTYPE svg PUBLIC "-//W3C//DTD SVG 1.1//EN" "http://www.w3.org/Graphics/SVG/1.1/DTD/svg11.dtd">
<svg version="1.1" id="Layer_1" xmlns="http://www.w3.org/2000/svg" xmlns:xlink="http://www.w3.org/1999/xlink" x="0px" y="0px"
	 width="14.172px" height="14.172px" viewBox="0 0 14.172 14.172" enable-background="new 0 0 14.172 14.172" xml:space="preserve">
<g enable-background="new    ">
	<path d="M6.51,4.793c0.312-0.65,0.679-1.13,1.104-1.44C8.04,3.042,8.547,2.887,9.139,2.887c0.814,0,1.482,0.292,2.003,0.874
		c0.521,0.583,0.782,1.331,0.782,2.245c0,0.831-0.176,1.6-0.527,2.303c-0.352,0.702-0.852,1.281-1.502,1.738
		c-0.369,0.258-0.791,0.457-1.266,0.598c-0.476,0.142-0.957,0.211-1.449,0.211H6.872l-0.359-0.412
		c1.066-0.088,1.922-0.325,2.566-0.713c0.643-0.387,1.102-0.938,1.37-1.66c-0.233,0.105-0.463,0.187-0.687,0.242
		C9.54,8.368,9.333,8.397,9.139,8.397c-0.527,0-0.992-0.129-1.395-0.384c-0.4-0.254-0.771-0.655-1.111-1.199
		C6.278,8.149,5.706,9.157,4.917,9.836c-0.788,0.68-1.773,1.02-2.957,1.02H1.653l-0.36-0.412c1.072-0.088,1.927-0.326,2.565-0.713
		s1.098-0.938,1.379-1.66C4.992,8.182,4.76,8.264,4.544,8.317c-0.216,0.052-0.425,0.08-0.624,0.08c-0.773,0-1.425-0.267-1.955-0.795
		C1.435,7.07,1.17,6.419,1.17,5.646c0-0.768,0.267-1.419,0.799-1.955C2.503,3.155,3.152,2.887,3.92,2.887
		c0.591,0,1.095,0.154,1.511,0.461C5.846,3.655,6.208,4.137,6.51,4.793z"/>
</g>
</svg>
