<?xml version="1.0" encoding="utf-8"?>
<!-- Generator: Adobe Illustrator 15.1.0, SVG Export Plug-In . SVG Version: 6.00 Build 0)  -->
<!DOCTYPE svg PUBLIC "-//W3C//DTD SVG 1.1//EN" "http://www.w3.org/Graphics/SVG/1.1/DTD/svg11.dtd">
<svg version="1.1" id="Layer_1" xmlns="http://www.w3.org/2000/svg" xmlns:xlink="http://www.w3.org/1999/xlink" x="0px" y="0px"
	 width="14.172px" height="14.172px" viewBox="0 0 14.172 14.172" enable-background="new 0 0 14.172 14.172" xml:space="preserve">
<path d="M1.882,4.089V1.347C1.882,1.116,1.979,1,2.17,1c0.152,0,0.252,0.084,0.301,0.252c0.176,0.528,0.863,0.94,2.063,1.236
	c0.888,0.216,1.748,0.324,2.58,0.324c0.848,0,1.712-0.108,2.592-0.324c1.208-0.296,1.896-0.708,2.064-1.236
	C11.826,1.084,11.926,1,12.07,1c0.192,0,0.288,0.116,0.288,0.347v2.742c0,0.67-0.736,1.205-2.208,1.604
	C9.086,5.988,8.074,6.14,7.114,6.148c-0.4,0.008-1.172-0.084-2.316-0.275c-0.544-0.088-1.104-0.263-1.68-0.527
	C2.294,4.971,1.882,4.552,1.882,4.089z M1.882,9.035c0-0.67,0.736-1.205,2.208-1.604c1.072-0.295,2.08-0.447,3.024-0.455
	C7.53,6.968,8.307,7.06,9.442,7.251c0.552,0.088,1.111,0.264,1.68,0.527c0.824,0.375,1.236,0.794,1.236,1.257v2.741
	c0,0.231-0.096,0.348-0.288,0.348c-0.145,0-0.244-0.084-0.3-0.252c-0.192-0.576-0.992-1.008-2.4-1.296
	c-0.856-0.177-1.607-0.265-2.256-0.265c-0.632,0-1.38,0.088-2.244,0.265c-1.408,0.288-2.208,0.72-2.399,1.296
	c-0.057,0.168-0.156,0.252-0.301,0.252c-0.191,0-0.288-0.116-0.288-0.348V9.035z M2.471,4.036c0.225,0.56,1.034,0.98,2.43,1.26
	C5.783,5.472,6.521,5.56,7.114,5.56c0.609,0,1.352-0.088,2.226-0.264c1.396-0.28,2.206-0.7,2.431-1.26v-1.8
	c-0.474,0.373-1.216,0.666-2.227,0.879C8.67,3.297,7.86,3.392,7.114,3.4C6.344,3.408,5.538,3.317,4.696,3.127
	C3.693,2.913,2.951,2.616,2.471,2.236V4.036z M2.471,9.088v1.8c0.473-0.372,1.215-0.664,2.226-0.879
	c0.882-0.182,1.688-0.277,2.418-0.285c0.778-0.008,1.592,0.084,2.442,0.273c1.002,0.214,1.74,0.511,2.214,0.891v-1.8
	c-0.201-0.512-0.895-0.912-2.082-1.199C8.799,7.672,7.94,7.563,7.114,7.563c-0.818,0-1.672,0.108-2.562,0.325
	C3.364,8.176,2.671,8.576,2.471,9.088z"/>
</svg>
