<?xml version="1.0" encoding="utf-8"?>
<!-- Generator: Adobe Illustrator 15.1.0, SVG Export Plug-In . SVG Version: 6.00 Build 0)  -->
<!DOCTYPE svg PUBLIC "-//W3C//DTD SVG 1.1//EN" "http://www.w3.org/Graphics/SVG/1.1/DTD/svg11.dtd">
<svg version="1.1" id="Layer_1" xmlns="http://www.w3.org/2000/svg" xmlns:xlink="http://www.w3.org/1999/xlink" x="0px" y="0px"
	 width="14.172px" height="14.172px" viewBox="0 0 14.172 14.172" enable-background="new 0 0 14.172 14.172" xml:space="preserve">
<g enable-background="new    ">
	<path d="M12.787,7.405c0,1.488-0.529,2.762-1.585,3.818c-1.058,1.057-2.33,1.586-3.819,1.586c-1.489,0-2.761-0.529-3.818-1.586
		c-1.057-1.057-1.585-2.33-1.585-3.818c0-1.489,0.529-2.762,1.585-3.818C4.621,2.529,5.894,2,7.382,2
		c1.489,0,2.762,0.529,3.819,1.586C12.257,4.643,12.787,5.916,12.787,7.405z M12.518,7.405c0-0.804-0.175-1.559-0.524-2.267
		c-0.335-0.685-0.804-1.269-1.406-1.752C10.349,3.594,10.133,3.81,9.94,4.032L9.548,3.698c0.193-0.224,0.401-0.425,0.625-0.604
		c-0.849-0.55-1.778-0.827-2.791-0.827c-1.012,0-1.943,0.276-2.792,0.827c0.224,0.179,0.432,0.38,0.625,0.604L4.826,4.032
		C4.632,3.81,4.417,3.594,4.178,3.385C3.575,3.869,3.106,4.453,2.771,5.138c-0.35,0.708-0.524,1.463-0.524,2.267
		c0,0.797,0.175,1.547,0.524,2.254c0.335,0.693,0.804,1.277,1.407,1.754C4.417,11.211,4.632,11,4.826,10.776l0.391,0.336
		c-0.194,0.215-0.402,0.416-0.625,0.602c0.849,0.553,1.779,0.828,2.792,0.828c1.013,0,1.942-0.275,2.791-0.828
		c-0.224-0.186-0.432-0.387-0.625-0.602l0.392-0.336c0.193,0.225,0.409,0.436,0.647,0.637c0.603-0.477,1.071-1.061,1.406-1.754
		C12.343,8.952,12.518,8.202,12.518,7.405z M6.188,5.294L5.741,5.462C5.592,5.127,5.414,4.807,5.205,4.501l0.38-0.335
		C5.831,4.524,6.032,4.9,6.188,5.294z M6.188,9.514c-0.156,0.396-0.357,0.768-0.603,1.117l-0.38-0.324
		c0.208-0.305,0.387-0.625,0.536-0.959L6.188,9.514z M6.59,7.103H6.099C6.076,6.731,6.021,6.374,5.931,6.031l0.458-0.168
		C6.5,6.266,6.567,6.679,6.59,7.103z M6.59,7.706C6.567,8.129,6.5,8.543,6.389,8.946L5.931,8.778
		c0.089-0.35,0.145-0.707,0.167-1.072H6.59z M8.834,6.031c-0.09,0.342-0.146,0.7-0.168,1.071H8.174
		c0.023-0.423,0.09-0.837,0.201-1.239L8.834,6.031z M8.834,8.778L8.375,8.946c-0.111-0.402-0.178-0.816-0.201-1.24h0.492
		C8.689,8.071,8.745,8.428,8.834,8.778z M9.56,4.501C9.351,4.807,9.172,5.127,9.024,5.462L8.577,5.294
		C8.734,4.9,8.935,4.524,9.18,4.166L9.56,4.501z M9.56,10.307l-0.38,0.324c-0.245-0.35-0.446-0.721-0.604-1.117l0.447-0.166
		C9.172,9.682,9.351,10.002,9.56,10.307z"/>
</g>
</svg>
