<?xml version="1.0" encoding="utf-8"?>
<!-- Generator: Adobe Illustrator 15.1.0, SVG Export Plug-In . SVG Version: 6.00 Build 0)  -->
<!DOCTYPE svg PUBLIC "-//W3C//DTD SVG 1.1//EN" "http://www.w3.org/Graphics/SVG/1.1/DTD/svg11.dtd">
<svg version="1.1" id="Layer_1" xmlns="http://www.w3.org/2000/svg" xmlns:xlink="http://www.w3.org/1999/xlink" x="0px" y="0px"
	 width="14.172px" height="14.172px" viewBox="0 0 14.172 14.172" enable-background="new 0 0 14.172 14.172" xml:space="preserve">
<g enable-background="new    ">
	<path d="M7.245,6.639c1.48,0.034,2.459,0.178,2.939,0.43s0.721,0.697,0.721,1.34c0,0.076-0.004,0.162-0.011,0.255
		s-0.015,0.182-0.027,0.268c-0.263,0.202-0.497,0.349-0.704,0.439C9.956,9.46,9.758,9.506,9.569,9.506
		c-0.34,0-0.691-0.179-1.051-0.536c-0.36-0.356-0.846-1.028-1.461-2.015L6.934,7.02C7.309,7.709,7.59,8.293,7.78,8.774
		c0.189,0.479,0.284,0.843,0.284,1.088c0,0.313-0.108,0.592-0.329,0.832c-0.22,0.242-0.542,0.445-0.969,0.613
		c-0.43-0.158-0.756-0.359-0.979-0.604c-0.222-0.244-0.332-0.524-0.332-0.844c0-0.248,0.096-0.615,0.289-1.101
		c0.191-0.485,0.469-1.067,0.836-1.753L6.463,6.956C5.848,7.942,5.359,8.612,4.998,8.97C4.636,9.328,4.287,9.506,3.952,9.506
		c-0.194,0-0.397-0.047-0.61-0.14C3.128,9.274,2.899,9.131,2.654,8.938c-0.013-0.091-0.022-0.18-0.029-0.269
		c-0.006-0.088-0.01-0.175-0.01-0.261c0-0.643,0.242-1.088,0.726-1.34c0.485-0.252,1.463-0.396,2.935-0.43V6.503
		C4.804,6.469,3.826,6.324,3.341,6.07C2.858,5.817,2.615,5.373,2.615,4.734c0-0.086,0.003-0.173,0.01-0.261
		c0.007-0.088,0.016-0.178,0.029-0.268C2.908,4.012,3.142,3.87,3.355,3.776c0.213-0.092,0.412-0.139,0.597-0.139
		c0.335,0,0.684,0.179,1.046,0.536c0.361,0.357,0.85,1.029,1.465,2.014l0.104-0.064c-0.37-0.697-0.648-1.284-0.833-1.759
		C5.549,3.889,5.456,3.525,5.456,3.275c0-0.31,0.109-0.586,0.326-0.83C5.999,2.202,6.323,2,6.752,1.836
		C7.183,2,7.508,2.204,7.732,2.446c0.222,0.243,0.332,0.52,0.332,0.83c0,0.254-0.095,0.623-0.284,1.107
		C7.59,4.868,7.315,5.447,6.954,6.124l0.104,0.064c0.641-1.02,1.137-1.7,1.486-2.04c0.349-0.34,0.689-0.51,1.025-0.51
		c0.186,0,0.383,0.046,0.596,0.139c0.213,0.093,0.448,0.236,0.702,0.429c0.013,0.104,0.021,0.198,0.027,0.284
		c0.007,0.086,0.011,0.168,0.011,0.245c0,0.633-0.238,1.075-0.717,1.327c-0.477,0.252-1.459,0.4-2.943,0.442V6.639z M6.366,6.872
		L6.301,6.755c-1.26,0.151-2.146,0.356-2.656,0.62C3.135,7.638,2.88,8.003,2.88,8.473c0,0.057,0.003,0.11,0.01,0.164
		C2.896,8.692,2.906,8.742,2.919,8.79c0.125,0.115,0.253,0.201,0.384,0.255c0.131,0.054,0.272,0.081,0.423,0.081
		c0.327,0,0.671-0.146,1.033-0.441C5.12,8.388,5.656,7.785,6.366,6.872z M7.625,3.398c0-0.314-0.069-0.574-0.209-0.778
		c-0.142-0.204-0.357-0.365-0.65-0.481C6.456,2.264,6.231,2.427,6.092,2.627c-0.141,0.2-0.211,0.457-0.211,0.771
		c0,0.25,0.066,0.593,0.197,1.029c0.131,0.437,0.336,0.989,0.61,1.656h0.129c0.267-0.676,0.464-1.226,0.591-1.649
		C7.536,4.011,7.608,3.666,7.625,3.398z M7.07,6.568c0-0.082-0.03-0.153-0.09-0.213c-0.062-0.06-0.131-0.09-0.213-0.09
		c-0.091,0-0.166,0.029-0.226,0.087C6.48,6.411,6.45,6.482,6.45,6.568c0,0.086,0.03,0.159,0.09,0.216
		C6.6,6.843,6.67,6.872,6.752,6.872c0.09,0,0.166-0.027,0.227-0.084C7.04,6.733,7.07,6.659,7.07,6.568z M10.602,8.79
		c0.013-0.053,0.021-0.104,0.027-0.158c0.006-0.054,0.011-0.105,0.011-0.158c0-0.47-0.257-0.835-0.769-1.098
		c-0.512-0.264-1.398-0.469-2.66-0.62L7.147,6.872c0.697,0.904,1.23,1.506,1.596,1.805s0.717,0.449,1.053,0.449
		c0.149,0,0.291-0.027,0.42-0.081S10.471,8.905,10.602,8.79z"/>
</g>
</svg>
