<?xml version="1.0" encoding="utf-8"?>
<!-- Generator: Adobe Illustrator 15.1.0, SVG Export Plug-In . SVG Version: 6.00 Build 0)  -->
<!DOCTYPE svg PUBLIC "-//W3C//DTD SVG 1.1//EN" "http://www.w3.org/Graphics/SVG/1.1/DTD/svg11.dtd">
<svg version="1.1" id="Layer_1" xmlns="http://www.w3.org/2000/svg" xmlns:xlink="http://www.w3.org/1999/xlink" x="0px" y="0px"
	 width="14.172px" height="14.172px" viewBox="0 0 14.172 14.172" enable-background="new 0 0 14.172 14.172" xml:space="preserve">
<g>
	<path d="M2.289,6.582c-0.246-0.327-0.427-0.661-0.542-1c-0.115-0.339-0.173-0.719-0.173-1.14c0-0.927,0.335-1.703,1.006-2.327
		C3.25,1.492,4.053,1.18,4.989,1.18c0.421,0,0.813,0.066,1.176,0.199c0.361,0.133,0.68,0.312,0.953,0.539
		c0.336-0.258,0.666-0.445,0.99-0.562S8.797,1.18,9.203,1.18c0.984,0,1.801,0.32,2.449,0.961s0.973,1.457,0.973,2.449
		c0,0.742-0.238,1.422-0.715,2.039c0.234,0.29,0.412,0.613,0.533,0.969c0.121,0.356,0.182,0.715,0.182,1.074
		c0,1.034-0.332,1.853-0.992,2.455c-0.662,0.603-1.525,0.904-2.59,0.904c-0.359,0-0.693-0.053-0.998-0.158
		c-0.307-0.105-0.634-0.283-0.986-0.533c-0.312,0.227-0.658,0.398-1.037,0.516c-0.379,0.117-0.756,0.176-1.131,0.176
		c-0.961,0-1.754-0.31-2.379-0.928S1.574,9.687,1.574,8.707C1.574,7.94,1.812,7.232,2.289,6.582z M6.473,6.688
		C6.356,6.531,6.139,6.398,5.822,6.289C5.506,6.18,5.18,6.125,4.844,6.125c-0.734,0-1.336,0.258-1.805,0.773
		S2.336,8.043,2.336,8.785c0,0.773,0.246,1.387,0.738,1.84s1.117,0.68,1.875,0.68c0.305,0,0.58-0.041,0.826-0.123
		c0.247-0.082,0.491-0.225,0.733-0.428c-0.109-0.156-0.191-0.281-0.246-0.375c-0.18-0.297-0.285-0.555-0.316-0.773
		c-0.305,0.344-0.653,0.516-1.043,0.516c-0.352,0-0.65-0.116-0.896-0.35C3.76,9.539,3.637,9.245,3.637,8.89
		c0-0.371,0.119-0.677,0.357-0.917c0.238-0.241,0.537-0.361,0.896-0.361c0.445,0,0.781,0.17,1.008,0.509
		c0-0.095,0.061-0.304,0.182-0.627S6.333,6.9,6.473,6.688z M2.837,6.102c0.179-0.195,0.458-0.367,0.838-0.516
		C3.799,5.539,3.97,5.484,4.188,5.422C4.062,5.336,3.943,5.189,3.83,4.982s-0.17-0.42-0.17-0.639c0-0.32,0.127-0.6,0.381-0.838
		S4.59,3.148,4.926,3.148c0.367,0,0.664,0.121,0.891,0.363c0.227,0.242,0.34,0.547,0.34,0.914c0,0.391-0.184,0.734-0.551,1.031
		c0.258,0.031,0.502,0.098,0.733,0.199s0.436,0.23,0.615,0.387c0.344-0.43,0.516-0.941,0.516-1.535c0-0.727-0.236-1.334-0.707-1.822
		C6.29,2.197,5.684,1.953,4.943,1.953c-0.749,0-1.36,0.238-1.835,0.715c-0.476,0.477-0.713,1.09-0.713,1.84
		c0,0.32,0.037,0.611,0.11,0.873S2.689,5.883,2.837,6.102z M7.059,7.168C6.94,7.341,6.834,7.583,6.741,7.893
		C6.647,8.203,6.602,8.523,6.602,8.854c0,0.691,0.242,1.272,0.729,1.744c0.488,0.471,1.083,0.707,1.791,0.707
		c0.846,0,1.51-0.234,1.988-0.703s0.719-1.121,0.719-1.957c0-0.484-0.154-0.949-0.463-1.395c-0.174,0.102-0.32,0.18-0.439,0.234
		c-0.371,0.18-0.695,0.293-0.973,0.34c0.164,0.133,0.295,0.289,0.393,0.469s0.146,0.371,0.146,0.574
		c0,0.359-0.119,0.658-0.357,0.896s-0.537,0.357-0.896,0.357c-0.352,0-0.652-0.118-0.902-0.354c-0.25-0.235-0.375-0.531-0.375-0.886
		c0-0.473,0.184-0.826,0.551-1.063C8.24,7.755,7.943,7.645,7.617,7.487C7.436,7.393,7.249,7.286,7.059,7.168z M8.16,3.629
		c0.172-0.156,0.332-0.27,0.48-0.34C8.828,3.195,9.02,3.148,9.215,3.148c0.359,0,0.666,0.119,0.92,0.357s0.381,0.537,0.381,0.896
		c0,0.344-0.115,0.639-0.346,0.885S9.656,5.656,9.32,5.656c-0.227,0-0.432-0.049-0.615-0.146S8.367,5.281,8.242,5.117
		c-0.055,0.25-0.137,0.496-0.246,0.738C7.84,6.191,7.688,6.434,7.54,6.582c0.25,0.18,0.511,0.312,0.785,0.398
		s0.551,0.129,0.832,0.129c0.766,0,1.402-0.238,1.91-0.715s0.762-1.102,0.762-1.875c0-0.758-0.26-1.381-0.779-1.869
		S9.891,1.918,9.133,1.918c-0.523,0-1.027,0.18-1.512,0.539c0.102,0.172,0.18,0.309,0.234,0.41C8.035,3.203,8.137,3.457,8.16,3.629z
		"/>
</g>
</svg>
