<?xml version="1.0" encoding="utf-8"?>
<!-- Generator: Adobe Illustrator 15.1.0, SVG Export Plug-In . SVG Version: 6.00 Build 0)  -->
<!DOCTYPE svg PUBLIC "-//W3C//DTD SVG 1.1//EN" "http://www.w3.org/Graphics/SVG/1.1/DTD/svg11.dtd">
<svg version="1.1" id="Layer_1" xmlns="http://www.w3.org/2000/svg" xmlns:xlink="http://www.w3.org/1999/xlink" x="0px" y="0px"
	 width="14.172px" height="14.172px" viewBox="0 0 14.172 14.172" enable-background="new 0 0 14.172 14.172" xml:space="preserve">
<g enable-background="new    ">
	<path d="M11.922,11.921H1V0.987h10.922V11.921z M11.275,11.287V1.635H1.647v9.651H11.275z M8.885,4.059
		c0,1.06-0.627,1.718-1.883,1.978v2.766h1.307v1.153H7.014v0.789H5.92V6.036C4.664,5.777,4.037,5.119,4.037,4.059
		c0-0.604,0.263-1.078,0.789-1.423c0.447-0.299,0.992-0.448,1.636-0.448S7.65,2.337,8.097,2.636C8.623,2.98,8.885,3.455,8.885,4.059
		z M7.662,4.129c0-0.297-0.134-0.525-0.4-0.682c-0.204-0.126-0.471-0.188-0.8-0.188c-0.329,0-0.596,0.062-0.8,0.188
		c-0.267,0.156-0.4,0.384-0.4,0.682c0,0.292,0.134,0.511,0.4,0.66c0.219,0.125,0.487,0.188,0.8,0.188s0.581-0.063,0.8-0.188
		C7.528,4.64,7.662,4.421,7.662,4.129z"/>
</g>
</svg>
