<?xml version="1.0" encoding="utf-8"?>
<!-- Generator: Adobe Illustrator 15.1.0, SVG Export Plug-In . SVG Version: 6.00 Build 0)  -->
<!DOCTYPE svg PUBLIC "-//W3C//DTD SVG 1.1//EN" "http://www.w3.org/Graphics/SVG/1.1/DTD/svg11.dtd">
<svg version="1.1" id="Layer_1" xmlns="http://www.w3.org/2000/svg" xmlns:xlink="http://www.w3.org/1999/xlink" x="0px" y="0px"
	 width="14.172px" height="14.172px" viewBox="0 0 14.172 14.172" enable-background="new 0 0 14.172 14.172" xml:space="preserve">
<g enable-background="new    ">
	<path d="M11.764,7.726c0,0.541-0.177,1.006-0.533,1.397c-0.355,0.391-0.804,0.585-1.345,0.585c-1.01,0-1.763-0.567-2.26-1.704
		H7.605c0,2.46,1.095,3.726,3.286,3.797l0.041,0.34H3.849l0.043-0.34c2.205-0.071,3.307-1.337,3.307-3.797H7.155
		C6.658,9.141,5.904,9.708,4.896,9.708c-0.542,0-0.989-0.194-1.345-0.585C3.195,8.732,3.019,8.267,3.019,7.726
		c0-0.667,0.327-1.358,0.98-2.07c0.654-0.64,1.308-1.288,1.963-1.941C6.716,2.89,7.191,2.037,7.391,1.156
		c0.185,0.881,0.661,1.734,1.43,2.559c0.653,0.64,1.309,1.288,1.961,1.941C11.435,6.368,11.764,7.059,11.764,7.726z"/>
</g>
</svg>
