<?xml version="1.0" encoding="utf-8"?>
<!-- Generator: Adobe Illustrator 15.1.0, SVG Export Plug-In . SVG Version: 6.00 Build 0)  -->
<!DOCTYPE svg PUBLIC "-//W3C//DTD SVG 1.1//EN" "http://www.w3.org/Graphics/SVG/1.1/DTD/svg11.dtd">
<svg version="1.1" id="Layer_1" xmlns="http://www.w3.org/2000/svg" xmlns:xlink="http://www.w3.org/1999/xlink" x="0px" y="0px"
	 width="14.172px" height="14.172px" viewBox="0 0 14.172 14.172" enable-background="new 0 0 14.172 14.172" xml:space="preserve">
<g>
	<path d="M12.982,12.921H1.429V1.367h11.554V12.921z M6.892,4.292c0-0.713-0.247-1.317-0.742-1.812S5.052,1.738,4.338,1.738
		c-0.704,0-1.303,0.247-1.797,0.742C2.047,2.975,1.799,3.578,1.799,4.292c0,0.704,0.248,1.303,0.742,1.797
		C3.036,6.583,3.635,6.83,4.338,6.83c0.713,0,1.317-0.247,1.812-0.742C6.645,5.594,6.892,4.995,6.892,4.292z M6.892,9.997
		c0-0.714-0.247-1.317-0.742-1.812S5.052,7.444,4.338,7.444c-0.704,0-1.303,0.248-1.797,0.742C2.047,8.68,1.799,9.283,1.799,9.997
		c0,0.703,0.248,1.303,0.742,1.797c0.495,0.495,1.094,0.742,1.797,0.742c0.713,0,1.317-0.247,1.812-0.742
		C6.645,11.3,6.892,10.7,6.892,9.997z M12.598,4.292c0-0.713-0.246-1.317-0.738-1.812c-0.491-0.495-1.092-0.742-1.801-0.742
		c-0.7,0-1.296,0.25-1.787,0.749c-0.492,0.5-0.738,1.101-0.738,1.805s0.246,1.303,0.738,1.797C8.763,6.583,9.358,6.83,10.059,6.83
		c0.709,0,1.31-0.247,1.801-0.742C12.352,5.594,12.598,4.995,12.598,4.292z M12.598,9.997c0-0.714-0.247-1.317-0.74-1.812
		s-1.091-0.742-1.792-0.742c-0.702,0-1.3,0.248-1.792,0.742C7.78,8.68,7.533,9.283,7.533,9.997c0,0.703,0.247,1.303,0.74,1.797
		c0.492,0.495,1.09,0.742,1.792,0.742c0.701,0,1.299-0.247,1.792-0.742C12.351,11.3,12.598,10.7,12.598,9.997z"/>
</g>
</svg>
