<?xml version="1.0" encoding="utf-8"?>
<!-- Generator: Adobe Illustrator 15.1.0, SVG Export Plug-In . SVG Version: 6.00 Build 0)  -->
<!DOCTYPE svg PUBLIC "-//W3C//DTD SVG 1.1//EN" "http://www.w3.org/Graphics/SVG/1.1/DTD/svg11.dtd">
<svg version="1.1" id="Layer_1" xmlns="http://www.w3.org/2000/svg" xmlns:xlink="http://www.w3.org/1999/xlink" x="0px" y="0px"
	 width="14.172px" height="14.172px" viewBox="0 0 14.172 14.172" enable-background="new 0 0 14.172 14.172" xml:space="preserve">
<g enable-background="new    ">
	<path d="M9.855,6.26c0.421,0.08,0.717,0.257,0.889,0.533c0.173,0.275,0.26,0.708,0.26,1.302c0,1.178-0.355,2.14-1.063,2.89
		c-0.709,0.749-1.61,1.123-2.714,1.123c-0.433,0-0.855-0.078-1.264-0.234C5.553,11.716,5.203,11.5,4.91,11.22
		c-0.336-0.309-0.589-0.634-0.757-0.978C3.985,9.9,3.9,9.548,3.9,9.188c0-0.4,0.086-0.711,0.259-0.93
		c0.173-0.221,0.447-0.371,0.821-0.449C4.91,7.645,4.858,7.507,4.825,7.395C4.792,7.283,4.776,7.196,4.776,7.136
		c0-0.21,0.111-0.425,0.333-0.645C5.331,6.272,5.54,6.162,5.736,6.162c0.083,0,0.172,0.016,0.266,0.046s0.201,0.08,0.321,0.15
		C5.964,5.34,5.704,4.555,5.54,4.001C5.375,3.448,5.293,3.065,5.293,2.855c0-0.29,0.075-0.52,0.225-0.689
		c0.149-0.171,0.353-0.256,0.61-0.256c0.439,0,0.996,0.98,1.667,2.941C7.913,5.188,8.002,5.448,8.062,5.63
		c0.051-0.145,0.123-0.35,0.217-0.617C8.951,3.071,9.531,2.1,10.015,2.1c0.238,0,0.428,0.081,0.569,0.241
		c0.143,0.162,0.215,0.377,0.215,0.648c0,0.206-0.079,0.582-0.236,1.128C10.406,4.665,10.171,5.378,9.855,6.26z M4.838,9.118
		c0.065,0.08,0.157,0.196,0.273,0.351c0.309,0.426,0.593,0.636,0.854,0.636c0.089,0,0.168-0.026,0.238-0.083
		C6.275,9.965,6.31,9.908,6.31,9.847c0-0.07-0.047-0.188-0.141-0.352C6.077,9.334,5.947,9.148,5.784,8.943
		C5.598,8.705,5.442,8.53,5.319,8.421c-0.125-0.11-0.224-0.166-0.299-0.166c-0.164,0-0.313,0.088-0.452,0.264
		C4.431,8.693,4.361,8.901,4.361,9.138c0,0.191,0.048,0.405,0.144,0.641c0.096,0.236,0.234,0.475,0.417,0.712
		c0.275,0.368,0.618,0.651,1.026,0.85c0.409,0.198,0.86,0.298,1.355,0.298c0.911,0,1.672-0.341,2.288-1.02
		c0.612-0.681,0.921-1.531,0.921-2.554c0-0.312-0.022-0.562-0.069-0.746s-0.122-0.316-0.23-0.4C10.021,6.76,9.646,6.617,9.093,6.491
		c-0.553-0.125-1.13-0.188-1.731-0.188c-0.168,0-0.288,0.027-0.357,0.084C6.933,6.442,6.898,6.538,6.898,6.674
		c0,0.318,0.178,0.546,0.533,0.689c0.357,0.143,0.931,0.213,1.724,0.213h0.287c0.066,0,0.117,0.024,0.157,0.073
		C9.638,7.7,9.666,7.774,9.68,7.871c-0.078,0.075-0.243,0.16-0.491,0.257c-0.247,0.096-0.437,0.19-0.567,0.283
		C8.341,8.616,8.115,8.86,7.945,9.143c-0.171,0.282-0.256,0.55-0.256,0.802c0,0.154,0.036,0.34,0.108,0.558
		c0.072,0.217,0.111,0.351,0.111,0.401v0.049l-0.016,0.064c-0.206-0.016-0.368-0.135-0.487-0.362
		c-0.119-0.226-0.179-0.528-0.179-0.906V9.685c-0.038,0.033-0.074,0.058-0.109,0.07C7.082,9.768,7.045,9.777,7.002,9.777
		c-0.043,0-0.081-0.003-0.118-0.011s-0.08-0.018-0.126-0.032C6.772,9.788,6.781,9.836,6.79,9.885C6.797,9.934,6.8,9.972,6.8,10.001
		c0,0.172-0.068,0.32-0.204,0.444C6.46,10.568,6.3,10.63,6.113,10.63c-0.293,0-0.593-0.144-0.896-0.431
		C4.913,9.912,4.761,9.632,4.761,9.357c0-0.053,0.005-0.098,0.018-0.138C4.791,9.18,4.81,9.146,4.838,9.118z M6.939,9.288
		c0.08,0,0.152-0.036,0.218-0.109c0.064-0.074,0.098-0.152,0.098-0.235c0-0.088-0.064-0.296-0.193-0.62
		C6.934,7.999,6.775,7.68,6.583,7.368c-0.14-0.234-0.278-0.411-0.414-0.529C6.035,6.719,5.906,6.66,5.784,6.66
		c-0.098,0-0.207,0.062-0.325,0.187C5.339,6.969,5.28,7.086,5.28,7.192c0,0.112,0.058,0.28,0.176,0.504
		C5.572,7.92,5.729,8.16,5.924,8.411c0.207,0.275,0.4,0.49,0.583,0.645C6.688,9.208,6.832,9.288,6.939,9.288z M7.626,5.903
		L6.871,3.717C6.675,3.162,6.522,2.799,6.415,2.628C6.308,2.458,6.19,2.374,6.064,2.374c-0.098,0-0.176,0.038-0.238,0.112
		C5.765,2.56,5.736,2.66,5.736,2.786c0,0.215,0.081,0.589,0.245,1.121c0.164,0.532,0.408,1.23,0.735,2.094
		C6.743,5.95,6.783,5.914,6.834,5.892c0.052-0.021,0.121-0.031,0.21-0.031c0.029,0,0.084,0.002,0.168,0.006
		C7.297,5.871,7.435,5.885,7.626,5.903z M8.418,8.026c-0.2-0.01-0.392-0.03-0.571-0.063C7.667,7.93,7.496,7.883,7.332,7.823
		c0.074,0.149,0.143,0.297,0.2,0.448c0.06,0.148,0.106,0.295,0.144,0.44c0.112-0.141,0.231-0.267,0.354-0.381
		C8.153,8.215,8.283,8.116,8.418,8.026z M9.35,6.142c0.313-0.85,0.556-1.552,0.731-2.105c0.175-0.553,0.264-0.893,0.264-1.02
		c0-0.136-0.031-0.24-0.089-0.316c-0.059-0.074-0.138-0.11-0.241-0.11c-0.131,0-0.264,0.108-0.398,0.325
		C9.481,3.132,9.332,3.482,9.167,3.962L8.468,5.987L9.35,6.142z"/>
</g>
</svg>
