<?xml version="1.0" encoding="utf-8"?>
<!-- Generator: Adobe Illustrator 15.1.0, SVG Export Plug-In . SVG Version: 6.00 Build 0)  -->
<!DOCTYPE svg PUBLIC "-//W3C//DTD SVG 1.1//EN" "http://www.w3.org/Graphics/SVG/1.1/DTD/svg11.dtd">
<svg version="1.1" id="Layer_1" xmlns="http://www.w3.org/2000/svg" xmlns:xlink="http://www.w3.org/1999/xlink" x="0px" y="0px"
	 width="14.172px" height="14.172px" viewBox="0 0 14.172 14.172" enable-background="new 0 0 14.172 14.172" xml:space="preserve">
<path d="M2.078,4.339c-0.144-0.04-0.216-0.136-0.216-0.289V1.3c0-0.2,0.092-0.3,0.276-0.3c0.048,0,0.084,0.004,0.108,0.012
	l9.876,2.748c0.144,0.041,0.216,0.136,0.216,0.288v2.736c0,0.207-0.092,0.312-0.275,0.312c-0.031,0-0.067-0.009-0.107-0.028
	L2.078,4.339z M2.079,8.716C1.935,8.676,1.862,8.58,1.862,8.428V5.692c0-0.208,0.092-0.312,0.275-0.312
	c0.032,0,0.067,0.01,0.107,0.029l9.879,2.728c0.143,0.04,0.215,0.136,0.215,0.288v2.751c0,0.2-0.092,0.3-0.276,0.3
	c-0.04,0-0.076-0.004-0.107-0.012L2.079,8.716z M2.451,3.822l9.3,2.567v-2.11l-9.3-2.588V3.822z M2.451,8.196l9.3,2.588V8.656
	l-9.3-2.568V8.196z"/>
</svg>
