<?xml version="1.0" encoding="utf-8"?>
<!-- Generator: Adobe Illustrator 15.1.0, SVG Export Plug-In . SVG Version: 6.00 Build 0)  -->
<!DOCTYPE svg PUBLIC "-//W3C//DTD SVG 1.1//EN" "http://www.w3.org/Graphics/SVG/1.1/DTD/svg11.dtd">
<svg version="1.1" id="Layer_1" xmlns="http://www.w3.org/2000/svg" xmlns:xlink="http://www.w3.org/1999/xlink" x="0px" y="0px"
	 width="14.172px" height="14.172px" viewBox="0 0 14.172 14.172" enable-background="new 0 0 14.172 14.172" xml:space="preserve">
<g enable-background="new    ">
	<path d="M7.469,10.834c-1.005-0.047-1.879-0.411-2.623-1.092C4.87,9.841,4.88,9.917,4.88,9.969c0,0.334-0.173,0.501-0.519,0.501
		s-0.52-0.174-0.52-0.522S4.009,9.424,4.34,9.424c0.051,0,0.124,0.012,0.217,0.035c-0.672-0.741-1.033-1.613-1.08-2.618
		C3.352,7.057,3.191,7.167,2.995,7.167c-0.346,0-0.519-0.174-0.519-0.522s0.173-0.523,0.519-0.523c0.201,0,0.362,0.106,0.483,0.318
		c0-0.948,0.363-1.817,1.088-2.611C4.467,3.852,4.39,3.862,4.334,3.862c-0.327,0-0.492-0.174-0.492-0.522
		c0-0.349,0.173-0.523,0.52-0.523s0.519,0.167,0.519,0.501c0,0.051-0.011,0.125-0.034,0.219c0.757-0.675,1.632-1.039,2.622-1.084
		C7.254,2.336,7.146,2.176,7.146,1.97c0-0.346,0.172-0.519,0.519-0.519c0.342,0,0.514,0.173,0.514,0.519
		c0,0.206-0.105,0.367-0.316,0.484C8.854,2.5,9.727,2.862,10.485,3.538C10.46,3.445,10.45,3.371,10.45,3.32
		c0-0.333,0.173-0.501,0.52-0.501s0.519,0.174,0.519,0.523c0,0.348-0.166,0.521-0.497,0.521c-0.053,0-0.127-0.011-0.225-0.034
		c0.729,0.794,1.094,1.664,1.094,2.611c0.119-0.211,0.28-0.318,0.48-0.318c0.344,0,0.515,0.174,0.515,0.523
		s-0.172,0.522-0.515,0.522c-0.196,0-0.355-0.109-0.48-0.325c-0.047,1.005-0.412,1.877-1.096,2.618
		c0.094-0.023,0.165-0.035,0.218-0.035c0.336,0,0.505,0.175,0.505,0.524c0,0.348-0.174,0.522-0.52,0.522
		c-0.348,0-0.52-0.168-0.52-0.502c0-0.05,0.012-0.126,0.035-0.225c-0.742,0.679-1.616,1.043-2.621,1.09
		c0.209,0.121,0.316,0.283,0.316,0.485c0,0.345-0.172,0.519-0.514,0.519c-0.346,0-0.519-0.174-0.519-0.519
		C7.146,11.118,7.254,10.956,7.469,10.834z M6.444,6.1C6.258,5.998,6.154,5.839,6.13,5.625C5.82,5.582,5.647,5.411,5.61,5.108
		c-0.22-0.033-0.382-0.14-0.483-0.322C4.846,5.206,4.657,5.662,4.559,6.157c0.093-0.023,0.167-0.035,0.225-0.035
		c0.098,0,0.21,0.049,0.337,0.149c0.131-0.101,0.253-0.15,0.371-0.15S5.73,6.17,5.856,6.27c0.132-0.1,0.243-0.149,0.337-0.149
		c0.057,0,0.133,0.012,0.231,0.035L6.444,6.1z M6.417,7.124C6.323,7.153,6.248,7.167,6.186,7.167c-0.089,0-0.199-0.052-0.33-0.156
		C5.73,7.115,5.608,7.167,5.491,7.167c-0.12,0-0.245-0.052-0.372-0.156c-0.13,0.104-0.242,0.156-0.336,0.156
		c-0.056,0-0.131-0.014-0.225-0.043c0.098,0.5,0.288,0.959,0.569,1.379c0.107-0.188,0.266-0.295,0.475-0.321
		C5.641,7.874,5.812,7.7,6.121,7.663C6.149,7.45,6.258,7.29,6.444,7.187L6.417,7.124z M7.188,5.401
		C7.16,5.303,7.146,5.226,7.146,5.17c0-0.093,0.051-0.204,0.155-0.335C7.198,4.71,7.146,4.588,7.146,4.471
		c0-0.116,0.051-0.239,0.155-0.371C7.198,3.974,7.146,3.861,7.146,3.764c0-0.057,0.012-0.135,0.035-0.232
		C6.686,3.633,6.228,3.827,5.807,4.107C5.994,4.21,6.102,4.372,6.13,4.59c0.314,0.033,0.486,0.205,0.519,0.518
		C6.863,5.13,7.022,5.235,7.126,5.422L7.188,5.401z M7.126,7.866C7.019,8.053,6.856,8.16,6.641,8.188
		c-0.033,0.308-0.206,0.478-0.52,0.51C6.098,8.917,5.994,9.078,5.807,9.18C6.228,9.461,6.686,9.651,7.181,9.75
		C7.154,9.656,7.14,9.582,7.14,9.523c0-0.092,0.05-0.205,0.154-0.336C7.195,9.056,7.146,8.935,7.146,8.823
		c0-0.116,0.049-0.242,0.147-0.377C7.195,8.32,7.146,8.211,7.146,8.118c0-0.057,0.012-0.133,0.035-0.23L7.126,7.866z M7.669,7.342
		c0.192,0,0.355-0.068,0.488-0.205C8.293,7,8.36,6.836,8.36,6.644c0-0.193-0.066-0.356-0.202-0.494
		C8.025,6.014,7.862,5.946,7.669,5.946c-0.192,0-0.357,0.068-0.493,0.204c-0.138,0.137-0.205,0.3-0.205,0.494
		c0,0.192,0.067,0.356,0.205,0.493C7.312,7.274,7.477,7.342,7.669,7.342z M8.141,5.401l0.057,0.021
		c0.111-0.188,0.273-0.292,0.49-0.314C8.72,4.795,8.893,4.623,9.206,4.59c0.027-0.219,0.135-0.379,0.32-0.483
		c-0.421-0.28-0.882-0.474-1.385-0.577c0.029,0.099,0.043,0.177,0.043,0.24c0,0.093-0.051,0.203-0.154,0.329
		c0.104,0.131,0.154,0.255,0.154,0.371c0,0.117-0.051,0.24-0.154,0.364C8.133,4.961,8.184,5.073,8.184,5.17
		C8.184,5.226,8.17,5.303,8.141,5.401z M8.206,7.866L8.141,7.887c0.029,0.098,0.043,0.174,0.043,0.23
		c0,0.094-0.051,0.202-0.154,0.328c0.104,0.135,0.154,0.258,0.154,0.37c0,0.116-0.051,0.24-0.154,0.371
		c0.104,0.131,0.154,0.244,0.154,0.336c0,0.059-0.014,0.133-0.043,0.227C8.644,9.651,9.105,9.461,9.526,9.18
		C9.34,9.077,9.235,8.917,9.213,8.697C8.899,8.666,8.725,8.496,8.688,8.188C8.471,8.16,8.311,8.053,8.206,7.866z M8.883,6.1
		l0.027,0.056c0.099-0.022,0.176-0.035,0.23-0.035c0.094,0,0.206,0.049,0.337,0.149c0.126-0.1,0.247-0.149,0.363-0.149
		c0.117,0,0.24,0.049,0.368,0.149c0.127-0.1,0.238-0.149,0.33-0.149c0.062,0,0.14,0.012,0.233,0.035
		c-0.099-0.495-0.29-0.952-0.576-1.372C10.1,4.968,9.942,5.075,9.722,5.108c-0.035,0.303-0.21,0.474-0.517,0.517
		C9.183,5.839,9.075,5.998,8.883,6.1z M8.911,7.124l-0.02,0.063C9.077,7.29,9.185,7.449,9.213,7.663
		C9.519,7.7,9.693,7.874,9.73,8.181c0.21,0.026,0.368,0.134,0.476,0.321c0.279-0.42,0.469-0.879,0.567-1.379
		c-0.094,0.029-0.172,0.043-0.233,0.043c-0.088,0-0.199-0.052-0.33-0.156c-0.128,0.104-0.246,0.156-0.354,0.156
		c-0.126,0-0.252-0.052-0.378-0.156C9.347,7.115,9.235,7.167,9.141,7.167C9.086,7.167,9.009,7.153,8.911,7.124z"/>
</g>
</svg>
