<?xml version="1.0" encoding="utf-8"?>
<!-- Generator: Adobe Illustrator 15.1.0, SVG Export Plug-In . SVG Version: 6.00 Build 0)  -->
<!DOCTYPE svg PUBLIC "-//W3C//DTD SVG 1.1//EN" "http://www.w3.org/Graphics/SVG/1.1/DTD/svg11.dtd">
<svg version="1.1" id="Layer_1" xmlns="http://www.w3.org/2000/svg" xmlns:xlink="http://www.w3.org/1999/xlink" x="0px" y="0px"
	 width="14.172px" height="14.172px" viewBox="0 0 14.172 14.172" enable-background="new 0 0 14.172 14.172" xml:space="preserve">
<g enable-background="new    ">
	<path d="M12.667,6.565c0,0.578-0.162,1.251-0.486,2.018c-0.073-0.428-0.204-0.863-0.392-1.312c-0.231-0.535-0.484-0.907-0.76-1.118
		l-0.433,0.055L8.286,8.571l2.213,2.16c0.116,0.101,0.174,0.224,0.174,0.367c0,0.204-0.091,0.39-0.271,0.559
		c-0.181,0.171-0.373,0.257-0.575,0.257c-0.137,0-0.257-0.052-0.357-0.152L7.332,9.558L5.194,11.75
		c-0.101,0.108-0.224,0.164-0.369,0.164c-0.203,0-0.389-0.092-0.559-0.272c-0.17-0.181-0.255-0.369-0.255-0.564
		c0-0.144,0.05-0.264,0.151-0.357l2.213-2.148l-2.3-2.353L2.84,7.443C2.746,7.537,2.667,7.584,2.602,7.584
		c-0.058,0-0.13-0.043-0.217-0.13L1.343,6.413C1.242,6.319,1.192,6.239,1.192,6.174c0-0.065,0.047-0.144,0.141-0.239l1.161-1.161
		c-0.115-0.13-0.174-0.264-0.174-0.401c0-0.181,0.085-0.354,0.255-0.521c0.17-0.166,0.345-0.249,0.526-0.249
		c0.145,0,0.285,0.05,0.423,0.152l1.161-1.161c0.101-0.102,0.177-0.152,0.228-0.152c0.065,0,0.148,0.05,0.249,0.152l1.042,1.041
		c0.087,0.087,0.13,0.164,0.13,0.229c0,0.065-0.047,0.146-0.141,0.239L4.956,5.329l2.375,2.311l2.386-2.322l0.044-0.434L9.023,4.146
		l-0.347,0.13L8.145,3.744l1.758-1.757l0.531,0.532l-0.141,0.358c0.745,0.622,1.283,1.157,1.615,1.605
		C12.415,5.162,12.667,5.856,12.667,6.565z M7.114,7.844l-2.364-2.3L4.294,6.012l2.289,2.354L7.114,7.844z M10.38,6L9.923,5.534
		l-5.542,5.402c-0.043,0.044-0.065,0.091-0.065,0.141c0,0.116,0.054,0.235,0.163,0.359c0.108,0.122,0.22,0.184,0.336,0.184
		c0.065,0,0.123-0.025,0.174-0.075L10.38,6z M10.369,11.11c0-0.059-0.025-0.112-0.075-0.162L8.079,8.789L7.538,9.341l2.147,2.213
		c0.044,0.044,0.094,0.065,0.151,0.065c0.116,0,0.234-0.056,0.353-0.168C10.309,11.339,10.369,11.225,10.369,11.11z"/>
</g>
</svg>
