<?xml version="1.0" encoding="utf-8"?>
<!-- Generator: Adobe Illustrator 15.1.0, SVG Export Plug-In . SVG Version: 6.00 Build 0)  -->
<!DOCTYPE svg PUBLIC "-//W3C//DTD SVG 1.1//EN" "http://www.w3.org/Graphics/SVG/1.1/DTD/svg11.dtd">
<svg version="1.1" id="Layer_1" xmlns="http://www.w3.org/2000/svg" xmlns:xlink="http://www.w3.org/1999/xlink" x="0px" y="0px"
	 width="14.172px" height="14.172px" viewBox="0 0 14.172 14.172" enable-background="new 0 0 14.172 14.172" xml:space="preserve">
<g enable-background="new    ">
	<path d="M12.905,8.251c0,0.597-0.203,1.114-0.609,1.553s-0.904,0.679-1.496,0.722v0.008H3.782v-0.008
		c-0.038,0.005-0.094,0.008-0.169,0.008c-0.629,0-1.167-0.224-1.613-0.67S1.33,8.88,1.33,8.251c0-0.398,0.099-0.771,0.298-1.122
		c0.199-0.349,0.471-0.627,0.815-0.831C2.399,6.127,2.378,5.96,2.378,5.798c0-0.628,0.223-1.167,0.67-1.613
		c0.446-0.446,0.984-0.669,1.613-0.669c0.554,0,1.055,0.188,1.501,0.564C6.393,3.591,6.738,3.2,7.198,2.907
		c0.46-0.292,0.959-0.439,1.496-0.439c0.774,0,1.437,0.275,1.984,0.823C11.227,3.839,11.5,4.5,11.5,5.274
		c0,0.296-0.042,0.573-0.128,0.832c0.457,0.156,0.827,0.432,1.108,0.831C12.763,7.334,12.905,7.772,12.905,8.251z"/>
</g>
</svg>
