<?xml version="1.0" encoding="utf-8"?>
<!-- Generator: Adobe Illustrator 15.1.0, SVG Export Plug-In . SVG Version: 6.00 Build 0)  -->
<!DOCTYPE svg PUBLIC "-//W3C//DTD SVG 1.1//EN" "http://www.w3.org/Graphics/SVG/1.1/DTD/svg11.dtd">
<svg version="1.1" id="Layer_1" xmlns="http://www.w3.org/2000/svg" xmlns:xlink="http://www.w3.org/1999/xlink" x="0px" y="0px"
	 width="14.172px" height="14.172px" viewBox="0 0 14.172 14.172" enable-background="new 0 0 14.172 14.172" xml:space="preserve">
<g enable-background="new    ">
	<path d="M3.184,7.696c0-0.771,0.057-1.407,0.17-1.906c0.199-0.102,0.318-0.167,0.357-0.195C4.988,4.836,6.123,4.228,7.115,3.77
		l5.403,0.615v0.185c0,0.718-0.137,1.214-0.41,1.487c-0.273,0.273-0.775,0.41-1.506,0.41l-1.764-0.01
		c-0.074,0.095-0.201,0.232-0.381,0.41c0.145-0.021,0.258-0.031,0.34-0.031c0.711,0,1.065,0.397,1.065,1.188
		c0,0.861-0.36,1.293-1.084,1.293c-0.069,0-0.144-0.012-0.217-0.031c-0.144,0.615-0.397,0.923-0.761,0.923
		c-0.117,0-0.229-0.054-0.334-0.164c-0.16,0.308-0.334,0.462-0.522,0.462c-0.207,0-0.424-0.171-0.65-0.513
		c-0.309,0.096-0.549,0.161-0.721,0.194C5.164,9.97,4.779,9.69,4.42,9.347L3.365,9.553C3.244,8.958,3.184,8.339,3.184,7.696z"/>
</g>
</svg>
