<?xml version="1.0" encoding="utf-8"?>
<!-- Generator: Adobe Illustrator 15.1.0, SVG Export Plug-In . SVG Version: 6.00 Build 0)  -->
<!DOCTYPE svg PUBLIC "-//W3C//DTD SVG 1.1//EN" "http://www.w3.org/Graphics/SVG/1.1/DTD/svg11.dtd">
<svg version="1.1" id="Layer_1" xmlns="http://www.w3.org/2000/svg" xmlns:xlink="http://www.w3.org/1999/xlink" x="0px" y="0px"
	 width="14.172px" height="14.172px" viewBox="0 0 14.172 14.172" enable-background="new 0 0 14.172 14.172" xml:space="preserve">
<g>
	<path d="M11.947,12.003l-6.604-0.015c-0.019-0.261-0.028-0.463-0.028-0.605c0-0.366,0.119-0.813,0.356-1.341
		C5.909,9.514,6.213,9.02,6.584,8.559L6.991,8.06c0.262-0.323,0.482-0.768,0.664-1.334C7.307,7.172,6.996,7.482,6.72,7.656
		S6.021,7.98,5.45,8.109C5.175,8.832,4.847,9.193,4.466,9.193c-0.052,0-0.126-0.003-0.221-0.008c0.176-0.133,0.309-0.323,0.399-0.57
		C4.326,8.953,4.091,9.122,3.938,9.122c-0.181,0-0.438-0.167-0.771-0.5c-0.271-0.271-0.406-0.527-0.406-0.77
		c0-0.519,0.385-1.403,1.155-2.653c0.171-0.285,0.276-0.492,0.314-0.62L4.38,4.008c0.057-0.209,0.404-0.511,1.042-0.906
		c-0.205-0.39-0.354-0.663-0.449-0.82C4.906,2.168,4.875,2.073,4.88,1.997c0.009-0.119,0.071-0.178,0.186-0.178
		c0.271,0,0.689,0.29,1.255,0.87l0.136-0.036c0.028-0.209,0.042-0.361,0.042-0.457V1.783c0-0.266,0.069-0.409,0.207-0.428
		c0.009,0,0.074,0.024,0.192,0.071c0.229,0.1,0.389,0.224,0.481,0.371c0.093,0.147,0.199,0.444,0.318,0.891
		C8.225,2.879,8.629,3.06,8.91,3.231C9.19,3.402,9.487,3.652,9.801,3.98c1.459,1.531,2.189,3.765,2.189,6.704
		C11.99,10.964,11.976,11.404,11.947,12.003z M11.263,11.468c0.019-0.442,0.028-0.782,0.028-1.02c0-0.784-0.088-1.591-0.262-2.418
		c-0.173-0.827-0.399-1.512-0.68-2.054C9.945,5.202,9.519,4.61,9.069,4.201C8.62,3.792,8.037,3.466,7.319,3.224
		c0-0.376-0.027-0.634-0.082-0.774S7.05,2.161,6.841,2.004c0.01,0.147,0.015,0.271,0.015,0.371c0,0.143-0.029,0.35-0.086,0.621
		C6.575,3.024,6.387,3.072,6.206,3.138C6.049,2.9,5.866,2.689,5.657,2.503c-0.043,0.1-0.064,0.176-0.064,0.229
		c0,0.081,0.045,0.176,0.136,0.285c0.09,0.119,0.133,0.195,0.128,0.228c-0.005,0.062-0.104,0.141-0.3,0.235
		C5.319,3.6,5.153,3.721,5.058,3.844S4.842,4.213,4.694,4.579C4.566,4.897,4.324,5.342,3.967,5.913
		C3.43,6.778,3.161,7.405,3.161,7.795c0,0.31,0.271,0.621,0.813,0.935c0.285-0.152,0.544-0.347,0.777-0.585l0.05,0.229l0.043,0.199
		c0.09-0.166,0.154-0.292,0.192-0.378C5.231,7.776,5.403,7.508,5.55,7.389C5.698,7.27,5.997,7.161,6.449,7.061
		c-0.299,0.143-0.551,0.333-0.756,0.57C6.416,7.46,6.936,7.156,7.254,6.718c0.319-0.437,0.528-1.134,0.628-2.089
		c0.066,0.323,0.1,0.563,0.1,0.72c0,0.171-0.043,0.444-0.128,0.82c0.095,0.294,0.143,0.513,0.143,0.656
		c0,0.538-0.319,1.218-0.957,2.04c-0.423,0.547-0.702,0.963-0.838,1.248c-0.135,0.285-0.268,0.734-0.396,1.348L11.263,11.468z
		 M3.846,7.596c0,0.252-0.085,0.378-0.257,0.378c-0.038,0-0.09-0.012-0.157-0.036C3.489,7.733,3.627,7.619,3.846,7.596z
		 M6.057,3.951C5.909,4.094,5.831,4.199,5.821,4.265L5.764,4.607C5.735,4.783,5.626,4.871,5.436,4.871
		c-0.052,0-0.126-0.009-0.221-0.028l-0.093,0.1C5.108,4.833,5.101,4.748,5.101,4.686C5.101,4.239,5.419,3.994,6.057,3.951z"/>
</g>
</svg>
