<?xml version="1.0" encoding="utf-8"?>
<!-- Generator: Adobe Illustrator 15.1.0, SVG Export Plug-In . SVG Version: 6.00 Build 0)  -->
<!DOCTYPE svg PUBLIC "-//W3C//DTD SVG 1.1//EN" "http://www.w3.org/Graphics/SVG/1.1/DTD/svg11.dtd">
<svg version="1.1" id="Layer_1" xmlns="http://www.w3.org/2000/svg" xmlns:xlink="http://www.w3.org/1999/xlink" x="0px" y="0px"
	 width="14.172px" height="14.172px" viewBox="0 0 14.172 14.172" enable-background="new 0 0 14.172 14.172" xml:space="preserve">
<g enable-background="new    ">
	<path d="M12.74,4.4c0,1.397-0.876,2.823-2.626,4.276c-1.218,1.01-2.729,1.942-4.532,2.803c0.065-0.345,0.098-0.675,0.098-0.988
		c0-0.812-0.258-1.551-0.773-2.215C4.427,7.745,3.945,7.214,3.46,6.687C2.945,6.04,2.688,5.333,2.688,4.564
		c0-0.755,0.254-1.376,0.763-1.863c0.509-0.487,1.143-0.73,1.902-0.73c0.52,0,1.002,0.135,1.446,0.406
		c0.484,0.296,0.793,0.683,0.924,1.159c0.533-1.043,1.318-1.565,2.357-1.565c0.697,0,1.31,0.227,1.834,0.681
		C12.463,3.128,12.74,3.711,12.74,4.4z"/>
</g>
</svg>
