<?xml version="1.0" encoding="utf-8"?>
<!-- Generator: Adobe Illustrator 15.1.0, SVG Export Plug-In . SVG Version: 6.00 Build 0)  -->
<!DOCTYPE svg PUBLIC "-//W3C//DTD SVG 1.1//EN" "http://www.w3.org/Graphics/SVG/1.1/DTD/svg11.dtd">
<svg version="1.1" id="Layer_1" xmlns="http://www.w3.org/2000/svg" xmlns:xlink="http://www.w3.org/1999/xlink" x="0px" y="0px"
	 width="14.172px" height="14.172px" viewBox="0 0 14.172 14.172" enable-background="new 0 0 14.172 14.172" xml:space="preserve">
<g enable-background="new    ">
	<path d="M13.081,3.674v0.941c-1.816-0.83-3.572-1.245-5.269-1.245c-1.108,0-2.014,0.146-2.713,0.438
		C5.545,4.03,5.878,4.314,6.098,4.656C6.318,4.999,6.429,5.4,6.429,5.86c0,0.604-0.218,1.122-0.653,1.555
		C5.341,7.848,4.818,8.065,4.209,8.065c-0.605,0-1.122-0.215-1.55-0.645C2.231,6.99,2.017,6.475,2.017,5.869
		c0-0.968,0.589-1.771,1.767-2.411c1.178-0.64,2.655-0.96,4.434-0.96C9.754,2.498,11.377,2.891,13.081,3.674z M2.017,9.999V9.057
		c1.817,0.826,3.572,1.239,5.269,1.239c1.108,0,2.012-0.146,2.706-0.433c-0.442-0.226-0.772-0.51-0.993-0.851
		c-0.22-0.341-0.33-0.741-0.33-1.2c0-0.604,0.217-1.123,0.652-1.556c0.436-0.432,0.958-0.648,1.566-0.648
		c0.603,0,1.117,0.215,1.548,0.644c0.43,0.43,0.646,0.946,0.646,1.552c0,0.965-0.59,1.766-1.768,2.405s-2.655,0.96-4.434,0.96
		C5.345,11.169,3.724,10.778,2.017,9.999z M5.849,5.855c0-0.443-0.162-0.823-0.486-1.139C5.039,4.4,4.652,4.244,4.203,4.244
		c-0.449,0-0.829,0.154-1.14,0.464S2.597,5.396,2.597,5.843c0,0.455,0.157,0.843,0.472,1.162s0.696,0.479,1.146,0.479
		c0.453,0,0.839-0.159,1.157-0.479C5.69,6.686,5.849,6.302,5.849,5.855z M9.249,7.817c0,0.439,0.16,0.818,0.482,1.137
		s0.708,0.476,1.156,0.476c0.449,0,0.83-0.153,1.144-0.464S12.5,8.276,12.5,7.83c0-0.455-0.158-0.843-0.473-1.162
		s-0.695-0.479-1.146-0.479c-0.453,0-0.838,0.158-1.156,0.476C9.407,6.982,9.249,7.367,9.249,7.817z"/>
</g>
</svg>
