<?xml version="1.0" encoding="utf-8"?>
<!-- Generator: Adobe Illustrator 15.1.0, SVG Export Plug-In . SVG Version: 6.00 Build 0)  -->
<!DOCTYPE svg PUBLIC "-//W3C//DTD SVG 1.1//EN" "http://www.w3.org/Graphics/SVG/1.1/DTD/svg11.dtd">
<svg version="1.1" id="Layer_1" xmlns="http://www.w3.org/2000/svg" xmlns:xlink="http://www.w3.org/1999/xlink" x="0px" y="0px"
	 width="14.172px" height="14.172px" viewBox="0 0 14.172 14.172" enable-background="new 0 0 14.172 14.172" xml:space="preserve">
<g>
	<path d="M3.042,7.118h7.419c0.082-0.021,0.133-0.016,0.15,0.016c0.02,0.033,0.027,0.076,0.021,0.13s-0.014,0.114-0.025,0.179
		c-0.01,0.065-0.008,0.12,0.01,0.163c0.352-0.098,0.643-0.119,0.873-0.065c0.23,0.055,0.412,0.153,0.541,0.297
		c0.131,0.145,0.213,0.322,0.25,0.533c0.035,0.211,0.029,0.43-0.014,0.655c-0.043,0.225-0.123,0.44-0.24,0.646
		c-0.115,0.206-0.262,0.377-0.436,0.513c-0.08,0.038-0.189,0.091-0.328,0.159c-0.139,0.067-0.27,0.123-0.395,0.166
		c-0.066,0.017-0.137,0.03-0.213,0.041s-0.154,0.021-0.234,0.032c-0.082,0.012-0.16,0.022-0.236,0.033s-0.145,0.027-0.203,0.049
		c-0.104,0.038-0.193,0.085-0.27,0.143c-0.076,0.057-0.143,0.117-0.203,0.183s-0.117,0.133-0.17,0.203
		c-0.055,0.071-0.111,0.136-0.172,0.195c-0.082,0.082-0.166,0.146-0.252,0.191c-0.088,0.046-0.168,0.09-0.244,0.13
		c-0.076,0.041-0.141,0.085-0.195,0.131s-0.092,0.109-0.113,0.191H5.385c-0.043,0.021-0.081,0.024-0.114,0.008
		s-0.061-0.038-0.085-0.065s-0.047-0.058-0.069-0.094c-0.021-0.035-0.041-0.063-0.057-0.085c-0.06-0.06-0.129-0.116-0.208-0.171
		s-0.16-0.11-0.244-0.167c-0.084-0.057-0.171-0.116-0.26-0.179c-0.09-0.062-0.175-0.135-0.256-0.216
		c-0.201-0.2-0.365-0.432-0.493-0.691C3.471,10.112,3.37,9.826,3.294,9.515C3.218,9.202,3.161,8.866,3.123,8.506
		C3.085,8.145,3.058,7.761,3.042,7.354V7.118z M5.588,1.715c0.043,0,0.07,0.038,0.082,0.114L5.71,2.041
		c0.005,0.07,0.008,0.144,0.008,0.219c0,0.136-0.019,0.28-0.057,0.432L5.572,3.083C5.556,3.126,5.548,3.167,5.548,3.204
		c0,0.13,0.078,0.402,0.236,0.814c0.141,0.353,0.211,0.651,0.211,0.895c0,0.082-0.03,0.206-0.089,0.374
		c-0.06,0.168-0.12,0.291-0.179,0.366l-0.203,0.31C5.382,6.169,5.292,6.342,5.255,6.483C5.222,6.592,5.173,6.649,5.108,6.654
		c-0.06,0-0.101-0.049-0.122-0.146l-0.057-0.48l0.065-0.204c0.141-0.342,0.212-0.64,0.212-0.895c0-0.222-0.024-0.401-0.073-0.537
		L5.011,4.059C4.924,3.826,4.88,3.589,4.88,3.351c0-0.287,0.098-0.594,0.293-0.919l0.171-0.285c0.027-0.049,0.07-0.154,0.13-0.317
		C5.501,1.753,5.54,1.715,5.588,1.715z M7.256,1.341c0.049-0.005,0.092,0.06,0.131,0.195l0.064,0.22
		c0.021,0.065,0.033,0.155,0.033,0.269c0,0.158-0.033,0.35-0.098,0.578C7.311,2.879,7.272,3.074,7.272,3.188
		c0,0.141,0.082,0.38,0.244,0.716c0.179,0.374,0.269,0.672,0.269,0.895c0,0.325-0.176,0.713-0.529,1.164
		C7.04,6.234,6.917,6.432,6.89,6.557C6.869,6.665,6.828,6.722,6.768,6.728c-0.081,0.005-0.13-0.051-0.146-0.171L6.589,6.329
		c0-0.021,0-0.041,0-0.057c0-0.13,0.046-0.304,0.138-0.521L6.89,5.36c0.054-0.135,0.082-0.273,0.082-0.415
		c0-0.244-0.054-0.494-0.163-0.749l-0.163-0.39c-0.087-0.201-0.13-0.385-0.13-0.554c0-0.217,0.098-0.507,0.292-0.871l0.195-0.341
		c0.087-0.152,0.133-0.274,0.139-0.366C7.159,1.463,7.197,1.352,7.256,1.341z M8.793,1.715c0.066,0,0.119,0.098,0.164,0.293
		l0.023,0.13l0.066,0.269C9.057,2.456,9.062,2.51,9.062,2.57c0,0.065-0.006,0.125-0.016,0.179L8.988,3.05
		C8.984,3.088,8.98,3.12,8.98,3.147c0,0.125,0.076,0.35,0.229,0.675c0.174,0.358,0.26,0.643,0.26,0.854
		c0,0.304-0.16,0.67-0.48,1.098C8.717,6.145,8.561,6.399,8.518,6.541C8.479,6.644,8.436,6.695,8.387,6.695
		c-0.076,0-0.113-0.07-0.113-0.211c0-0.005-0.008-0.082-0.025-0.228c0-0.022,0-0.043,0-0.065c0-0.098,0.061-0.252,0.18-0.464
		C8.639,5.32,8.744,4.976,8.744,4.693c0-0.168-0.053-0.369-0.162-0.602C8.414,3.739,8.33,3.465,8.33,3.27s0.033-0.372,0.098-0.529
		l0.131-0.342c0.092-0.223,0.141-0.382,0.146-0.48C8.721,1.789,8.75,1.721,8.793,1.715z M11.504,8.005
		c-0.195,0-0.361,0.014-0.496,0.041c-0.137,0.026-0.268,0.04-0.391,0.04c-0.076,0.363-0.145,0.723-0.205,1.078
		c-0.059,0.355-0.15,0.696-0.275,1.021c0.189,0,0.377-0.033,0.561-0.102c0.186-0.067,0.355-0.157,0.514-0.269
		c0.156-0.111,0.291-0.24,0.402-0.387s0.186-0.301,0.223-0.464c0.039-0.162,0.033-0.326-0.016-0.492
		C11.771,8.308,11.666,8.151,11.504,8.005z"/>
</g>
</svg>
