<?xml version="1.0" encoding="utf-8"?>
<!-- Generator: Adobe Illustrator 15.1.0, SVG Export Plug-In . SVG Version: 6.00 Build 0)  -->
<!DOCTYPE svg PUBLIC "-//W3C//DTD SVG 1.1//EN" "http://www.w3.org/Graphics/SVG/1.1/DTD/svg11.dtd">
<svg version="1.1" id="Layer_1" xmlns="http://www.w3.org/2000/svg" xmlns:xlink="http://www.w3.org/1999/xlink" x="0px" y="0px"
	 width="14.172px" height="14.172px" viewBox="0 0 14.172 14.172" enable-background="new 0 0 14.172 14.172" xml:space="preserve">
<g enable-background="new    ">
	<path d="M3.526,3.879C3.484,3.842,3.452,3.813,3.429,3.796C3.265,3.66,3.184,3.49,3.184,3.286V2.433
		c0-0.289,0.119-0.498,0.356-0.628c0.643-0.35,1.672-0.523,3.087-0.523c1.421,0,2.452,0.174,3.094,0.523
		c0.238,0.13,0.356,0.34,0.356,0.628v0.853c0,0.205-0.08,0.374-0.244,0.51C9.811,3.814,9.779,3.842,9.738,3.879v6.684
		c0,0.484-0.113,0.805-0.335,0.959c-0.611,0.409-1.535,0.614-2.775,0.614c-1.234,0-2.156-0.205-2.766-0.614
		c-0.224-0.154-0.336-0.472-0.336-0.959V3.879z M6.635,3.09c0.853,0,1.581-0.07,2.189-0.209c0.605-0.14,0.913-0.308,0.913-0.503
		c0-0.187-0.328-0.359-0.985-0.518C8.094,1.701,7.387,1.623,6.627,1.623c-0.77,0-1.478,0.08-2.126,0.241
		c-0.65,0.161-0.975,0.335-0.975,0.521c0,0.191,0.307,0.356,0.919,0.496C5.059,3.02,5.786,3.09,6.635,3.09z M3.526,2.832v0.209
		c0,0.778,1.034,1.167,3.102,1.167c2.074,0,3.11-0.388,3.11-1.167V2.832c-0.393,0.2-0.849,0.351-1.368,0.451
		c-0.518,0.1-1.099,0.15-1.743,0.15c-0.637,0-1.217-0.05-1.731-0.15C4.378,3.182,3.922,3.032,3.526,2.832z M3.868,4.061v6.483
		c0,0.416,0.134,0.689,0.399,0.824c0.565,0.283,1.352,0.425,2.359,0.425c1.014,0,1.803-0.142,2.367-0.425
		c0.267-0.135,0.4-0.411,0.4-0.824V4.061C9.234,4.126,9.059,4.189,8.871,4.25v6.525l-0.343,0.089V4.34
		c-0.279,0.052-0.624,0.1-1.034,0.146v6.533H7.152V4.487C6.87,4.501,6.695,4.507,6.63,4.507c-0.061,0-0.235-0.007-0.521-0.021v6.531
		h-0.34v-6.53C5.359,4.44,5.014,4.392,4.735,4.34v6.525l-0.343-0.092V4.25C4.204,4.189,4.029,4.126,3.868,4.061z"/>
</g>
</svg>
