<?xml version="1.0" encoding="utf-8"?>
<!-- Generator: Adobe Illustrator 15.1.0, SVG Export Plug-In . SVG Version: 6.00 Build 0)  -->
<!DOCTYPE svg PUBLIC "-//W3C//DTD SVG 1.1//EN" "http://www.w3.org/Graphics/SVG/1.1/DTD/svg11.dtd">
<svg version="1.1" id="Layer_1" xmlns="http://www.w3.org/2000/svg" xmlns:xlink="http://www.w3.org/1999/xlink" x="0px" y="0px"
	 width="14.172px" height="14.172px" viewBox="0 0 14.172 14.172" enable-background="new 0 0 14.172 14.172" xml:space="preserve">
<g enable-background="new    ">
	<path d="M13.17,7.216c-0.918,0.38-1.652,0.724-2.199,1.028C10.426,8.548,10,8.852,9.696,9.151C9.397,9.452,9.094,9.873,8.79,10.416
		c-0.305,0.545-0.652,1.289-1.045,2.233H7.432c-0.396-0.944-0.746-1.688-1.051-2.233C6.076,9.873,5.777,9.452,5.482,9.151
		C5.177,8.85,4.752,8.548,4.206,8.245C3.659,7.94,2.924,7.596,2,7.216V6.903c0.929-0.381,1.667-0.724,2.214-1.028
		C4.76,5.57,5.182,5.269,5.482,4.968c0.295-0.3,0.595-0.721,0.899-1.265c0.305-0.543,0.655-1.288,1.051-2.232h0.312
		c0.393,0.945,0.74,1.689,1.043,2.232c0.307,0.543,0.609,0.965,0.908,1.264c0.295,0.3,0.715,0.602,1.26,0.907
		c0.547,0.304,1.287,0.647,2.217,1.028v0.314H13.17z M12.692,7.086V7.024c-0.711-0.07-1.393-0.198-2.041-0.38
		c-0.648-0.183-1.283-0.429-1.908-0.739C8.432,5.279,8.186,4.644,8,3.993c-0.186-0.65-0.314-1.329-0.387-2.035H7.555
		C7.483,2.664,7.354,3.341,7.17,3.993c-0.187,0.65-0.432,1.287-0.737,1.913c-0.65,0.31-1.299,0.557-1.947,0.743
		S3.171,6.959,2.48,7.024v0.062c0.691,0.07,1.36,0.199,2.008,0.385s1.296,0.434,1.947,0.742c0.31,0.646,0.557,1.293,0.74,1.943
		c0.182,0.649,0.309,1.318,0.381,2.004h0.061c0.072-0.686,0.199-1.354,0.381-2.004c0.182-0.65,0.432-1.299,0.746-1.943
		c0.625-0.309,1.26-0.559,1.906-0.742C11.299,7.286,11.981,7.156,12.692,7.086z"/>
</g>
</svg>
