<?xml version="1.0" encoding="utf-8"?>
<!-- Generator: Adobe Illustrator 15.1.0, SVG Export Plug-In . SVG Version: 6.00 Build 0)  -->
<!DOCTYPE svg PUBLIC "-//W3C//DTD SVG 1.1//EN" "http://www.w3.org/Graphics/SVG/1.1/DTD/svg11.dtd">
<svg version="1.1" id="Layer_1" xmlns="http://www.w3.org/2000/svg" xmlns:xlink="http://www.w3.org/1999/xlink" x="0px" y="0px"
	 width="14.172px" height="14.172px" viewBox="0 0 14.172 14.172" enable-background="new 0 0 14.172 14.172" xml:space="preserve">
<g enable-background="new    ">
	<path d="M9.403,3.77c0-0.531-0.102-0.912-0.303-1.143S8.569,2.28,8.108,2.28c-0.918,0-1.62,0.658-2.104,1.975L5.911,4.52
		C5.34,6.062,4.508,6.833,3.414,6.833c-0.438,0-0.849-0.169-1.233-0.507C1.797,5.988,1.604,5.628,1.604,5.246
		c0-0.195,0.092-0.293,0.275-0.293c0.121,0,0.244,0.154,0.369,0.463C2.482,5.975,2.873,6.253,3.42,6.253
		c0.418,0,0.759-0.134,1.022-0.401s0.562-0.78,0.894-1.538l0.217-0.48C6.19,2.412,7.049,1.701,8.131,1.701
		c1.229,0,1.846,0.688,1.846,2.068h0.598c0.41,0,0.672,0.056,0.787,0.167c0.115,0.111,0.174,0.364,0.174,0.759v4.458
		c0,0.617-0.219,1.145-0.654,1.58c-0.435,0.435-0.961,0.653-1.578,0.653c-0.613,0-1.139-0.218-1.574-0.653s-0.653-0.961-0.653-1.58
		V4.694c0-0.379,0.062-0.628,0.185-0.747c0.123-0.119,0.383-0.179,0.777-0.179L9.403,3.77L9.403,3.77z M9.549,4.056H8.022
		c-0.283,0-0.463,0.037-0.541,0.111C7.402,4.243,7.363,4.411,7.363,4.673v0.93h2.187V4.056z M7.363,5.891v3.264
		c0,0.535,0.188,0.992,0.569,1.373C8.311,10.91,8.768,11.1,9.303,11.1c0.539,0,0.998-0.189,1.377-0.568s0.568-0.838,0.568-1.377
		V5.891H7.363z M9.836,4.056v1.547h1.412v-0.93c0-0.274-0.037-0.445-0.111-0.515c-0.073-0.068-0.256-0.104-0.545-0.104L9.836,4.056
		L9.836,4.056z"/>
</g>
</svg>
