<?xml version="1.0" encoding="utf-8"?>
<!-- Generator: Adobe Illustrator 15.1.0, SVG Export Plug-In . SVG Version: 6.00 Build 0)  -->
<!DOCTYPE svg PUBLIC "-//W3C//DTD SVG 1.1//EN" "http://www.w3.org/Graphics/SVG/1.1/DTD/svg11.dtd">
<svg version="1.1" id="Layer_1" xmlns="http://www.w3.org/2000/svg" xmlns:xlink="http://www.w3.org/1999/xlink" x="0px" y="0px"
	 width="14.172px" height="14.172px" viewBox="0 0 14.172 14.172" enable-background="new 0 0 14.172 14.172" xml:space="preserve">
<g enable-background="new    ">
	<path d="M6.999,12.002c-1.297,0-2.403-0.458-3.317-1.372C2.765,9.715,2.308,8.607,2.308,7.312c0-1.296,0.458-2.403,1.375-3.317
		C4.6,3.08,5.706,2.623,6.999,2.623c1.297,0,2.401,0.457,3.317,1.373c0.914,0.914,1.373,2.021,1.373,3.317
		c0,1.294-0.459,2.403-1.373,3.318C9.4,11.544,8.295,12.002,6.999,12.002z M6.999,11.691c1.209,0,2.239-0.428,3.097-1.282
		c0.854-0.856,1.284-1.89,1.284-3.097c0-1.208-0.43-2.24-1.284-3.096C9.238,3.36,8.208,2.933,6.999,2.933S4.758,3.36,3.902,4.216
		C3.046,5.071,2.619,6.104,2.619,7.312c0,1.208,0.428,2.24,1.283,3.097C4.757,11.264,5.79,11.691,6.999,11.691z M6.999,8.719
		c-0.389,0-0.721-0.138-0.994-0.412C5.729,8.032,5.59,7.702,5.59,7.312s0.139-0.72,0.414-0.995C6.278,6.042,6.61,5.904,6.999,5.904
		s0.722,0.138,0.994,0.413c0.274,0.274,0.413,0.606,0.413,0.995c0,0.39-0.139,0.721-0.413,0.995
		C7.719,8.582,7.387,8.719,6.999,8.719z"/>
</g>
</svg>
