<?xml version="1.0" encoding="utf-8"?>
<!-- Generator: Adobe Illustrator 15.1.0, SVG Export Plug-In . SVG Version: 6.00 Build 0)  -->
<!DOCTYPE svg PUBLIC "-//W3C//DTD SVG 1.1//EN" "http://www.w3.org/Graphics/SVG/1.1/DTD/svg11.dtd">
<svg version="1.1" id="Layer_1" xmlns="http://www.w3.org/2000/svg" xmlns:xlink="http://www.w3.org/1999/xlink" x="0px" y="0px"
	 width="14.172px" height="14.172px" viewBox="0 0 14.172 14.172" enable-background="new 0 0 14.172 14.172" xml:space="preserve">
<g enable-background="new    ">
	<path d="M8.043,9.191l0.954,0.963c-0.937,0.876-1.95,1.313-3.042,1.313c-1.302,0-2.398-0.431-3.29-1.291
		C1.775,9.315,1.33,8.24,1.33,6.95c0-0.811,0.204-1.561,0.612-2.25C2.35,4.009,2.9,3.465,3.593,3.066
		c0.693-0.398,1.444-0.599,2.254-0.599c1.104,0,2.151,0.444,3.141,1.332L8.043,4.753C7.359,4.129,6.63,3.818,5.856,3.818
		c-0.894,0-1.648,0.312-2.263,0.936C2.978,5.377,2.67,6.139,2.67,7.04c0,0.84,0.316,1.562,0.95,2.169
		c0.633,0.605,1.375,0.909,2.228,0.909C6.633,10.118,7.366,9.808,8.043,9.191z M9.538,4.583l2.484,2.394L9.538,9.352V7.759H5.821
		V6.175h3.717V4.583z"/>
</g>
</svg>
