<?xml version="1.0" encoding="utf-8"?>
<!-- Generator: Adobe Illustrator 15.1.0, SVG Export Plug-In . SVG Version: 6.00 Build 0)  -->
<!DOCTYPE svg PUBLIC "-//W3C//DTD SVG 1.1//EN" "http://www.w3.org/Graphics/SVG/1.1/DTD/svg11.dtd">
<svg version="1.1" id="Layer_1" xmlns="http://www.w3.org/2000/svg" xmlns:xlink="http://www.w3.org/1999/xlink" x="0px" y="0px"
	 width="14.172px" height="14.172px" viewBox="0 0 14.172 14.172" enable-background="new 0 0 14.172 14.172" xml:space="preserve">
<g enable-background="new    ">
	<path d="M6.138,1.654c0-0.387,0.181-0.581,0.543-0.581c0.363,0,0.544,0.194,0.544,0.581c0.936,0.099,1.654,0.508,2.153,1.229
		c0.198,0.284,0.369,0.68,0.514,1.188c0.144,0.508,0.216,0.967,0.216,1.376v0.486c0,0.45,0.077,0.846,0.233,1.186
		c0.155,0.339,0.474,0.823,0.954,1.448l0.257,0.338c0.206,0.27,0.312,0.522,0.312,0.756c0,0.553-0.488,1.009-1.463,1.367
		c-0.976,0.358-2.215,0.537-3.72,0.537c-1.508,0-2.749-0.179-3.722-0.537C1.986,10.669,1.5,10.213,1.5,9.661
		c0-0.233,0.104-0.486,0.311-0.756l0.256-0.338c0.481-0.625,0.798-1.108,0.952-1.448c0.153-0.339,0.23-0.735,0.23-1.186V5.447
		c0-0.409,0.073-0.868,0.219-1.376s0.318-0.904,0.516-1.188C4.484,2.162,5.202,1.753,6.138,1.654z M3.606,8.648
		C2.422,8.995,1.832,9.355,1.832,9.729c0,0.409,0.478,0.762,1.433,1.059c0.956,0.297,2.093,0.445,3.414,0.445
		c1.339,0,2.482-0.148,3.432-0.445c0.947-0.297,1.422-0.654,1.422-1.073c0-0.364-0.489-0.688-1.472-0.972
		C9.08,8.459,7.957,8.318,6.694,8.318c-0.194,0-0.436,0.006-0.725,0.021c0.036,0.116,0.054,0.223,0.054,0.315
		c0,0.347-0.116,0.641-0.347,0.882c-0.232,0.241-0.514,0.36-0.848,0.36c-0.351,0-0.642-0.118-0.875-0.354
		C3.722,9.306,3.606,9.008,3.606,8.648z M2.391,8.715C3.594,8.229,5.028,7.987,6.69,7.987c1.659,0,3.09,0.242,4.293,0.729
		c-0.49-0.661-0.813-1.164-0.971-1.509C9.855,6.863,9.777,6.487,9.777,6.083L9.75,5.462c0-0.878-0.193-1.647-0.581-2.31
		C8.687,2.321,7.86,1.904,6.688,1.904s-2,0.417-2.487,1.248c-0.383,0.663-0.574,1.432-0.574,2.31L3.606,6.083
		c0,0.405-0.079,0.777-0.237,1.117C3.212,7.54,2.886,8.045,2.391,8.715z"/>
</g>
</svg>
