<?xml version="1.0" encoding="utf-8"?>
<!-- Generator: Adobe Illustrator 15.1.0, SVG Export Plug-In . SVG Version: 6.00 Build 0)  -->
<!DOCTYPE svg PUBLIC "-//W3C//DTD SVG 1.1//EN" "http://www.w3.org/Graphics/SVG/1.1/DTD/svg11.dtd">
<svg version="1.1" id="Layer_1" xmlns="http://www.w3.org/2000/svg" xmlns:xlink="http://www.w3.org/1999/xlink" x="0px" y="0px"
	 width="14.172px" height="14.172px" viewBox="0 0 14.172 14.172" enable-background="new 0 0 14.172 14.172" xml:space="preserve">
<g enable-background="new    ">
	<path d="M7.453,3.745v6.538c0,0.441-0.198,0.857-0.593,1.253c-0.376,0.357-0.803,0.6-1.278,0.726
		C5.205,12.36,4.864,12.41,4.559,12.41c-0.655,0-1.108-0.211-1.359-0.634c-0.098-0.169-0.148-0.357-0.148-0.564
		c0-0.357,0.145-0.71,0.432-1.056C3.772,9.81,4.155,9.553,4.632,9.382c0.351-0.117,0.697-0.176,1.04-0.176
		c0.441,0,0.823,0.086,1.147,0.256V1.565h0.202l0.308,0.403c0.305,0.26,0.604,0.52,0.898,0.781c0.661,0.6,1.189,1.188,1.582,1.762
		c0.545,0.808,0.81,1.565,0.792,2.273c-0.011,0.404-0.18,0.956-0.513,1.655c-0.26,0.565-0.552,1.088-0.881,1.568
		c-0.328,0.479-0.491,0.648-0.491,0.504c0-0.055,0.032-0.152,0.095-0.297c0.233-0.52,0.466-1.044,0.699-1.573
		c0.333-0.799,0.502-1.418,0.511-1.857c0.02-0.565-0.195-1.117-0.646-1.654C9.044,4.717,8.626,4.354,8.125,4.04
		C7.676,3.762,7.453,3.663,7.453,3.745z"/>
</g>
</svg>
