<?xml version="1.0" encoding="utf-8"?>
<!-- Generator: Adobe Illustrator 15.1.0, SVG Export Plug-In . SVG Version: 6.00 Build 0)  -->
<!DOCTYPE svg PUBLIC "-//W3C//DTD SVG 1.1//EN" "http://www.w3.org/Graphics/SVG/1.1/DTD/svg11.dtd">
<svg version="1.1" id="Layer_1" xmlns="http://www.w3.org/2000/svg" xmlns:xlink="http://www.w3.org/1999/xlink" x="0px" y="0px"
	 width="14.172px" height="14.172px" viewBox="0 0 14.172 14.172" enable-background="new 0 0 14.172 14.172" xml:space="preserve">
<g enable-background="new    ">
	<path d="M11.961,12.137H1.127v-1.02H5.19L6.197,7.46c-0.092-0.039-0.22-0.058-0.382-0.058c-0.44,0-0.784,0.061-1.03,0.186
		C4.553,7.271,4.26,7.013,3.905,6.812C3.534,6.603,3.156,6.5,2.771,6.5c-0.378,0-0.694,0.059-0.949,0.173
		C1.929,6.21,2.118,5.717,2.388,5.191c0.231-0.432,0.575-0.826,1.03-1.18c0.447-0.332,0.922-0.567,1.424-0.706
		c0.44-0.125,0.903-0.186,1.39-0.186c0.416,0,0.775,0.038,1.076,0.116C7.377,2.997,7.455,2.737,7.54,2.46
		c0.077-0.125,0.182-0.186,0.312-0.186c0.254,0,0.382,0.111,0.382,0.335c0,0.039-0.065,0.305-0.196,0.798
		c0.964,0.363,1.748,0.877,2.349,1.54c0.688,0.756,1.031,1.604,1.031,2.547c0,0.555-0.117,1.107-0.348,1.654
		C10.577,8.541,9.92,8.236,9.102,8.236c-0.417,0-0.768,0.077-1.053,0.231C7.825,8.12,7.458,7.827,6.95,7.588l-0.984,3.519h5.996
		V12.137z M6.741,3.803c-0.386-0.031-0.606-0.046-0.66-0.046c-1.528,0-2.64,0.675-3.334,2.025c0.71,0.023,1.355,0.267,1.933,0.73
		c0.154-0.556,0.409-1.077,0.764-1.563C5.822,4.439,6.255,4.058,6.741,3.803z M8.165,6.245c0-0.786-0.224-1.543-0.672-2.269
		c-0.509,0.278-0.96,0.66-1.354,1.146C5.73,5.631,5.46,6.161,5.328,6.708c0.155-0.023,0.344-0.036,0.568-0.036
		c0.802,0,1.505,0.255,2.106,0.765C8.111,6.997,8.165,6.6,8.165,6.245z M10.723,7.623c0-0.779-0.232-1.471-0.695-2.072
		C9.603,4.995,9.013,4.559,8.257,4.243c0.378,0.67,0.567,1.373,0.567,2.107c0,0.401-0.047,0.813-0.14,1.239
		c0.263-0.023,0.448-0.036,0.557-0.036c0.524,0,1.011,0.124,1.458,0.371c0-0.03,0.004-0.079,0.011-0.146
		C10.719,7.712,10.723,7.662,10.723,7.623z"/>
</g>
</svg>
