<?xml version="1.0" encoding="utf-8"?>
<!-- Generator: Adobe Illustrator 15.1.0, SVG Export Plug-In . SVG Version: 6.00 Build 0)  -->
<!DOCTYPE svg PUBLIC "-//W3C//DTD SVG 1.1//EN" "http://www.w3.org/Graphics/SVG/1.1/DTD/svg11.dtd">
<svg version="1.1" id="Layer_1" xmlns="http://www.w3.org/2000/svg" xmlns:xlink="http://www.w3.org/1999/xlink" x="0px" y="0px"
	 width="14.172px" height="14.172px" viewBox="0 0 14.172 14.172" enable-background="new 0 0 14.172 14.172" xml:space="preserve">
<g enable-background="new    ">
	<path d="M12.155,11.639l0.253-0.363l-1.554-2.004l0.208-0.293L3.131,2.534C2.287,2.85,1.83,3.511,1.764,4.514l7.919,6.399
		l0.215-0.293L12.155,11.639z M8.58,9.67c0.12-0.703,0.47-1.203,1.049-1.5l0.873,0.695C9.937,9.129,9.583,9.627,9.436,10.36
		L8.58,9.67z M3.994,5.943c0.113-0.714,0.465-1.212,1.055-1.494l3.724,3.03C8.186,7.784,7.836,8.282,7.723,8.973L7.246,8.581
		c-0.077-0.518-0.396-1.02-0.958-1.51c-0.562-0.49-1.101-0.735-1.613-0.735c-0.032,0-0.093,0.006-0.181,0.018L3.994,5.943z
		 M2.252,4.52c0.125-0.695,0.471-1.188,1.038-1.477l0.879,0.715C3.598,4.055,3.249,4.547,3.121,5.235L2.252,4.52z"/>
</g>
</svg>
