<?xml version="1.0" encoding="utf-8"?>
<!-- Generator: Adobe Illustrator 15.1.0, SVG Export Plug-In . SVG Version: 6.00 Build 0)  -->
<!DOCTYPE svg PUBLIC "-//W3C//DTD SVG 1.1//EN" "http://www.w3.org/Graphics/SVG/1.1/DTD/svg11.dtd">
<svg version="1.1" id="Layer_1" xmlns="http://www.w3.org/2000/svg" xmlns:xlink="http://www.w3.org/1999/xlink" x="0px" y="0px"
	 width="14.172px" height="14.172px" viewBox="0 0 14.172 14.172" enable-background="new 0 0 14.172 14.172" xml:space="preserve">
<path d="M7.146,11.24v-1.212C6.378,9.944,5.851,9.656,5.419,9.189c-0.42-0.457-0.684-1.152-0.684-2.027
	c0-1.547,0.947-2.723,2.41-2.962V3h0.756v1.176c0.54,0.012,1.02,0.156,1.308,0.3l-0.24,0.803c-0.252-0.144-0.659-0.3-1.259-0.3
	c-1.176,0-1.919,0.959-1.919,2.147c0,1.319,0.827,2.099,1.883,2.099c0.647,0,1.079-0.156,1.367-0.3l0.18,0.768
	c-0.228,0.132-0.731,0.312-1.319,0.349v1.199H7.146z"/>
</svg>
