<?xml version="1.0" encoding="utf-8"?>
<!-- Generator: Adobe Illustrator 15.1.0, SVG Export Plug-In . SVG Version: 6.00 Build 0)  -->
<!DOCTYPE svg PUBLIC "-//W3C//DTD SVG 1.1//EN" "http://www.w3.org/Graphics/SVG/1.1/DTD/svg11.dtd">
<svg version="1.1" id="Layer_1" xmlns="http://www.w3.org/2000/svg" xmlns:xlink="http://www.w3.org/1999/xlink" x="0px" y="0px"
	 width="14.172px" height="14.172px" viewBox="0 0 14.172 14.172" enable-background="new 0 0 14.172 14.172" xml:space="preserve">
<g enable-background="new    ">
	<path d="M1.606,1.919h3.622L3.776,3.371l3.312,3.316L6.372,7.404l-3.319-3.31L1.606,5.542V1.919z M1.606,7.044h1.025
		c0,1.132,0.4,2.099,1.202,2.897c0.801,0.802,1.767,1.201,2.898,1.201c1.132,0,2.098-0.399,2.898-1.201
		c0.801-0.801,1.201-1.767,1.201-2.897c0-1.126-0.392-2.088-1.177-2.884C8.87,3.364,7.92,2.965,6.807,2.965V1.94
		c1.4,0,2.59,0.497,3.574,1.492c0.982,0.995,1.476,2.199,1.476,3.611c0,1.418-0.501,2.626-1.5,3.626
		c-1,0.999-2.207,1.499-3.625,1.499c-1.417,0-2.625-0.5-3.625-1.499C2.106,9.67,1.606,8.462,1.606,7.044z"/>
</g>
</svg>
