<?xml version="1.0" encoding="utf-8"?>
<!-- Generator: Adobe Illustrator 15.1.0, SVG Export Plug-In . SVG Version: 6.00 Build 0)  -->
<!DOCTYPE svg PUBLIC "-//W3C//DTD SVG 1.1//EN" "http://www.w3.org/Graphics/SVG/1.1/DTD/svg11.dtd">
<svg version="1.1" id="Layer_1" xmlns="http://www.w3.org/2000/svg" xmlns:xlink="http://www.w3.org/1999/xlink" x="0px" y="0px"
	 width="14.172px" height="14.172px" viewBox="0 0 14.172 14.172" enable-background="new 0 0 14.172 14.172" xml:space="preserve">
<g enable-background="new    ">
	<path d="M1,11.386l1.934-2.971l8.057-6.135c0.922,0.277,1.424,0.928,1.506,1.951l-8.081,6.135L1,11.386z M2.078,10.25l0.334,0.422
		l1.822-0.539C4.5,9.898,4.633,9.724,4.633,9.611c0-0.047-0.013-0.081-0.038-0.103s-0.065-0.032-0.12-0.032
		c-0.113,0-0.309,0.068-0.586,0.205C4.123,9.458,4.24,9.273,4.24,9.125c0-0.074-0.021-0.13-0.062-0.167s-0.104-0.056-0.19-0.056
		c-0.09,0-0.273,0.066-0.551,0.199C3.684,8.89,3.807,8.705,3.807,8.544c0-0.043-0.012-0.075-0.035-0.097S3.711,8.416,3.66,8.416
		c-0.176,0-0.363,0.076-0.562,0.229L2.078,10.25z M3.648,8.228C3.715,8.212,3.77,8.205,3.812,8.205c0.156,0,0.234,0.074,0.234,0.223
		L4.041,8.486l4.858-3.721C8.77,4.667,8.643,4.591,8.518,4.537L3.648,8.228z M4.211,8.708c0.18,0.043,0.27,0.158,0.27,0.346
		l4.881-3.738C9.303,5.187,9.221,5.072,9.116,4.97L4.211,8.708z M4.65,9.283c0.074,0.004,0.129,0.022,0.164,0.056
		s0.053,0.081,0.053,0.144c0,0.055-0.025,0.135-0.076,0.24l4.852-3.709C9.596,5.845,9.545,5.699,9.491,5.574L4.65,9.283z
		 M9.555,3.74c0.59,0.312,0.957,0.809,1.102,1.488l1.506-1.143c-0.137-0.719-0.508-1.209-1.113-1.471L9.555,3.74z"/>
</g>
</svg>
