<?xml version="1.0" encoding="utf-8"?>
<!-- Generator: Adobe Illustrator 15.1.0, SVG Export Plug-In . SVG Version: 6.00 Build 0)  -->
<!DOCTYPE svg PUBLIC "-//W3C//DTD SVG 1.1//EN" "http://www.w3.org/Graphics/SVG/1.1/DTD/svg11.dtd">
<svg version="1.1" id="Layer_1" xmlns="http://www.w3.org/2000/svg" xmlns:xlink="http://www.w3.org/1999/xlink" x="0px" y="0px"
	 width="14.172px" height="14.172px" viewBox="0 0 14.172 14.172" enable-background="new 0 0 14.172 14.172" xml:space="preserve">
<g enable-background="new    ">
	<path d="M12.94,9.833c-0.293,0.344-0.645,0.516-1.055,0.516c-0.648,0-1.211-0.139-1.688-0.416c-0.487-0.281-0.751-0.635-0.79-1.061
		C8.754,9.02,8.069,9.094,7.35,9.094c-1.477,0-2.737-0.279-3.782-0.841S2,7.017,2,6.224C2,5.43,2.522,4.754,3.567,4.196
		S5.873,3.357,7.35,3.357c1.48,0,2.742,0.279,3.788,0.838c1.045,0.559,1.567,1.234,1.567,2.027c0,0.758-0.483,1.412-1.453,1.964
		c-0.008,0.062-0.012,0.125-0.012,0.188c0,0.406,0.158,0.74,0.475,1.002C12.034,9.637,12.44,9.79,12.94,9.833z"/>
</g>
</svg>
