<?xml version="1.0" encoding="utf-8"?>
<!-- Generator: Adobe Illustrator 15.1.0, SVG Export Plug-In . SVG Version: 6.00 Build 0)  -->
<!DOCTYPE svg PUBLIC "-//W3C//DTD SVG 1.1//EN" "http://www.w3.org/Graphics/SVG/1.1/DTD/svg11.dtd">
<svg version="1.1" id="Layer_1" xmlns="http://www.w3.org/2000/svg" xmlns:xlink="http://www.w3.org/1999/xlink" x="0px" y="0px"
	 width="14.172px" height="14.172px" viewBox="0 0 14.172 14.172" enable-background="new 0 0 14.172 14.172" xml:space="preserve">
<g enable-background="new    ">
	<path d="M6.595,10.025C6.938,9.835,7.54,9.558,8.401,9.193C8.444,9.171,8.554,9.125,8.734,9.05C9.04,8.74,9.293,8.505,9.495,8.349
		c0.2-0.154,0.346-0.232,0.436-0.232c0.11,0,0.192,0.033,0.245,0.102s0.079,0.176,0.079,0.318c0,0.121-0.018,0.293-0.055,0.514
		c0.227,0.285,0.34,0.496,0.34,0.635c0,0.115-0.031,0.203-0.095,0.266c-0.063,0.061-0.158,0.09-0.285,0.09
		c-0.063,0-0.159-0.033-0.289-0.098c-0.13-0.066-0.294-0.164-0.495-0.291c-0.486,0.09-1.184,0.363-2.092,0.816
		c0.116,0.068,0.201,0.119,0.254,0.15c0.316,0.18,0.707,0.42,1.172,0.721c0.059,0.037,0.19,0.117,0.396,0.238
		c0.961,0.111,1.441,0.354,1.441,0.729c0,0.244-0.258,0.406-0.775,0.492c-0.244,0.295-0.444,0.443-0.603,0.443
		c-0.19,0-0.375-0.248-0.555-0.744c-0.016-0.053-0.045-0.131-0.087-0.23c-0.74-0.607-1.404-1.066-1.997-1.379
		c-0.724,0.406-1.394,0.893-2.012,1.459c-0.084,0.596-0.264,0.895-0.539,0.895c-0.174,0-0.375-0.17-0.602-0.508
		c-0.539,0-0.808-0.146-0.808-0.443c0-0.217,0.1-0.373,0.301-0.471c0.201-0.098,0.623-0.195,1.267-0.289
		c0.483-0.354,1.055-0.709,1.718-1.062c-0.89-0.443-1.616-0.715-2.177-0.816C3.547,9.769,3.426,9.857,3.315,9.914
		c-0.111,0.059-0.214,0.088-0.309,0.088c-0.137,0-0.242-0.029-0.313-0.088C2.622,9.857,2.586,9.771,2.586,9.662
		c0-0.102,0.116-0.305,0.349-0.611C2.882,8.833,2.855,8.671,2.855,8.56c0-0.158,0.032-0.277,0.095-0.354s0.156-0.113,0.277-0.113
		c0.121,0,0.28,0.078,0.475,0.236S4.134,8.728,4.408,9.05C5.016,9.267,5.745,9.591,6.595,10.025z M7.538,6.571L7.379,6.976
		c-0.2,0.068-0.471,0.102-0.814,0.102c-0.168,0-0.321-0.008-0.458-0.027C5.972,7.033,5.853,7.007,5.753,6.976L5.594,6.571
		L4.479,6.041L4.376,5.375C4.361,5.248,4.247,5,4.036,4.63C3.872,4.355,3.791,3.915,3.791,3.307c0-0.708,0.256-1.281,0.768-1.719
		C5.071,1.15,5.739,0.931,6.563,0.931c0.824,0,1.492,0.219,2.004,0.658C9.08,2.026,9.336,2.6,9.336,3.307
		c0,0.607-0.17,1.202-0.508,1.783C8.797,5.153,8.77,5.248,8.75,5.375L8.647,6.041L7.538,6.571z M4.749,4.599
		c0,0.507,0.22,0.76,0.661,0.76c0.446,0,0.669-0.272,0.669-0.816c0-0.449-0.215-0.673-0.646-0.673c-0.229,0-0.4,0.061-0.514,0.182
		C4.806,4.173,4.749,4.355,4.749,4.599z M8.06,6.753L7.862,7.539l-0.482,0.42C7.294,8.121,7.183,8.244,7.043,8.326
		S6.739,8.449,6.55,8.449c-0.379,0-0.655-0.164-0.829-0.49l-0.486-0.42L5.036,6.753l0.287-0.07c0.031,0.078,0.055,0.139,0.071,0.182
		C5.515,7.144,5.648,7.33,5.793,7.419c0.145,0.09,0.386,0.135,0.724,0.135c0.379,0,0.641-0.043,0.787-0.127s0.278-0.271,0.399-0.562
		c0.016-0.043,0.04-0.104,0.071-0.182L8.06,6.753z M6.571,5.24C6.476,5.398,6.378,5.539,6.278,5.66
		c-0.127,0.143-0.19,0.253-0.19,0.333c0,0.084,0.025,0.148,0.075,0.19c0.05,0.042,0.123,0.063,0.218,0.063
		c0.058,0,0.122-0.021,0.19-0.063c0.069,0.042,0.132,0.063,0.19,0.063c0.195,0,0.293-0.087,0.293-0.261
		c0-0.074-0.063-0.182-0.19-0.325C6.758,5.533,6.661,5.394,6.571,5.24z M7.094,4.599c0,0.507,0.221,0.76,0.665,0.76
		c0.443,0,0.665-0.272,0.665-0.816c0-0.227-0.054-0.396-0.162-0.507S7.992,3.87,7.775,3.87C7.321,3.87,7.094,4.113,7.094,4.599z"/>
</g>
</svg>
