<?xml version="1.0" encoding="utf-8"?>
<!-- Generator: Adobe Illustrator 15.1.0, SVG Export Plug-In . SVG Version: 6.00 Build 0)  -->
<!DOCTYPE svg PUBLIC "-//W3C//DTD SVG 1.1//EN" "http://www.w3.org/Graphics/SVG/1.1/DTD/svg11.dtd">
<svg version="1.1" id="Layer_1" xmlns="http://www.w3.org/2000/svg" xmlns:xlink="http://www.w3.org/1999/xlink" x="0px" y="0px"
	 width="14.172px" height="14.172px" viewBox="0 0 14.172 14.172" enable-background="new 0 0 14.172 14.172" xml:space="preserve">
<g enable-background="new    ">
	<path d="M8.334,10.893c-0.41,0.362-0.819,0.629-1.231,0.799c-0.413,0.17-0.869,0.256-1.37,0.256c-0.628,0-1.169-0.127-1.625-0.381
		c-0.455-0.254-0.815-0.609-1.081-1.066C2.762,10.042,2.63,9.553,2.63,9.035c0-0.651,0.214-1.267,0.644-1.841
		C3.703,6.618,4.252,6.156,4.92,5.811C4.874,5.742,4.842,5.689,4.825,5.654c-0.277-0.438-0.453-0.744-0.531-0.92
		C4.216,4.56,4.159,4.395,4.121,4.242C4.083,4.089,4.065,3.94,4.065,3.796c0-0.323,0.098-0.643,0.294-0.959
		c0.196-0.317,0.461-0.561,0.795-0.73c0.333-0.17,0.718-0.255,1.149-0.255c0.617,0,1.104,0.163,1.459,0.488
		c0.359,0.326,0.535,0.707,0.535,1.145c0,0.501-0.174,0.99-0.525,1.465C7.42,5.426,6.977,5.818,6.441,6.13
		c0.687,1.176,1.383,2.218,2.091,3.129c0.213-0.312,0.371-0.651,0.473-1.021c0.102-0.368,0.15-0.91,0.15-1.625V6.277h1.141v0.146
		c0,1.44-0.381,2.646-1.141,3.613c0.328,0.409,0.835,0.95,1.521,1.625h-1.66c-0.148-0.149-0.299-0.317-0.449-0.502L8.334,10.893z
		 M5.413,6.641C4.912,6.898,4.521,7.245,4.242,7.673c-0.28,0.429-0.419,0.868-0.419,1.317c0,0.369,0.089,0.707,0.268,1.016
		c0.178,0.309,0.438,0.55,0.778,0.727c0.34,0.177,0.668,0.264,0.985,0.264c0.219,0,0.477-0.047,0.773-0.143
		c0.295-0.096,0.672-0.336,1.127-0.722C7.473,9.792,7.101,9.288,6.64,8.62C6.178,7.951,5.77,7.292,5.413,6.641z M5.949,5.267
		c0.427-0.242,0.749-0.521,0.968-0.838C7.135,4.111,7.245,3.832,7.245,3.59c0-0.127-0.041-0.261-0.125-0.402S6.911,2.938,6.74,2.86
		C6.57,2.782,6.407,2.744,6.25,2.744c-0.322,0-0.563,0.106-0.725,0.32C5.364,3.275,5.283,3.495,5.283,3.718
		c0,0.109,0.017,0.23,0.052,0.363c0.034,0.133,0.079,0.261,0.134,0.385C5.523,4.59,5.643,4.799,5.827,5.092
		C5.856,5.128,5.897,5.186,5.949,5.267z"/>
</g>
</svg>
