<?xml version="1.0" encoding="utf-8"?>
<!-- Generator: Adobe Illustrator 15.1.0, SVG Export Plug-In . SVG Version: 6.00 Build 0)  -->
<!DOCTYPE svg PUBLIC "-//W3C//DTD SVG 1.1//EN" "http://www.w3.org/Graphics/SVG/1.1/DTD/svg11.dtd">
<svg version="1.1" id="Layer_1" xmlns="http://www.w3.org/2000/svg" xmlns:xlink="http://www.w3.org/1999/xlink" x="0px" y="0px"
	 width="14.172px" height="14.172px" viewBox="0 0 14.172 14.172" enable-background="new 0 0 14.172 14.172" xml:space="preserve">
<g enable-background="new    ">
	<path d="M8.897,8.614h1.443V8.69c0,0.391-0.146,0.779-0.438,1.168c-0.293,0.387-0.674,0.686-1.141,0.896
		c-0.469,0.21-1.034,0.315-1.7,0.315c-1.268,0-2.245-0.402-2.934-1.205C3.44,9.059,3.096,7.944,3.096,6.518
		c0-1.419,0.344-2.531,1.032-3.335c0.688-0.804,1.666-1.206,2.934-1.206c0.666,0,1.231,0.103,1.7,0.31
		C9.229,2.493,9.61,2.778,9.903,3.146c0.293,0.365,0.438,0.769,0.438,1.211v0.076H8.897V4.356C8.913,4.038,8.774,3.76,8.483,3.525
		C8.194,3.29,7.747,3.171,7.137,3.171c-0.716,0-1.32,0.265-1.808,0.794C4.84,4.494,4.596,5.344,4.596,6.518
		c0,1.18,0.245,2.035,0.733,2.563c0.488,0.527,1.092,0.793,1.808,0.793c0.607,0,1.053-0.118,1.334-0.354
		c0.283-0.234,0.426-0.513,0.426-0.83V8.614z"/>
</g>
</svg>
