<?xml version="1.0" encoding="utf-8"?>
<!-- Generator: Adobe Illustrator 15.1.0, SVG Export Plug-In . SVG Version: 6.00 Build 0)  -->
<!DOCTYPE svg PUBLIC "-//W3C//DTD SVG 1.1//EN" "http://www.w3.org/Graphics/SVG/1.1/DTD/svg11.dtd">
<svg version="1.1" id="Layer_1" xmlns="http://www.w3.org/2000/svg" xmlns:xlink="http://www.w3.org/1999/xlink" x="0px" y="0px"
	 width="14.172px" height="14.172px" viewBox="0 0 14.172 14.172" enable-background="new 0 0 14.172 14.172" xml:space="preserve">
<path d="M1.979,4.76l9.876-2.748C11.887,2.004,11.923,2,11.963,2c0.185,0,0.276,0.1,0.276,0.3v2.75c0,0.152-0.072,0.249-0.215,0.289
	L2.146,8.067c-0.04,0.02-0.075,0.028-0.107,0.028c-0.184,0-0.275-0.104-0.275-0.312V5.047C1.763,4.896,1.835,4.8,1.979,4.76z
	 M1.979,9.137l9.878-2.728c0.04-0.02,0.076-0.029,0.107-0.029c0.184,0,0.275,0.104,0.275,0.312v2.736
	c0,0.152-0.072,0.248-0.216,0.288l-9.876,2.748c-0.024,0.008-0.061,0.012-0.108,0.012c-0.185,0-0.276-0.1-0.276-0.3V9.425
	C1.763,9.272,1.835,9.176,1.979,9.137z M2.352,5.279v2.11l9.3-2.567V2.691L2.352,5.279z M2.352,9.656v2.128l9.3-2.588V7.088
	L2.352,9.656z"/>
</svg>
