<?xml version="1.0" encoding="utf-8"?>
<!-- Generator: Adobe Illustrator 15.1.0, SVG Export Plug-In . SVG Version: 6.00 Build 0)  -->
<!DOCTYPE svg PUBLIC "-//W3C//DTD SVG 1.1//EN" "http://www.w3.org/Graphics/SVG/1.1/DTD/svg11.dtd">
<svg version="1.1" id="Layer_1" xmlns="http://www.w3.org/2000/svg" xmlns:xlink="http://www.w3.org/1999/xlink" x="0px" y="0px"
	 width="14.172px" height="14.172px" viewBox="0 0 14.172 14.172" enable-background="new 0 0 14.172 14.172" xml:space="preserve">
<g enable-background="new    ">
	<path d="M13.172,4.537c0,0.476-0.095,0.935-0.282,1.379c-0.188,0.444-0.449,0.833-0.784,1.167l-4.771,4.729l-0.66-0.65l4.772-4.729
		c0.525-0.511,0.788-1.143,0.788-1.896c0-0.632-0.208-1.156-0.623-1.571c-0.416-0.416-0.939-0.623-1.571-0.623
		c-0.724,0-1.363,0.266-1.917,0.798L2.872,8.35C2.453,8.77,2.244,9.241,2.244,9.766c0,0.405,0.131,0.737,0.394,0.996
		c0.262,0.26,0.597,0.39,1.001,0.39c0.532,0,1.008-0.21,1.427-0.629l4.015-3.962C9.458,6.17,9.646,5.826,9.646,5.528
		c0-0.149-0.057-0.266-0.17-0.352C9.362,5.091,9.227,5.048,9.071,5.048c-0.34,0-0.646,0.142-0.916,0.426L4.534,9.053l-0.65-0.649
		l3.611-3.579c0.469-0.469,0.994-0.703,1.576-0.703c0.412,0,0.768,0.131,1.066,0.394c0.298,0.264,0.447,0.597,0.447,1.001
		c0,0.554-0.281,1.119-0.842,1.694l-4.016,3.962c-0.597,0.598-1.292,0.896-2.087,0.896c-0.661,0-1.213-0.219-1.657-0.655
		s-0.666-0.985-0.666-1.646c0-0.78,0.298-1.469,0.895-2.065l5.251-5.208c0.739-0.718,1.598-1.076,2.578-1.076
		c0.888,0,1.632,0.298,2.231,0.895C12.873,2.907,13.172,3.649,13.172,4.537z"/>
</g>
</svg>
