<?xml version="1.0" encoding="utf-8"?>
<!-- Generator: Adobe Illustrator 15.1.0, SVG Export Plug-In . SVG Version: 6.00 Build 0)  -->
<!DOCTYPE svg PUBLIC "-//W3C//DTD SVG 1.1//EN" "http://www.w3.org/Graphics/SVG/1.1/DTD/svg11.dtd">
<svg version="1.1" id="Layer_1" xmlns="http://www.w3.org/2000/svg" xmlns:xlink="http://www.w3.org/1999/xlink" x="0px" y="0px"
	 width="14.172px" height="14.172px" viewBox="0 0 14.172 14.172" enable-background="new 0 0 14.172 14.172" xml:space="preserve">
<g>
	<path d="M12.188,7.872c-0.223,0.314-0.385,0.523-0.488,0.626c-0.104,0.104-0.154,0.169-0.154,0.195
		c0,0.071,0.012,0.146,0.033,0.229c0.021,0.081,0.045,0.174,0.068,0.276c0.025,0.104,0.047,0.216,0.066,0.338
		c0.018,0.122,0.027,0.258,0.027,0.406c0,0.149-0.027,0.288-0.086,0.415c-0.057,0.128-0.123,0.24-0.199,0.338
		s-0.152,0.181-0.23,0.248c-0.08,0.068-0.143,0.118-0.191,0.15c-0.049,0.033-0.09,0.062-0.123,0.086
		c-0.031,0.024-0.068,0.045-0.105,0.061c-0.037,0.017-0.082,0.029-0.135,0.037c-0.051,0.008-0.123,0.012-0.215,0.012
		s-0.18-0.002-0.266-0.008c-0.084-0.005-0.166-0.017-0.248-0.032c-0.08-0.017-0.164-0.04-0.248-0.069
		c-0.084-0.03-0.305-0.228-0.662-0.594S8.463,9.974,8.4,9.85c-0.062-0.125-0.1-0.2-0.113-0.225S8.211,9.492,8.104,9.3
		C7.994,9.107,7.932,8.995,7.916,8.962C7.9,8.93,7.887,8.9,7.875,8.873c-0.01-0.027-0.07-0.146-0.178-0.358
		c0.107,0.483,0.17,0.812,0.186,0.988C7.9,9.68,7.895,10.012,7.867,10.5s-0.068,0.809-0.125,0.96
		c-0.059,0.152-0.111,0.278-0.164,0.379c-0.051,0.101-0.1,0.175-0.143,0.224s-0.081,0.085-0.113,0.109
		c-0.033,0.024-0.07,0.045-0.113,0.062c-0.045,0.017-0.143,0.019-0.293,0.008c-0.152-0.011-0.242-0.043-0.27-0.098
		c0.012-0.032,0.025-0.06,0.041-0.081s0.039-0.049,0.069-0.081c0.03-0.033,0.067-0.073,0.114-0.122
		c0.045-0.049,0.123-0.135,0.231-0.257s0.178-0.214,0.208-0.276c0.029-0.062,0.068-0.194,0.117-0.395
		c0.049-0.201,0.082-0.365,0.098-0.492c0.016-0.128,0.025-0.215,0.029-0.261C7.557,10.133,7.551,10,7.533,9.78
		c-0.016-0.22-0.035-0.411-0.057-0.574C7.455,9.044,7.434,8.896,7.412,8.763s-0.04-0.234-0.053-0.305
		c-0.014-0.07-0.04-0.095-0.078-0.073c0,0.06,0,0.138,0,0.235S7.248,8.946,7.18,9.304c-0.068,0.358-0.144,0.661-0.228,0.907
		c-0.085,0.247-0.159,0.439-0.224,0.578c-0.065,0.139-0.123,0.251-0.175,0.338c-0.052,0.087-0.101,0.154-0.146,0.203
		s-0.091,0.095-0.134,0.139c-0.016,0.016-0.041,0.039-0.073,0.068c-0.032,0.03-0.069,0.062-0.11,0.094
		c-0.041,0.033-0.081,0.064-0.122,0.094c-0.041,0.03-0.168,0.084-0.382,0.163c-0.214,0.078-0.408,0.104-0.582,0.077
		c-0.174-0.027-0.296-0.049-0.366-0.065c-0.071-0.016-0.151-0.05-0.24-0.102s-0.159-0.129-0.208-0.231
		c-0.049-0.104-0.08-0.167-0.094-0.191c-0.013-0.024-0.046-0.088-0.097-0.191c-0.052-0.103-0.095-0.236-0.13-0.398
		c-0.035-0.163-0.06-0.278-0.073-0.346c-0.014-0.068-0.034-0.115-0.061-0.143c-0.027-0.027-0.075-0.05-0.143-0.069
		c-0.068-0.019-0.164-0.066-0.289-0.143C3.178,10.01,3.069,9.941,2.977,9.882s-0.152-0.11-0.179-0.15
		C2.771,9.69,2.721,9.601,2.647,9.463C2.574,9.324,2.527,9.185,2.505,9.044C2.483,8.902,2.485,8.728,2.509,8.519
		c0.024-0.208,0.051-0.356,0.082-0.443c0.03-0.087,0.058-0.158,0.085-0.216c0.027-0.057,0.054-0.106,0.081-0.15
		c0.027-0.043,0.066-0.098,0.118-0.162c0.051-0.065,0.117-0.131,0.195-0.195c0.079-0.065,0.175-0.131,0.289-0.195
		c0.114-0.065,0.32-0.143,0.619-0.232s0.487-0.139,0.565-0.146s0.358,0.016,0.838,0.069C5.862,6.9,6.164,6.948,6.289,6.989
		c0.125,0.04,0.262,0.079,0.411,0.114C6.849,7.139,6.936,7.162,6.96,7.176s0.048,0.018,0.069,0.013c0.006,0,0.008-0.011,0.008-0.032
		C6.956,7.118,6.871,7.069,6.781,7.01c-0.09-0.061-0.243-0.156-0.46-0.289S5.969,6.505,5.915,6.473
		C5.86,6.44,5.809,6.405,5.76,6.367s-0.095-0.082-0.138-0.13s-0.11-0.118-0.199-0.208C5.333,5.939,5.236,5.843,5.133,5.74
		S4.964,5.565,4.934,5.524c-0.03-0.041-0.059-0.084-0.085-0.13C4.821,5.348,4.767,5.253,4.686,5.109
		C4.604,4.966,4.543,4.863,4.503,4.8c-0.041-0.062-0.078-0.13-0.11-0.203C4.36,4.524,4.334,4.438,4.315,4.341
		S4.29,4.136,4.295,4.019c0.005-0.116,0.03-0.236,0.073-0.358s0.096-0.243,0.159-0.362c0.062-0.12,0.13-0.221,0.203-0.305
		s0.137-0.132,0.191-0.143s0.117-0.018,0.187-0.021c0.07-0.002,0.216,0.007,0.436,0.029c0.22,0.021,0.398,0.047,0.537,0.077
		c0.138,0.03,0.256,0.057,0.354,0.082S6.584,3.055,6.59,3.055c0.038,0.005,0.09-0.004,0.154-0.029
		C6.81,3.002,6.863,2.979,6.907,2.958c0.173-0.087,0.38-0.168,0.618-0.244C7.764,2.637,7.982,2.599,8.18,2.599
		c0.199,0,0.357,0.017,0.477,0.049C8.775,2.681,8.873,2.72,8.945,2.766C9.02,2.812,9.102,2.888,9.193,2.994
		C9.285,3.1,9.383,3.258,9.486,3.47C9.52,3.622,9.537,3.717,9.543,3.755s0.008,0.107,0.008,0.208c0,0.1-0.004,0.195-0.012,0.285
		S9.523,4.409,9.516,4.463S9.498,4.559,9.486,4.589c-0.01,0.03-0.02,0.058-0.023,0.085C9.408,4.848,9.361,4.994,9.32,5.114
		C9.279,5.233,9.232,5.353,9.182,5.472C9.129,5.591,9.08,5.683,9.035,5.748C8.988,5.813,8.932,5.885,8.863,5.964
		C8.797,6.042,8.668,6.177,8.479,6.367C8.174,6.621,7.986,6.777,7.916,6.834c-0.07,0.058-0.133,0.11-0.188,0.159
		S7.65,7.066,7.656,7.066c0.043-0.038,0.09-0.073,0.143-0.105C7.85,6.928,7.9,6.899,7.949,6.875s0.09-0.045,0.125-0.061
		c0.035-0.017,0.057-0.025,0.062-0.025c0.031-0.01,0.07-0.029,0.117-0.057s0.09-0.055,0.135-0.085
		c0.043-0.03,0.086-0.06,0.129-0.089c0.045-0.03,0.102-0.062,0.172-0.098c0.07-0.036,0.125-0.064,0.166-0.085
		c0.041-0.022,0.16-0.095,0.359-0.22c0.197-0.125,0.35-0.204,0.459-0.236c0.107-0.032,0.25-0.073,0.428-0.122
		c0.176-0.049,0.332-0.073,0.467-0.073c0.137,0,0.275,0.018,0.42,0.053c0.143,0.035,0.275,0.077,0.398,0.126
		c0.121,0.049,0.225,0.096,0.309,0.143c0.084,0.046,0.137,0.083,0.158,0.11c0.168,0.152,0.27,0.252,0.303,0.301
		c0.031,0.049,0.072,0.165,0.121,0.351C12.326,6.99,12.297,7.346,12.188,7.872z"/>
</g>
</svg>
