<?xml version="1.0" encoding="utf-8"?>
<!-- Generator: Adobe Illustrator 15.1.0, SVG Export Plug-In . SVG Version: 6.00 Build 0)  -->
<!DOCTYPE svg PUBLIC "-//W3C//DTD SVG 1.1//EN" "http://www.w3.org/Graphics/SVG/1.1/DTD/svg11.dtd">
<svg version="1.1" id="Layer_1" xmlns="http://www.w3.org/2000/svg" xmlns:xlink="http://www.w3.org/1999/xlink" x="0px" y="0px"
	 width="14.172px" height="14.172px" viewBox="0 0 14.172 14.172" enable-background="new 0 0 14.172 14.172" xml:space="preserve">
<g enable-background="new    ">
	<path d="M12.352,6.942c0,1.377-0.487,2.553-1.462,3.527c-0.976,0.975-2.151,1.462-3.529,1.462c-1.377,0-2.553-0.487-3.528-1.462
		s-1.462-2.15-1.462-3.527c0-1.377,0.487-2.554,1.462-3.528c0.975-0.975,2.151-1.462,3.528-1.462s2.554,0.487,3.529,1.462
		C11.865,4.388,12.352,5.565,12.352,6.942z M9.952,10.233L8.154,8.436H4.93V7.502h2.292L6.1,6.381
		C5.531,6.405,5.154,6.435,4.967,6.466c-0.345,0.061-0.559,0.172-0.64,0.335c-0.02,0.041-0.031,0.086-0.031,0.135
		c0,0.098,0.035,0.203,0.104,0.316C4.197,7.098,4.095,6.901,4.095,6.662c0-0.058,0.008-0.114,0.024-0.17
		c0.082-0.366,0.565-0.579,1.45-0.64L4.065,4.346C3.468,5.106,3.17,5.971,3.17,6.942c0,1.156,0.409,2.146,1.228,2.963
		c0.818,0.82,1.807,1.229,2.964,1.229C8.329,11.134,9.192,10.833,9.952,10.233z M4.333,8.436H4.047V7.502h0.286V8.436z M4.778,8.436
		H4.473V7.502h0.305V8.436z M11.553,6.942c0-1.158-0.409-2.146-1.229-2.964C9.506,3.16,8.519,2.75,7.361,2.75
		c-1.036,0-1.946,0.335-2.729,1.005l2.029,2.029c0.967-0.077,1.491-0.349,1.572-0.816C8.242,4.916,8.247,4.863,8.247,4.81
		c0-0.552-0.471-0.867-1.408-0.944c0.146-0.02,0.303-0.03,0.469-0.03c1.007,0,1.511,0.333,1.511,0.999
		c0,0.11-0.015,0.226-0.042,0.348C8.633,5.787,8.099,6.157,7.172,6.295l1.207,1.207h2.188v0.934H9.312l1.229,1.229
		C11.215,8.881,11.553,7.975,11.553,6.942z"/>
</g>
</svg>
