<?xml version="1.0" encoding="utf-8"?>
<!-- Generator: Adobe Illustrator 15.1.0, SVG Export Plug-In . SVG Version: 6.00 Build 0)  -->
<!DOCTYPE svg PUBLIC "-//W3C//DTD SVG 1.1//EN" "http://www.w3.org/Graphics/SVG/1.1/DTD/svg11.dtd">
<svg version="1.1" id="Layer_1" xmlns="http://www.w3.org/2000/svg" xmlns:xlink="http://www.w3.org/1999/xlink" x="0px" y="0px"
	 width="14.172px" height="14.172px" viewBox="0 0 14.172 14.172" enable-background="new 0 0 14.172 14.172" xml:space="preserve">
<g>
	<path d="M11.637,3.882c0.68,0.963,1.02,2.042,1.02,3.236c0,1.555-0.551,2.883-1.652,3.985c-1.104,1.103-2.436,1.653-4.001,1.653
		c-1.524,0-2.832-0.53-3.923-1.591S1.416,8.812,1.365,7.288c0.947,1.247,2.198,1.869,3.753,1.869c-0.031,0,0.041,0,0.216,0
		c0.01,0.237,0.056,0.459,0.139,0.665c0.289,0.721,0.973,1.086,2.055,1.097l0.015-0.819c-0.618,0-1.03-0.144-1.235-0.433
		c-0.114-0.154-0.165-0.36-0.155-0.617c0.319-0.072,0.633-0.181,0.942-0.324L6.508,7.998l0.85-0.679l0.665,0.834
		C9.206,7.206,9.799,5.98,9.799,4.477c0-0.968-0.273-1.848-0.819-2.641C10.07,2.237,10.957,2.919,11.637,3.882z M10.084,9.18
		c0.139-0.139,0.209-0.306,0.209-0.502c0-0.205-0.07-0.378-0.209-0.517c-0.139-0.14-0.307-0.209-0.502-0.209
		c-0.207,0-0.379,0.069-0.518,0.209C8.926,8.3,8.855,8.473,8.855,8.678c0,0.196,0.07,0.363,0.209,0.502
		c0.139,0.14,0.311,0.209,0.518,0.209C9.777,9.389,9.945,9.319,10.084,9.18z"/>
</g>
</svg>
