<?xml version="1.0" encoding="utf-8"?>
<!-- Generator: Adobe Illustrator 15.1.0, SVG Export Plug-In . SVG Version: 6.00 Build 0)  -->
<!DOCTYPE svg PUBLIC "-//W3C//DTD SVG 1.1//EN" "http://www.w3.org/Graphics/SVG/1.1/DTD/svg11.dtd">
<svg version="1.1" id="Layer_1" xmlns="http://www.w3.org/2000/svg" xmlns:xlink="http://www.w3.org/1999/xlink" x="0px" y="0px"
	 width="14.172px" height="14.172px" viewBox="0 0 14.172 14.172" enable-background="new 0 0 14.172 14.172" xml:space="preserve">
<g enable-background="new    ">
	<path d="M11.891,9.827l0.009,1.527l-9.167,0.051L2.715,8.151C2.708,6.916,2.803,6.039,3,5.524c0.196-0.512,0.486-0.9,0.867-1.161
		c0.381-0.26,0.827-0.389,1.337-0.392c0.859-0.005,1.582,0.363,2.169,1.104c0.586,0.742,0.883,1.852,0.892,3.329l0.008,1.441
		L11.891,9.827z M7.358,9.852L7.352,8.835c-0.008-1.35-0.217-2.235-0.626-2.657c-0.41-0.422-0.897-0.631-1.462-0.627
		C4.77,5.554,4.374,5.727,4.077,6.069C3.778,6.415,3.632,7.096,3.638,8.114l0.009,1.76L7.358,9.852z"/>
</g>
</svg>
