<?xml version="1.0" encoding="utf-8"?>
<!-- Generator: Adobe Illustrator 15.1.0, SVG Export Plug-In . SVG Version: 6.00 Build 0)  -->
<!DOCTYPE svg PUBLIC "-//W3C//DTD SVG 1.1//EN" "http://www.w3.org/Graphics/SVG/1.1/DTD/svg11.dtd">
<svg version="1.1" id="Layer_1" xmlns="http://www.w3.org/2000/svg" xmlns:xlink="http://www.w3.org/1999/xlink" x="0px" y="0px"
	 width="14.172px" height="14.172px" viewBox="0 0 14.172 14.172" enable-background="new 0 0 14.172 14.172" xml:space="preserve">
<g enable-background="new    ">
	<path d="M3.253,6.417h0.325c0.393,0,0.657-0.078,0.791-0.232c0.134-0.155,0.2-0.337,0.2-0.548c0-0.245-0.042-0.506-0.127-0.786
		L4.296,4.38C4.2,4.071,4.151,3.779,4.151,3.504c0-0.404,0.189-0.729,0.568-0.976c0.379-0.247,0.834-0.37,1.364-0.37h0.093v0.715
		H6.058c-0.223,0-0.423,0.067-0.603,0.2c-0.18,0.133-0.27,0.333-0.27,0.599c0,0.09,0.012,0.167,0.035,0.232l0.068,0.219l0.128,0.554
		c0.097,0.408,0.146,0.685,0.146,0.831c0,0.24-0.099,0.482-0.295,0.725C5.07,6.476,4.747,6.654,4.296,6.771
		C4.747,6.892,5.07,7.071,5.267,7.315c0.196,0.242,0.295,0.484,0.295,0.725c0,0.142-0.049,0.419-0.146,0.831L5.288,9.424L5.22,9.643
		c-0.023,0.073-0.035,0.15-0.035,0.232c0,0.262,0.09,0.46,0.27,0.596c0.18,0.135,0.38,0.203,0.603,0.203h0.119v0.708H6.083
		c-0.53,0-0.985-0.122-1.364-0.366c-0.379-0.246-0.568-0.572-0.568-0.98c0-0.274,0.049-0.564,0.145-0.869l0.146-0.471
		c0.085-0.283,0.127-0.547,0.127-0.793c0-0.205-0.066-0.387-0.201-0.543c-0.133-0.156-0.397-0.235-0.79-0.235H3.253V6.417z"/>
	<path d="M11.92,7.125h-0.326c-0.393,0-0.653,0.079-0.788,0.235c-0.134,0.157-0.203,0.34-0.203,0.551
		c0,0.24,0.044,0.502,0.129,0.785l0.153,0.471c0.098,0.305,0.146,0.595,0.146,0.869c0,0.404-0.19,0.729-0.573,0.977
		c-0.381,0.247-0.836,0.37-1.367,0.37H8.999v-0.708h0.118c0.224,0,0.425-0.066,0.604-0.199c0.18-0.134,0.267-0.336,0.267-0.605
		c0-0.086-0.008-0.161-0.024-0.227L9.895,9.424L9.756,8.871C9.661,8.458,9.612,8.181,9.612,8.04c0-0.24,0.102-0.482,0.299-0.725
		c0.195-0.243,0.52-0.424,0.975-0.545c-0.457-0.115-0.779-0.294-0.975-0.537C9.711,5.99,9.612,5.747,9.612,5.501
		c0-0.142,0.049-0.417,0.146-0.824l0.138-0.554l0.067-0.219C9.98,3.832,9.988,3.752,9.988,3.667c0-0.258-0.087-0.454-0.265-0.589
		C9.547,2.941,9.344,2.874,9.117,2.874H8.999V2.159h0.094c0.529,0,0.986,0.124,1.367,0.37c0.383,0.247,0.572,0.575,0.572,0.982
		c0,0.271-0.049,0.561-0.146,0.87l-0.152,0.47c-0.086,0.28-0.13,0.542-0.13,0.786c0,0.21,0.069,0.393,0.203,0.548
		c0.135,0.154,0.396,0.232,0.788,0.232h0.326V7.125z"/>
</g>
</svg>
