<?xml version="1.0" encoding="utf-8"?>
<!-- Generator: Adobe Illustrator 15.1.0, SVG Export Plug-In . SVG Version: 6.00 Build 0)  -->
<!DOCTYPE svg PUBLIC "-//W3C//DTD SVG 1.1//EN" "http://www.w3.org/Graphics/SVG/1.1/DTD/svg11.dtd">
<svg version="1.1" id="Layer_1" xmlns="http://www.w3.org/2000/svg" xmlns:xlink="http://www.w3.org/1999/xlink" x="0px" y="0px"
	 width="14.172px" height="14.172px" viewBox="0 0 14.172 14.172" enable-background="new 0 0 14.172 14.172" xml:space="preserve">
<g enable-background="new    ">
	<path d="M11.578,9.103c-0.359,0.93-0.938,1.669-1.735,2.218c-0.798,0.55-1.693,0.823-2.689,0.823c-0.988,0-1.888-0.273-2.701-0.823
		c-0.819-0.556-1.394-1.295-1.723-2.218c0.505-0.176,0.907-0.431,1.208-0.769c0.344-0.381,0.516-0.819,0.516-1.317
		c0-0.49-0.172-0.925-0.516-1.307C3.622,5.375,3.22,5.126,2.729,4.965c0.352-0.937,0.926-1.68,1.723-2.229
		C5.25,2.188,6.151,1.913,7.153,1.913c0.988,0,1.888,0.275,2.701,0.823c0.819,0.564,1.395,1.307,1.724,2.229
		c-0.491,0.139-0.896,0.387-1.219,0.746c-0.336,0.388-0.505,0.828-0.505,1.318c0,0.498,0.172,0.937,0.516,1.317
		C10.67,8.691,11.073,8.943,11.578,9.103z M10.436,4.57C9.66,3.362,8.566,2.758,7.153,2.758c-0.695,0-1.331,0.16-1.904,0.478
		c-0.575,0.319-1.042,0.775-1.4,1.367c0.388,0.176,0.731,0.517,1.032,1.021C5.174,6.114,5.32,6.578,5.32,7.018
		c0,0.454-0.146,0.922-0.438,1.405C4.588,8.927,4.244,9.276,3.849,9.465c0.322,0.571,0.787,1.024,1.394,1.362
		c0.593,0.321,1.226,0.481,1.899,0.481c0.688,0,1.319-0.158,1.895-0.478c0.574-0.317,1.037-0.773,1.389-1.366
		c-0.41-0.227-0.752-0.572-1.027-1.037C9.125,7.963,8.987,7.497,8.987,7.029c0-0.93,0.432-1.705,1.295-2.327
		C10.319,4.672,10.37,4.628,10.436,4.57z"/>
</g>
</svg>
