<?xml version="1.0" encoding="utf-8"?>
<!-- Generator: Adobe Illustrator 15.1.0, SVG Export Plug-In . SVG Version: 6.00 Build 0)  -->
<!DOCTYPE svg PUBLIC "-//W3C//DTD SVG 1.1//EN" "http://www.w3.org/Graphics/SVG/1.1/DTD/svg11.dtd">
<svg version="1.1" id="Layer_1" xmlns="http://www.w3.org/2000/svg" xmlns:xlink="http://www.w3.org/1999/xlink" x="0px" y="0px"
	 width="14.172px" height="14.172px" viewBox="0 0 14.172 14.172" enable-background="new 0 0 14.172 14.172" xml:space="preserve">
<g enable-background="new    ">
	<path d="M1.613,2.241H12.42v8.104H1.613V2.241z M5.475,6.296L1.881,2.701v7.183L5.475,6.296z M2.073,2.509l4.755,4.758
		C6.879,7.318,6.943,7.344,7.02,7.344s0.141-0.026,0.191-0.077l4.756-4.758H2.073z M8.373,6.489L7.403,7.448
		C7.298,7.558,7.169,7.612,7.02,7.612c-0.15,0-0.279-0.054-0.389-0.164L5.667,6.489l-3.594,3.587h9.888L8.373,6.489z M8.565,6.296
		l3.589,3.588V2.701L8.565,6.296z"/>
</g>
</svg>
