<?xml version="1.0" encoding="utf-8"?>
<!-- Generator: Adobe Illustrator 15.1.0, SVG Export Plug-In . SVG Version: 6.00 Build 0)  -->
<!DOCTYPE svg PUBLIC "-//W3C//DTD SVG 1.1//EN" "http://www.w3.org/Graphics/SVG/1.1/DTD/svg11.dtd">
<svg version="1.1" id="Layer_1" xmlns="http://www.w3.org/2000/svg" xmlns:xlink="http://www.w3.org/1999/xlink" x="0px" y="0px"
	 width="14.172px" height="14.172px" viewBox="0 0 14.172 14.172" enable-background="new 0 0 14.172 14.172" xml:space="preserve">
<g enable-background="new    ">
	<path d="M8.856,8.05c0,0.562-0.246,1.123-0.741,1.687c-0.247,0.269-0.797,0.751-1.652,1.448c-0.752,0.618-1.292,1.146-1.618,1.584
		V0.701h0.64v6.522C5.98,6.775,6.57,6.55,7.255,6.55c0.46,0,0.833,0.123,1.113,0.369C8.694,7.179,8.856,7.556,8.856,8.05z
		 M7.946,8.185c0-0.618-0.297-0.927-0.893-0.927c-0.483,0-1.006,0.252-1.567,0.759v3.235c0.449-0.36,0.905-0.786,1.366-1.28
		C7.582,9.186,7.946,8.589,7.946,8.185z"/>
</g>
</svg>
