<?xml version="1.0" encoding="utf-8"?>
<!-- Generator: Adobe Illustrator 15.1.0, SVG Export Plug-In . SVG Version: 6.00 Build 0)  -->
<!DOCTYPE svg PUBLIC "-//W3C//DTD SVG 1.1//EN" "http://www.w3.org/Graphics/SVG/1.1/DTD/svg11.dtd">
<svg version="1.1" id="Layer_1" xmlns="http://www.w3.org/2000/svg" xmlns:xlink="http://www.w3.org/1999/xlink" x="0px" y="0px"
	 width="14.172px" height="14.172px" viewBox="0 0 14.172 14.172" enable-background="new 0 0 14.172 14.172" xml:space="preserve">
<g enable-background="new    ">
	<path d="M10.367,10.483l-0.878,1.646L7.087,8.184l-2.131,3.944l-0.904-1.813l2.06-3.705C5.79,6.119,5.516,5.527,5.292,4.834
		c-0.176-0.542-0.264-0.919-0.264-1.13c0-0.611,0.243-1.201,0.729-1.768C6.287,1.312,6.907,1,7.617,1
		c0.397,0,0.759,0.112,1.086,0.335c0.463,0.317,0.695,0.798,0.695,1.439c0,0.964-0.454,2.23-1.361,3.802L10.367,10.483z
		 M8.037,2.685c0-0.391-0.205-0.652-0.614-0.781C7.187,2.063,6.982,2.22,6.81,2.375C6.396,2.75,6.186,3.087,6.177,3.389
		C6.168,3.65,6.464,4.12,7.068,4.795C7.713,3.698,8.037,2.994,8.037,2.685z"/>
</g>
</svg>
