<?xml version="1.0" encoding="utf-8"?>
<!-- Generator: Adobe Illustrator 15.1.0, SVG Export Plug-In . SVG Version: 6.00 Build 0)  -->
<!DOCTYPE svg PUBLIC "-//W3C//DTD SVG 1.1//EN" "http://www.w3.org/Graphics/SVG/1.1/DTD/svg11.dtd">
<svg version="1.1" id="Layer_1" xmlns="http://www.w3.org/2000/svg" xmlns:xlink="http://www.w3.org/1999/xlink" x="0px" y="0px"
	 width="14.172px" height="14.172px" viewBox="0 0 14.172 14.172" enable-background="new 0 0 14.172 14.172" xml:space="preserve">
<g enable-background="new    ">
	<path d="M2.184,7.333c0-1.337,0.472-2.478,1.415-3.421C4.542,2.969,5.682,2.498,7.02,2.498s2.477,0.472,3.42,1.415
		c0.943,0.943,1.416,2.083,1.416,3.421s-0.473,2.478-1.416,3.421s-2.082,1.415-3.42,1.415c-1.337,0-2.478-0.472-3.421-1.415
		C2.655,9.811,2.184,8.671,2.184,7.333z M9.385,7.32c0-0.941-0.221-1.706-0.657-2.293C8.29,4.438,7.721,4.145,7.02,4.145
		S5.75,4.439,5.314,5.029C4.878,5.62,4.66,6.388,4.66,7.333c0,0.937,0.219,1.698,0.657,2.287c0.438,0.588,1.005,0.883,1.703,0.883
		c0.701,0,1.27-0.295,1.708-0.883C9.167,9.032,9.385,8.266,9.385,7.32z M8.092,7.32c0,1.769-0.36,2.655-1.076,2.655
		c-0.708,0-1.062-0.886-1.062-2.655c0-1.764,0.358-2.646,1.075-2.646C7.737,4.673,8.092,5.556,8.092,7.32z"/>
</g>
</svg>
