<?xml version="1.0" encoding="utf-8"?>
<!-- Generator: Adobe Illustrator 15.1.0, SVG Export Plug-In . SVG Version: 6.00 Build 0)  -->
<!DOCTYPE svg PUBLIC "-//W3C//DTD SVG 1.1//EN" "http://www.w3.org/Graphics/SVG/1.1/DTD/svg11.dtd">
<svg version="1.1" id="Layer_1" xmlns="http://www.w3.org/2000/svg" xmlns:xlink="http://www.w3.org/1999/xlink" x="0px" y="0px"
	 width="14.172px" height="14.172px" viewBox="0 0 14.172 14.172" enable-background="new 0 0 14.172 14.172" xml:space="preserve">
<path d="M7.494,2L7.458,2.062C6.75,2.086,6.232,2.43,5.904,3.092c-0.144,0.287-0.215,0.57-0.215,0.851
	c0,0.459,0.153,0.866,0.461,1.218c0.334,0.376,0.771,0.582,1.308,0.618v0.054c-0.496,0.075-0.743,0.35-0.743,0.824
	c0,0.055,0.015,0.125,0.045,0.211l0.058,0.166L6.75,7.073C6.583,6.709,6.257,6.44,5.77,6.267C5.561,6.192,5.371,6.155,5.201,6.155
	c-0.707,0-1.257,0.301-1.647,0.904c-0.18,0.28-0.269,0.587-0.269,0.918s0.079,0.659,0.237,0.985l-0.01,0.035
	C3.373,8.895,3.25,8.586,3.146,8.076C3.057,7.649,3.012,7.301,3.012,7.033c0-0.594,0.223-1.111,0.667-1.55
	c0.233-0.227,0.521-0.419,0.864-0.578V4.57c0-0.439,0.119-0.858,0.358-1.258c0.229-0.388,0.535-0.7,0.918-0.936
	C6.222,2.125,6.671,2,7.167,2H7.494z M11.528,9.164c0,0.316-0.358,0.703-1.075,1.16c-0.298,0.188-0.573,0.309-0.823,0.361
	c-0.18,0.039-0.358,0.061-0.538,0.062c-0.247,0.008-0.486-0.031-0.716-0.111c-0.062-0.023-0.338-0.158-0.824-0.402
	c0,0.068-0.306,0.193-0.918,0.375c-0.227,0.07-0.441,0.104-0.645,0.104c-0.325,0-0.588-0.033-0.788-0.104
	c-0.158-0.053-0.337-0.141-0.537-0.264c-0.177-0.109-0.327-0.217-0.452-0.322C4.164,9.982,4.048,9.835,3.864,9.582
	C3.681,9.33,3.589,9.188,3.589,9.155l0.036-0.022C3.78,9.377,3.997,9.576,4.276,9.73s0.563,0.23,0.854,0.23
	c0.725,0,1.283-0.294,1.674-0.882c0.186-0.278,0.278-0.593,0.278-0.944c0-0.177-0.064-0.418-0.192-0.727
	c-0.03-0.077-0.045-0.125-0.045-0.143l0.062-0.018c0.221,0.256,0.454,0.385,0.698,0.385c0.332,0,0.56-0.139,0.686-0.416l0.067,0.031
	L8.219,7.61C8.127,7.85,8.08,8.027,8.08,8.143c0,0.717,0.325,1.258,0.977,1.621c0.292,0.162,0.6,0.242,0.922,0.242
	c0.373,0,0.745-0.139,1.115-0.416c0.182-0.138,0.314-0.29,0.398-0.457L11.528,9.164z M6.826,8.649L6.441,9.254
	C5.928,9.09,5.517,8.746,5.206,8.224C4.922,7.74,4.78,7.264,4.78,6.795V6.428L5.47,6.383c0.006,0.499,0.045,0.81,0.116,0.936
	c0.197,0.454,0.443,0.813,0.739,1.079C6.489,8.545,6.656,8.629,6.826,8.649z M9.209,4.431L8.918,5.054
	C8.473,4.785,8.045,4.651,7.633,4.651c-0.475,0-0.927,0.134-1.357,0.403L5.98,4.44c0-0.021,0.058-0.067,0.175-0.139
	C6.588,4.039,7.08,3.907,7.633,3.907c0.176,0,0.351,0.018,0.523,0.054c0.141,0.03,0.328,0.093,0.564,0.188
	C8.992,4.263,9.155,4.356,9.209,4.431z M12.182,7.346c0,0.559-0.172,1.109-0.515,1.652l-0.036-0.035
	c0.141-0.385,0.211-0.682,0.211-0.891c0-0.693-0.327-1.232-0.98-1.617c-0.293-0.176-0.596-0.264-0.909-0.264
	c-0.642,0-1.149,0.288-1.522,0.864L8.385,7.023C8.433,6.723,8.456,6.591,8.456,6.63c0-0.496-0.25-0.761-0.752-0.797V5.779
	L7.981,5.77c0.152-0.021,0.336-0.097,0.551-0.229c0.636-0.385,0.954-0.927,0.954-1.625c0-0.633-0.276-1.134-0.828-1.504
	C8.393,2.23,8.08,2.116,7.722,2.072L7.687,2c0.247,0,0.576,0.067,0.984,0.202c0.146,0.047,0.281,0.097,0.403,0.147
	c0.809,0.346,1.299,0.881,1.469,1.603c0.077,0.316,0.116,0.66,0.116,1.03c0.729,0.424,1.189,0.919,1.384,1.487
	C12.136,6.737,12.182,7.029,12.182,7.346z M10.391,6.706c0,0.486-0.137,0.97-0.412,1.45C9.675,8.686,9.26,9.035,8.734,9.209
	l-0.35-0.551l0.17-0.094c0.212-0.117,0.435-0.333,0.667-0.649C9.359,7.73,9.492,7.494,9.621,7.207
	c0.038-0.143,0.058-0.33,0.058-0.56c0-0.107,0-0.195,0-0.264l0.703,0.045C10.388,6.491,10.391,6.583,10.391,6.706z"/>
</svg>
