<?xml version="1.0" encoding="utf-8"?>
<!-- Generator: Adobe Illustrator 15.1.0, SVG Export Plug-In . SVG Version: 6.00 Build 0)  -->
<!DOCTYPE svg PUBLIC "-//W3C//DTD SVG 1.1//EN" "http://www.w3.org/Graphics/SVG/1.1/DTD/svg11.dtd">
<svg version="1.1" id="Layer_1" xmlns="http://www.w3.org/2000/svg" xmlns:xlink="http://www.w3.org/1999/xlink" x="0px" y="0px"
	 width="14.172px" height="14.172px" viewBox="0 0 14.172 14.172" enable-background="new 0 0 14.172 14.172" xml:space="preserve">
<g enable-background="new    ">
	<path d="M12.408,9.746l-1.178-0.22c-0.401,0.367-0.832,0.668-1.29,0.904c-0.191-0.037-0.46-0.107-0.805-0.21
		c-0.254,0.368-0.495,0.554-0.727,0.554c-0.21,0-0.404-0.166-0.583-0.498c-0.118,0.119-0.241,0.176-0.372,0.176
		c-0.406,0-0.689-0.33-0.852-0.993C6.519,9.481,6.438,9.492,6.359,9.492c-0.807,0-1.211-0.464-1.211-1.392
		c0-0.854,0.397-1.282,1.191-1.282c0.092,0,0.218,0.011,0.378,0.034c-0.198-0.191-0.34-0.339-0.423-0.442l-1.97,0.011
		c-0.816,0-1.376-0.147-1.682-0.441C2.337,5.687,2.184,5.152,2.184,4.378V4.18l6.035-0.663c1.107,0.493,2.375,1.148,3.804,1.966
		c0.043,0.029,0.177,0.099,0.397,0.209c0.127,0.538,0.19,1.223,0.19,2.054C12.611,8.44,12.543,9.106,12.408,9.746z"/>
</g>
</svg>
