<?xml version="1.0" encoding="utf-8"?>
<!-- Generator: Adobe Illustrator 15.1.0, SVG Export Plug-In . SVG Version: 6.00 Build 0)  -->
<!DOCTYPE svg PUBLIC "-//W3C//DTD SVG 1.1//EN" "http://www.w3.org/Graphics/SVG/1.1/DTD/svg11.dtd">
<svg version="1.1" id="Layer_1" xmlns="http://www.w3.org/2000/svg" xmlns:xlink="http://www.w3.org/1999/xlink" x="0px" y="0px"
	 width="14.172px" height="14.172px" viewBox="0 0 14.172 14.172" enable-background="new 0 0 14.172 14.172" xml:space="preserve">
<path d="M7.837,10.53c-0.415,0.121-0.823,0.184-1.227,0.184c-1.2,0-2.228-0.428-3.083-1.283S2.245,7.548,2.245,6.348
	c0-0.776,0.194-1.499,0.584-2.169c0.39-0.67,0.92-1.201,1.592-1.592C5.093,2.196,5.822,2,6.61,2C7.02,2,7.429,2.058,7.837,2.175
	v2.082C7.473,4.03,7.064,3.917,6.61,3.917c-0.675,0-1.245,0.239-1.713,0.716c-0.467,0.478-0.7,1.049-0.7,1.715
	c0,0.669,0.234,1.238,0.705,1.708c0.47,0.471,1.039,0.705,1.708,0.705c0.441,0,0.851-0.109,1.227-0.33V10.53z M11.562,4.485
	C11.56,4.5,11.554,4.512,11.545,4.521L9.929,6.137H7.976c-0.029-0.009-0.044-0.04-0.044-0.094V4.53c0-0.039,0.015-0.068,0.044-0.089
	h3.528C11.543,4.452,11.562,4.467,11.562,4.485z M11.562,8.202c0,0.018-0.02,0.032-0.059,0.045H7.976
	C7.946,8.24,7.932,8.209,7.932,8.152V6.639c0-0.06,0.015-0.089,0.044-0.089h1.953l1.616,1.612
	C11.557,8.173,11.562,8.187,11.562,8.202z"/>
</svg>
