<?xml version="1.0" encoding="utf-8"?>
<!-- Generator: Adobe Illustrator 15.1.0, SVG Export Plug-In . SVG Version: 6.00 Build 0)  -->
<!DOCTYPE svg PUBLIC "-//W3C//DTD SVG 1.1//EN" "http://www.w3.org/Graphics/SVG/1.1/DTD/svg11.dtd">
<svg version="1.1" id="Layer_1" xmlns="http://www.w3.org/2000/svg" xmlns:xlink="http://www.w3.org/1999/xlink" x="0px" y="0px"
	 width="14.172px" height="14.172px" viewBox="0 0 14.172 14.172" enable-background="new 0 0 14.172 14.172" xml:space="preserve">
<g enable-background="new    ">
	<path d="M12.278,6.002c0,0.312-0.133,0.584-0.397,0.818c-0.1,0.084-0.285,0.125-0.559,0.125c-0.257,0-0.458-0.06-0.602-0.182
		c-0.152-0.129-0.231-0.193-0.238-0.193c-0.189-0.03-0.501-0.045-0.934-0.045h-1.33c-0.167,0-0.266,0.053-0.295,0.159
		c0.029,0.068,0.045,0.133,0.045,0.192c0,0.046-0.018,0.09-0.052,0.132C7.882,7.05,7.866,7.083,7.866,7.106
		c0,0.03,0.004,0.074,0.012,0.13c0.007,0.058,0.012,0.097,0.012,0.12c0,0.045-0.016,0.112-0.046,0.198
		c-0.03,0.088-0.046,0.149-0.046,0.188L7.775,9.357c0,0.068,0.068,0.159,0.205,0.272c0.189,0.145,0.288,0.225,0.295,0.238
		c0.083,0.114,0.216,0.285,0.398,0.513c-0.022,0.046-0.072,0.109-0.148,0.193v0.113c0,0.03-0.049,0.102-0.147,0.216
		c-0.022,0.046-0.068,0.106-0.137,0.182c-0.234,0.145-0.53,0.217-0.887,0.217c-0.129,0-0.276-0.027-0.443-0.08
		c-0.061-0.007-0.152-0.022-0.273-0.045C6.562,11.1,6.441,11,6.274,10.88c-0.023-0.159-0.034-0.235-0.034-0.228
		c0,0.031,0.027-0.03,0.08-0.183c0-0.082,0.016-0.203,0.045-0.362c0.061-0.159,0.228-0.309,0.5-0.444
		c0.258-0.128,0.398-0.231,0.42-0.307c0.008-0.212,0.023-0.485,0.046-0.819C7.347,8.319,7.354,8.129,7.354,7.97V6.821
		c0-0.037-0.036-0.087-0.108-0.148c-0.072-0.059-0.123-0.09-0.153-0.09H6.376c-0.023,0-0.055,0.009-0.097,0.029
		C6.238,6.629,6.206,6.639,6.183,6.639c-0.015,0-0.038-0.01-0.067-0.028c-0.031-0.02-0.057-0.029-0.08-0.029H5.205
		c-0.053,0-0.129-0.008-0.227-0.028C4.879,6.535,4.803,6.526,4.75,6.526c-0.281,0-0.455,0.056-0.523,0.17
		c0,0.038-0.015,0.1-0.045,0.182C4.16,6.917,4.093,6.971,3.983,7.043C3.874,7.115,3.799,7.151,3.761,7.151
		c-0.242,0-0.527-0.064-0.853-0.193C2.53,6.799,2.34,6.617,2.34,6.412C2.355,6.389,2.401,6.31,2.477,6.173
		c0.038-0.076,0.094-0.189,0.17-0.341c0.114-0.228,0.322-0.394,0.625-0.501C3.446,5.263,3.583,5.23,3.682,5.23
		c0.061,0,0.216,0.105,0.466,0.317c0.25,0.213,0.39,0.318,0.42,0.318c0.068,0,0.167-0.009,0.296-0.027
		C4.993,5.819,5.092,5.81,5.16,5.81c0.068,0,0.144,0.007,0.228,0.023c0.099,0.022,0.333,0.033,0.705,0.033
		c0.068,0,0.17,0.01,0.307,0.029c0.137,0.019,0.239,0.029,0.307,0.029c0.22,0,0.387-0.012,0.5-0.035
		c0.061-0.015,0.103-0.049,0.125-0.102c0.068-0.144,0.133-0.546,0.193-1.206C7.57,4.059,7.593,3.633,7.593,3.308
		c0-0.16-0.083-0.258-0.25-0.296C7.131,2.966,7.013,2.94,6.991,2.933c-0.145-0.114-0.262-0.25-0.353-0.41
		C6.63,2.5,6.626,2.478,6.626,2.455c0-0.219,0.015-0.364,0.045-0.432c0.303-0.561,0.656-0.841,1.057-0.841
		c0.046,0.007,0.175,0.042,0.387,0.102c0.175,0.054,0.3,0.121,0.375,0.205c0.061,0.068,0.121,0.18,0.183,0.335
		C8.734,1.98,8.764,2.1,8.764,2.182c0,0.167-0.099,0.351-0.296,0.552c-0.197,0.2-0.299,0.342-0.307,0.426
		c-0.038,0.53-0.095,1.045-0.171,1.546c-0.03,0.175-0.045,0.452-0.045,0.83c0,0.197,0.117,0.296,0.352,0.296
		c0.122,0,0.306-0.01,0.552-0.029c0.245-0.019,0.435-0.029,0.562-0.029c0.062,0,0.152,0.01,0.273,0.029s0.212,0.029,0.273,0.029
		c0.188,0,0.317-0.02,0.387-0.058c0.066-0.037,0.147-0.14,0.238-0.307c0.106-0.196,0.182-0.31,0.228-0.341
		c0.189-0.128,0.38-0.193,0.568-0.193c0.099,0,0.228,0.039,0.386,0.114c0.175,0.083,0.28,0.167,0.318,0.25
		c0.016,0.091,0.034,0.192,0.058,0.307c0,0.03,0.021,0.093,0.067,0.188C12.254,5.887,12.278,5.957,12.278,6.002z"/>
</g>
</svg>
