<?xml version="1.0" encoding="utf-8"?>
<!-- Generator: Adobe Illustrator 15.1.0, SVG Export Plug-In . SVG Version: 6.00 Build 0)  -->
<!DOCTYPE svg PUBLIC "-//W3C//DTD SVG 1.1//EN" "http://www.w3.org/Graphics/SVG/1.1/DTD/svg11.dtd">
<svg version="1.1" id="Layer_1" xmlns="http://www.w3.org/2000/svg" xmlns:xlink="http://www.w3.org/1999/xlink" x="0px" y="0px"
	 width="14.172px" height="14.172px" viewBox="0 0 14.172 14.172" enable-background="new 0 0 14.172 14.172" xml:space="preserve">
<g enable-background="new    ">
	<path d="M8.461,11.708c-0.162-0.49-0.242-0.912-0.242-1.264c-0.664,0.658-1.23,1.076-1.699,1.252
		c-0.467,0.177-0.918,0.265-1.355,0.265c-0.72,0-1.34-0.222-1.861-0.667c-0.521-0.443-0.781-1.053-0.781-1.826
		c0-0.88,0.366-1.561,1.097-2.039c0.731-0.479,1.993-0.894,3.785-1.246l0.814-0.15V5c0-0.559-0.188-0.951-0.562-1.177
		c-0.375-0.227-0.826-0.34-1.355-0.34c-0.627,0-1.119,0.139-1.476,0.419C4.47,4.181,4.292,4.505,4.292,4.873v0.126H2.649V4.884
		c0-0.406,0.17-0.823,0.511-1.252C3.501,3.204,3.953,2.88,4.515,2.662c0.563-0.218,1.178-0.327,1.844-0.327s1.271,0.103,1.815,0.31
		c0.541,0.206,0.94,0.486,1.188,0.838c0.25,0.352,0.371,1.011,0.371,1.976v3.538c0,0.391,0.013,0.799,0.031,1.223
		c0.021,0.426,0.114,0.922,0.291,1.488H8.461z M8.219,7.112L7.758,7.216C6.221,7.591,5.238,7.95,4.808,8.291
		C4.38,8.631,4.165,9.036,4.165,9.502c0,0.236,0.063,0.459,0.189,0.666c0.127,0.207,0.316,0.368,0.569,0.482
		c0.253,0.115,0.502,0.172,0.748,0.172c0.422,0,0.836-0.123,1.246-0.373c0.41-0.248,0.729-0.58,0.959-0.993
		c0.229-0.414,0.344-0.896,0.344-1.447V7.112L8.219,7.112z"/>
</g>
</svg>
