<?xml version="1.0" encoding="utf-8"?>
<!-- Generator: Adobe Illustrator 15.1.0, SVG Export Plug-In . SVG Version: 6.00 Build 0)  -->
<!DOCTYPE svg PUBLIC "-//W3C//DTD SVG 1.1//EN" "http://www.w3.org/Graphics/SVG/1.1/DTD/svg11.dtd">
<svg version="1.1" id="Layer_1" xmlns="http://www.w3.org/2000/svg" xmlns:xlink="http://www.w3.org/1999/xlink" x="0px" y="0px"
	 width="14.172px" height="14.172px" viewBox="0 0 14.172 14.172" enable-background="new 0 0 14.172 14.172" xml:space="preserve">
<g enable-background="new    ">
	<path d="M10.139,10.821c-0.967,0.459-1.889,0.688-2.766,0.688c-0.911,0-1.648-0.182-2.215-0.543
		c-0.566-0.361-1.016-0.883-1.354-1.564C3.469,8.719,3.3,7.846,3.3,6.779c0-1.203,0.16-2.139,0.48-2.807
		C4.1,3.304,4.55,2.781,5.13,2.403s1.268-0.567,2.062-0.567c0.546,0,1.043,0.087,1.49,0.261c0.447,0.174,0.803,0.437,1.066,0.787
		c0.262,0.35,0.391,0.697,0.391,1.038v0.066H9.045V3.922c0-0.209-0.078-0.405-0.242-0.588c-0.162-0.182-0.379-0.325-0.643-0.43
		C7.895,2.799,7.594,2.748,7.258,2.748c-0.888,0-1.566,0.348-2.033,1.043c-0.466,0.695-0.7,1.653-0.7,2.874
		c0,1.215,0.24,2.174,0.721,2.877c0.481,0.705,1.154,1.057,2.021,1.057c0.513,0,1.104-0.121,1.778-0.365v-2.6H6.993V6.722h3.146
		V10.821z"/>
</g>
</svg>
