<?xml version="1.0" encoding="utf-8"?>
<!-- Generator: Adobe Illustrator 15.1.0, SVG Export Plug-In . SVG Version: 6.00 Build 0)  -->
<!DOCTYPE svg PUBLIC "-//W3C//DTD SVG 1.1//EN" "http://www.w3.org/Graphics/SVG/1.1/DTD/svg11.dtd">
<svg version="1.1" id="Layer_1" xmlns="http://www.w3.org/2000/svg" xmlns:xlink="http://www.w3.org/1999/xlink" x="0px" y="0px"
	 width="14.172px" height="14.172px" viewBox="0 0 14.172 14.172" enable-background="new 0 0 14.172 14.172" xml:space="preserve">
<g enable-background="new    ">
	<path d="M12.82,6.864c0,0.987-0.345,1.827-1.037,2.52c-0.691,0.691-1.531,1.037-2.52,1.037c-0.846,0-1.598-0.264-2.257-0.789
		c-0.648,0.525-1.4,0.789-2.256,0.789c-0.988,0-1.829-0.346-2.52-1.037c-0.692-0.692-1.038-1.532-1.038-2.52
		c0-1,0.345-1.843,1.038-2.53c0.691-0.685,1.532-1.029,2.52-1.029c0.856,0,1.608,0.264,2.256,0.791
		c0.66-0.527,1.412-0.791,2.257-0.791c0.988,0,1.828,0.344,2.52,1.029C12.475,5.021,12.82,5.864,12.82,6.864z M6.446,9.071
		C5.94,8.421,5.688,7.686,5.688,6.864c0-0.824,0.252-1.56,0.758-2.209C5.952,4.271,5.386,4.079,4.75,4.079
		c-0.769,0-1.422,0.272-1.96,0.815C2.251,5.438,1.982,6.095,1.982,6.864s0.269,1.421,0.807,1.959
		c0.539,0.539,1.192,0.809,1.96,0.809C5.386,9.631,5.952,9.444,6.446,9.071z M7.533,6.864c0-0.604-0.176-1.148-0.527-1.631
		C6.654,5.715,6.479,6.26,6.479,6.864c0,0.604,0.175,1.146,0.527,1.631C7.357,8.01,7.533,7.467,7.533,6.864z M12.031,6.864
		c0-0.769-0.27-1.426-0.808-1.969s-1.191-0.815-1.96-0.815c-0.637,0-1.202,0.192-1.697,0.576C8.071,5.304,8.325,6.04,8.325,6.864
		c0,0.822-0.254,1.558-0.758,2.207c0.495,0.373,1.06,0.561,1.697,0.561c0.769,0,1.422-0.27,1.96-0.809
		C11.761,8.285,12.031,7.632,12.031,6.864z"/>
</g>
</svg>
